<?xml version="1.0" encoding="UTF-8"?>
<svg width="12px" height="20px" viewBox="0 0 12 20" version="1.1" xmlns="http://www.w3.org/2000/svg" xmlns:xlink="http://www.w3.org/1999/xlink">
    <title>access</title>
    <g id="Page-1" stroke="none" stroke-width="1" fill="none" fill-rule="evenodd">
        <g id="Desktop-HD-Copy" transform="translate(-905.000000, -4040.000000)" fill="#CCA98C" fill-rule="nonzero">
            <g id="access" transform="translate(905.000000, 4040.000000)">
                <path d="M5.99946108,3.41003481 C6.91872367,3.40933378 7.78593177,3.84784042 8.34594864,4.59675831 C8.90611224,5.34567621 9.09540132,6.31975577 8.85794624,7.23227681 C8.62064524,8.14479785 7.98384157,8.89194401 7.13479202,9.25390655 C6.28574247,9.615854 5.32110186,9.55135516 4.52491385,9.07941286 C3.72861579,8.60745171 3.19137965,7.78182128 3.07116641,6.84528752 C2.95094217,5.90890454 3.26132123,4.96826185 3.91115503,4.30016541 C4.46412858,3.72955233 5.21570893,3.40928221 5.9994244,3.41003481 L5.99946108,3.41003481 Z M7.48974572,4.91423889 C7.02631764,4.43771646 6.37360048,4.20991604 5.72359793,4.29771137 C5.07359539,4.3855067 4.50040899,4.77894587 4.17241797,5.36218731 C3.84441229,5.94546645 3.79912231,6.65227727 4.04975425,7.27468546 C4.30037886,7.89728213 4.81853936,8.3644935 5.45163062,8.53914175 C6.08486861,8.71378245 6.76091675,8.57595472 7.2812416,8.16615296 C7.80156646,7.75635347 8.10677675,7.12109075 8.10721869,6.44741522 C8.10793343,5.87239164 7.88582211,5.32062684 7.48975306,4.91422004 L7.48974572,4.91423889 Z M3.39545235,14.8631195 L4.91438713,17.056608 C5.03647492,17.2350786 5.19868759,17.3805648 5.38713293,17.4808452 C5.77132373,17.6816964 6.22583761,17.6816964 6.61002841,17.4808452 C6.79846275,17.3805648 6.96067542,17.2350824 7.08292094,17.056608 L8.60185573,14.8631195 L8.60171244,14.8631195 C9.17416516,15.0756038 9.6968011,15.4094183 10.1354308,15.8430797 C10.5042878,16.1945702 10.7223737,16.6819794 10.7419996,17.1985356 C10.7419996,17.9296607 10.2414474,18.6077467 9.43197982,19.115595 C8.38505715,19.719758 7.19968934,20.0247234 5.9993178,19.9983734 C4.79850605,20.0251735 3.61269803,19.7203612 2.56537184,19.1160474 C1.75605098,18.6083122 1.25535203,17.9300753 1.25535203,17.1989879 C1.2749838,16.6824317 1.4932253,16.1948642 1.86221428,15.8435321 C2.30084402,15.4101723 2.82314981,15.0763314 3.39549248,14.8640242 L3.39545235,14.8631195 Z M6.39520732,16.5541503 L10.322222,10.8864699 C11.3765915,9.36269887 11.9993745,7.6156887 11.9993745,5.94143292 L11.9995178,5.94143292 C12.0192927,4.40646599 11.4300732,2.92925022 10.3675232,1.8502234 C9.2062567,0.665118407 7.6360011,0 5.99956769,0 C4.36313428,0 2.79273194,0.665156104 1.6316122,1.8502234 C0.570199383,2.92412349 -0.0188711576,4.39666488 0.000461273283,5.92748518 C0.000461273283,7.64384804 0.653875426,9.41015886 1.67632991,10.8864699 L5.60261089,16.5541503 C5.64674532,16.6199723 5.70621364,16.673426 5.77556828,16.7096487 C5.91757544,16.7801827 6.08308232,16.7801827 6.22509315,16.7096487 C6.29358938,16.6731301 6.35219563,16.6196782 6.39575779,16.5541503 L6.39520732,16.5541503 Z" id="Shape"></path>
            </g>
        </g>
    </g>
</svg>