<?xml version="1.0" encoding="UTF-8"?>
<svg width="14px" height="23px" viewBox="0 0 14 23" version="1.1" xmlns="http://www.w3.org/2000/svg" xmlns:xlink="http://www.w3.org/1999/xlink">
    <title>commercial</title>
    <g id="Page-1" stroke="none" stroke-width="1" fill="none" fill-rule="evenodd">
        <g id="Desktop-HD-Copy" transform="translate(-905.000000, -3764.000000)" fill="#CCA98C" fill-rule="nonzero">
            <g id="commercial" transform="translate(905.000000, 3764.000000)">
                <path d="M13.1286264,4 L12.1837251,4 C12.1837251,6.74524715 9.87140105,9.00887199 7.01187698,9.00887199 C4.17730636,9.00887199 1.84002884,6.76941427 1.84002884,4 L0.895127563,4 C0.397878874,4 0,4.38533655 0,4.86692015 L0,22.1330798 C0,22.6146592 0.397874434,23 0.895127563,23 L12.6561092,23 C13.4020932,23 13.9987117,22.4220102 13.9987117,21.6997058 L13.9988851,4.89108727 C14.0238608,4.40950797 13.6259864,4 13.128711,4 L13.1286264,4 Z M4.15248611,20.5437262 C4.15248611,20.6641662 4.05310297,20.7604176 3.92874418,20.7604176 L2.33740629,20.7604176 C2.2130475,20.7604176 2.11366436,20.6641662 2.11366436,20.5437262 L2.11366436,19.0507401 C2.11366436,18.9303001 2.2130475,18.8340488 2.33740629,18.8340488 L3.92874418,18.8340488 C4.05310297,18.8340488 4.15248611,18.9303001 4.15248611,19.0507401 L4.15248611,20.5437262 Z M4.15248611,16.6184614 C4.15248611,16.7389014 4.05310297,16.8351528 3.92874418,16.8351528 L2.33740629,16.8351528 C2.2130475,16.8351528 2.11366436,16.7389014 2.11366436,16.6184614 L2.11366436,15.1495134 C2.11366436,15.0290734 2.2130475,14.9328221 2.33740629,14.9328221 L3.92874418,14.9328221 C4.05310297,14.9328221 4.15248611,15.0290734 4.15248611,15.1495134 L4.15248611,16.6184614 Z M4.15248611,12.6933686 C4.15248611,12.8138086 4.05310297,12.91006 3.92874418,12.91006 L2.33740629,12.91006 C2.2130475,12.91006 2.11366436,12.8138086 2.11366436,12.6933686 L2.11366436,11.2244206 C2.11366436,11.1039806 2.2130475,11.0077293 2.33740629,11.0077293 L3.92874418,11.0077293 C4.05310297,11.0077293 4.15248611,11.1039806 4.15248611,11.2244206 L4.15248611,12.6933686 Z M8.03132782,20.5438122 C8.03132782,20.6642522 7.93194468,20.7605036 7.80758589,20.7605036 L6.19147214,20.7605036 C6.06711335,20.7605036 5.96773021,20.6642522 5.96773021,20.5438122 L5.96773021,19.0508261 C5.96773021,18.9303861 6.06711335,18.8341348 6.19147214,18.8341348 L7.80758589,18.8341348 C7.93194468,18.8341348 8.03132782,18.9303861 8.03132782,19.0508261 L8.03132782,20.5438122 Z M8.03132782,16.6185474 C8.03132782,16.7389874 7.93194468,16.8352388 7.80758589,16.8352388 L6.19147214,16.8352388 C6.06711335,16.8352388 5.96773021,16.7389874 5.96773021,16.6185474 L5.96773021,15.1495994 C5.96773021,15.0291594 6.06711335,14.9329081 6.19147214,14.9329081 L7.80758589,14.9329081 C7.93194468,14.9329081 8.03132782,15.0291594 8.03132782,15.1495994 L8.03132782,16.6185474 Z M8.03132782,12.6934546 C8.03132782,12.8138946 7.93194468,12.910146 7.80758589,12.910146 L6.19147214,12.910146 C6.06711335,12.910146 5.96773021,12.8138946 5.96773021,12.6934546 L5.96773021,11.2245066 C5.96773021,11.1040666 6.06711335,11.0078153 6.19147214,11.0078153 L7.80758589,11.0078153 C7.93194468,11.0078153 8.03132782,11.1040666 8.03132782,11.2245066 L8.03132782,12.6934546 Z M11.9349898,20.5438982 C11.9349898,20.6643382 11.8356066,20.7605896 11.7112478,20.7605896 L10.0951341,20.7605896 C9.97077531,20.7605896 9.87139217,20.6643382 9.87139217,20.5438982 L9.87139217,19.0509121 C9.87139217,18.9304721 9.97077531,18.8342208 10.0951341,18.8342208 L11.7112478,18.8342208 C11.8356066,18.8342208 11.9349898,18.9304721 11.9349898,19.0509121 L11.9349898,20.5438982 Z M11.9349898,16.6186334 C11.9349898,16.7390734 11.8356066,16.8353248 11.7112478,16.8353248 L10.0951341,16.8353248 C9.97077531,16.8353248 9.87139217,16.7390734 9.87139217,16.6186334 L9.87139217,15.1496854 C9.87139217,15.0292454 9.97077531,14.9329941 10.0951341,14.9329941 L11.7112478,14.9329941 C11.8356066,14.9329941 11.9349898,15.0292454 11.9349898,15.1496854 L11.9349898,16.6186334 Z M11.9349898,12.6935406 C11.9349898,12.8139806 11.8356066,12.910232 11.7112478,12.910232 L10.0951341,12.910232 C9.97077531,12.910232 9.87139217,12.8139806 9.87139217,12.6935406 L9.87139217,11.2245926 C9.87139217,11.1041526 9.97077531,11.0079013 10.0951341,11.0079013 L11.7112478,11.0079013 C11.8356066,11.0079013 11.9349898,11.1041526 11.9349898,11.2245926 L11.9349898,12.6935406 Z" id="Shape"></path>
                <path d="M7,8 C9.21118012,8 11,6.20562744 11,3.98758358 C11,1.76953972 9.21118012,0 7,0 C4.78881988,0 3,1.79437256 3,4.01241642 C3,6.23046028 4.78881988,8 7,8 Z M6.65218279,2.01875814 L6.65218279,1.52036582 C6.65218279,1.47047318 6.70192103,1.42075411 6.75148625,1.42075411 L7.24833629,1.42075411 C7.29807453,1.42075411 7.34763975,1.47064674 7.34763975,1.52036582 L7.34763975,2.01875814 C7.8444898,2.04361723 8.24204969,2.44240718 8.2917835,2.94082175 C8.2917835,2.99071439 8.24204525,3.04043346 8.19248004,3.04043346 L7.69562999,3.04043346 C7.64589175,3.04043346 7.62110914,3.01557437 7.59632653,2.96568129 C7.57154437,2.81617695 7.42232919,2.69153214 7.27329193,2.69153214 L6.85095386,2.69153214 C6.60243567,2.69153214 6.35410382,2.86606958 6.329126,3.14003627 C6.30434383,3.43904496 6.52790594,3.68831677 6.82597604,3.68831677 L7.19857587,3.68831677 C7.89422804,3.68831677 8.44081189,4.28648546 8.36627773,4.98429701 C8.31653949,5.53257752 7.86942768,5.93137148 7.34759982,6.03101434 L7.34759982,6.52940666 C7.34759982,6.5792993 7.29786158,6.62901837 7.24829636,6.62901837 L6.75144632,6.62901837 C6.70170807,6.62901837 6.65214286,6.57912573 6.65214286,6.52940666 L6.65214286,6.03101434 C6.15529281,6.00615525 5.75773292,5.60736529 5.70799911,5.10895072 C5.70799911,5.05905809 5.75773736,5.00933901 5.80730257,5.00933901 L6.30415262,5.00933901 C6.35389086,5.00933901 6.37867347,5.03419811 6.40345608,5.08409119 C6.42823824,5.23359553 6.57745342,5.35824034 6.72649068,5.35824034 L7.14882875,5.35824034 C7.39734694,5.35824034 7.64567879,5.1837029 7.67065661,4.90973621 C7.69543878,4.61072752 7.47187666,4.3614557 7.17380657,4.3614557 L6.85077196,4.3614557 C6.22965395,4.3614557 5.6830701,3.91295157 5.63333629,3.31473838 C5.58377107,2.64180416 6.05584738,2.09352366 6.65219166,2.01875814 L6.65218279,2.01875814 Z" id="Shape"></path>
            </g>
        </g>
    </g>
</svg>