<?xml version="1.0" encoding="UTF-8"?>
<svg width="17px" height="15px" viewBox="0 0 17 15" version="1.1" xmlns="http://www.w3.org/2000/svg" xmlns:xlink="http://www.w3.org/1999/xlink">
    <title>edu</title>
    <g id="Page-1" stroke="none" stroke-width="1" fill="none" fill-rule="evenodd">
        <g id="Desktop-HD-Copy" transform="translate(-903.000000, -3923.000000)" fill="#CCA98C" fill-rule="nonzero">
            <g id="edu" transform="translate(903.000000, 3923.000000)">
                <path d="M16.996317,4.59897387 C17.0241031,4.27009081 16.8961145,4.09364221 16.5630379,3.92132847 C14.1359381,2.65921349 11.7203581,1.3791353 9.30940477,0.093169174 C9.19285123,0.0317050627 9.09731957,0 8.99957524,0 C8.90183091,0 8.8063024,0.0317057281 8.69220702,0.093169174 C6.27898756,1.37906877 3.86589399,2.6590139 1.43888866,3.92132847 C1.10595049,4.09363223 0.977597123,4.27008083 1.00315449,4.59897387 C1.04286597,5.05480691 1.01471164,5.51443219 1.01471164,5.98596641 L1.98132765,5.98596641 L4.32225,6 L13.679015,6 L16.0199373,5.98596641 L16.9865533,5.98596641 C16.9869221,5.51439893 16.95889,5.05454079 16.996266,4.59897387 L16.996317,4.59897387 Z" id="Path"></path>
                <path d="M15.3714017,12.7899624 L15.1228734,12.7899624 L15.1198646,12.5397368 L15.1198646,7.94744969 C15.1198646,7.87786843 15.1193832,7.80787903 15.1187814,7.7389757 C15.1168558,7.51928472 15.1161337,7.32038822 15.1263635,7.11275472 C15.1371952,6.88874021 15.2916085,6.61215841 15.5312418,6.53827783 C15.6810816,6.49193644 15.7768832,6.38398293 15.7686969,6.26954412 C15.757143,6.1091686 15.6667579,6.01134946 15.5273905,6.00932258 C15.1343126,6.00297252 14.7321148,6 14.3317964,6 C13.9656775,6 13.5667148,6.00270221 13.0768924,6.00878231 C12.9575025,6.01053874 12.8514719,6.10173834 12.8412428,6.21212341 C12.8390765,6.23725387 12.8234308,6.46545495 12.973872,6.50085607 C13.3067774,6.57921929 13.4756179,6.82106753 13.4756179,7.2193586 C13.4723683,8.36644462 13.4726091,9.53584008 13.4726091,10.6668426 L13.4726091,12.2659975 C13.4726091,12.3967827 13.4726091,12.4914959 13.465027,12.5767525 L13.4461316,12.7900931 L11.2535467,12.7900931 L11.2505378,12.5398676 L11.2505378,7.94758044 C11.2505378,7.87799917 11.2500564,7.80800977 11.2494547,7.73910644 C11.247529,7.51941546 11.2468069,7.32051897 11.2570368,7.11288547 C11.2678685,6.88887095 11.4222817,6.61228916 11.6619151,6.53840857 C11.8117549,6.49206718 11.9075565,6.38411367 11.8993702,6.26967486 C11.8878163,6.10929934 11.7974312,6.0114802 11.6580638,6.00945333 C11.2649858,6.00310326 10.862788,6.00013074 10.4624697,6.00013074 C10.0963507,6.00013074 9.69738803,6.00283292 9.2075657,6.00891306 C9.08817574,6.01066948 8.98214514,6.10186908 8.97191611,6.21225415 C8.96974978,6.23738462 8.95410406,6.4655857 9.10454526,6.50098681 C9.43745067,6.57935004 9.60629118,6.82119827 9.60629118,7.21948934 C9.60304161,8.36657536 9.60328237,9.53597083 9.60328237,10.6669733 L9.60328237,12.2661283 C9.60328237,12.3969135 9.60328237,12.4916266 9.59570026,12.5768833 L9.57680491,12.7902238 L7.38421992,12.7902238 L7.38121111,12.5399983 L7.38121111,7.94771118 C7.38121111,7.87812992 7.3807297,7.80814052 7.38012794,7.73923718 C7.3782023,7.51954621 7.37748017,7.32064971 7.38771005,7.11301621 C7.39854173,6.8890017 7.552955,6.6124199 7.79258835,6.53853932 C7.94242814,6.49219793 8.03822972,6.38424442 8.03004342,6.2698056 C8.01848956,6.10943008 7.92810443,6.01161094 7.78873706,6.00958407 C7.39565911,6.00323401 6.99346131,6.00026149 6.59314294,6.00026149 C6.22702401,6.00026149 5.82806129,6.0029637 5.33823896,6.0090438 C5.21884901,6.01080026 5.1128184,6.10199983 5.10258938,6.21238489 C5.10042302,6.23751536 5.08477732,6.46571644 5.23521853,6.50111755 C5.56812394,6.57948078 5.73696444,6.82132902 5.73696444,7.21962008 C5.73371488,8.3667061 5.7339556,9.53610157 5.7339556,10.667104 L5.7339556,12.266259 C5.7339556,12.3970442 5.7339556,12.4917573 5.72637349,12.577014 L5.70747815,12.7903546 L3.51489316,12.7903546 L3.51188435,12.5401291 L3.51188435,7.94784192 C3.51188435,7.87826066 3.51140294,7.80827126 3.51080115,7.73936793 C3.50887551,7.51967695 3.5081534,7.32078045 3.51838326,7.11314695 C3.52921493,6.88913244 3.6836282,6.61255065 3.92326156,6.53867006 C4.07310135,6.49232867 4.16890293,6.38437516 4.16071663,6.26993635 C4.14916276,6.10956083 4.05877763,6.01174169 3.91941027,6.00971481 C3.52633232,6.00336475 3.12413452,6.00039223 2.72381614,6.00039223 C2.35769722,6.00039223 1.9587345,6.00309448 1.46891217,6.00917454 C1.34952221,6.01093097 1.24349161,6.10213057 1.23326259,6.21251564 C1.23109622,6.2376461 1.21545022,6.46584718 1.36589173,6.5012483 C1.69879714,6.57961153 1.86763765,6.82145976 1.86763765,7.21975083 C1.86438809,8.36683685 1.86462884,9.53623232 1.86462884,10.6672348 L1.86462884,12.2663897 C1.86462884,12.397175 1.86462884,12.4918881 1.85704673,12.5771448 L1.83815138,12.7904853 L1.6283763,12.7906205 C1.28139057,12.7906205 1,13.1062386 1,13.4960486 L1,14 L16,14 L16,13.4960486 C16,13.105028 15.7186156,12.7894099 15.371408,12.7894099 L15.3714017,12.7899624 Z" id="Path"></path>
                <path d="M16.999722,15 L0,15 C0,13.8953141 0.537361737,13 1.199835,13 L15.7995781,13 C16.4626692,12.9997989 17,13.8951082 17,15 L16.999722,15 Z" id="Path"></path>
            </g>
        </g>
    </g>
</svg>