<?xml version="1.0" encoding="UTF-8"?>
<svg width="15px" height="17px" viewBox="0 0 15 17" version="1.1" xmlns="http://www.w3.org/2000/svg" xmlns:xlink="http://www.w3.org/1999/xlink">
    <title>healthcare</title>
    <g id="Page-1" stroke="none" stroke-width="1" fill="none" fill-rule="evenodd">
        <g id="Desktop-HD-Copy" transform="translate(-905.000000, -3983.000000)" fill="#CCA98C" fill-rule="nonzero">
            <g id="healthcare" transform="translate(905.000000, 3983.000000)">
                <path d="M7.24703326,4.93243956 L7.24703326,0 L0,0 L0,17 L2.10679965,17 L2.10679965,13.0363061 L5.14045933,13.0363061 L5.14045933,17 L15,17 L15,4.93291143 L7.24703326,4.93243956 Z M5.64598651,4.40399423 L4.29765821,4.40399423 L4.29765821,5.81332334 L3.03361453,5.81332334 L3.03361453,4.49209204 L1.68528623,4.49209204 L1.68528623,3.17086074 L2.94932991,3.17086074 L2.94932991,1.76153163 L4.21337358,1.76153163 L4.21337358,3.17086074 L5.56170188,3.17086074 L5.56170188,4.40399423 L5.64598651,4.40399423 Z M9.85940524,14.7095984 L7.33131789,14.7095984 L7.33131789,12.9480195 L9.85940524,12.9480195 L9.85940524,14.7095984 Z M9.85940524,11.6265995 L7.33131789,11.6265995 L7.33131789,9.86502068 L9.85940524,9.86502068 L9.85940524,11.6265995 Z M9.85940524,8.54378938 L7.33131789,8.54378938 L7.33131789,6.69411275 L9.85940524,6.69411275 L9.85940524,8.54378938 Z M13.6515363,14.7096927 L11.1234489,14.7096927 L11.1234489,12.9481139 L13.6515363,12.9481139 L13.6515363,14.7096927 Z M13.6515363,11.6266939 L11.1234489,11.6266939 L11.1234489,9.86511505 L13.6515363,9.86511505 L13.6515363,11.6266939 Z M13.6515363,8.54388375 L11.1234489,8.54388375 L11.1234489,6.69420712 L13.6515363,6.69420712 L13.6515363,8.54388375 Z" id="Shape"></path>
            </g>
        </g>
    </g>
</svg>