<?xml version="1.0" encoding="UTF-8"?>
<svg width="19px" height="19px" viewBox="0 0 19 19" version="1.1" xmlns="http://www.w3.org/2000/svg" xmlns:xlink="http://www.w3.org/1999/xlink">
    <title>leisure</title>
    <g id="Page-1" stroke="none" stroke-width="1" fill="none" fill-rule="evenodd">
        <g id="Desktop-HD-Copy" transform="translate(-904.000000, -3635.000000)" fill="#CCA98C" fill-rule="nonzero">
            <g id="leisure" transform="translate(904.000000, 3635.000000)">
                <path d="M4.05353418,0 C2.55477204,0.000462269147 1.32702154,1.22995506 1.32675053,2.73113383 C1.32701517,3.08646188 1.45114148,3.41990637 1.58492638,3.7469724 C1.1269167,4.32917706 0.732052738,4.98324126 0.731544591,5.73349136 C0.732338587,6.3320154 0.993822885,6.87883315 1.29660387,7.38948364 C0.590212019,8.13511953 0.0188178436,9.03088687 0.0183096968,10.0717982 C0.0184420182,12.0959434 1.51984971,13.7760585 3.46286769,14.0644466 L3.46286769,17.8124739 L0.60864081,17.8124739 L0.608773132,17.8123414 C0.589850082,17.8114137 0.570926356,17.8114137 0.552002968,17.8123414 C0.34358485,17.8270522 0.158189172,17.9504386 0.0639787497,18.1370426 C-0.0303739542,18.323779 -0.0197875618,18.546418 0.0919004019,18.7232169 C0.203587688,18.9001447 0.399966113,19.0051111 0.60878736,18.9998082 L18.3939265,18.9998082 C18.553383,19.0033866 18.7076801,18.9424224 18.8217523,18.8306974 C18.9356889,18.7189725 19,18.5658995 19,18.4060544 C19,18.2463553 18.9356889,18.0932789 18.8217523,17.9815472 C18.7076835,17.8698222 18.5533864,17.8088604 18.3939265,17.8123041 L17.5081249,17.8123041 L16.5516571,16.5320645 L16.9847676,16.5320645 C17.1443562,16.5356429 17.2985211,16.4746787 17.4125933,16.3629537 C17.5266621,16.2512288 17.5908411,16.0981558 17.5908411,15.9383107 C17.5908411,15.7786116 17.5266621,15.6255352 17.4125933,15.5138035 C17.2985245,15.4020785 17.1443596,15.3411167 16.9847676,15.3445604 L15.6635858,15.3445604 L14.8379827,14.2405768 L15.501487,14.2405768 C15.7136112,14.2405768 15.9094611,14.1273964 16.0154606,13.9434421 C16.1214566,13.7596201 16.1214566,13.532981 16.0154606,13.3491591 C15.9094645,13.1652048 15.7136146,13.0520243 15.501487,13.0520243 L8.22888951,13.0520243 L8.22902183,13.0520243 C8.20851065,13.0509641 8.18800083,13.0509641 8.16762075,13.0520243 C7.95562867,13.0630245 7.76560886,13.1864098 7.66912871,13.3757993 C7.57252661,13.5650532 7.58430545,13.7916889 7.69982925,13.9700824 C7.81521923,14.1484691 8.01702466,14.2515797 8.22901336,14.2405802 L8.89133194,14.2405802 L8.06691452,15.3445638 L6.74454708,15.3445638 C6.72416836,15.3435035 6.7036582,15.3435035 6.683146,15.3445638 C6.47472789,15.3599372 6.28973873,15.4841199 6.19603645,15.6712532 C6.10233417,15.8583865 6.11385894,16.0810357 6.22633996,16.2575632 C6.33882097,16.4340906 6.53559473,16.5382632 6.7445481,16.532034 L7.17870875,16.532034 L6.22237641,17.8122735 L4.64884893,17.8122735 L4.64884893,14.0642462 C6.59037635,13.7737376 8.09239063,12.0941823 8.09239063,10.0715979 C8.09159667,9.03041507 7.51754106,8.13478344 6.81064106,7.38928326 C7.11380824,6.87876848 7.37451466,6.33195073 7.37570034,5.73329098 C7.37450938,4.9835498 6.98015884,4.33308197 6.52231855,3.75142016 C6.65676742,3.42313951 6.78062652,3.0875847 6.7804944,2.73093345 C6.78022973,1.22989039 5.55247289,0.000271424087 4.05371075,0 L4.05353418,0 Z M10.368783,14.2406686 L13.35733,14.2406686 L14.1829331,15.3446522 L9.54456885,15.3446522 L10.368783,14.2406686 Z M8.65856404,16.5321326 L15.0696832,16.5321326 L16.0272351,17.8123721 L7.70311249,17.8123721 L8.65856404,16.5321326 Z" id="Shape"></path>
            </g>
        </g>
    </g>
</svg>