<?xml version="1.0" encoding="UTF-8"?>
<svg width="19px" height="17px" viewBox="0 0 19 17" version="1.1" xmlns="http://www.w3.org/2000/svg" xmlns:xlink="http://www.w3.org/1999/xlink">
    <title>shopping</title>
    <g id="Page-1" stroke="none" stroke-width="1" fill="none" fill-rule="evenodd">
        <g id="Desktop-HD-Copy" transform="translate(-901.000000, -3817.000000)" fill="#CCA98C" fill-rule="nonzero">
            <g id="shopping" transform="translate(901.000000, 3817.000000)">
                <path d="M16.3830157,12.1385582 C16.5836057,12.1385582 16.7554209,11.9893933 16.8125614,11.8104784 L18.9892895,2.74384035 C19.0178592,2.62463302 18.9892895,2.47546808 18.9033793,2.35605836 C18.8174692,2.23685103 18.7027893,2.17714351 18.5597387,2.17714351 L4.21018061,2.17714351 L3.72329503,0.328079793 C3.6659551,0.119207331 3.49413479,0 3.3223196,0 L0.429545655,0 C0.200385421,0 0,0.208872462 0,0.447281798 C0,0.685904167 0.200590006,0.894563597 0.429545655,0.894563597 L2.97866875,0.894771622 L5.72838697,11.6315799 L4.52543001,13.8684149 C4.43951985,14.0175799 4.43951985,14.1667448 4.52543001,14.3156967 C4.61134016,14.4648617 4.75459024,14.5245692 4.8978352,14.5245692 L6.07220149,14.5245692 C5.81447102,14.7929415 5.67122606,15.1509895 5.67122606,15.5385478 C5.67122606,16.3438617 6.30134638,17 7.074727,17 C7.84810763,17 8.47822794,16.3438617 8.47822794,15.5385478 C8.47822794,15.1507659 8.33497786,14.7929362 8.07725252,14.5245692 L14.7216462,14.5243611 C14.4639158,14.7927334 14.3206708,15.1507815 14.3206708,15.5383398 C14.3206708,16.3436536 14.9507911,16.9997919 15.7241717,16.9997919 C16.4975524,16.9997919 17.1276727,16.3436536 17.1276727,15.5383398 C17.1276727,14.8822015 16.7266972,14.3454676 16.1539015,14.1663077 L16.1539015,14.0768503 C16.1539015,13.838228 15.9533115,13.6295685 15.7243559,13.6295685 L5.67056116,13.6295685 L6.47253247,12.1383451 L16.3830157,12.1385582 Z M15.2945749,4.62279245 L14.1775435,9.09646256 C14.1202035,9.30533502 13.9483832,9.42454235 13.7479978,9.42454235 L13.6335174,9.42454235 C13.4043572,9.36483483 13.2611122,9.12621247 13.318447,8.88780846 L14.4354785,4.41413834 C14.4928184,4.17551598 14.7219787,4.02635636 14.9509292,4.08605855 C15.2086597,4.14555836 15.3519046,4.38418073 15.2945698,4.62279245 L15.2945749,4.62279245 Z M11.6857552,4.53333502 L11.6857552,9.00700513 C11.6857552,9.2456275 11.4851652,9.45428693 11.2562095,9.45428693 C11.0270493,9.45428693 10.8266639,9.24541447 10.8266639,9.00700513 L10.8266639,4.53333502 C10.8266639,4.29471266 11.0272539,4.08605304 11.2562095,4.08605304 C11.4853697,4.08584515 11.6857552,4.26476037 11.6857552,4.53333502 L11.6857552,4.53333502 Z M8.50651175,9.42454768 L8.39203137,9.42454768 C8.19144137,9.42454768 8.01962617,9.30534035 7.96248572,9.09646789 L6.84545425,4.62279777 C6.78811432,4.38417541 6.9313644,4.14555836 7.16052463,4.08606388 C7.38968487,4.02635636 7.61883999,4.1755213 7.67597533,4.41414367 L8.7930068,8.88781378 C8.87891695,9.12622844 8.73566687,9.36484549 8.50650664,9.42454768 L8.50651175,9.42454768 Z" id="Shape"></path>
            </g>
        </g>
    </g>
</svg>