<?xml version="1.0" encoding="UTF-8"?>
<svg width="16px" height="20px" viewBox="0 0 16 20" version="1.1" xmlns="http://www.w3.org/2000/svg" xmlns:xlink="http://www.w3.org/1999/xlink">
    <title>train</title>
    <g id="Page-1" stroke="none" stroke-width="1" fill="none" fill-rule="evenodd">
        <g id="Desktop-HD-Copy" transform="translate(-905.000000, -3868.000000)" fill="#CCA98C" fill-rule="nonzero">
            <g id="train" transform="translate(905.000000, 3868.000000)">
                <path d="M13.7276745,0 L2.28561505,0 C1.03264952,0 0.0134643713,1.09758191 0.0134643713,2.44602278 L0,15.784401 C0,16.4934029 0.541121498,17.0706599 1.2060878,17.0706599 L2.88946877,17.0706599 L2.01476922,19.52925 C1.94903091,19.714177 2.0489847,19.9159967 2.23764526,19.9801589 C2.27692969,19.9934897 2.31700488,20 2.35660764,20 C2.50614193,20 2.64632906,19.9086992 2.69844607,19.7625258 L3.09049962,18.6607098 L12.9234688,18.6607098 L13.3152061,19.7620496 C13.3670027,19.9086873 13.5068776,20 13.6567282,20 C13.6963293,20 13.7364041,19.9934778 13.7753743,19.980147 C13.9643532,19.9161277 14.0641468,19.7141532 13.9982503,19.5296746 L13.1235508,17.0706083 L14.7802893,17.0706083 C15.4454178,17.0706083 15.9863771,16.4933513 15.9863771,15.7848256 L16,2.44605056 C16,1.09749064 14.9804904,0 13.7278493,0 L13.7276745,0 Z M5.04475075,0.948611192 L10.9547513,0.948611192 C11.3263708,0.948611192 11.6303421,1.24607667 11.6303421,1.60972039 C11.6303421,1.97336412 11.3263627,2.27082586 10.9547513,2.27082586 L5.04475075,2.27098086 C4.67313118,2.27098086 4.36915991,1.97351911 4.36915991,1.60987539 C4.36915991,1.24622373 4.67313929,0.948611192 5.04475075,0.948611192 L5.04475075,0.948611192 Z M1.41870125,10.1997265 L1.41870125,4.01763636 C1.4183846,3.50502168 1.84400735,3.08264433 2.3643664,3.07966817 L7.75854967,3.07966817 L7.75854967,11.8537997 C5.85168845,11.8328736 3.9468548,11.5772623 2.09145365,11.0734889 C1.72047074,10.9713389 1.41918805,10.5717074 1.41902584,10.1996868 L1.41870125,10.1997265 Z M1.77923011,13.6722365 C1.77923011,13.119146 2.23750455,12.6707371 2.80267319,12.6707371 C3.36784183,12.6707371 3.82611626,13.1191857 3.82611626,13.6722365 C3.82611626,14.2252874 3.36784183,14.6737359 2.80267319,14.6737359 C2.23734234,14.6737359 1.77923011,14.2252874 1.77923011,13.6722365 Z M12.3624052,17.0841122 L12.6712954,17.9526365 L3.34238349,17.9526365 L3.65127367,17.0845884 C3.6528577,17.079938 3.6517489,17.0754428 3.65317453,17.0707925 L4.91534529,17.0707925 C5.20586152,17.0707925 5.46705078,16.8942384 5.58079822,16.6212725 L5.99154609,15.636519 C6.06948235,15.4497349 6.24214325,15.3289819 6.43161283,15.3289819 L9.56836568,15.3289819 C9.75781903,15.3289819 9.93063809,15.4497349 10.0084324,15.636519 L10.4191803,16.6212725 C10.5332319,16.8942424 10.7936506,17.0707925 11.0830517,17.0707925 L12.3607537,17.0707925 C12.362021,17.0751329 12.3609121,17.0796281 12.3624962,17.0841233 L12.3624052,17.0841122 Z M13.2103407,14.6737359 C12.6451315,14.6737359 12.1868976,14.2252874 12.1868976,13.6722365 C12.1868976,13.1191857 12.645172,12.6707371 13.2103407,12.6707371 C13.7755093,12.6707371 14.2337837,13.1191857 14.2337837,13.6722365 C14.2337837,14.2252874 13.7755093,14.6737359 13.2103407,14.6737359 Z M14.5941664,10.1995677 C14.594008,10.5717431 14.2927215,10.9711881 13.9217386,11.0733698 C12.0617551,11.5784052 10.1523391,11.8343157 8.24085503,11.8541568 L8.24085503,3.07962849 L13.6484204,3.07962849 C14.1687794,3.08257366 14.5942475,3.504982 14.5940853,4.01759668 L14.5941664,10.1995677 Z" id="Shape"></path>
                <path d="M9.45939686,16 L7.54074006,16 C7.24336213,16 7,16.4212953 7,16.936113 L7,17.063887 C7,17.5786988 7.2433587,18 7.54074006,18 L9.45925994,18 C9.75663787,18 10,17.5787047 10,17.063887 L10,16.936113 C10,16.4213012 9.7567748,16 9.45939686,16 Z" id="Path"></path>
            </g>
        </g>
    </g>
</svg>