<svg xmlns="http://www.w3.org/2000/svg" viewBox="0 0 68.59 92.12"><defs><style>.cls-1{fill:#b8a78e;}.cls-2{fill:none;stroke:#8f8060;stroke-miterlimit:10;stroke-width:2.54px;}</style></defs><g id="Layer_2" data-name="Layer 2"><g id="Layer_1-2" data-name="Layer 1"><path class="cls-1" d="M30.58,28.63a.55.55,0,0,0-.58-.55H25.51a.53.53,0,0,0-.57.51c-.08.69-.13,1.38-.2,2.1h6C30.71,30,30.65,29.3,30.58,28.63Z"/><rect class="cls-1" x="19.87" y="12.97" width="0.64" height="2.14"/><rect class="cls-1" x="35.15" y="18.52" width="0.64" height="12.17"/><path class="cls-1" d="M27,25.25a.48.48,0,0,0,.26-.5V18.88c0-.12,0-.24,0-.36H21.67V30.69h1.95c.08-.74.15-1.45.22-2.17A1.62,1.62,0,0,1,25.48,27h.84A1.52,1.52,0,0,1,27,25.25Z"/><path class="cls-1" d="M15.25,16.59c-1.23,1.29-2.48,2.56-3.71,3.84-.09.09-.22.18-.23.28a1.17,1.17,0,0,0,.06.65.41.41,0,0,0,.63.11,1.3,1.3,0,0,0,.33-.29c1.15-1.19,2.3-2.39,3.47-3.56a.78.78,0,0,1,.52-.23c2,0,4,0,6,0h6.78c.49,0,.72.18.72.57s-.24.55-.74.55h-.73c0,2,0,3.87,0,5.77,0,.47-.07.95.47,1.19l0,0A1.67,1.67,0,0,1,29.21,27H30a1.63,1.63,0,0,1,1.69,1.58c.07.72.15,1.43.23,2.15H34V18.5c-.47,0-.92,0-1.36,0a.56.56,0,0,1,0-1.11h6.56a.75.75,0,0,1,.6.27q1.71,1.78,3.43,3.55a1.85,1.85,0,0,0,.33.29.42.42,0,0,0,.63-.12,1.18,1.18,0,0,0,.05-.65c0-.09-.13-.18-.2-.25l-3.74-3.87a1,1,0,0,0-.8-.34H16.05A1,1,0,0,0,15.25,16.59Z"/><rect class="cls-1" x="21.67" y="12.98" width="5.58" height="2.12"/><path class="cls-1" d="M35.74,43.28a3.62,3.62,0,0,1-.47,0H17.05c0,.11,0,.17,0,.23v1.22h21.6V42.33c0-.64-.06-.7-.68-.7H17.48c-.32,0-.47.16-.44.53h18.3a1.7,1.7,0,0,1,.5,0,.55.55,0,0,1-.1,1.06Z"/><rect class="cls-1" x="19.86" y="11.23" width="15.94" height="0.58"/><rect class="cls-1" x="35.15" y="12.98" width="0.65" height="2.14"/><rect class="cls-1" x="28.4" y="12.98" width="5.58" height="2.13"/><path class="cls-1" d="M34.7,8.69H20.93a2.42,2.42,0,0,0-.54.06.69.69,0,0,0-.54.66c0,.2,0,.4,0,.62H35.78C35.92,9,35.64,8.69,34.7,8.69Z"/><rect class="cls-1" x="32.25" y="36.48" width="1.73" height="4.01"/><rect class="cls-1" x="21.67" y="36.48" width="1.59" height="4"/><rect class="cls-1" x="24.42" y="36.49" width="6.67" height="3.99"/><rect class="cls-1" x="19.86" y="36.49" width="0.65" height="4"/><path class="cls-1" d="M1.27,0V45.49H16a1.15,1.15,0,0,1-.06-.34c0-1,0-2.07,0-3.11a1.44,1.44,0,0,1,1.48-1.53H18.7v-4H17.48a1.32,1.32,0,0,1-1.3-.93A1.4,1.4,0,0,1,16.72,34a.59.59,0,0,0,.18-.36,7.48,7.48,0,0,0,0-.82,1.88,1.88,0,0,1,1.79-2.13V18.5c-.72,0-1.41,0-2.11,0-.11,0-.23.12-.32.21Q14.62,20.43,13,22.13A1.6,1.6,0,0,1,10.41,22a1.73,1.73,0,0,1,.24-2.24c.76-.8,1.54-1.59,2.3-2.39.53-.55,1.07-1.09,1.59-1.64a1.8,1.8,0,0,1,1.39-.59c.92,0,1.83,0,2.79,0V14.7c0-1.67,0-3.35,0-5a1.92,1.92,0,0,1,1.45-2,2.69,2.69,0,0,1,.57-.06H34.91a1.92,1.92,0,0,1,2,2.1c0,1.66,0,3.32,0,5v.48c.79,0,1.55,0,2.3,0a2.33,2.33,0,0,1,2,.85c1.18,1.28,2.42,2.51,3.63,3.77a1.72,1.72,0,0,1-.35,2.77,1.58,1.58,0,0,1-1.95-.37c-.68-.68-1.34-1.38-2-2.07-.16-.15-.31-.31-.47-.47-.36-.36-.67-.92-1.1-1.05a7.6,7.6,0,0,0-2,0V30.67a1.91,1.91,0,0,1,1.79,2.2,6.23,6.23,0,0,0,0,.75.94.94,0,0,0,.21.5,1.43,1.43,0,0,1,.33,1.48,1.28,1.28,0,0,1-1.2.86H37v4h1.28A1.43,1.43,0,0,1,39.71,42c0,1,0,2.07,0,3.11a1.15,1.15,0,0,1-.06.34H67.31V0Z"/><path class="cls-1" d="M18.06,32.44a8.13,8.13,0,0,0,0,1.31H37.63v-.91c0-.8-.2-1-1-1H19a1,1,0,0,0-.52.07A1,1,0,0,0,18.06,32.44Z"/><rect class="cls-1" x="35.15" y="36.48" width="0.65" height="4.01"/><rect class="cls-1" x="19.85" y="18.53" width="0.65" height="12.15"/><path class="cls-1" d="M28.19,26.64v-.18c-.14-.1-.3-.29-.44-.29a.57.57,0,0,0-.35.36.31.31,0,0,0,.34.4C27.9,26.92,28,26.75,28.19,26.64Z"/><path class="cls-1" d="M17.26,35.1c0,.35.31.24.5.24h20c.19,0,.48.08.49-.21s-.31-.23-.5-.23h-20C17.57,34.9,17.27,34.81,17.26,35.1Z"/><path class="cls-1" d="M29.44,79.75h8V78.31h-8Zm8-5.21h-8v2.61h8Zm-8,9.86a11.91,11.91,0,0,0,1.23-.08A3.68,3.68,0,0,0,33,82.82a.53.53,0,0,1,.73-.2A1.26,1.26,0,0,1,34,83a3.65,3.65,0,0,0,3.44,1.4V80.92h-8Zm5.68-11c0-1.35,0-2.66,0-4a3.05,3.05,0,0,0-.07-.67A2.87,2.87,0,0,0,32,66.47a2.9,2.9,0,0,0-2.53,2.61c-.06,1.41,0,2.83,0,4.24,0,0,0,0,.05.07Zm3.43,10.53.1.06q.45-.35.9-.72a.9.9,0,0,0,.33-.77c0-4.26,0-8.51,0-12.77a5.82,5.82,0,0,1,.07-.93,3.89,3.89,0,0,1,5.12-3.2,4.14,4.14,0,0,1,2.62,4.54.52.52,0,0,1-1,0c0-.26,0-.53,0-.79A2.9,2.9,0,0,0,44,66.47a2.82,2.82,0,0,0-3,2.67c-.09,1.39,0,2.79,0,4.19,0,0,0,0,0,0h5.66V72.32c0-.4.19-.64.51-.65s.53.24.53.65,0,.71,0,1.06h1.27c0-1.57.12-3.12,0-4.64a5,5,0,0,0-3.22-4.34,4.82,4.82,0,0,0-5.24.84,5.34,5.34,0,0,0-1.91,4.3V83.92ZM6.73,73.9a.75.75,0,0,1,.82-.5c1.9,0,16.11,0,18,0H26v-.68c0-1.36,0-2.72.07-4.07A6.36,6.36,0,0,1,31.09,63a6.22,6.22,0,0,1,6.79,3.53c0,.07.07.14.13.24a6.72,6.72,0,0,1,1.89-2.5A6.23,6.23,0,0,1,49.9,68a10.87,10.87,0,0,1,.15,1.71c0,1.21,0,2.41,0,3.65l.38,0h11a1.31,1.31,0,0,1,.34,0,.51.51,0,0,1,.38.57.48.48,0,0,1-.44.48,2.75,2.75,0,0,1-.41,0H40.92V75q0,3.8,0,7.61a.86.86,0,0,0,.26.63,3.63,3.63,0,0,0,5.62-.28c.4-.5.69-.5,1.08,0a3.64,3.64,0,0,0,5.79.09,2.85,2.85,0,0,1,.27-.32.48.48,0,0,1,.65,0,.49.49,0,0,1,.16.66,2.35,2.35,0,0,1-.37.52,4.62,4.62,0,0,1-6.83.3l-.21-.19a4.64,4.64,0,0,1-6.94,0,4.64,4.64,0,0,1-6.94,0,4.65,4.65,0,0,1-7,0,5.13,5.13,0,0,1-2.1,1.35,4.71,4.71,0,0,1-5.17-1.76c-.06-.08-.13-.16-.19-.25v-.43c.45-.44.66-.43,1.08.07a3.6,3.6,0,0,0,5.63.23.85.85,0,0,0,.2-.53c0-1,0-2,0-3,0-.26,0-.51,0-.76a.56.56,0,0,1,.53-.6c.3,0,.51.22.54.59,0,.11,0,.21,0,.32v3.43a.63.63,0,0,0,.05.34,3.62,3.62,0,0,0,1.25,1v-.49q0-6.9,0-13.78a5.83,5.83,0,0,1,.13-1.25,3.93,3.93,0,0,1,4.29-3.07,4,4,0,0,1,3.38,3.85c0,1.25,0,2.5,0,3.75v.4h1.32V73c0-1.17,0-2.33,0-3.5A5.21,5.21,0,1,0,27.07,69c-.06,2.45,0,4.9,0,7.36,0,.15,0,.35,0,.45s-.3.37-.48.39-.36-.16-.48-.31-.07-.3-.07-.45c0-.62,0-1.24,0-1.9h-.45c-1.89,0-16.09,0-18,0-.41,0-.7-.11-.81-.54Z"/><path class="cls-1" d="M43.87,90.58a4.7,4.7,0,0,1-6.94,0c-.33.26-.66.53-1,.77a.54.54,0,0,1-.83-.09c-.17-.28-.07-.57.24-.82a13,13,0,0,0,1.09-1c.35-.37.66-.38,1,0a3.65,3.65,0,0,0,5.92,0c.39-.47.67-.48,1.06,0a3.63,3.63,0,0,0,5.87,0l.11-.14a.53.53,0,0,1,.75-.12.56.56,0,0,1,.07.8,4.75,4.75,0,0,1-2.59,1.86,4.53,4.53,0,0,1-4.52-1.16l-.21-.19"/><path class="cls-1" d="M30,90.56A4.87,4.87,0,0,1,27.4,92a4.65,4.65,0,0,1-4.74-1.92.57.57,0,0,1,0-.81.51.51,0,0,1,.78.13,3.82,3.82,0,0,0,2.27,1.51,3.62,3.62,0,0,0,3.68-1.38c.43-.51.68-.51,1.1,0A3.72,3.72,0,0,0,33.34,91c.41,0,.67.26.64.6s-.28.52-.69.5A4.76,4.76,0,0,1,30,90.56"/><line class="cls-2" x1="1.27" y1="73.79" x2="1.27"/><line class="cls-2" x1="67.31" x2="67.31" y2="73.79"/></g></g></svg>