<svg xmlns="http://www.w3.org/2000/svg" viewBox="0 0 55.05 82.87"><defs><style>.cls-1{fill:#8f8060;}.cls-2{fill:#b8a78e;}</style></defs><g id="Layer_2" data-name="Layer 2"><g id="Layer_1-2" data-name="Layer 1"><path class="cls-1" d="M1.81,1.79H53.24V81.06H1.81ZM1.3,82.87H53.76c1.07,0,1.29-.24,1.29-1.31V1.3c0-1-.24-1.3-1.3-1.3H1.36C.2,0,0,.21,0,1.38V81.57c0,1.06.24,1.3,1.3,1.3"/><path class="cls-1" d="M29.25,25c.37,0,.5-.09.6-.27a.56.56,0,0,0,0-.53.63.63,0,0,0-.56-.29l-.59,0H27.27V15.38h2c.5,0,.62-.24.68-.46a.6.6,0,0,0-.36-.64L20,8.76a.71.71,0,0,0-.82,0L9.58,14.28a.55.55,0,0,0-.33.65c.05.22.18.45.64.45h2v8.51l-1.55,0-.65,0a.5.5,0,0,0-.46.56.53.53,0,0,0,.49.51H29.25v0Z"/><rect class="cls-2" x="9.23" y="50.2" width="36.59" height="2.65"/><rect class="cls-2" x="9.23" y="41" width="36.59" height="2.65"/><rect class="cls-2" x="9.23" y="31.79" width="36.59" height="2.65"/><rect class="cls-2" x="9.24" y="59.41" width="36.59" height="2.65"/><rect class="cls-2" x="9.24" y="68.62" width="36.59" height="2.65"/></g></g></svg>