<svg xmlns="http://www.w3.org/2000/svg" xmlns:xlink="http://www.w3.org/1999/xlink" viewBox="0 0 61.64 143.83"><defs><style>.cls-1{fill:none;}.cls-2{fill:#fff;}.cls-3{clip-path:url(#clip-path);}.cls-4{fill:url(#linear-gradient);}.cls-5{clip-path:url(#clip-path-2);}.cls-6{fill:url(#linear-gradient-2);}.cls-7{fill:#bc9b2f;}.cls-8{font-size:4.83px;}.cls-11,.cls-13,.cls-17,.cls-8{fill:#231f20;}.cls-11,.cls-13,.cls-8{font-family:Baskerville;}.cls-9{letter-spacing:-0.03em;}.cls-10{letter-spacing:-0.03em;}.cls-11{font-size:4.35px;}.cls-12{letter-spacing:-0.04em;}.cls-13{font-size:5.32px;}.cls-14{letter-spacing:-0.05em;}.cls-15{fill:#98989a;}.cls-16{fill:#636569;}</style><clipPath id="clip-path"><path class="cls-1" d="M2.36,2H59.29V141.82H2.36ZM.11,143.83H61.53V0H.11Z"/></clipPath><linearGradient id="linear-gradient" x1="-3221.01" y1="2426.36" x2="-3217.73" y2="2426.36" gradientTransform="matrix(18.67, 0, 0, -18.67, 60146.55, 45379.66)" gradientUnits="userSpaceOnUse"><stop offset="0" stop-color="#d7b066"/><stop offset="0.01" stop-color="#d7b066"/><stop offset="0.02" stop-color="#d8b268"/><stop offset="0.14" stop-color="#e7c87b"/><stop offset="0.25" stop-color="#efd586"/><stop offset="0.36" stop-color="#f2d98a"/><stop offset="0.49" stop-color="#e5ca7c"/><stop offset="0.75" stop-color="#c4a259"/><stop offset="1" stop-color="#9d7430"/></linearGradient><clipPath id="clip-path-2"><polygon class="cls-1" points="4.35 56.91 4.35 141.06 30.58 126.89 57.29 141.06 57.29 56.91 4.35 56.91"/></clipPath><linearGradient id="linear-gradient-2" x1="-3196.16" y1="2438.69" x2="-3192.88" y2="2438.69" gradientTransform="matrix(16.09, 0, 0, -16.09, 51445.43, 39348.84)" xlink:href="#linear-gradient"/></defs><g id="Layer_2" data-name="Layer 2"><g id="Layer_3" data-name="Layer 3"><rect class="cls-2" width="61.64" height="143.83"/><g class="cls-3"><rect class="cls-4" x="0.11" y="0.03" width="61.42" height="143.8"/></g><g class="cls-5"><rect class="cls-6" x="4.35" y="56.91" width="52.94" height="84.15"/></g><path class="cls-7" d="M24.43,137.44l1.65-1.64.17-.17c.05-.07.1-.14.14-.21a.74.74,0,0,0,.1-.22.61.61,0,0,0,0-.24.72.72,0,0,0-.2-.48,1.71,1.71,0,0,0-.23-.13.86.86,0,0,0-.28,0,.71.71,0,0,0-.49.16.73.73,0,0,0-.25.47l-.61-.05a1.24,1.24,0,0,1,.16-.47,1.1,1.1,0,0,1,.3-.34,1.16,1.16,0,0,1,.4-.2,2,2,0,0,1,.5-.06,1.63,1.63,0,0,1,.5.07,1.08,1.08,0,0,1,.41.22,1,1,0,0,1,.28.35,1.1,1.1,0,0,1,.1.49,1.23,1.23,0,0,1-.06.39,1.44,1.44,0,0,1-.16.33,1.54,1.54,0,0,1-.23.29,3.45,3.45,0,0,1-.26.28l-1.35,1.3h2.06V138H24.43Z"/><path class="cls-7" d="M27.59,136a3.77,3.77,0,0,1,0-.47,2.53,2.53,0,0,1,.08-.48,2.2,2.2,0,0,1,.17-.45,1.22,1.22,0,0,1,.26-.38,1.21,1.21,0,0,1,.37-.25,1.36,1.36,0,0,1,.51-.09,1.33,1.33,0,0,1,.51.09,1.39,1.39,0,0,1,.38.25,1.7,1.7,0,0,1,.26.38,3,3,0,0,1,.16.45,2.53,2.53,0,0,1,.08.48,3.83,3.83,0,0,1,0,.47,4.39,4.39,0,0,1-.06.69,2.23,2.23,0,0,1-.22.69,1.31,1.31,0,0,1-.43.53,1.31,1.31,0,0,1-1.42,0,1.4,1.4,0,0,1-.43-.53,2.23,2.23,0,0,1-.22-.69,5.89,5.89,0,0,1-.05-.69m.55,0a4.71,4.71,0,0,0,0,.48,2.38,2.38,0,0,0,.11.53,1.2,1.2,0,0,0,.26.44.6.6,0,0,0,.46.18.59.59,0,0,0,.46-.18,1.07,1.07,0,0,0,.26-.44,1.93,1.93,0,0,0,.11-.53,4.71,4.71,0,0,0,0-.48c0-.09,0-.2,0-.32s0-.24,0-.36a2,2,0,0,0-.09-.35,1.28,1.28,0,0,0-.15-.31.84.84,0,0,0-.24-.22.72.72,0,0,0-.66,0,.8.8,0,0,0-.23.22,1,1,0,0,0-.16.31,2,2,0,0,0-.09.35c0,.12,0,.24,0,.36s0,.23,0,.32"/><path class="cls-7" d="M30.88,137.44l1.65-1.64.17-.17c0-.07.1-.14.14-.21a.74.74,0,0,0,.1-.22.61.61,0,0,0,0-.24.6.6,0,0,0-.06-.27.51.51,0,0,0-.15-.21,1.16,1.16,0,0,0-.22-.13.86.86,0,0,0-.28,0,.75.75,0,0,0-.5.16.83.83,0,0,0-.25.47l-.6-.05a1.24,1.24,0,0,1,.16-.47,1.1,1.1,0,0,1,.3-.34,1.08,1.08,0,0,1,.4-.2,2,2,0,0,1,.5-.06,1.63,1.63,0,0,1,.5.07,1.16,1.16,0,0,1,.41.22,1,1,0,0,1,.28.35,1.1,1.1,0,0,1,.1.49,1.23,1.23,0,0,1-.06.39,1.44,1.44,0,0,1-.16.33,2.09,2.09,0,0,1-.23.29,3.45,3.45,0,0,1-.26.28l-1.36,1.3h2.07V138H30.88Z"/><path class="cls-7" d="M34.1,137.44l1.65-1.64.17-.17c0-.07.1-.14.14-.21a.76.76,0,0,0,.11-.22.88.88,0,0,0,0-.24.59.59,0,0,0-.05-.27.8.8,0,0,0-.15-.21,1.26,1.26,0,0,0-.23-.13.84.84,0,0,0-.27,0,.73.73,0,0,0-.5.16.77.77,0,0,0-.25.47l-.61-.05a1.44,1.44,0,0,1,.16-.47,1.1,1.1,0,0,1,.3-.34,1.16,1.16,0,0,1,.4-.2,2,2,0,0,1,.5-.06,1.59,1.59,0,0,1,.5.07,1.08,1.08,0,0,1,.41.22,1,1,0,0,1,.28.35,1.1,1.1,0,0,1,.1.49,1.23,1.23,0,0,1-.06.39,1.44,1.44,0,0,1-.16.33,2,2,0,0,1-.22.29l-.27.28-1.35,1.3h2.06V138H34.1Z"/><text class="cls-8" transform="translate(12.72 103.16)"><tspan class="cls-9">Matrix Concept</tspan><tspan x="29.25" y="0">s</tspan></text><text class="cls-8" transform="translate(12.67 107.99)"><tspan class="cls-10">Holdings Berha</tspan><tspan x="28.55" y="0">d</tspan></text><text class="cls-11" transform="translate(13.14 84.11)"><tspan class="cls-12">BEST DEVELOPER</tspan><tspan x="35.95" y="0"> </tspan></text><text class="cls-11" transform="translate(7.25 88.1)"><tspan class="cls-12">(SOUTHERN MALAYSIA</tspan><tspan x="46.37" y="0">)</tspan></text><text class="cls-13" transform="translate(20.41 68.19)"><tspan class="cls-14">WINNE</tspan><tspan x="16.94" y="0">R</tspan></text><path class="cls-15" d="M23.21,27.58a.11.11,0,0,1-.07-.12V23.87a.22.22,0,0,1,0-.16.21.21,0,0,1,.16-.05h1.17a1.65,1.65,0,0,1,.92.25,1,1,0,0,1,.39.94A1.06,1.06,0,0,1,25.08,26a1.45,1.45,0,0,1-.51.09h-.69v1.4c0,.11-.11.16-.3.16h-.14a.43.43,0,0,1-.23,0m1.3-2.15a.68.68,0,0,0,.39-.13.54.54,0,0,0,.17-.45.47.47,0,0,0-.18-.43.65.65,0,0,0-.41-.13h-.6v1.14Z"/><path class="cls-15" d="M26.06,27.46V25.61a2.61,2.61,0,0,0,0-.56,1.62,1.62,0,0,1,0-.21c0-.05.06-.09.19-.12a1.39,1.39,0,0,1,.33,0,.14.14,0,0,1,.13.08,1.15,1.15,0,0,1,.06.17c0,.06,0,.1,0,.12a.76.76,0,0,1,.63-.42.3.3,0,0,1,.25.08.27.27,0,0,1,.08.19,1,1,0,0,1-.05.26c0,.11-.06.16-.11.16l-.11,0-.17,0a.42.42,0,0,0-.29.11.53.53,0,0,0-.18.19v1.9c0,.11-.1.17-.31.17h-.1c-.2,0-.3-.06-.3-.17"/><path class="cls-15" d="M27.93,27.26a2,2,0,0,1,0-2.25,1.28,1.28,0,0,1,1-.39,1.26,1.26,0,0,1,1,.39,1.69,1.69,0,0,1,.34,1.13,1.71,1.71,0,0,1-.34,1.13,1.25,1.25,0,0,1-1,.38,1.28,1.28,0,0,1-1-.39m1.47-.41a1.38,1.38,0,0,0,.15-.72,1.36,1.36,0,0,0-.15-.71.53.53,0,0,0-.47-.23.54.54,0,0,0-.47.23,1.36,1.36,0,0,0-.15.71,1.38,1.38,0,0,0,.15.72.52.52,0,0,0,.47.23.51.51,0,0,0,.47-.23"/><path class="cls-15" d="M30.64,28.74a.13.13,0,0,1-.07-.12v-3a3.69,3.69,0,0,0,0-.56,1.08,1.08,0,0,1,0-.21c0-.06.07-.1.19-.12a1.4,1.4,0,0,1,.33,0,.13.13,0,0,1,.13.07.58.58,0,0,1,.06.17c0,.06,0,.1,0,.12a1,1,0,0,1,.35-.31,1,1,0,0,1,.45-.11.94.94,0,0,1,.57.18,1.23,1.23,0,0,1,.37.53,2.21,2.21,0,0,1,.14.81,1.77,1.77,0,0,1-.32,1.11,1,1,0,0,1-.86.4,1.08,1.08,0,0,1-.66-.21v1.18c0,.11-.1.16-.3.16h-.11a.47.47,0,0,1-.23,0m1.75-2.59a1.44,1.44,0,0,0-.14-.7.41.41,0,0,0-.4-.24.59.59,0,0,0-.31.09,1.28,1.28,0,0,0-.26.26v1.36a.9.9,0,0,0,.5.16c.41,0,.61-.31.61-.93"/><path class="cls-15" d="M33.72,27.26a1.53,1.53,0,0,1-.36-1.1A1.63,1.63,0,0,1,33.72,25a1.25,1.25,0,0,1,1-.38,1.07,1.07,0,0,1,.91.39,1.74,1.74,0,0,1,.3,1.07.41.41,0,0,1-.1.18c-.07.08-.12.12-.16.12H34.1a.81.81,0,0,0,.21.54.74.74,0,0,0,.52.16,1.45,1.45,0,0,0,.62-.15l.11-.05s.11.06.17.15a.52.52,0,0,1,.09.23c0,.07,0,.14-.16.2a1.31,1.31,0,0,1-.41.14,1.82,1.82,0,0,1-.45,0,1.4,1.4,0,0,1-1.08-.39m1.49-1.39a.82.82,0,0,0-.13-.5.42.42,0,0,0-.37-.18c-.35,0-.55.23-.61.68Z"/><path class="cls-15" d="M36.21,27.46V25.61a3.78,3.78,0,0,0,0-.56c0-.11,0-.18,0-.21s.06-.09.19-.12a1.47,1.47,0,0,1,.33,0,.13.13,0,0,1,.13.08.58.58,0,0,1,.06.17.49.49,0,0,1,0,.12.73.73,0,0,1,.62-.42.34.34,0,0,1,.26.08.26.26,0,0,1,.07.19.92.92,0,0,1,0,.26c0,.11-.07.16-.11.16l-.12,0-.16,0a.43.43,0,0,0-.3.11.79.79,0,0,0-.18.19v1.9c0,.11-.1.17-.3.17h-.11c-.2,0-.3-.06-.3-.17"/><path class="cls-15" d="M38.5,27.44a.82.82,0,0,1-.22-.65V25.23h-.15a.13.13,0,0,1-.12-.06A.4.4,0,0,1,38,25V24.9a.45.45,0,0,1,0-.19.15.15,0,0,1,.12-.05h.15l.07-.56c0-.1.11-.16.26-.16h.14c.16,0,.24.06.24.16v.56h.35a.13.13,0,0,1,.11.05.34.34,0,0,1,0,.19V25a.3.3,0,0,1,0,.18.11.11,0,0,1-.11.06H39v1.55a.33.33,0,0,0,.06.23.21.21,0,0,0,.18.07h.19s.08.05.11.14a.8.8,0,0,1,0,.21c0,.16-.16.24-.49.24a.79.79,0,0,1-.58-.21"/><path class="cls-15" d="M42.27,24.76a.41.41,0,0,1,0,.1l-1.35,3.8q0,.12-.3.12h-.09a.61.61,0,0,1-.22,0s-.07-.05-.07-.08a.23.23,0,0,1,0-.09l.39-1-.95-2.69a414626737441.46,414626737441.46,0,0,1,0-.1c0-.08.1-.11.31-.11h.13c.17,0,.26,0,.29.1L40.83,26c0,.13.09.35.16.64h0l.05-.2a3.24,3.24,0,0,1,.12-.44l.41-1.22c0-.07.12-.1.29-.1H42c.2,0,.29,0,.29.11"/><path class="cls-16" d="M45.53,25.52a.23.23,0,0,1,0,.15v1.55c0,.16-.13.28-.4.34a4.16,4.16,0,0,1-.9.09,1.76,1.76,0,0,1-1.37-.49,2.19,2.19,0,0,1-.45-1.52c0-1.35.63-2,1.87-2a2.59,2.59,0,0,1,.54.05,1.59,1.59,0,0,1,.45.14c.12.05.18.12.18.19a.38.38,0,0,1-.06.17,1,1,0,0,1-.12.2.19.19,0,0,1-.14.08l-.13-.05a1.62,1.62,0,0,0-.31-.1,1.73,1.73,0,0,0-.42-.05.94.94,0,0,0-.83.35,1.63,1.63,0,0,0-.27,1c0,.94.36,1.4,1.07,1.4a3.31,3.31,0,0,0,.55-.05v-.86h-.56a.14.14,0,0,1-.12-.06.44.44,0,0,1,0-.19v-.15a.42.42,0,0,1,0-.18.14.14,0,0,1,.12-.06h1.09a.23.23,0,0,1,.16.05"/><path class="cls-16" d="M46,26.74V24.81a.14.14,0,0,1,.07-.13.67.67,0,0,1,.23,0h.11c.2,0,.3.05.3.16v1.83a.37.37,0,0,0,.42.42.52.52,0,0,0,.31-.1.92.92,0,0,0,.23-.25v-1.9c0-.11.1-.16.31-.16h.11c.2,0,.3.05.3.16v1.86a3.85,3.85,0,0,0,0,.57c0,.12,0,.19,0,.21s-.07.1-.19.13a1.47,1.47,0,0,1-.33,0,.15.15,0,0,1-.14-.08,1.21,1.21,0,0,1-.05-.18.66.66,0,0,1,0-.13,1.26,1.26,0,0,1-.38.3,1,1,0,0,1-.48.12c-.57,0-.86-.3-.86-.91"/><path class="cls-16" d="M48.8,27.46V25.61a3.78,3.78,0,0,0,0-.56c0-.11,0-.18,0-.21s.06-.09.19-.12a1.47,1.47,0,0,1,.33,0,.13.13,0,0,1,.13.08.58.58,0,0,1,.06.17.49.49,0,0,1,0,.12.73.73,0,0,1,.62-.42.34.34,0,0,1,.26.08.26.26,0,0,1,.07.19.92.92,0,0,1,0,.26c0,.11-.07.16-.11.16l-.12,0-.16,0a.43.43,0,0,0-.3.11.79.79,0,0,0-.18.19v1.9c0,.11-.1.17-.3.17H49.1c-.2,0-.3-.06-.3-.17"/><path class="cls-16" d="M50.6,26.74V24.81a.16.16,0,0,1,.07-.13.67.67,0,0,1,.23,0H51c.2,0,.3.05.3.16v1.83a.37.37,0,0,0,.43.42A.49.49,0,0,0,52,27a.82.82,0,0,0,.24-.25v-1.9c0-.11.1-.16.3-.16h.11c.2,0,.3.05.3.16v1.86a3.85,3.85,0,0,0,0,.57,1.23,1.23,0,0,1,0,.21c0,.06-.06.1-.19.13a1.4,1.4,0,0,1-.33,0,.13.13,0,0,1-.13-.08.64.64,0,0,1-.06-.18.66.66,0,0,1,0-.13,1.26,1.26,0,0,1-.38.3,1,1,0,0,1-.48.12c-.57,0-.86-.3-.86-.91"/><path class="cls-17" d="M12.91,17.87a.45.45,0,0,0,0-.9.45.45,0,0,0,0,.9"/><path class="cls-17" d="M15.51,13.27a.45.45,0,0,0,0-.9.45.45,0,0,0,0,.9"/><path class="cls-17" d="M16.76,11.43a.45.45,0,0,0,0-.9.45.45,0,0,0,0,.9"/><path class="cls-17" d="M12,19.59a.45.45,0,1,0-.45-.45.45.45,0,0,0,.45.45"/><path class="cls-17" d="M12.34,22a.45.45,0,1,0-.46-.45.45.45,0,0,0,.46.45"/><path class="cls-17" d="M11.29,23.55a.45.45,0,0,0,.9,0,.45.45,0,0,0-.9,0"/><path class="cls-17" d="M11.56,25.5a.45.45,0,1,0-.9,0,.45.45,0,0,0,.9,0"/><path class="cls-17" d="M10.56,30.22a.45.45,0,0,0,.45-.45.45.45,0,0,0-.45-.45.46.46,0,0,0-.45.45.45.45,0,0,0,.45.45"/><path class="cls-17" d="M10.49,32.37a.45.45,0,0,0,.45-.45.45.45,0,1,0-.9,0,.45.45,0,0,0,.45.45"/><path class="cls-17" d="M10.53,34.43a.45.45,0,0,0,0-.9.45.45,0,0,0,0,.9"/><path class="cls-17" d="M11.61,33.91a.45.45,0,1,0,.45-.45.46.46,0,0,0-.45.45"/><path class="cls-17" d="M12.11,36.31a.45.45,0,0,0,.45-.45.46.46,0,0,0-.45-.46.46.46,0,0,0-.45.46.45.45,0,0,0,.45.45"/><path class="cls-17" d="M13.8,37.55a.45.45,0,0,0,.45.45.46.46,0,0,0,.45-.45.45.45,0,0,0-.45-.45.45.45,0,0,0-.45.45"/><path class="cls-17" d="M16.61,40.72a.46.46,0,1,0-.46.45.46.46,0,0,0,.46-.45"/><path class="cls-17" d="M16.81,42.12a.46.46,0,0,0,.91,0,.46.46,0,0,0-.91,0"/><path class="cls-17" d="M14.62,40.73a.45.45,0,1,0,0,.9.45.45,0,1,0,0-.9"/><path class="cls-17" d="M15.76,43.12a.45.45,0,1,0,0-.9.45.45,0,1,0,0,.9"/><path class="cls-17" d="M17,43.56a.45.45,0,0,0-.45.45.45.45,0,0,0,.45.45.46.46,0,0,0,.45-.45.45.45,0,0,0-.45-.45"/><path class="cls-17" d="M17.78,45.21a.45.45,0,0,0,.45.45.46.46,0,0,0,.45-.45.45.45,0,0,0-.45-.45.45.45,0,0,0-.45.45"/><path class="cls-17" d="M18.86,47a.45.45,0,0,0-.45-.45.45.45,0,1,0,0,.9.45.45,0,0,0,.45-.45"/><path class="cls-17" d="M19.12,46.42a.45.45,0,1,0,.45-.45.45.45,0,0,0-.45.45"/><path class="cls-17" d="M18.81,48.26a.45.45,0,0,0-.45.45.46.46,0,0,0,.45.45.45.45,0,0,0,.45-.45.45.45,0,0,0-.45-.45"/><path class="cls-17" d="M20.63,47.9a.45.45,0,1,0-.45.45.45.45,0,0,0,.45-.45"/><path class="cls-17" d="M19,43.41a.45.45,0,0,0-.45-.45.45.45,0,0,0-.45.45.46.46,0,0,0,.45.45.45.45,0,0,0,.45-.45"/><path class="cls-17" d="M20,44.59a.45.45,0,1,0-.45.45.45.45,0,0,0,.45-.45"/><path class="cls-17" d="M20.72,46.27a.45.45,0,0,0,0-.9.45.45,0,0,0,0,.9"/><path class="cls-17" d="M22.14,48.8a.45.45,0,0,0,.45-.45.46.46,0,0,0-.45-.45.45.45,0,0,0-.45.45.45.45,0,0,0,.45.45"/><path class="cls-17" d="M22.61,50.08a.45.45,0,0,0,.45-.45.45.45,0,0,0-.45-.45.46.46,0,0,0-.45.45.45.45,0,0,0,.45.45"/><path class="cls-17" d="M21.55,47.54a.45.45,0,0,0,.45-.45.46.46,0,0,0-.91,0,.46.46,0,0,0,.46.45"/><path class="cls-17" d="M21.48,49.14a.45.45,0,0,0-.9,0,.45.45,0,1,0,.9,0"/><path class="cls-17" d="M20.8,51a.45.45,0,0,0-.45.45.46.46,0,0,0,.45.45.45.45,0,0,0,.45-.45A.45.45,0,0,0,20.8,51"/><path class="cls-17" d="M21.71,50.09a.46.46,0,0,0,0,.91.46.46,0,0,0,0-.91"/><path class="cls-17" d="M19.92,49.47a.45.45,0,1,0,.45.45.45.45,0,0,0-.45-.45"/><path class="cls-17" d="M15.13,39.54a.45.45,0,1,0,0-.9.45.45,0,1,0,0,.9"/><path class="cls-17" d="M12.39,37.82a.45.45,0,1,0,.45-.46.45.45,0,0,0-.45.46"/><path class="cls-17" d="M13.65,39a.45.45,0,0,0-.45.45.46.46,0,0,0,.45.45.45.45,0,0,0,.45-.45.45.45,0,0,0-.45-.45"/><path class="cls-17" d="M13.54,41.65a.45.45,0,0,0-.9,0,.45.45,0,1,0,.9,0"/><path class="cls-17" d="M14.7,43.22a.45.45,0,1,0-.45.45.45.45,0,0,0,.45-.45"/><path class="cls-17" d="M15.47,44.15a.45.45,0,1,0,.45.45.45.45,0,0,0-.45-.45"/><path class="cls-17" d="M16.86,45.37a.46.46,0,1,0,.45.46.46.46,0,0,0-.45-.46"/><path class="cls-17" d="M12.62,39.83a.46.46,0,0,0-.45-.46.46.46,0,0,0,0,.91.45.45,0,0,0,.45-.45"/><path class="cls-17" d="M13.48,36.1a.45.45,0,1,0-.46-.45.45.45,0,0,0,.46.45"/><path class="cls-17" d="M10.75,36.51a.45.45,0,0,0,.45-.45.45.45,0,0,0-.45-.45.46.46,0,0,0-.45.45.45.45,0,0,0,.45.45"/><path class="cls-17" d="M11.88,38.08a.45.45,0,0,0-.45-.45.46.46,0,0,0-.45.45.45.45,0,0,0,.45.45.45.45,0,0,0,.45-.45"/><path class="cls-17" d="M11.83,27.8a.45.45,0,0,0,.9,0,.45.45,0,1,0-.9,0"/><path class="cls-17" d="M10.38,27.65a.45.45,0,0,0,.45.45.45.45,0,0,0,0-.9.45.45,0,0,0-.45.45"/><path class="cls-17" d="M12.06,30.36a.45.45,0,1,0-.45-.45.45.45,0,0,0,.45.45"/><path class="cls-17" d="M12.05,32.35a.45.45,0,1,0-.45-.45.45.45,0,0,0,.45.45"/><path class="cls-17" d="M12.83,25.7a.45.45,0,1,0-.45.45.46.46,0,0,0,.45-.45"/><path class="cls-17" d="M11.11,21.59a.45.45,0,1,0-.45-.45.45.45,0,0,0,.45.45"/><path class="cls-17" d="M10.42,23.67a.45.45,0,0,0,.45-.45.45.45,0,0,0-.45-.45.46.46,0,0,0-.45.45.45.45,0,0,0,.45.45"/><path class="cls-17" d="M9.84,25.75a.45.45,0,0,0,0-.9.45.45,0,0,0,0,.9"/><path class="cls-17" d="M9.37,28a.45.45,0,1,0-.45-.45.46.46,0,0,0,.45.45"/><path class="cls-17" d="M9.06,30.09a.46.46,0,0,0,0-.91.46.46,0,0,0,0,.91"/><path class="cls-17" d="M8.93,32.4A.45.45,0,1,0,8.48,32a.45.45,0,0,0,.45.45"/><path class="cls-17" d="M9.46,34a.45.45,0,1,0-.9,0,.45.45,0,1,0,.9,0"/><path class="cls-17" d="M9.84,36.27a.45.45,0,1,0-.45.45.45.45,0,0,0,.45-.45"/><path class="cls-17" d="M10,37.9a.45.45,0,1,0,.45.45A.46.46,0,0,0,10,37.9"/><path class="cls-17" d="M10.69,39.75a.45.45,0,0,0-.45.45.46.46,0,0,0,.45.45.45.45,0,0,0,.45-.45.45.45,0,0,0-.45-.45"/><path class="cls-17" d="M11.56,41.66a.45.45,0,1,0,.45.45.45.45,0,0,0-.45-.45"/><path class="cls-17" d="M12.74,43.32a.45.45,0,1,0,.45.45.45.45,0,0,0-.45-.45"/><path class="cls-17" d="M13.94,44.75a.45.45,0,1,0,0,.9.45.45,0,1,0,0-.9"/><path class="cls-17" d="M15.49,46a.45.45,0,0,0,0,.9.45.45,0,1,0,0-.9"/><path class="cls-17" d="M17.26,47.17a.45.45,0,1,0,.45.45.45.45,0,0,0-.45-.45"/><path class="cls-7" d="M8.45,7.39a.17.17,0,0,0-.23.24,29.9,29.9,0,0,1,9,21.46,30.17,30.17,0,0,1-1.17,8.34.27.27,0,0,0,0,.2c.29.63.61,1.25.94,1.86a.12.12,0,0,0,.21,0,29.81,29.81,0,0,0,1.56-9.54A29.64,29.64,0,0,0,8.45,7.39"/><polygon class="cls-17" points="23.06 35.96 23.63 35.96 24.52 38.09 24.54 38.09 25.42 35.96 25.98 35.96 25.98 38.77 25.61 38.77 25.61 36.46 25.6 36.46 24.65 38.77 24.4 38.77 23.45 36.46 23.44 36.46 23.44 38.77 23.06 38.77 23.06 35.96"/><path class="cls-17" d="M27.42,36h.34L29,38.77h-.44l-.28-.7H26.9l-.28.7h-.44Zm.68,1.78-.53-1.28h0L27,37.74Z"/><polygon class="cls-17" points="29.13 35.96 29.51 35.96 29.51 38.41 30.8 38.41 30.8 38.77 29.13 38.77 29.13 35.96"/><path class="cls-17" d="M32.13,36h.34l1.2,2.81h-.44l-.28-.7H31.61l-.27.7h-.45Zm.68,1.78-.52-1.28h0l-.53,1.28Z"/><polygon class="cls-17" points="34.22 37.57 33.16 35.96 33.65 35.96 34.41 37.2 35.2 35.96 35.66 35.96 34.6 37.57 34.6 38.77 34.22 38.77 34.22 37.57"/><path class="cls-17" d="M36,38.18a.71.71,0,0,0,.26.23.78.78,0,0,0,.33.07.69.69,0,0,0,.2,0l.18-.09a.58.58,0,0,0,.13-.14.46.46,0,0,0,0-.21.28.28,0,0,0-.1-.24.72.72,0,0,0-.26-.14l-.33-.12a1.22,1.22,0,0,1-.33-.14.81.81,0,0,1-.26-.26.78.78,0,0,1-.1-.43,1,1,0,0,1,.05-.27.79.79,0,0,1,.17-.25,1.21,1.21,0,0,1,.29-.19,1.19,1.19,0,0,1,.44-.08,1.61,1.61,0,0,1,.44.06.84.84,0,0,1,.37.26l-.31.28a.51.51,0,0,0-.21-.17.54.54,0,0,0-.29-.07.62.62,0,0,0-.26,0,.44.44,0,0,0-.26.25.39.39,0,0,0,0,.14.37.37,0,0,0,.1.27,1.28,1.28,0,0,0,.26.16l.33.1a1.71,1.71,0,0,1,.34.13.92.92,0,0,1,.25.23.68.68,0,0,1,.1.4.87.87,0,0,1-.07.37.9.9,0,0,1-.21.27,1,1,0,0,1-.31.17,1.16,1.16,0,0,1-.38.06,1.25,1.25,0,0,1-.51-.1.79.79,0,0,1-.38-.29Z"/><rect class="cls-17" x="37.94" y="35.96" width="0.38" height="2.8"/><path class="cls-17" d="M39.78,36h.35l1.2,2.81h-.45l-.28-.7H39.26l-.27.7h-.45Zm.68,1.78-.52-1.28h0l-.53,1.28Z"/><polygon class="cls-17" points="23.03 42 23.5 42 24 43.67 24.01 43.67 24.55 42 25 42 25.56 43.67 25.57 43.67 26.05 42 26.5 42 25.78 44.23 25.35 44.23 24.76 42.57 24.75 42.57 24.21 44.23 23.76 44.23 23.03 42"/><path class="cls-17" d="M26.8,41.21a.29.29,0,0,1,.09-.22.29.29,0,0,1,.44,0,.29.29,0,0,1,.09.22.29.29,0,0,1-.09.21.31.31,0,0,1-.44,0,.29.29,0,0,1-.09-.21m.1.8h.42v2.23H26.9Z"/><path class="cls-17" d="M29.19,42.37h-.61v1a1.15,1.15,0,0,0,0,.19.41.41,0,0,0,0,.16.27.27,0,0,0,.09.12.36.36,0,0,0,.19,0h.16a.34.34,0,0,0,.14-.05v.38a.47.47,0,0,1-.19.06.72.72,0,0,1-.19,0,.81.81,0,0,1-.38-.07.48.48,0,0,1-.2-.17.72.72,0,0,1-.07-.25,2.44,2.44,0,0,1,0-.27V42.37h-.49V42h.49v-.62h.42V42h.61Z"/><path class="cls-17" d="M29.73,40.68h.43v1.67h0a.58.58,0,0,1,.27-.29A.9.9,0,0,1,30.9,42a.81.81,0,0,1,.31,0,.68.68,0,0,1,.26.15,1,1,0,0,1,.18.26,1.14,1.14,0,0,1,.06.39v1.43h-.42V42.92a.68.68,0,0,0-.05-.27.54.54,0,0,0-.11-.18l-.16-.1a.63.63,0,0,0-.19,0,.7.7,0,0,0-.25,0,.41.41,0,0,0-.19.13.74.74,0,0,0-.14.23,1.18,1.18,0,0,0,0,.34v1.14h-.43Z"/><path class="cls-17" d="M33.59,41.21a.29.29,0,0,1,.09-.22.29.29,0,0,1,.44,0,.29.29,0,0,1,.09.22.29.29,0,0,1-.09.21.31.31,0,0,1-.44,0,.29.29,0,0,1-.09-.21m.1.8h.42v2.23h-.42Z"/><path class="cls-17" d="M34.89,40.9h1.18a1.31,1.31,0,0,1,.52.09.91.91,0,0,1,.33.22.75.75,0,0,1,.17.3,1.24,1.24,0,0,1,0,.33,1.22,1.22,0,0,1,0,.32.75.75,0,0,1-.17.3.91.91,0,0,1-.33.22,1.31,1.31,0,0,1-.52.09h-.72v1.46h-.46Zm.46,1.47h.59a1.14,1.14,0,0,0,.26,0,.57.57,0,0,0,.23-.08.41.41,0,0,0,.16-.16.54.54,0,0,0,.06-.27.55.55,0,0,0-.06-.28.35.35,0,0,0-.16-.16.78.78,0,0,0-.23-.08l-.26,0h-.59Z"/><path class="cls-17" d="M37.57,42H38v.35h0a.46.46,0,0,1,.11-.16l.16-.13.19-.08.21,0,.18,0,0,.46-.1,0h-.1a.65.65,0,0,0-.48.17.77.77,0,0,0-.16.54v1.12h-.43Z"/><path class="cls-17" d="M39.12,43.12a1,1,0,0,1,.1-.46,1,1,0,0,1,.25-.37,1.05,1.05,0,0,1,.37-.25,1.23,1.23,0,0,1,.47-.09,1.14,1.14,0,0,1,.46.09,1.09,1.09,0,0,1,.38.25,1.34,1.34,0,0,1,.25.37,1.18,1.18,0,0,1,.09.46,1.22,1.22,0,0,1-.09.46,1.34,1.34,0,0,1-.25.37,1.25,1.25,0,0,1-.38.25,1.14,1.14,0,0,1-.46.09,1.23,1.23,0,0,1-.47-.09,1.21,1.21,0,0,1-.37-.25,1,1,0,0,1-.25-.37,1.06,1.06,0,0,1-.1-.46m.45,0a.78.78,0,0,0,.06.31.68.68,0,0,0,.14.25.72.72,0,0,0,.54.22.73.73,0,0,0,.3-.06.67.67,0,0,0,.23-.16.58.58,0,0,0,.15-.25,1,1,0,0,0,0-.62.58.58,0,0,0-.15-.25.56.56,0,0,0-.23-.16.73.73,0,0,0-.3-.06.78.78,0,0,0-.31.06.63.63,0,0,0-.23.16.68.68,0,0,0-.14.25.78.78,0,0,0-.06.31"/><path class="cls-17" d="M42,42h.43v.32h0a.8.8,0,0,1,.33-.27,1,1,0,0,1,.44-.1,1.16,1.16,0,0,1,.47.09,1,1,0,0,1,.36.25,1.16,1.16,0,0,1,.23.37,1.36,1.36,0,0,1,0,.92,1.21,1.21,0,0,1-.23.38,1.13,1.13,0,0,1-.36.24,1.16,1.16,0,0,1-.47.09,1,1,0,0,1-.45-.1.73.73,0,0,1-.32-.28h0v1.65H42Zm1.16.34a.73.73,0,0,0-.3.06.56.56,0,0,0-.23.16.58.58,0,0,0-.15.25,1,1,0,0,0,0,.62.58.58,0,0,0,.15.25.67.67,0,0,0,.23.16.73.73,0,0,0,.3.06.72.72,0,0,0,.54-.22.68.68,0,0,0,.14-.25.83.83,0,0,0,0-.62.68.68,0,0,0-.14-.25.63.63,0,0,0-.23-.16.78.78,0,0,0-.31-.06"/><path class="cls-17" d="M45.22,43.27a.6.6,0,0,0,.06.27.68.68,0,0,0,.17.21,1.36,1.36,0,0,0,.24.13.86.86,0,0,0,.28,0,.62.62,0,0,0,.34-.09,1,1,0,0,0,.27-.24l.32.24a1.15,1.15,0,0,1-1,.46,1.21,1.21,0,0,1-.48-.09,1.08,1.08,0,0,1-.37-.24,1.19,1.19,0,0,1-.22-.38,1.17,1.17,0,0,1-.08-.46,1.14,1.14,0,0,1,.08-.46,1.23,1.23,0,0,1,.24-.38,1.31,1.31,0,0,1,.37-.24,1.14,1.14,0,0,1,.46-.09,1.09,1.09,0,0,1,.5.1.89.89,0,0,1,.33.27,1.07,1.07,0,0,1,.2.38,1.51,1.51,0,0,1,0,.42v.15Zm1.33-.33a.68.68,0,0,0,0-.26.72.72,0,0,0-.12-.21.46.46,0,0,0-.2-.13.64.64,0,0,0-.28-.05.82.82,0,0,0-.28.05.73.73,0,0,0-.22.16.66.66,0,0,0-.19.44Z"/><path class="cls-17" d="M47.51,42h.43v.35h0a.36.36,0,0,1,.11-.16l.16-.13.19-.08.21,0,.18,0,0,.46-.1,0h-.1a.65.65,0,0,0-.48.17.77.77,0,0,0-.16.54v1.12h-.43Z"/><path class="cls-17" d="M50.45,42.37h-.61v1a1.15,1.15,0,0,0,0,.19.41.41,0,0,0,0,.16.29.29,0,0,0,.1.12.3.3,0,0,0,.18,0h.16a.34.34,0,0,0,.14-.05v.38a.47.47,0,0,1-.19.06.72.72,0,0,1-.19,0,.81.81,0,0,1-.38-.07.4.4,0,0,1-.19-.17.57.57,0,0,1-.08-.25,2.44,2.44,0,0,1,0-.27V42.37h-.49V42h.49v-.62h.42V42h.61Z"/><path class="cls-17" d="M50.73,42h.49l.66,1.74h0L52.52,42H53l-1,2.71q-.06.15-.12.27a1.1,1.1,0,0,1-.14.21,1.07,1.07,0,0,1-.21.13.85.85,0,0,1-.29,0H51a.67.67,0,0,1-.19-.05l0-.38a.8.8,0,0,0,.26,0,.38.38,0,0,0,.16,0,.24.24,0,0,0,.12-.07l.08-.12.07-.15.14-.35Z"/><path class="cls-7" d="M34.56,33.24a.08.08,0,0,1-.07,0h-.3c-.06,0,0,0,0,0L36,30a.25.25,0,0,1,.46,0l1,3.12a.08.08,0,0,1-.08.1h-.26a.05.05,0,0,1-.05,0l-.23-.79a.08.08,0,0,0-.08-.06H35.07a.07.07,0,0,0-.07,0Zm.72-1.17h1.31a0,0,0,0,0,0-.06l-.46-1.6a0,0,0,0,0-.09,0L35.23,32s0,.07.05.07"/><path class="cls-7" d="M43.15,32.43a.1.1,0,0,0-.07,0H41.45a.08.08,0,0,0-.08.06l-.24.79s0,0-.05,0h-.25s-.1-.05-.08-.1l1-3.12a.26.26,0,0,1,.47,0L44,33.24s0,0,0,0h-.3a.07.07,0,0,1-.07,0ZM42.92,32l-.86-1.6s-.09,0-.1,0L41.5,32a.05.05,0,0,0,0,.06h1.32s.07,0,.05-.07"/><path class="cls-7" d="M38,32.68l.77-2.6a.27.27,0,0,1,.26-.2.28.28,0,0,1,.27.2l.77,2.6a0,0,0,0,0,.06,0l.77-2.74a.07.07,0,0,1,.07-.06h.28s0,0,0,0-1,3.31-1,3.31a.08.08,0,0,1-.08.05H40a.08.08,0,0,1-.07-.05l-.81-2.75a0,0,0,0,0-.06,0l-.82,2.75a.07.07,0,0,1-.07.05h-.29a.08.08,0,0,1-.07-.05l-1-3.28s0-.07,0-.07h.27a.07.07,0,0,1,.07.06L38,32.68a0,0,0,0,0,.07,0"/><path class="cls-7" d="M44.33,33.28h-.19a.08.08,0,0,1-.08-.07v-3a.31.31,0,0,1,.31-.31h.74a1.33,1.33,0,0,1,.82.23A.91.91,0,0,1,46,31.39a.88.88,0,0,1-.58.27,0,0,0,0,0,0,.06l.94,1.54s0,0,0,0H46a.05.05,0,0,1-.06,0L45,31.74a.09.09,0,0,0-.07,0h-.46a.07.07,0,0,0-.07.07v1.43a.07.07,0,0,1-.08.07m.08-2a.08.08,0,0,0,.07.08H45a1.5,1.5,0,0,0,.4-.05.73.73,0,0,0,.25-.13.45.45,0,0,0,.14-.19.59.59,0,0,0,0-.23.51.51,0,0,0-.18-.42,1,1,0,0,0-.25-.13,1.54,1.54,0,0,0-.4,0h-.54a.07.07,0,0,0-.07.08Z"/><path class="cls-7" d="M46.5,30.19a.31.31,0,0,1,.31-.31h.82a2.05,2.05,0,0,1,.64.11,1.78,1.78,0,0,1,.57.32,1.57,1.57,0,0,1,.42.53,1.81,1.81,0,0,1,0,1.49,1.57,1.57,0,0,1-.42.53,1.78,1.78,0,0,1-.57.32,2,2,0,0,1-.64.1H46.58a.08.08,0,0,1-.08-.07Zm.35,2.7a.08.08,0,0,0,.07.08h.6a1.76,1.76,0,0,0,.68-.12,1.31,1.31,0,0,0,.47-.32,1.07,1.07,0,0,0,.28-.44,1.44,1.44,0,0,0,.09-.51,1.52,1.52,0,0,0-.09-.51,1.22,1.22,0,0,0-.28-.44,1.43,1.43,0,0,0-.47-.31,1.76,1.76,0,0,0-.68-.12h-.6a.08.08,0,0,0-.07.07Z"/><path class="cls-7" d="M51.31,30.4a.11.11,0,0,1-.11,0,.73.73,0,0,0-.61-.28,1.26,1.26,0,0,0-.27,0,.7.7,0,0,0-.23.11.49.49,0,0,0-.16.19.61.61,0,0,0-.07.28.53.53,0,0,0,.13.36,1.33,1.33,0,0,0,.33.21,3.26,3.26,0,0,0,.41.14,1.5,1.5,0,0,1,.43.18,1.06,1.06,0,0,1,.32.28.86.86,0,0,1,.13.49.92.92,0,0,1-.1.41,1,1,0,0,1-.26.31,1.24,1.24,0,0,1-.36.19,1.12,1.12,0,0,1-.4.07,1.45,1.45,0,0,1-.59-.12,1,1,0,0,1-.43-.32.08.08,0,0,1,0-.11l.19-.14a.08.08,0,0,1,.1,0,.78.78,0,0,0,.27.24,1,1,0,0,0,.46.11.75.75,0,0,0,.26,0,.71.71,0,0,0,.23-.12.81.81,0,0,0,.18-.19.6.6,0,0,0,.06-.27.54.54,0,0,0-.07-.29.64.64,0,0,0-.2-.2,1.46,1.46,0,0,0-.28-.13l-.32-.11a1.75,1.75,0,0,1-.32-.12.88.88,0,0,1-.28-.17.75.75,0,0,1-.2-.26.88.88,0,0,1-.07-.39.93.93,0,0,1,.09-.42,1,1,0,0,1,.25-.31.86.86,0,0,1,.36-.17,1.34,1.34,0,0,1,.4-.06,1.46,1.46,0,0,1,.52.09,1,1,0,0,1,.38.26.07.07,0,0,1,0,.11Z"/><path class="cls-17" d="M24.82,29.9h0a.39.39,0,0,1,.36.24l1.3,3a.09.09,0,0,1-.08.12h-.5a.1.1,0,0,1-.08-.05l-.27-.67a.08.08,0,0,0-.08,0H24.13a.08.08,0,0,0-.08,0l-.26.66a.09.09,0,0,1-.08.06h-.49a.08.08,0,0,1-.07-.12l1.31-3a.38.38,0,0,1,.36-.24m.46,2-.4-1.05a.09.09,0,0,0-.16,0l-.4,1.05a.08.08,0,0,0,.08.11h.8a.08.08,0,0,0,.08-.11"/><path class="cls-17" d="M28.41,30.55a.08.08,0,0,1-.12,0,.58.58,0,0,0-.2-.13,1,1,0,0,0-.34-.07.69.69,0,0,0-.2,0,.48.48,0,0,0-.18.08.3.3,0,0,0-.12.13.42.42,0,0,0-.05.2.31.31,0,0,0,.12.26,1.57,1.57,0,0,0,.29.16l.39.12a1.73,1.73,0,0,1,.39.18,1,1,0,0,1,.29.29.85.85,0,0,1,.12.48,1,1,0,0,1-.1.47.91.91,0,0,1-.27.34,1.2,1.2,0,0,1-.39.2,1.84,1.84,0,0,1-.47.06,1.81,1.81,0,0,1-.61-.1,1.25,1.25,0,0,1-.44-.29.09.09,0,0,1,0-.12l.33-.31a.08.08,0,0,1,.12,0,1,1,0,0,0,.23.18.85.85,0,0,0,.38.09l.21,0A.46.46,0,0,0,28,32.7a.4.4,0,0,0,.14-.15.42.42,0,0,0,.05-.2.37.37,0,0,0-.12-.29,1.58,1.58,0,0,0-.29-.17,3.59,3.59,0,0,0-.39-.12,1.66,1.66,0,0,1-.38-.18.8.8,0,0,1-.3-.28.85.85,0,0,1-.12-.48.94.94,0,0,1,.11-.45,1.08,1.08,0,0,1,.28-.32,1.64,1.64,0,0,1,.4-.19,1.72,1.72,0,0,1,1,0,1.28,1.28,0,0,1,.38.21.09.09,0,0,1,0,.13Z"/><path class="cls-17" d="M29.16,29.9h.43a.08.08,0,0,1,.08.08v3.2a.08.08,0,0,1-.08.09h-.43a.09.09,0,0,1-.09-.09V30a.09.09,0,0,1,.09-.08"/><path class="cls-17" d="M31.55,29.9h0a.39.39,0,0,1,.36.24l1.3,3a.09.09,0,0,1-.08.12h-.5a.1.1,0,0,1-.08-.05l-.27-.67a.08.08,0,0,0-.08,0H30.85a.08.08,0,0,0-.07,0l-.26.66a.1.1,0,0,1-.09.06H30a.09.09,0,0,1-.08-.12l1.31-3a.4.4,0,0,1,.37-.24m.46,2-.4-1.05a.09.09,0,0,0-.16,0l-.4,1.05a.08.08,0,0,0,.08.11h.8a.08.08,0,0,0,.08-.11"/></g></g></svg>