<svg xmlns="http://www.w3.org/2000/svg" xmlns:xlink="http://www.w3.org/1999/xlink" viewBox="0 0 449.23 125.56"><defs><style>.cls-1{font-size:22.91px;fill:#fff;font-family:AvantGardeITCbyBT-Book, AvantGarde Bk BT;letter-spacing:0.2em;}.cls-2{fill:url(#_ÂÁ_Ï_ÌÌ_È_ËÂÌÚ_775);}.cls-3{fill:url(#_ÂÁ_Ï_ÌÌ_È_ËÂÌÚ_775-2);}.cls-4{fill:url(#_ÂÁ_Ï_ÌÌ_È_ËÂÌÚ_775-3);}.cls-5{fill:url(#_ÂÁ_Ï_ÌÌ_È_ËÂÌÚ_775-4);}.cls-6{fill:url(#_ÂÁ_Ï_ÌÌ_È_ËÂÌÚ_775-5);}.cls-7{fill:url(#_ÂÁ_Ï_ÌÌ_È_ËÂÌÚ_775-6);}.cls-8{fill:url(#_ÂÁ_Ï_ÌÌ_È_ËÂÌÚ_775-7);}.cls-9{fill:url(#_ÂÁ_Ï_ÌÌ_È_ËÂÌÚ_775-8);}.cls-10{fill:url(#_ÂÁ_Ï_ÌÌ_È_ËÂÌÚ_775-9);}.cls-11{fill:url(#_ÂÁ_Ï_ÌÌ_È_ËÂÌÚ_775-10);}.cls-12{fill:url(#_ÂÁ_Ï_ÌÌ_È_ËÂÌÚ_775-11);}.cls-13{fill:url(#_ÂÁ_Ï_ÌÌ_È_ËÂÌÚ_775-12);}.cls-14{fill:url(#_ÂÁ_Ï_ÌÌ_È_ËÂÌÚ_775-13);}.cls-15{fill:url(#_ÂÁ_Ï_ÌÌ_È_ËÂÌÚ_775-14);}</style><linearGradient id="_ÂÁ_Ï_ÌÌ_È_ËÂÌÚ_775" x1="87.6" y1="-20.77" x2="204.93" y2="86.15" gradientUnits="userSpaceOnUse"><stop offset="0" stop-color="#b86c29"/><stop offset="0.04" stop-color="#c17832"/><stop offset="0.1" stop-color="#da9949"/><stop offset="0.18" stop-color="#ffc96b"/><stop offset="0.35" stop-color="#ffe8c2"/><stop offset="0.42" stop-color="#ffdb9f"/><stop offset="0.53" stop-color="#ffc96b"/><stop offset="0.57" stop-color="#f4bb61"/><stop offset="0.68" stop-color="#d49043"/><stop offset="0.77" stop-color="#bf7630"/><stop offset="0.82" stop-color="#b86c29"/><stop offset="0.89" stop-color="#c37831"/><stop offset="1" stop-color="#dc9442"/></linearGradient><linearGradient id="_ÂÁ_Ï_ÌÌ_È_ËÂÌÚ_775-2" x1="93.4" y1="-27.13" x2="210.73" y2="79.79" xlink:href="#_ÂÁ_Ï_ÌÌ_È_ËÂÌÚ_775"/><linearGradient id="_ÂÁ_Ï_ÌÌ_È_ËÂÌÚ_775-3" x1="79.26" y1="-11.62" x2="196.59" y2="95.3" xlink:href="#_ÂÁ_Ï_ÌÌ_È_ËÂÌÚ_775"/><linearGradient id="_ÂÁ_Ï_ÌÌ_È_ËÂÌÚ_775-4" x1="95.68" y1="-29.63" x2="213.01" y2="77.29" xlink:href="#_ÂÁ_Ï_ÌÌ_È_ËÂÌÚ_775"/><linearGradient id="_ÂÁ_Ï_ÌÌ_È_ËÂÌÚ_775-5" x1="69.68" y1="-1.1" x2="187.01" y2="105.82" xlink:href="#_ÂÁ_Ï_ÌÌ_È_ËÂÌÚ_775"/><linearGradient id="_ÂÁ_Ï_ÌÌ_È_ËÂÌÚ_775-6" x1="95.51" y1="-29.44" x2="212.84" y2="77.48" xlink:href="#_ÂÁ_Ï_ÌÌ_È_ËÂÌÚ_775"/><linearGradient id="_ÂÁ_Ï_ÌÌ_È_ËÂÌÚ_775-7" x1="60.6" y1="8.87" x2="177.93" y2="115.78" xlink:href="#_ÂÁ_Ï_ÌÌ_È_ËÂÌÚ_775"/><linearGradient id="_ÂÁ_Ï_ÌÌ_È_ËÂÌÚ_775-8" x1="262.68" y1="3732.59" x2="380.01" y2="3839.51" gradientTransform="matrix(1, 0, 0, -1, 0, 3878.92)" xlink:href="#_ÂÁ_Ï_ÌÌ_È_ËÂÌÚ_775"/><linearGradient id="_ÂÁ_Ï_ÌÌ_È_ËÂÌÚ_775-9" x1="268.47" y1="3726.24" x2="385.8" y2="3833.15" gradientTransform="matrix(1, 0, 0, -1, 0, 3878.92)" xlink:href="#_ÂÁ_Ï_ÌÌ_È_ËÂÌÚ_775"/><linearGradient id="_ÂÁ_Ï_ÌÌ_È_ËÂÌÚ_775-10" x1="254.34" y1="3741.75" x2="371.67" y2="3848.66" gradientTransform="matrix(1, 0, 0, -1, 0, 3878.92)" xlink:href="#_ÂÁ_Ï_ÌÌ_È_ËÂÌÚ_775"/><linearGradient id="_ÂÁ_Ï_ÌÌ_È_ËÂÌÚ_775-11" x1="270.76" y1="3723.73" x2="388.09" y2="3830.65" gradientTransform="matrix(1, 0, 0, -1, 0, 3878.92)" xlink:href="#_ÂÁ_Ï_ÌÌ_È_ËÂÌÚ_775"/><linearGradient id="_ÂÁ_Ï_ÌÌ_È_ËÂÌÚ_775-12" x1="244.76" y1="3752.26" x2="362.09" y2="3859.18" gradientTransform="matrix(1, 0, 0, -1, 0, 3878.92)" xlink:href="#_ÂÁ_Ï_ÌÌ_È_ËÂÌÚ_775"/><linearGradient id="_ÂÁ_Ï_ÌÌ_È_ËÂÌÚ_775-13" x1="270.58" y1="3723.92" x2="387.91" y2="3830.84" gradientTransform="matrix(1, 0, 0, -1, 0, 3878.92)" xlink:href="#_ÂÁ_Ï_ÌÌ_È_ËÂÌÚ_775"/><linearGradient id="_ÂÁ_Ï_ÌÌ_È_ËÂÌÚ_775-14" x1="235.67" y1="3762.23" x2="353" y2="3869.15" gradientTransform="matrix(1, 0, 0, -1, 0, 3878.92)" xlink:href="#_ÂÁ_Ï_ÌÌ_È_ËÂÌÚ_775"/></defs><g id="Layer_2" data-name="Layer 2"><g id="Layer_3" data-name="Layer 3"><text class="cls-1" transform="translate(0 72.86)">Multi-Award Winning Developer</text><polygon class="cls-2" points="117.94 3.58 121.71 3.69 118.68 5.94 119.74 9.56 116.67 7.38 113.55 9.5 114.67 5.9 111.69 3.59 115.46 3.55 116.73 0 117.94 3.58"/><polyline class="cls-3" points="132.57 3.81 133.56 6.75 136.67 6.84 134.17 8.7 135.05 11.68 132.51 9.88 129.94 11.63 130.87 8.67 128.41 6.76 131.52 6.73 132.57 3.81"/><polygon class="cls-4" points="100.3 6.75 97.19 6.84 99.69 8.7 98.82 11.68 101.35 9.88 103.92 11.63 102.99 8.67 105.45 6.76 102.34 6.73 101.29 3.81 100.3 6.75"/><polygon class="cls-5" points="146.53 14.26 149.32 14.35 147.08 16.01 147.86 18.69 145.59 17.07 143.28 18.64 144.12 15.98 141.91 14.28 144.7 14.24 145.64 11.62 146.53 14.26"/><polygon class="cls-6" points="87.33 14.26 84.54 14.35 86.78 16.01 86 18.69 88.27 17.07 90.58 18.64 89.75 15.98 91.95 14.28 89.16 14.24 88.22 11.62 87.33 14.26"/><polygon class="cls-7" points="156.35 23.56 159.14 23.64 156.9 25.31 157.68 27.98 155.41 26.37 153.1 27.94 153.94 25.28 151.73 23.57 154.52 23.54 155.46 20.92 156.35 23.56"/><polygon class="cls-8" points="77.51 23.56 74.73 23.64 76.96 25.31 76.18 27.98 78.46 26.37 80.76 27.94 79.93 25.28 82.13 23.57 79.34 23.54 78.4 20.92 77.51 23.56"/><polygon class="cls-9" points="293.01 121.98 296.79 121.87 293.76 119.62 294.82 116 291.74 118.18 288.62 116.06 289.75 119.66 286.76 121.96 290.54 122 291.81 125.56 293.01 121.98"/><polygon class="cls-10" points="308.64 118.81 311.74 118.72 309.25 116.86 310.12 113.88 307.59 115.68 305.02 113.92 305.95 116.89 303.49 118.79 306.6 118.83 307.64 121.75 308.64 118.81"/><polygon class="cls-11" points="275.38 118.81 272.27 118.72 274.76 116.86 273.89 113.88 276.43 115.68 278.99 113.92 278.07 116.89 280.52 118.79 277.42 118.83 276.37 121.75 275.38 118.81"/><polygon class="cls-12" points="321.61 111.3 324.39 111.21 322.15 109.55 322.94 106.87 320.66 108.48 318.36 106.92 319.19 109.58 316.99 111.28 319.77 111.31 320.71 113.94 321.61 111.3"/><polygon class="cls-13" points="262.41 111.3 259.62 111.21 261.86 109.55 261.07 106.87 263.35 108.48 265.65 106.92 264.82 109.58 267.03 111.28 264.24 111.31 263.3 113.94 262.41 111.3"/><polygon class="cls-14" points="331.42 102 334.21 101.91 331.97 100.25 332.76 97.57 330.48 99.19 328.18 97.62 329.01 100.28 326.81 101.98 329.59 102.01 330.53 104.64 331.42 102"/><polygon class="cls-15" points="252.59 102 249.8 101.91 252.04 100.25 251.26 97.57 253.53 99.19 255.83 97.62 255 100.28 257.21 101.98 254.42 102.01 253.48 104.64 252.59 102"/></g></g></svg>