<svg xmlns="http://www.w3.org/2000/svg" xmlns:xlink="http://www.w3.org/1999/xlink" viewBox="0 0 197.77 119.75"><defs><style>.cls-1{fill:none;}.cls-2{clip-path:url(#clip-path);}.cls-3{fill:#001;}.cls-4,.cls-8{fill:#fff;}.cls-5{fill:#38829d;}.cls-6{fill:#e1f3fc;}.cls-7{fill:#9fb4dd;}.cls-8{font-size:1.21px;font-family:Baskerville;letter-spacing:0em;}.cls-9{clip-path:url(#clip-path-2);}.cls-10{fill:url(#linear-gradient);}.cls-11{clip-path:url(#clip-path-3);}.cls-12{fill:url(#linear-gradient-2);}</style><clipPath id="clip-path"><polygon class="cls-1" points="25.68 22.65 13.45 12.38 24.73 25.81 0 25.2 24.81 29.91 13.45 43.43 27.73 31.44 36.36 56.77 32.45 33.31 44.5 43.43 34.02 30.96 58.27 31.55 32.51 26.66 44.5 12.38 30.21 24.38 21.9 0 25.68 22.65"/></clipPath><clipPath id="clip-path-2"><path class="cls-1" d="M166.39,84.37a4,4,0,0,0,.72,1.45c-.19-.16-.4-.3-.63-.46a4.21,4.21,0,0,0-1.64-2.52,4.48,4.48,0,0,0-3.25-.64A4.24,4.24,0,0,0,163.32,85a4.4,4.4,0,0,0,3.21.65,19.33,19.33,0,0,1,1.53,1.21,3.56,3.56,0,0,0-.52-.24,4.25,4.25,0,0,0-3.27.16,4.36,4.36,0,0,0,2.35,2.3,4.27,4.27,0,0,0,2.43.16,4.45,4.45,0,0,0,.95-.37,14.36,14.36,0,0,1,1.14,1.55,4.4,4.4,0,0,0-3.13-.84,4.3,4.3,0,0,0,1.53,2.91,4.42,4.42,0,0,0,3.15.9,15.36,15.36,0,0,1,.88,2.79,3.4,3.4,0,0,0-1.34-2.09,4.62,4.62,0,0,0-3.17-.89,4.49,4.49,0,0,0,1.5,2.94,4.55,4.55,0,0,0,3.19.87h0s.27,2.43.26,3.1a3.87,3.87,0,0,0-.83-2,4.43,4.43,0,0,0-2.9-1.54,4.37,4.37,0,0,0,.85,3.18,4.31,4.31,0,0,0,2.84,1.51,17.07,17.07,0,0,1-.63,3.54,4,4,0,0,0-.14-2.36,4.4,4.4,0,0,0-2.3-2.35,4.39,4.39,0,0,0-.16,3.29,3.84,3.84,0,0,0,2.1,2.25,1.24,1.24,0,0,1,.2.1,14.55,14.55,0,0,1-.66,1.65,6.27,6.27,0,0,0-.3.64c-.15.28-.3.57-.45.83a4.18,4.18,0,0,0,.4-2.06,4.52,4.52,0,0,0-1.53-2.89,4,4,0,0,0,.13,5.7l.31.32a18.43,18.43,0,0,1-2,2.46,4.22,4.22,0,0,0,.85-1.82,4.43,4.43,0,0,0-.76-3.2,4,4,0,0,0-1.06,5.92,18.35,18.35,0,0,1-2.19,1.61,4.26,4.26,0,0,0,.78-1.08,4.36,4.36,0,0,0,.1-3.28,4.1,4.1,0,0,0-2.64,5.34,19.53,19.53,0,0,1-2.45.92,3.31,3.31,0,0,0,1.11-.88,4.35,4.35,0,0,0,1-3.13,4.09,4.09,0,0,0-3.95,4.35l-1.57,0c0,.2-.07.3,0,.38.56-.08,2.47-.12,3.06-.1a4.29,4.29,0,0,0,2.22,2,4.56,4.56,0,0,0,3.31-.21,4.39,4.39,0,0,0-2.41-2.26,3.83,3.83,0,0,0-1.51-.23,15.81,15.81,0,0,0,1.63-.72,4.1,4.1,0,0,0,6,.49,4.3,4.3,0,0,0-2.88-1.56,3.91,3.91,0,0,0-1.52.16,16.35,16.35,0,0,0,1.58-1.15,4.12,4.12,0,0,0,5.91-.85,4.35,4.35,0,0,0-3.17-.9,4.07,4.07,0,0,0-1.2.36c.34-.34.66-.7,1-1.07a4.36,4.36,0,0,0,3.23.25,4.41,4.41,0,0,0,2.44-2.21,4.45,4.45,0,0,0-3.3-.28,4,4,0,0,0-1.2.66,12.2,12.2,0,0,0,.81-1.36,4.1,4.1,0,0,0,5.12-3,4.43,4.43,0,0,0-3.28.33,4.26,4.26,0,0,0-1,.75,10.63,10.63,0,0,0,.54-1.53s0,0,0-.06a4.08,4.08,0,0,0,4.79-3.53,4.41,4.41,0,0,0-3.21.69,4.07,4.07,0,0,0-1.26,1.5,13.38,13.38,0,0,0,.31-2.05,4.08,4.08,0,0,0,3.95-4.37,4.3,4.3,0,0,0-3,1.3,3.43,3.43,0,0,0-.85,1.43c0-.46,0-.93-.06-1.4a4.32,4.32,0,0,0,2.44-2,4.52,4.52,0,0,0,.24-3.29,4.49,4.49,0,0,0-2.58,2.07,4.75,4.75,0,0,0-.38,1.23,15.12,15.12,0,0,0-.41-1.64,4.41,4.41,0,0,0,2.34-2.19,4.55,4.55,0,0,0,0-3.31,4.35,4.35,0,0,0-2.42,2.26,3.81,3.81,0,0,0-.28,2.15c-.21-.57-.46-1.1-.67-1.67a4.36,4.36,0,0,0,1.76-2.58,4.45,4.45,0,0,0-.66-3.21,4.2,4.2,0,0,0-1.91,2.68,4,4,0,0,0,.06,1.82,12.78,12.78,0,0,0-.93-1.38,4.1,4.1,0,0,0-.46-6,4.23,4.23,0,0,0-1.08,3.09,3.8,3.8,0,0,0,.38,1.44,11.26,11.26,0,0,0-1.15-1.14,4.32,4.32,0,0,0,.52-3.22,4.46,4.46,0,0,0-2-2.58,4.38,4.38,0,0,0-.53,3.24"/></clipPath><linearGradient id="linear-gradient" x1="-2620.83" y1="2580.02" x2="-2617.4" y2="2580.02" gradientTransform="matrix(5.89, 0, 0, -5.89, 15588.69, 15290.79)" gradientUnits="userSpaceOnUse"><stop offset="0" stop-color="#d8b346"/><stop offset="0.4" stop-color="#dacb4b"/><stop offset="0.7" stop-color="#a78a39"/><stop offset="0.89" stop-color="#d8b346"/><stop offset="1" stop-color="#d8b346"/></linearGradient><clipPath id="clip-path-3"><path class="cls-1" d="M26.7,83.71a4.36,4.36,0,0,0,.51,3.22,13.88,13.88,0,0,0-1.16,1.14,3.65,3.65,0,0,0,.4-1.44,4.29,4.29,0,0,0-1.1-3.09,4.33,4.33,0,0,0-1.52,2.91,4.39,4.39,0,0,0,1.06,3.07A10.29,10.29,0,0,0,24,90.9,4.16,4.16,0,0,0,24,89.08a4.43,4.43,0,0,0-1.89-2.68,4.06,4.06,0,0,0,1.07,5.79c-.22.57-.46,1.1-.67,1.67a3.9,3.9,0,0,0-.27-2.15,4.48,4.48,0,0,0-2.42-2.26,4.36,4.36,0,0,0,0,3.31A4.31,4.31,0,0,0,22.2,95a13.11,13.11,0,0,0-.41,1.64,4.11,4.11,0,0,0-.39-1.23,4.47,4.47,0,0,0-2.57-2.07,4.33,4.33,0,0,0,.24,3.29,4.25,4.25,0,0,0,2.45,2,13.29,13.29,0,0,0-.08,1.4,3.66,3.66,0,0,0-.85-1.43,4.3,4.3,0,0,0-3-1.3,4.3,4.3,0,0,0,1.11,3.08,4.24,4.24,0,0,0,2.85,1.29c.07.68.17,1.36.31,2.05a4,4,0,0,0-1.25-1.5,4.43,4.43,0,0,0-3.21-.69A4.32,4.32,0,0,0,19,104.32a4.42,4.42,0,0,0,3.12.7.18.18,0,0,0,0,.06,12,12,0,0,0,.54,1.53,4.37,4.37,0,0,0-.95-.75,4.43,4.43,0,0,0-3.28-.33,4.36,4.36,0,0,0,2,2.62,4.31,4.31,0,0,0,3.12.36c.26.47.54.94.83,1.36a4.32,4.32,0,0,0-1.21-.66,4.45,4.45,0,0,0-3.3.28,4.46,4.46,0,0,0,2.43,2.21,4.35,4.35,0,0,0,3.23-.25c.32.37.64.73,1,1.07a4.07,4.07,0,0,0-1.2-.36,4.37,4.37,0,0,0-3.18.9,4.49,4.49,0,0,0,2.83,1.7,4.31,4.31,0,0,0,3.08-.85,15.47,15.47,0,0,0,1.6,1.15,4,4,0,0,0-1.53-.16,4.32,4.32,0,0,0-2.89,1.56,4.11,4.11,0,0,0,6-.49c.53.27,1.08.51,1.62.72a3.94,3.94,0,0,0-1.51.23A4.35,4.35,0,0,0,29,119.18a4.52,4.52,0,0,0,3.3.21,4.43,4.43,0,0,0,2.23-2c.59,0,2.48,0,3.06.1.07-.08,0-.18,0-.38l-1.58,0a4.07,4.07,0,0,0-4-4.35,4.4,4.4,0,0,0,1,3.13,3.41,3.41,0,0,0,1.11.88,17.44,17.44,0,0,1-2.45-.92,4.34,4.34,0,0,0-.14-3.2A4.42,4.42,0,0,0,29,110.52a4.45,4.45,0,0,0,.14,3.28,3.47,3.47,0,0,0,.78,1.08,15.7,15.7,0,0,1-2.2-1.61,4.44,4.44,0,0,0,.79-3.18,4.49,4.49,0,0,0-1.83-2.74,4.41,4.41,0,0,0-.79,3.2,4.24,4.24,0,0,0,.86,1.82,19.3,19.3,0,0,1-2-2.46,3.6,3.6,0,0,0,.3-.32,4.19,4.19,0,0,0,1.24-2.6,4.41,4.41,0,0,0-1.09-3.1,4.34,4.34,0,0,0-1.53,2.89,3.87,3.87,0,0,0,.4,2.06l-.47-.83a3.69,3.69,0,0,0-.29-.64,12.9,12.9,0,0,1-.66-1.65l.21-.1a3.78,3.78,0,0,0,2.08-2.25,4.38,4.38,0,0,0-.15-3.29,4.49,4.49,0,0,0-2.31,2.35,4.19,4.19,0,0,0-.14,2.36,16.39,16.39,0,0,1-.6-3.54,4.26,4.26,0,0,0,2.82-1.51,4.32,4.32,0,0,0,.85-3.18,4.43,4.43,0,0,0-2.9,1.54,3.77,3.77,0,0,0-.82,2c0-.67.26-3.08.25-3.1h0a4.51,4.51,0,0,0,3.17-.87,4.38,4.38,0,0,0,1.52-2.94,4.62,4.62,0,0,0-3.17.89,3.42,3.42,0,0,0-1.35,2.09,16.18,16.18,0,0,1,.88-2.79,4.48,4.48,0,0,0,3.17-.9,4.28,4.28,0,0,0,1.51-2.91,4.4,4.4,0,0,0-3.12.84,15.84,15.84,0,0,1,1.14-1.55,3.91,3.91,0,0,0,.95.37A4.3,4.3,0,0,0,29,89.06a4.43,4.43,0,0,0,2.35-2.3,4.3,4.3,0,0,0-3.29-.16,4,4,0,0,0-.51.24,15.19,15.19,0,0,1,1.54-1.21A4.42,4.42,0,0,0,32.33,85a4.32,4.32,0,0,0,1.73-2.78,4.37,4.37,0,0,0-3.23.64,4.22,4.22,0,0,0-1.68,2.52c-.22.16-.43.3-.62.46a3.93,3.93,0,0,0,.71-1.45,4.2,4.2,0,0,0-.52-3.24,4.33,4.33,0,0,0-2,2.58"/></clipPath><linearGradient id="linear-gradient-2" x1="-3546.33" y1="2580.08" x2="-3542.9" y2="2580.08" gradientTransform="translate(-20837.65 15287.87) rotate(180) scale(5.89)" xlink:href="#linear-gradient"/></defs><g id="Layer_2" data-name="Layer 2"><g id="Layer_3" data-name="Layer 3"><g class="cls-2"><rect class="cls-3" width="58.27" height="56.77"/></g><polygon class="cls-4" points="25.68 22.65 13.45 12.38 24.73 25.81 0 25.2 24.81 29.91 13.45 43.43 27.73 31.44 36.36 56.77 32.45 33.31 44.5 43.43 34.02 30.96 58.27 31.55 32.51 26.66 44.5 12.38 30.21 24.38 21.9 0 25.68 22.65"/><polygon class="cls-5" points="61 23.88 58.17 23.88 58.17 23.2 64.78 23.2 64.78 23.88 61.95 23.88 61.95 31.18 61 31.18 61 23.88"/><polygon class="cls-5" points="64.02 24.3 64.83 24.3 64.83 27.35 69.01 27.35 69.01 24.3 69.83 24.3 69.83 31.18 69.01 31.18 69.01 27.94 64.83 27.94 64.83 31.18 64.02 31.18 64.02 24.3"/><polygon class="cls-5" points="70.11 24.3 74.16 24.3 74.16 24.89 70.93 24.89 70.93 27.35 74 27.35 74 27.94 70.93 27.94 70.93 30.59 74.31 30.59 74.31 31.18 70.11 31.18 70.11 24.3"/><polygon class="cls-4" points="74.75 23.2 83.06 23.2 83.06 25.12 78.35 25.12 78.35 26.25 82.86 26.25 82.86 28.17 78.35 28.17 78.35 29.26 83.16 29.26 83.16 31.18 74.75 31.18 74.75 23.2"/><path class="cls-4" d="M86.74,29.47h.8c1.15,0,1.41-.64,1.41-1.78s-.29-1.79-1.42-1.79h-.79ZM83.57,24.3h4.65c2.37,0,4,.67,4,3.46,0,2.6-1.8,3.42-4.17,3.42H83.57Z"/><path class="cls-4" d="M100.39,30.93A14,14,0,0,1,97,31.3c-2.74,0-4.94-1.2-4.94-3.66,0-2.3,2.29-3.46,4.94-3.46a13.94,13.94,0,0,1,3.09.26v1.85a5.5,5.5,0,0,0-2.18-.4c-1.57,0-2.61.67-2.61,1.92A1.59,1.59,0,0,0,97,29.58a2.9,2.9,0,0,0,.67,0V27.69h2.72Z"/><polygon class="cls-4" points="100.67 24.3 107.83 24.3 107.83 25.96 103.77 25.96 103.77 26.93 107.65 26.93 107.65 28.59 103.77 28.59 103.77 29.53 107.91 29.53 107.91 31.18 100.67 31.18 100.67 24.3"/><path class="cls-6" d="M140.63,52.36c.3-1.39-.67-2-2.27-2a5.54,5.54,0,0,0-1.61.31,4.68,4.68,0,0,1,.52,1.66c.06.49,0,.79-.09.76s0-.18-.12-.61a4.9,4.9,0,0,0-.73-1.66,16,16,0,0,0-4.73,3,7.71,7.71,0,0,0,4.4,1.12c2.21,0,4.3-1.06,4.63-2.55m-10.42-1a2.84,2.84,0,0,0,.6,1.69,20.19,20.19,0,0,1,5.34-2.51,4.8,4.8,0,0,0-3.49-1.64,2.39,2.39,0,0,0-2.45,2.46m6.42-.94a8.15,8.15,0,0,1,1.61-.28c1.91-.12,3.85.43,3.51,2.28s-3.51,2.78-5.81,2.78A8,8,0,0,1,131.36,54c-2.3,2.06-3.94,4.82-3.94,6.79,0,1.76,1.09,2.45,2.61,2.45a7.9,7.9,0,0,0,4.39-1.57,19.22,19.22,0,0,0,1.88-1.52c.42-.39.58-.52.66-.42s-.08.24-.24.39a20.79,20.79,0,0,1-2.18,1.82A8.71,8.71,0,0,1,130,63.66c-2.52.1-4.27-.81-4.37-3-.09-2.67,2.46-5.55,5-7.37a3.2,3.2,0,0,1-.75-1.9,2.91,2.91,0,0,1,3.08-2.82,4.57,4.57,0,0,1,3.73,1.91"/><path class="cls-6" d="M137.33,62.82c-.61,0-1-.28-.94-.82a7.34,7.34,0,0,1,1.55-3c1-1.33,1.93-2.58,3-3.88a31,31,0,0,1,5.09-4.87c1.76-1.34,4.25-3,6.67-3s3.91,1.54,3.72,3.2c0,.4-.21.67-.3.64s.06-.24.09-.64c.09-1.3-1.33-2.42-3.6-2.42a8.44,8.44,0,0,0-6.24,2.52,46.75,46.75,0,0,0-5.12,6,35.3,35.3,0,0,0-3,4.61c-.15.3-.3.67-.09.85s.66,0,.94-.18a11,11,0,0,0,1.24-.85c.54-.43.94-.76,1.33-1.12.12-.12.36-.33.46-.24s0,.18-.22.36a20.29,20.29,0,0,1-1.85,1.58,5,5,0,0,1-2.72,1.21"/><path class="cls-6" d="M145.54,60.42c1.45-1.12,2.3-1.87,3.27-2.63a1.25,1.25,0,0,1,.88-.34c.51,0,.82.07.45.49-.54.67-1,1.15-1.6,1.94a13.7,13.7,0,0,0-1.12,1.54c-.19.31-.22.58-.09.67s.39.06.69-.09a8.86,8.86,0,0,0,1.37-.91c.6-.48,1.12-.94,1.45-1.24.18-.19.36-.31.42-.21s-.15.3-.24.39c-.36.36-1.12,1-1.85,1.57a4.8,4.8,0,0,1-2.6,1.22c-.61,0-.94-.28-.94-.73a2.23,2.23,0,0,1,.49-1.24,12.39,12.39,0,0,1,1.42-1.58l0,0c-.61.49-1.64,1.3-2.43,1.91-1.24.94-2.33,1.67-3.24,1.67h0c-.6,0-1-.31-1-.85a2.49,2.49,0,0,1,.52-1.15,18.82,18.82,0,0,1,2.21-2.55c.63-.6.82-.73,1.39-.75s.7.09.33.48-1,1.12-1.57,1.88a13.16,13.16,0,0,0-1.12,1.63c-.12.25-.12.46,0,.55s.39.09.7-.06a17.51,17.51,0,0,0,2.27-1.58"/><path class="cls-6" d="M160.53,52.58c2.91-2.61,5.61-4.94,5.73-6.27a.47.47,0,0,0-.52-.58,4,4,0,0,0-2,1.21,58.38,58.38,0,0,0-4,4.33c-2.22,2.64-3,3.61-4.64,5.79,2.88-2.51,4.06-3.24,5.42-4.48M155,61.94a5.71,5.71,0,0,0,1.39-1.27,13.52,13.52,0,0,1-1.88.57c-1.08.27-1.72.55-1.69.94s.33.3.73.27a3.32,3.32,0,0,0,1.45-.51m2-.46a6.08,6.08,0,0,1-3.48,1.31c-.67,0-1.22-.09-1.22-.61s.82-.85,2-1.15a17.49,17.49,0,0,0,2.33-.7,6.48,6.48,0,0,0,1-1.51c.12-.34.21-.91-.31-.91a5.73,5.73,0,0,0-2.63,1.36,31.81,31.81,0,0,0-3.36,3.06,1.42,1.42,0,0,1-.88.43c-.61,0-.58-.15-.43-.49a15.45,15.45,0,0,1,1.24-2c.28-.39.55-.79.88-1.18h0c-.42.36-.82.73-1.09,1s-.27.18-.33.12,0-.15.15-.3c.49-.43,1.24-1.12,1.94-1.7,1.09-1.39,2.3-2.94,3.69-4.54a59.23,59.23,0,0,1,7-7,4.78,4.78,0,0,1,2.58-1.21.86.86,0,0,1,.94,1.09c-.25,1.45-3.15,3.88-6.21,6.42-1.85,1.51-4.4,3.33-6.18,4.94-.52.63-2,2.79-2,2.79l0,0a18,18,0,0,1,2.84-2.34,4.73,4.73,0,0,1,2.67-.88.94.94,0,0,1,.94,1.16,4.83,4.83,0,0,1-2,2.87"/><path class="cls-6" d="M136.54,75.39c7,0,15.87-1.52,21.42-4.36-9.12-1.82-17.36-4.39-25-4.58-5.24-.12-11.81.76-11.81,4.18,0,4.18,9,4.76,15.36,4.76Zm61.23-16.78c0,9.29-12.12,14.14-23.48,14.14a80.66,80.66,0,0,1-15.82-1.66c-5.63,3-14.81,4.66-22,4.66-6.54,0-15.6-.78-15.6-5.12,0-3.75,6.81-4.6,12.11-4.51,7.91.15,16.82,2.45,26.24,4,2.54-1.58,4.18-3.67,4.18-5.88a2.65,2.65,0,0,0-1.66-2.73c-.25-.06-.46,0-.46-.09s.15-.15.48-.12c.91.09,2,1.21,2,2.94,0,2.21-1.57,4.33-4.06,6a90.34,90.34,0,0,0,14.43,1.3c11.84,0,23.29-3.79,23.29-12.9,0-6.67-6.81-10.27-14.24-10.27-7,0-15,2.66-15,8.63,0,4.39,5,6.27,9.3,6.27,4.15,0,9.88-1.09,9.88-5.06a3.12,3.12,0,0,0-1.88-2.82c-1-.33-1.4-.12-1.4-.27s.73-.21,1.46,0a3.21,3.21,0,0,1,2.15,3c0,4.3-5.54,6.3-10.15,6.24-4.76-.09-9.72-2.73-9.72-7.42,0-6.15,8.14-9.06,15.41-9.06,7.46,0,14.55,3.73,14.55,10.67Z"/><path class="cls-6" d="M42.16,40.82c0,1.53,0,4,0,4.28.06,1,.06,1.25.68,1.55a4.61,4.61,0,0,0,1.74.3,2.65,2.65,0,0,0,2.8-2.82,4.75,4.75,0,0,0-1.92-4,3.28,3.28,0,0,0-1.65-.58c-.26,0-1.25,0-1.55,0-.08,0-.12,0-.12.14Zm0-2.1c0,.14,0,.18.14.22a8.39,8.39,0,0,0,1.21.08c1.11,0,1.39-.05,1.81-.52a3.1,3.1,0,0,0,.71-2c0-1.65-.73-3.42-2.68-3.42a4.44,4.44,0,0,0-1,.1c-.18,0-.24.1-.24.22Zm-1.58-.44c0-3.09,0-3.65,0-4.28s-.19-1-.85-1.14a4.8,4.8,0,0,0-.67,0c-.08,0-.16,0-.16-.12s.1-.16.32-.16c.89,0,2.14.06,2.24.06.47,0,1.25-.06,2.16-.06,3.26,0,4,2,4,3a5,5,0,0,1-1.87,3.57,4.65,4.65,0,0,1,3.44,4.19c0,2.12-1.67,4.33-5.06,4.33l-1.43-.06c-.58,0-1.13-.06-1.21-.06l-.8,0c-.39,0-.85,0-1.15,0s-.31,0-.31-.16,0-.12.16-.12a3.09,3.09,0,0,0,.59-.08c.4-.08.5-.52.58-1.09.1-.83.1-2.4.1-4.31Z"/><path class="cls-6" d="M55,42.63c0,1.62,0,2.95.08,3.65.06.49.12.81.63.89a7.16,7.16,0,0,0,.8.08.14.14,0,0,1,.14.14c0,.08-.08.14-.28.14-1,0-2.11-.06-2.18-.06s-1.2.06-1.73.06c-.18,0-.28,0-.28-.14a.14.14,0,0,1,.14-.14,2.52,2.52,0,0,0,.54-.08c.33-.08.39-.4.45-.89.08-.7.1-2,.1-3.65v-3c0-2.62,0-3.09,0-3.63s-.18-.83-.55-.91a3.15,3.15,0,0,0-.54-.06.15.15,0,0,1-.14-.14c0-.1.08-.14.28-.14.57,0,1.67,0,1.77,0s1.21,0,1.74,0c.2,0,.28,0,.28.14a.17.17,0,0,1-.14.14,2,2,0,0,0-.44,0c-.47.1-.57.33-.61.93s0,1,0,3.63Z"/><path class="cls-6" d="M62.34,42.67c0,2.48,0,3.49.36,3.78s.95.4,2.32.4c.91,0,1.69,0,2.1-.51a2.08,2.08,0,0,0,.42-1c0-.12.08-.22.17-.22s.12.08.12.26a11.65,11.65,0,0,1-.25,1.69c-.12.4-.18.46-1.11.46-1.25,0-2.23,0-3-.06s-1.39,0-1.9,0c-.08,0-.38,0-.72,0s-.73,0-1,0-.28,0-.28-.14a.14.14,0,0,1,.14-.14,2.52,2.52,0,0,0,.54-.08c.33-.08.38-.4.45-.89a34.38,34.38,0,0,0,.1-3.66v-3c0-2.62,0-3.09,0-3.63s-.13-.85-.71-.93a5.66,5.66,0,0,0-.6,0,.17.17,0,0,1-.14-.14c0-.1.08-.14.28-.14.8,0,1.89,0,2,0s1.39,0,1.92,0c.18,0,.28,0,.28.14s-.08.12-.14.12l-.57,0c-.52.1-.62.35-.66,1s0,1,0,3.63Z"/><path class="cls-6" d="M73,42.67c0,2.48,0,3.49.36,3.78s1,.4,2.32.4c.91,0,1.69,0,2.1-.51a2.08,2.08,0,0,0,.42-1c0-.12.08-.22.18-.22s.12.08.12.26a10.64,10.64,0,0,1-.26,1.69c-.12.4-.18.46-1.11.46-1.25,0-2.22,0-3-.06s-1.39,0-1.9,0c-.08,0-.38,0-.71,0s-.74,0-1,0-.27,0-.27-.14a.14.14,0,0,1,.14-.14,2.52,2.52,0,0,0,.53-.08c.34-.08.38-.4.46-.89a34.38,34.38,0,0,0,.1-3.66v-3c0-2.62,0-3.09,0-3.63s-.14-.85-.72-.93a5.47,5.47,0,0,0-.59,0,.17.17,0,0,1-.14-.14c0-.1.08-.14.28-.14.79,0,1.88,0,2,0s1.39,0,1.93,0c.17,0,.27,0,.27.14s-.08.12-.14.12l-.57,0c-.52.1-.62.35-.66,1s0,1,0,3.63Z"/><path class="cls-6" d="M83.57,42.63c0,1.62,0,2.95.08,3.65.06.49.12.81.63.89a7.24,7.24,0,0,0,.79.08.14.14,0,0,1,.14.14c0,.08-.07.14-.27.14-1,0-2.11-.06-2.19-.06s-1.19.06-1.72.06c-.18,0-.28,0-.28-.14a.14.14,0,0,1,.14-.14,2.34,2.34,0,0,0,.53-.08c.34-.08.4-.4.46-.89.08-.7.1-2,.1-3.65v-3c0-2.62,0-3.09,0-3.63s-.18-.83-.56-.91a3,3,0,0,0-.53-.06.15.15,0,0,1-.14-.14c0-.1.08-.14.28-.14.57,0,1.66,0,1.76,0s1.21,0,1.75,0c.2,0,.28,0,.28.14a.17.17,0,0,1-.14.14,2,2,0,0,0-.44,0c-.48.1-.58.33-.61.93s0,1,0,3.63Z"/><path class="cls-6" d="M94.76,47.05c1.56,0,4.72-.83,4.72-5.72,0-4-2.46-6.16-5.22-6.16-2.92,0-5,1.82-5,5.49,0,3.93,2.36,6.39,5.52,6.39m-.4-12.52c3.93,0,6.9,2.4,6.9,6.33a6.75,6.75,0,0,1-7,6.88,6.46,6.46,0,0,1-6.82-6.62,6.68,6.68,0,0,1,6.92-6.59"/><path class="cls-6" d="M105.65,45.22c0,1.39.2,1.81.67,1.93a4.18,4.18,0,0,0,.88.1.13.13,0,0,1,.13.14c0,.1-.12.14-.31.14-1,0-1.69-.06-1.85-.06s-.89.06-1.68.06c-.18,0-.28,0-.28-.14a.13.13,0,0,1,.13-.14,2.72,2.72,0,0,0,.72-.1c.44-.12.5-.58.5-2.1V35.38c0-.67.1-.85.23-.85s.5.34.68.52,2.82,3,5.52,5.75c1.72,1.79,3.59,3.79,4.12,4.35l-.18-8.45c0-1.1-.11-1.47-.65-1.57a5.63,5.63,0,0,0-.85-.08c-.12,0-.14-.1-.14-.16s.14-.12.33-.12c.8,0,1.63,0,1.83,0s.77,0,1.49,0c.18,0,.31,0,.31.12a.2.2,0,0,1-.2.16,1.91,1.91,0,0,0-.41,0c-.57.12-.62.46-.62,1.46l0,9.89c0,1.11,0,1.2-.13,1.2s-.36-.13-1.33-1c-.18-.16-2.7-2.63-4.55-4.56-2-2.12-4-4.18-4.52-4.78Z"/><path class="cls-6" d="M42,57.12a.22.22,0,0,0,.12.21A5.55,5.55,0,0,0,44,57.6a2.24,2.24,0,0,0,1.31-.3,3,3,0,0,0,1-2.58c0-2.1-1.15-3.32-3-3.32a8.83,8.83,0,0,0-1.25.1.22.22,0,0,0-.14.2Zm-1.51-1.43c0-2.62,0-3.1,0-3.63s-.13-.85-.71-.93a5.65,5.65,0,0,0-.59,0A.18.18,0,0,1,39,51c0-.1.09-.14.28-.14.8,0,2,0,2.07,0l2.18,0a5.74,5.74,0,0,1,3.25.73A3,3,0,0,1,48,53.84c0,1.26-.51,2.47-2.14,3.86,1.43,1.78,2.64,3.31,3.65,4.36a3.2,3.2,0,0,0,2,1.17,3.1,3.1,0,0,0,.61.06.15.15,0,0,1,.16.14c0,.1-.1.14-.42.14H50.71a3.53,3.53,0,0,1-1.87-.34,9,9,0,0,1-2.37-2.48c-.74-.91-1.51-2-1.89-2.46a.27.27,0,0,0-.24-.1l-2.22,0c-.08,0-.12,0-.12.14v.4c0,1.62,0,2.93.08,3.63.06.49.16.81.7.89a6.11,6.11,0,0,0,.77.08.12.12,0,0,1,.14.14c0,.08-.08.14-.28.14-.95,0-2.06-.06-2.14-.06s-1.19.06-1.73.06c-.18,0-.27,0-.27-.14a.13.13,0,0,1,.13-.14,2.52,2.52,0,0,0,.54-.08c.33-.08.38-.4.45-.89a34.27,34.27,0,0,0,.1-3.65Z"/><path class="cls-6" d="M55.41,58.67c0,1.62,0,2.95.08,3.65.06.49.12.81.64.89a6.79,6.79,0,0,0,.79.08.14.14,0,0,1,.14.14c0,.08-.08.14-.28.14-1,0-2.1-.06-2.18-.06s-1.19.06-1.73.06c-.18,0-.27,0-.27-.14a.14.14,0,0,1,.14-.14,2.52,2.52,0,0,0,.53-.08c.34-.08.4-.4.45-.89.09-.7.1-2,.1-3.65v-3c0-2.62,0-3.09,0-3.63s-.18-.83-.56-.91a3.15,3.15,0,0,0-.54-.06.15.15,0,0,1-.13-.14c0-.1.08-.14.28-.14.57,0,1.66,0,1.76,0s1.21,0,1.74,0c.2,0,.28,0,.28.14a.17.17,0,0,1-.14.14,1.88,1.88,0,0,0-.43,0c-.48.1-.58.34-.62.93s0,1,0,3.63Z"/><path class="cls-6" d="M61.88,61.27c0,1.39.2,1.8.68,1.92a4,4,0,0,0,.87.1.14.14,0,0,1,.14.14c0,.1-.12.14-.32.14-1,0-1.69-.06-1.85-.06s-.89.06-1.68.06c-.18,0-.28,0-.28-.14a.14.14,0,0,1,.14-.14,2.7,2.7,0,0,0,.71-.1c.44-.12.5-.58.5-2.1V51.42c0-.67.1-.85.24-.85s.49.34.67.52,2.82,3,5.52,5.75c1.72,1.79,3.59,3.79,4.12,4.35l-.17-8.45c0-1.1-.12-1.47-.66-1.57a5.53,5.53,0,0,0-.86-.08c-.11,0-.13-.1-.13-.16s.13-.12.33-.12c.8,0,1.63,0,1.83,0s.78,0,1.49,0c.18,0,.32,0,.32.12a.2.2,0,0,1-.2.16,2,2,0,0,0-.42,0c-.58.12-.61.46-.61,1.47l0,9.87c0,1.12,0,1.22-.14,1.22s-.36-.14-1.33-1c-.18-.17-2.7-2.64-4.54-4.57-2-2.12-4-4.18-4.53-4.78Z"/><path class="cls-6" d="M85.61,59.26c0-1.37,0-1.56-.76-1.7a5.2,5.2,0,0,0-.59-.05.16.16,0,0,1-.14-.13c0-.12.08-.14.28-.14.79,0,2,0,2.06,0s1.17,0,1.71,0c.19,0,.27,0,.27.14a.16.16,0,0,1-.13.13,1.58,1.58,0,0,0-.44.05c-.48.07-.61.33-.66.93s0,1,0,1.74v1.89c0,.77,0,.79-.23.91A9.82,9.82,0,0,1,77.49,62a6.45,6.45,0,0,1-2.08-4.8,6.32,6.32,0,0,1,2.92-5.54A8.77,8.77,0,0,1,83,50.57a14.53,14.53,0,0,1,2.68.28,7.43,7.43,0,0,0,1.41.18c.18,0,.21.08.21.16,0,.24-.1.69-.1,2.38,0,.28-.08.35-.19.35s-.12-.1-.12-.25a2.46,2.46,0,0,0-.4-1.11c-.44-.64-1.76-1.31-4-1.31a5.55,5.55,0,0,0-3.65,1.09,5.24,5.24,0,0,0-1.72,4.24,6.75,6.75,0,0,0,1.84,4.67A6.24,6.24,0,0,0,83.37,63a4.35,4.35,0,0,0,1.88-.32c.22-.12.36-.2.36-.51Z"/><path class="cls-6" d="M100.67,59.26c0-1.37,0-1.56-.76-1.7a5.63,5.63,0,0,0-.59-.05.16.16,0,0,1-.14-.13c0-.12.08-.14.27-.14.8,0,2,0,2.07,0s1.17,0,1.71,0c.19,0,.27,0,.27.14a.16.16,0,0,1-.14.13,1.52,1.52,0,0,0-.43.05c-.48.07-.62.33-.66.93s0,1,0,1.74v1.89c0,.77,0,.79-.24.91A9.8,9.8,0,0,1,92.55,62a6.45,6.45,0,0,1-2.08-4.8,6.32,6.32,0,0,1,2.92-5.54A8.77,8.77,0,0,1,98,50.57a14.53,14.53,0,0,1,2.68.28,7.42,7.42,0,0,0,1.4.18c.18,0,.22.08.22.16,0,.24-.1.69-.1,2.38,0,.28-.07.35-.19.35s-.13-.1-.13-.25a2.54,2.54,0,0,0-.39-1.11c-.44-.64-1.77-1.31-4-1.31a5.55,5.55,0,0,0-3.65,1.09,5.24,5.24,0,0,0-1.72,4.24A6.7,6.7,0,0,0,94,61.25,6.23,6.23,0,0,0,98.42,63a4.37,4.37,0,0,0,1.89-.32c.22-.12.36-.2.36-.51Z"/><path class="cls-6" d="M109.1,58.67c0,1.62,0,2.95.08,3.65.06.49.12.81.63.89a7.24,7.24,0,0,0,.79.08.14.14,0,0,1,.14.14c0,.08-.08.14-.27.14-1,0-2.11-.06-2.19-.06s-1.19.06-1.72.06c-.18,0-.28,0-.28-.14a.14.14,0,0,1,.14-.14,2.61,2.61,0,0,0,.54-.08c.33-.08.39-.4.45-.89.08-.7.1-2,.1-3.65v-3c0-2.62,0-3.09,0-3.63s-.18-.83-.56-.91a3,3,0,0,0-.53-.06.15.15,0,0,1-.14-.14c0-.1.08-.14.28-.14.57,0,1.66,0,1.76,0s1.21,0,1.75,0c.2,0,.28,0,.28.14a.17.17,0,0,1-.14.14,2,2,0,0,0-.44,0c-.47.1-.57.34-.61.93s0,1,0,3.63Z"/><path class="cls-6" d="M119,58.67c0,1.62,0,2.95.07,3.65.07.49.15.81.68.89a6.79,6.79,0,0,0,.79.08.12.12,0,0,1,.14.14c0,.08-.08.14-.28.14-1,0-2.06-.06-2.16-.06s-1.29.06-1.8.06c-.2,0-.28,0-.28-.14s0-.12.14-.12a2.17,2.17,0,0,0,.51-.08c.36-.08.46-.42.52-.91.08-.7.08-2,.08-3.65V51.59l-2.52,0c-1.09,0-1.51.14-1.77.54a2.81,2.81,0,0,0-.27.53c0,.14-.1.17-.18.17a.14.14,0,0,1-.12-.15c0-.17.36-1.68.37-1.82s.12-.32.18-.32a6.12,6.12,0,0,0,.78.2c.5.06,1.17.08,1.37.08h6.58a8.47,8.47,0,0,0,1.25-.08c.26,0,.42-.08.5-.08s.08.1.08.2c0,.52-.06,1.73-.06,1.92s-.08.22-.16.22-.12-.06-.14-.29l0-.18c-.06-.52-.44-.9-2.1-.94l-2.18,0Z"/><path class="cls-7" d="M84,79.57a.24.24,0,0,1-.24-.24c0-.13.17-.29.31-.41,3.41-3,6-5.39,6-8.67,0-2.44-1.57-3.16-2.71-3.16a2.42,2.42,0,0,0-1.83.65,2.27,2.27,0,0,0-.59,1.66c0,.15-.07.26-.16.26s-.12-.07-.14-.23-.1-1.57-.1-2.09c0-.11,0-.16.17-.26a7.13,7.13,0,0,1,3-.6c2.57,0,3.85,1.64,3.85,3.45,0,3.53-3.82,6.69-5.94,8.5-.08.07,0,.12,0,.12h1.24c.29,0,2.31,0,2.92-.09a2,2,0,0,0,2-1.64c0-.18.1-.25.2-.25s.11.15.11.25a17.38,17.38,0,0,1-.51,2.24c-.14.46-.4.51-1.11.51Z"/><path class="cls-7" d="M97.68,66.48c3.12,0,4,4.06,4,6.3,0,3.92-1.52,7.08-4.3,7.08s-4-3.24-4-6.3c0-4,1.55-7.08,4.28-7.08m.07,12.75c1.54,0,2.58-2.35,2.58-5.72s-1.06-6.4-3-6.4c-1.59,0-2.56,2.29-2.56,5.75,0,3,.87,6.37,3,6.37"/><path class="cls-7" d="M103,79.57a.24.24,0,0,1-.24-.24c0-.13.18-.29.31-.41,3.41-3,6-5.39,6-8.67,0-2.44-1.57-3.16-2.71-3.16a2.41,2.41,0,0,0-1.83.65,2.28,2.28,0,0,0-.6,1.66c0,.15-.07.26-.15.26s-.12-.07-.14-.23-.1-1.57-.1-2.09c0-.11,0-.16.17-.26a7.12,7.12,0,0,1,3-.6c2.58,0,3.86,1.64,3.86,3.45,0,3.53-3.82,6.69-5.94,8.5-.08.07,0,.12,0,.12h1.25c.29,0,2.31,0,2.92-.09a2,2,0,0,0,2-1.64c0-.18.1-.25.2-.25s.1.15.1.25a15.84,15.84,0,0,1-.51,2.24c-.13.46-.39.51-1.11.51Z"/><path class="cls-7" d="M111.47,79.57a.24.24,0,0,1-.24-.24c0-.13.17-.29.31-.41,3.41-3,5.95-5.39,5.95-8.67,0-2.44-1.57-3.16-2.71-3.16a2.38,2.38,0,0,0-1.82.65,2.24,2.24,0,0,0-.6,1.66c0,.15-.07.26-.16.26s-.12-.07-.13-.23-.11-1.57-.11-2.09c0-.11,0-.16.17-.26a7.17,7.17,0,0,1,3-.6c2.58,0,3.86,1.64,3.86,3.45,0,3.53-3.83,6.69-6,8.5-.08.07,0,.12,0,.12h1.24c.3,0,2.31,0,2.93-.09a2,2,0,0,0,2-1.64c0-.18.1-.25.21-.25s.1.15.1.25a15.84,15.84,0,0,1-.51,2.24c-.14.46-.4.51-1.11.51Z"/><text class="cls-8" transform="translate(108.04 25.21)">TM</text><g class="cls-9"><rect class="cls-10" x="158.04" y="81.13" width="20.25" height="38.62"/></g><g class="cls-11"><rect class="cls-12" x="17.37" y="81.13" width="20.24" height="38.62"/></g><polygon class="cls-4" points="43.25 93.35 44.18 93.35 44.18 96.19 47.76 96.19 47.76 93.35 48.69 93.35 48.69 100.21 47.76 100.21 47.76 97.07 44.18 97.07 44.18 100.21 43.25 100.21 43.25 93.35"/><path class="cls-4" d="M50.1,94a.64.64,0,0,1,1.09-.45.61.61,0,0,1,.19.45.62.62,0,0,1-.19.46A.64.64,0,0,1,50.1,94m.2,1.66h.87v4.59H50.3Z"/><path class="cls-4" d="M57.19,100.17a2.49,2.49,0,0,1-.18,1,2.17,2.17,0,0,1-.51.75,2.5,2.5,0,0,1-.8.49,3,3,0,0,1-1,.17,3.84,3.84,0,0,1-1.21-.18,3.06,3.06,0,0,1-1.05-.64L53,101a2.62,2.62,0,0,0,.75.56,2.13,2.13,0,0,0,.9.18,2,2,0,0,0,.81-.14,1.38,1.38,0,0,0,.51-.36,1.56,1.56,0,0,0,.27-.51,2.22,2.22,0,0,0,.07-.57v-.68h0a1.6,1.6,0,0,1-.68.61,2.28,2.28,0,0,1-.92.2,2.37,2.37,0,0,1-.93-.18A2.27,2.27,0,0,1,53,99.6a2.24,2.24,0,0,1-.48-.75,2.42,2.42,0,0,1-.18-.94A2.58,2.58,0,0,1,53,96.19a2.23,2.23,0,0,1,.73-.51,2.54,2.54,0,0,1,1-.18,2.28,2.28,0,0,1,.92.2,1.87,1.87,0,0,1,.7.57h0v-.65h.88Zm-2.4-3.86a1.61,1.61,0,0,0-.63.13,1.4,1.4,0,0,0-.47.32,1.74,1.74,0,0,0-.31.51,1.87,1.87,0,0,0-.11.64A1.55,1.55,0,0,0,53.69,99a1.48,1.48,0,0,0,1.1.42A1.51,1.51,0,0,0,55.9,99a1.54,1.54,0,0,0,.41-1.13,2.15,2.15,0,0,0-.1-.64,1.74,1.74,0,0,0-.31-.51,1.31,1.31,0,0,0-.47-.32,1.62,1.62,0,0,0-.64-.13"/><path class="cls-4" d="M58.51,92.88h.88v3.44h0a1.2,1.2,0,0,1,.57-.59,1.8,1.8,0,0,1,.94-.23,2,2,0,0,1,.64.1,1.49,1.49,0,0,1,.54.32,1.5,1.5,0,0,1,.36.54,2.1,2.1,0,0,1,.14.79v3h-.88V97.49a1.45,1.45,0,0,0-.09-.54,1.11,1.11,0,0,0-.23-.37.9.9,0,0,0-.34-.2,1,1,0,0,0-.39-.07,1.35,1.35,0,0,0-.5.09,1.07,1.07,0,0,0-.42.28,1.37,1.37,0,0,0-.27.48,2,2,0,0,0-.09.68v2.37h-.88Z"/><path class="cls-4" d="M64.58,98.23a1.12,1.12,0,0,0,.13.55,1.47,1.47,0,0,0,.35.43,1.64,1.64,0,0,0,.49.26,1.7,1.7,0,0,0,.59.1,1.26,1.26,0,0,0,.71-.19,2,2,0,0,0,.55-.5l.67.51a2.47,2.47,0,0,1-2,.94,2.38,2.38,0,0,1-1-.19,2.24,2.24,0,0,1-.76-.5,2.31,2.31,0,0,1-.47-.77,2.73,2.73,0,0,1-.16-1,2.3,2.3,0,0,1,.18-1,2.09,2.09,0,0,1,.5-.77,2.49,2.49,0,0,1,.75-.51,2.44,2.44,0,0,1,1-.18,2.22,2.22,0,0,1,1,.22,1.8,1.8,0,0,1,.69.55,2.1,2.1,0,0,1,.4.77,3.28,3.28,0,0,1,.12.88v.31Zm2.77-.7a1.78,1.78,0,0,0-.1-.53,1.1,1.1,0,0,0-.24-.42,1,1,0,0,0-.42-.28,1.61,1.61,0,0,0-1.17,0,1.32,1.32,0,0,0-.45.32,1.66,1.66,0,0,0-.29.42,1.42,1.42,0,0,0-.1.47Z"/><path class="cls-4" d="M71.78,96.77a1.18,1.18,0,0,0-.38-.32,1.09,1.09,0,0,0-.57-.13,1,1,0,0,0-.53.13.41.41,0,0,0-.23.38.44.44,0,0,0,.13.33,1.27,1.27,0,0,0,.31.2,2.22,2.22,0,0,0,.39.12,2.7,2.7,0,0,1,.35.07,3.67,3.67,0,0,1,.53.16,1.8,1.8,0,0,1,.43.25,1.34,1.34,0,0,1,.28.38,1.46,1.46,0,0,1,.1.55,1.3,1.3,0,0,1-.17.66A1.39,1.39,0,0,1,72,100a1.9,1.9,0,0,1-.6.25,3.16,3.16,0,0,1-.68.08,2.75,2.75,0,0,1-1-.17,1.89,1.89,0,0,1-.78-.65L69.6,99a2.51,2.51,0,0,0,.48.38,1.19,1.19,0,0,0,.64.16l.34,0a1,1,0,0,0,.3-.11.53.53,0,0,0,.21-.18.39.39,0,0,0,.09-.26.42.42,0,0,0-.13-.32.79.79,0,0,0-.29-.2l-.35-.11a3,3,0,0,0-.34-.07L70,98.07a1.91,1.91,0,0,1-.45-.23.94.94,0,0,1-.3-.38,1,1,0,0,1-.12-.54,1.28,1.28,0,0,1,.15-.63,1.2,1.2,0,0,1,.4-.44,1.94,1.94,0,0,1,.56-.27,2.8,2.8,0,0,1,.64-.08,2.47,2.47,0,0,1,.89.17,1.45,1.45,0,0,1,.69.58Z"/><path class="cls-4" d="M76.12,96.37H74.87v2.47a1.13,1.13,0,0,0,.08.34.5.5,0,0,0,.19.24.7.7,0,0,0,.39.09l.32,0a1.33,1.33,0,0,0,.3-.11v.79a1.25,1.25,0,0,1-.4.13l-.38,0a1.83,1.83,0,0,1-.79-.14,1,1,0,0,1-.41-.36,1.22,1.22,0,0,1-.16-.51c0-.18,0-.36,0-.56V96.37H73v-.75h1v-1.3h.88v1.3h1.25Z"/><path class="cls-4" d="M80.19,93.34h2.42a2.8,2.8,0,0,1,1.09.19,1.69,1.69,0,0,1,.68.45,1.6,1.6,0,0,1,.35.62,2.63,2.63,0,0,1,.09.67,1.9,1.9,0,0,1-.11.63,1.74,1.74,0,0,1-.34.55,1.87,1.87,0,0,1-.54.42,2,2,0,0,1-.7.21l2,3.13H83.92l-1.76-3h-1v3h-.93Zm.93,3h1.23a3.27,3.27,0,0,0,.54,0,1.6,1.6,0,0,0,.48-.16.9.9,0,0,0,.33-.34,1,1,0,0,0,.13-.56,1,1,0,0,0-.13-.57.9.9,0,0,0-.33-.34,1.94,1.94,0,0,0-.48-.16,3.27,3.27,0,0,0-.54,0H81.12Z"/><path class="cls-4" d="M86.57,98.23a1.12,1.12,0,0,0,.13.55,1.47,1.47,0,0,0,.35.43,1.64,1.64,0,0,0,.49.26,1.7,1.7,0,0,0,.59.1,1.28,1.28,0,0,0,.71-.19,2,2,0,0,0,.55-.5l.67.51a2.47,2.47,0,0,1-2,.94,2.38,2.38,0,0,1-1-.19,2.24,2.24,0,0,1-.76-.5,2.31,2.31,0,0,1-.47-.77,2.73,2.73,0,0,1-.16-1,2.3,2.3,0,0,1,.18-1,2.09,2.09,0,0,1,.5-.77,2.37,2.37,0,0,1,.75-.51,2.44,2.44,0,0,1,1-.18,2.22,2.22,0,0,1,1,.22,1.87,1.87,0,0,1,.69.55,2.27,2.27,0,0,1,.4.77,3.28,3.28,0,0,1,.12.88v.31Zm2.77-.7a1.78,1.78,0,0,0-.1-.53,1.08,1.08,0,0,0-.66-.7,1.61,1.61,0,0,0-1.17,0,1.32,1.32,0,0,0-.45.32,1.66,1.66,0,0,0-.29.42,1.42,1.42,0,0,0-.1.47Z"/><path class="cls-4" d="M93.79,96.37H92.54v2.47a1.13,1.13,0,0,0,.08.34.57.57,0,0,0,.19.24.7.7,0,0,0,.39.09l.32,0a1.33,1.33,0,0,0,.3-.11v.79a1.25,1.25,0,0,1-.4.13l-.39,0a1.78,1.78,0,0,1-.78-.14,1,1,0,0,1-.41-.36,1.09,1.09,0,0,1-.15-.51,5,5,0,0,1,0-.56V96.37h-1v-.75h1v-1.3h.88v1.3h1.25Z"/><path class="cls-4" d="M99,100.21h-.89V99.5h0a1.29,1.29,0,0,1-.58.6,1.9,1.9,0,0,1-.94.23,2,2,0,0,1-.65-.1,1.56,1.56,0,0,1-.52-.32,1.41,1.41,0,0,1-.37-.54,2.15,2.15,0,0,1-.13-.79v-3h.87v2.71a1.51,1.51,0,0,0,.09.55,1,1,0,0,0,.23.37.9.9,0,0,0,.34.2,1.28,1.28,0,0,0,.39.07,1.4,1.4,0,0,0,.51-.09,1.11,1.11,0,0,0,.41-.28,1.31,1.31,0,0,0,.27-.48,2,2,0,0,0,.09-.69V95.62H99Z"/><path class="cls-4" d="M100.34,95.62h.87v.7h0a1.23,1.23,0,0,1,.23-.33,2.1,2.1,0,0,1,.33-.26,1.61,1.61,0,0,1,.4-.17,1.52,1.52,0,0,1,.81,0l0,1-.21,0-.22,0a1.3,1.3,0,0,0-1,.36,1.61,1.61,0,0,0-.34,1.12v2.3h-.87Z"/><path class="cls-4" d="M103.94,95.62h.88v.7h0a1.2,1.2,0,0,1,.57-.59,1.81,1.81,0,0,1,1-.23,1.93,1.93,0,0,1,.63.1,1.49,1.49,0,0,1,.54.32,1.5,1.5,0,0,1,.36.54,2.1,2.1,0,0,1,.14.79v3h-.88V97.49a1.45,1.45,0,0,0-.09-.54,1.11,1.11,0,0,0-.23-.37.9.9,0,0,0-.34-.2,1,1,0,0,0-.39-.07,1.35,1.35,0,0,0-.5.09,1.07,1.07,0,0,0-.42.28,1.37,1.37,0,0,0-.27.48,2,2,0,0,0-.09.68v2.37h-.88Z"/><path class="cls-4" d="M111.84,97.91A2.28,2.28,0,0,1,112,97a2.5,2.5,0,0,1,3.23-1.28,2.48,2.48,0,0,1,.78.52,2.53,2.53,0,0,1,.53.76,2.46,2.46,0,0,1,.18.94,2.51,2.51,0,0,1-.18,1,2.46,2.46,0,0,1-.53.77,2.63,2.63,0,0,1-.78.51,2.38,2.38,0,0,1-1,.19,2.35,2.35,0,0,1-1-.19,2.51,2.51,0,0,1-.78-.51,2.3,2.3,0,0,1-.53-.77,2.33,2.33,0,0,1-.18-1m.93,0a1.71,1.71,0,0,0,.11.65,1.39,1.39,0,0,0,.3.5,1.37,1.37,0,0,0,.48.33,1.59,1.59,0,0,0,1.26,0,1.37,1.37,0,0,0,.48-.33,1.39,1.39,0,0,0,.3-.5,2.13,2.13,0,0,0,0-1.29,1.44,1.44,0,0,0-.3-.51,1.7,1.7,0,0,0-.48-.33,1.71,1.71,0,0,0-1.26,0,1.7,1.7,0,0,0-.48.33,1.44,1.44,0,0,0-.3.51,1.69,1.69,0,0,0-.11.64"/><path class="cls-4" d="M117.84,95.62h.88v.7h0a1.25,1.25,0,0,1,.57-.59,1.8,1.8,0,0,1,.94-.23,2,2,0,0,1,.64.1,1.37,1.37,0,0,1,.53.32,1.52,1.52,0,0,1,.37.54,2.1,2.1,0,0,1,.14.79v3h-.88V97.49A1.45,1.45,0,0,0,121,97a1.11,1.11,0,0,0-.23-.37.9.9,0,0,0-.34-.2,1,1,0,0,0-.39-.07,1.44,1.44,0,0,0-.51.09,1.11,1.11,0,0,0-.41.28,1.23,1.23,0,0,0-.27.48,2,2,0,0,0-.09.68v2.37h-.88Z"/><polygon class="cls-4" points="126.18 93.35 130.63 93.35 130.63 94.22 127.12 94.22 127.12 96.26 130.39 96.26 130.39 97.14 127.12 97.14 127.12 99.34 130.81 99.34 130.81 100.21 126.18 100.21 126.18 93.35"/><path class="cls-4" d="M136.53,102.42h-.88V99.56h0a1.69,1.69,0,0,1-.67.56,2.15,2.15,0,0,1-.94.21,2.54,2.54,0,0,1-1-.18,2.28,2.28,0,0,1-.73-.51,2.25,2.25,0,0,1-.47-.77,2.52,2.52,0,0,1-.17-1,2.45,2.45,0,0,1,.17-.94,2.29,2.29,0,0,1,.47-.78,2.13,2.13,0,0,1,.73-.51,2.54,2.54,0,0,1,1-.18,2.23,2.23,0,0,1,.91.2,1.73,1.73,0,0,1,.7.57h0v-.65h.88Zm-2.4-6.11a1.61,1.61,0,0,0-.63.13,1.31,1.31,0,0,0-.47.32,1.55,1.55,0,0,0-.31.51,1.87,1.87,0,0,0-.11.64,1.93,1.93,0,0,0,.11.65,1.41,1.41,0,0,0,.31.5,1.33,1.33,0,0,0,.47.33,1.45,1.45,0,0,0,.63.12,1.46,1.46,0,0,0,.64-.12,1.43,1.43,0,0,0,.47-.33,1.57,1.57,0,0,0,.31-.5,2.21,2.21,0,0,0,.1-.65,2.15,2.15,0,0,0-.1-.64,1.74,1.74,0,0,0-.31-.51,1.4,1.4,0,0,0-.47-.32,1.62,1.62,0,0,0-.64-.13"/><path class="cls-4" d="M141.94,100.21h-.88V99.5h0a1.27,1.27,0,0,1-.57.6,2.09,2.09,0,0,1-1.59.13,1.51,1.51,0,0,1-.53-.32,1.52,1.52,0,0,1-.37-.54,2.15,2.15,0,0,1-.13-.79v-3h.88v2.71a1.52,1.52,0,0,0,.08.55,1.11,1.11,0,0,0,.23.37.9.9,0,0,0,.34.2,1.34,1.34,0,0,0,.39.07,1.36,1.36,0,0,0,.51-.09,1,1,0,0,0,.41-.28,1.18,1.18,0,0,0,.27-.48,2,2,0,0,0,.1-.69V95.62h.88Z"/><path class="cls-4" d="M143.12,94a.63.63,0,0,1,.65-.63.6.6,0,0,1,.44.18.62.62,0,0,1,0,.91.61.61,0,0,1-.44.19.65.65,0,0,1-.65-.65m.21,1.66h.87v4.59h-.87Z"/><path class="cls-4" d="M148.06,96.37h-1.25v2.09c0,.13,0,.26,0,.38a.89.89,0,0,0,.07.34.57.57,0,0,0,.19.24.73.73,0,0,0,.39.09l.32,0a1.63,1.63,0,0,0,.31-.11v.79a1.32,1.32,0,0,1-.41.13l-.38,0a1.86,1.86,0,0,1-.79-.14,1,1,0,0,1-.41-.36,1.21,1.21,0,0,1-.15-.51,5,5,0,0,1,0-.56V96.37h-1v-.75h1v-1.3h.88v1.3h1.25Z"/><path class="cls-4" d="M148.65,95.62h1L151,99.2h0l1.31-3.58h.93l-2.18,5.58c-.09.2-.16.38-.25.55a1.45,1.45,0,0,1-.3.42,1.17,1.17,0,0,1-.42.27,1.59,1.59,0,0,1-.61.1l-.39,0a2.36,2.36,0,0,1-.38-.1l.11-.8a1.34,1.34,0,0,0,.52.1.87.87,0,0,0,.34,0,.65.65,0,0,0,.24-.15,1,1,0,0,0,.17-.24,3.11,3.11,0,0,0,.14-.31l.28-.73Z"/><path class="cls-4" d="M62.64,109.48a3.83,3.83,0,0,1-1.46-.27,3.46,3.46,0,0,1-1.87-1.91,3.9,3.9,0,0,1,0-2.85,3.38,3.38,0,0,1,1.87-1.91,3.84,3.84,0,0,1,1.46-.28,3.77,3.77,0,0,1,1.44.28,3.36,3.36,0,0,1,1.13.76,3.58,3.58,0,0,1,.75,1.15,3.9,3.9,0,0,1,0,2.85,3.43,3.43,0,0,1-.75,1.14,3.24,3.24,0,0,1-1.13.77,3.77,3.77,0,0,1-1.44.27m0-.87a2.5,2.5,0,0,0,1.07-.22,2.58,2.58,0,0,0,1.34-1.46,3.06,3.06,0,0,0,.18-1.06,3.11,3.11,0,0,0-.18-1.06,2.58,2.58,0,0,0-.53-.87,2.59,2.59,0,0,0-3.77,0,2.58,2.58,0,0,0-.53.87,2.88,2.88,0,0,0-.18,1.06,2.85,2.85,0,0,0,.18,1.06,2.58,2.58,0,0,0,1.34,1.46,2.51,2.51,0,0,0,1.08.22"/><polygon class="cls-4" points="66.79 104.71 67.8 104.71 69.18 108.23 70.51 104.71 71.44 104.71 69.63 109.31 68.67 109.31 66.79 104.71"/><path class="cls-4" d="M72.87,107.33a1.27,1.27,0,0,0,.13.55,1.78,1.78,0,0,0,.35.42,1.83,1.83,0,0,0,.5.27,1.91,1.91,0,0,0,.58.1,1.26,1.26,0,0,0,.71-.19,2.61,2.61,0,0,0,.56-.5l.66.5a2.44,2.44,0,0,1-2,.94,2.57,2.57,0,0,1-1-.18,2,2,0,0,1-.75-.51,2,2,0,0,1-.47-.77,2.67,2.67,0,0,1-.17-.95,2.56,2.56,0,0,1,.18-1,2.33,2.33,0,0,1,1.25-1.27,2.3,2.3,0,0,1,.95-.19,2.16,2.16,0,0,1,1,.22,2,2,0,0,1,.7.55,2.2,2.2,0,0,1,.39.78,2.92,2.92,0,0,1,.12.88v.31Zm2.77-.7a2.09,2.09,0,0,0-.09-.53,1.27,1.27,0,0,0-.25-.42,1.09,1.09,0,0,0-.41-.29,1.73,1.73,0,0,0-.59-.1,1.44,1.44,0,0,0-1,.44,1.33,1.33,0,0,0-.28.43,1.15,1.15,0,0,0-.11.47Z"/><path class="cls-4" d="M77.63,104.71h.87v.71h0a1.27,1.27,0,0,1,.23-.34,1.37,1.37,0,0,1,.33-.25,1.31,1.31,0,0,1,.4-.17,1.48,1.48,0,0,1,.42-.07,1.45,1.45,0,0,1,.39.06l0,.94-.21,0h-.22a1.26,1.26,0,0,0-1,.36A1.52,1.52,0,0,0,78.5,107v2.31h-.87Z"/><polygon class="cls-4" points="85.6 103.31 83.38 103.31 83.38 102.44 88.76 102.44 88.76 103.31 86.53 103.31 86.53 109.31 85.6 109.31 85.6 103.31"/><path class="cls-4" d="M89.52,102h.88v3.44h0a1.22,1.22,0,0,1,.57-.6,2,2,0,0,1,1.58-.12,1.39,1.39,0,0,1,.54.31,1.46,1.46,0,0,1,.36.55,2.1,2.1,0,0,1,.14.79v3h-.88v-2.72a1.51,1.51,0,0,0-.09-.55.83.83,0,0,0-.23-.36.92.92,0,0,0-.34-.21,1.23,1.23,0,0,0-.39-.06,1.59,1.59,0,0,0-.5.08,1.07,1.07,0,0,0-.41.28,1.41,1.41,0,0,0-.28.48,2.4,2.4,0,0,0-.09.69v2.37h-.88Z"/><path class="cls-4" d="M94.93,104.71h.88v.71h0a1.27,1.27,0,0,1,.23-.34,1.77,1.77,0,0,1,.72-.42,1.61,1.61,0,0,1,.43-.07,1.59,1.59,0,0,1,.39.06l0,.94-.21,0h-.22a1.25,1.25,0,0,0-1,.36,1.52,1.52,0,0,0-.34,1.11v2.31h-.88Z"/><path class="cls-4" d="M99,107.33a1.14,1.14,0,0,0,.13.55,1.78,1.78,0,0,0,.35.42,1.83,1.83,0,0,0,.5.27,1.91,1.91,0,0,0,.58.1,1.26,1.26,0,0,0,.71-.19,2.61,2.61,0,0,0,.56-.5l.66.5a2.44,2.44,0,0,1-2,.94,2.57,2.57,0,0,1-1-.18,2,2,0,0,1-.75-.51,2.16,2.16,0,0,1-.47-.77,2.67,2.67,0,0,1-.17-.95,2.56,2.56,0,0,1,.18-1,2.33,2.33,0,0,1,1.25-1.27,2.32,2.32,0,0,1,1-.19,2.22,2.22,0,0,1,1,.22,2.1,2.1,0,0,1,.69.55,2.2,2.2,0,0,1,.39.78,2.92,2.92,0,0,1,.12.88v.31Zm2.77-.7a2.09,2.09,0,0,0-.09-.53,1.12,1.12,0,0,0-.25-.42,1.09,1.09,0,0,0-.41-.29,1.73,1.73,0,0,0-.59-.1,1.43,1.43,0,0,0-.58.12,1.4,1.4,0,0,0-.46.32,1.55,1.55,0,0,0-.29.43,1.32,1.32,0,0,0-.1.47Z"/><path class="cls-4" d="M104.43,107.33a1.27,1.27,0,0,0,.13.55,1.78,1.78,0,0,0,.35.42,1.83,1.83,0,0,0,.5.27,1.92,1.92,0,0,0,.59.1,1.25,1.25,0,0,0,.7-.19,2.61,2.61,0,0,0,.56-.5l.66.5a2.44,2.44,0,0,1-2,.94,2.57,2.57,0,0,1-1-.18,2,2,0,0,1-.75-.51,2.16,2.16,0,0,1-.47-.77,2.67,2.67,0,0,1-.17-.95,2.56,2.56,0,0,1,.18-1,2.33,2.33,0,0,1,1.25-1.27,2.32,2.32,0,0,1,1-.19,2.22,2.22,0,0,1,1,.22,2.1,2.1,0,0,1,.69.55,2.2,2.2,0,0,1,.39.78,2.92,2.92,0,0,1,.12.88v.31Zm2.77-.7a1.73,1.73,0,0,0-.09-.53,1.12,1.12,0,0,0-.25-.42,1.09,1.09,0,0,0-.41-.29,1.73,1.73,0,0,0-.59-.1,1.43,1.43,0,0,0-.58.12,1.4,1.4,0,0,0-.46.32,1.33,1.33,0,0,0-.28.43,1.15,1.15,0,0,0-.11.47Z"/><polygon class="cls-4" points="113.75 106.38 111.14 102.44 112.33 102.44 114.21 105.46 116.14 102.44 117.28 102.44 114.68 106.38 114.68 109.31 113.75 109.31 113.75 106.38"/><path class="cls-4" d="M117.43,107.33a1.14,1.14,0,0,0,.13.55,1.57,1.57,0,0,0,.35.42,1.73,1.73,0,0,0,1.08.37,1.28,1.28,0,0,0,.71-.19,2.35,2.35,0,0,0,.55-.5l.67.5a2.44,2.44,0,0,1-2,.94,2.55,2.55,0,0,1-1-.18,2.12,2.12,0,0,1-.76-.51,2.31,2.31,0,0,1-.47-.77,2.67,2.67,0,0,1-.16-.95,2.38,2.38,0,0,1,.18-1,2.06,2.06,0,0,1,.5-.76,2.08,2.08,0,0,1,.75-.51,2.27,2.27,0,0,1,.95-.19,2.22,2.22,0,0,1,1,.22,2.1,2.1,0,0,1,.69.55,2.22,2.22,0,0,1,.4.78,3.28,3.28,0,0,1,.12.88v.31Zm2.77-.7a1.72,1.72,0,0,0-.1-.53,1.1,1.1,0,0,0-.24-.42,1.13,1.13,0,0,0-.42-.29,1.67,1.67,0,0,0-.58-.1,1.48,1.48,0,0,0-.59.12,1.36,1.36,0,0,0-.45.32,1.55,1.55,0,0,0-.29.43,1.14,1.14,0,0,0-.1.47Z"/><path class="cls-4" d="M122.2,105.27a2.55,2.55,0,0,1,.86-.51,3,3,0,0,1,1-.17,2.8,2.8,0,0,1,.87.13,1.66,1.66,0,0,1,.6.34,1.18,1.18,0,0,1,.34.49,1.4,1.4,0,0,1,.11.58v2.34c0,.17,0,.31,0,.45a2.56,2.56,0,0,0,0,.39h-.78c0-.24,0-.47,0-.7h0a1.62,1.62,0,0,1-.68.63,2.27,2.27,0,0,1-.93.18,2.49,2.49,0,0,1-.61-.08,1.38,1.38,0,0,1-.51-.27,1.23,1.23,0,0,1-.35-.43,1.25,1.25,0,0,1-.12-.59,1.35,1.35,0,0,1,.19-.75,1.63,1.63,0,0,1,.55-.49,2.42,2.42,0,0,1,.81-.27,5.19,5.19,0,0,1,1-.08h.65v-.2a1.09,1.09,0,0,0-.07-.35.79.79,0,0,0-.2-.31,1,1,0,0,0-.35-.23,1.34,1.34,0,0,0-.48-.08,1.84,1.84,0,0,0-.44,0,1.6,1.6,0,0,0-.35.12,1.48,1.48,0,0,0-.28.17l-.25.19Zm2.47,1.83-.64,0a2.21,2.21,0,0,0-.59.13,1,1,0,0,0-.44.27.64.64,0,0,0-.17.45.64.64,0,0,0,.27.57,1.28,1.28,0,0,0,.72.17,1.43,1.43,0,0,0,.62-.12,1.17,1.17,0,0,0,.41-.31,1.26,1.26,0,0,0,.22-.43,2,2,0,0,0,.07-.47v-.29Z"/><path class="cls-4" d="M127.23,104.71h.88v.71h0a1.27,1.27,0,0,1,.23-.34,1.31,1.31,0,0,1,.32-.25,1.81,1.81,0,0,1,.83-.24,1.59,1.59,0,0,1,.39.06l-.05.94-.21,0h-.21a1.25,1.25,0,0,0-1,.36,1.52,1.52,0,0,0-.34,1.11v2.31h-.88Z"/><path class="cls-4" d="M133.29,105.86a1.37,1.37,0,0,0-.39-.32,1.08,1.08,0,0,0-.56-.13,1,1,0,0,0-.53.13.42.42,0,0,0-.24.38.45.45,0,0,0,.13.33,1.69,1.69,0,0,0,.31.21,1.9,1.9,0,0,0,.39.11l.35.07a3.09,3.09,0,0,1,.54.17,1.38,1.38,0,0,1,.42.25,1.13,1.13,0,0,1,.28.37,1.28,1.28,0,0,1,.11.55,1.24,1.24,0,0,1-.17.66,1.35,1.35,0,0,1-.43.46,2,2,0,0,1-.6.25,3.08,3.08,0,0,1-.68.07,2.79,2.79,0,0,1-1-.17,1.78,1.78,0,0,1-.77-.64l.65-.54a3.41,3.41,0,0,0,.48.37,1.2,1.2,0,0,0,.64.17,1.87,1.87,0,0,0,.34,0,1.42,1.42,0,0,0,.31-.11.91.91,0,0,0,.21-.18.5.5,0,0,0,.08-.26.44.44,0,0,0-.12-.32.79.79,0,0,0-.3-.2,1.8,1.8,0,0,0-.35-.12l-.34-.07-.54-.16a1.42,1.42,0,0,1-.44-.23,1,1,0,0,1-.31-.37,1.15,1.15,0,0,1-.12-.55,1.21,1.21,0,0,1,.15-.62,1.24,1.24,0,0,1,.4-.45,2.05,2.05,0,0,1,.56-.26,2.33,2.33,0,0,1,1.54.09,1.41,1.41,0,0,1,.68.58Z"/></g></g></svg>