<svg xmlns="http://www.w3.org/2000/svg" viewBox="0 0 106.78 79.6"><defs><style>.cls-1{fill:#8f8060;}.cls-2{fill:#b8a78e;}</style></defs><g id="Layer_2" data-name="Layer 2"><g id="Layer_1-2" data-name="Layer 1"><path class="cls-1" d="M14.87,65.14a6.74,6.74,0,0,0-5.14-2.58,7.27,7.27,0,0,0,0,14.52,6.93,6.93,0,0,0,6.5-4.69H7.46V69.87H19.38A9.69,9.69,0,1,1,9.63,60a9.64,9.64,0,0,1,8.45,5.1Z"/><path class="cls-1" d="M22.25,79.24V65.14h2.47v1.27h.05a4.37,4.37,0,0,1,3.59-1.66v2.73a5,5,0,0,0-1.91.51c-.84.46-1.56,1.53-1.56,3.54v7.71Z"/><path class="cls-1" d="M41.31,71.3a4.58,4.58,0,0,0-9.12,0Zm-9.12,2a4.78,4.78,0,0,0,4.64,3.84,4.51,4.51,0,0,0,4-2.37H43.5a7.2,7.2,0,0,1-6.78,4.79,7.36,7.36,0,0,1-7.18-7.44A7.21,7.21,0,1,1,44,72c0,.46-.05,1.17-.07,1.35Z"/><path class="cls-1" d="M58,71.3a4.58,4.58,0,0,0-9.12,0Zm-9.12,2a4.78,4.78,0,0,0,4.63,3.84,4.52,4.52,0,0,0,4-2.37h2.65a7.2,7.2,0,0,1-6.78,4.79,7.36,7.36,0,0,1-7.18-7.44A7.21,7.21,0,1,1,60.62,72c0,.46,0,1.17-.07,1.35Z"/><path class="cls-1" d="M73.51,79.24V71.58c0-1.1,0-4.41-3.52-4.41-2.21,0-3.72,1.56-3.72,4.38v7.69H63.62V65.14h2.47v1.5h.06a5,5,0,0,1,4.12-1.89,5.78,5.78,0,0,1,5,2.52,7,7,0,0,1,.89,3.62v8.35Z"/><path class="cls-1" d="M82.75,70.13h1.88c1.12,0,5.2-.06,5.2-3.7,0-1.58-1.07-3.51-4.18-3.51h-2.9ZM89,79.24,82.8,70.51h0v8.73H80V60.4h5.83c2.65,0,4,.63,5,1.58a6.23,6.23,0,0,1,1.73,4.45,5.42,5.42,0,0,1-5.4,5.78l5.27,7Z"/><polygon class="cls-1" points="95.61 79.24 95.61 60.4 105.77 60.4 105.77 62.92 98.36 62.92 98.36 68.47 105.77 68.47 105.77 70.99 98.36 70.99 98.36 76.72 105.77 76.72 105.77 79.24 95.61 79.24"/><path class="cls-1" d="M39.7,60.65A27.68,27.68,0,0,0,48,50.21c3.36-7.07,5.84-18.74,19.65-25.15,14.59-6.76,39.12.66,39.12.66S97.88,28.15,91.87,38c-8,13.13-12.34,21.82-24,22.28-6.89.28-11.47-6.43-11.47-6.43a61.62,61.62,0,0,1,11.8-14.59A62.46,62.46,0,0,1,84.84,28.84s-8-.86-18.64,7.1-13,15.12-16.11,19C47.37,58.25,44.16,61,39.7,60.65"/><polygon class="cls-2" points="75.08 17.79 83 13.47 56.32 0 20.4 20.45 20.4 28.99 56.53 8.43 75.08 17.79"/><polygon class="cls-2" points="62.78 24.51 70.13 20.5 56.33 13.53 20.4 33.98 20.4 57.26 28.88 57.26 28.88 37.08 56.52 21.35 62.78 24.51"/></g></g></svg>