<svg xmlns="http://www.w3.org/2000/svg" viewBox="0 0 111.89 100.69"><defs><style>.cls-1{fill:#a57950;}.cls-2{fill:#908556;}.cls-3{fill:#fff;}</style></defs><g id="Layer_2" data-name="Layer 2"><g id="Layer_1-2" data-name="Layer 1"><path class="cls-1" d="M72.47,47.82C56.58-33-4.12-3.26,33.18,76.87h12C29.52,43.12,46.57,27.81,57.19,47.82Z"/><path class="cls-2" d="M49.12,76.87c7.72-28.81,25.35-23.61,15.6,0H75c30.83-66-19.78-83.33-26.88,0Z"/><polygon class="cls-3" points="19.74 100.69 19.74 83.97 15.84 100.69 9.08 100.69 5.18 83.97 5.18 100.69 0 100.69 0 78.61 8.62 78.61 12.45 95.15 16.32 78.61 24.94 78.61 24.94 100.69 19.74 100.69"/><path class="cls-3" d="M36.6,84.14l-2.39,7.5H39Zm5.29,16.55-1.46-4.64H32.79l-1.48,4.64H25.57l8-22.08h6l8.09,22.08Z"/><polygon class="cls-3" points="54.36 83.24 54.36 100.69 48.59 100.69 48.59 83.24 43.97 83.24 43.97 78.61 58.98 78.61 58.98 83.24 54.36 83.24"/><path class="cls-3" d="M67.57,83.11H65.91v4.76h1.66a2.38,2.38,0,0,0,2.62-2.37,2.42,2.42,0,0,0-2.62-2.39m3.34,17.58-1.16-5.94c-.36-1.81-1.11-2.37-2.88-2.37h-1v8.31H60.17V78.61h8.29c5.1,0,7.62,3,7.62,6.39a5.47,5.47,0,0,1-4,5.26,4,4,0,0,1,3.36,3.51L77,100.69Z"/><rect class="cls-3" x="78.31" y="78.61" width="5.72" height="22.08"/><polygon class="cls-3" points="99.8 100.69 95.91 92.97 92.08 100.69 85.13 100.69 92.08 89.3 85.56 78.61 92.41 78.61 95.91 85.62 99.43 78.61 106.32 78.61 99.8 89.3 106.75 100.69 99.8 100.69"/><path class="cls-3" d="M108.78,81h.6a.56.56,0,0,0,.29-.05.22.22,0,0,0,.18-.12.33.33,0,0,0,.06-.19.33.33,0,0,0-.11-.25.55.55,0,0,0-.36-.1h-.66Zm-.28,1.19V80.07h.94a1,1,0,0,1,.44.07.38.38,0,0,1,.23.19.73.73,0,0,1,.09.32.55.55,0,0,1-.15.38.76.76,0,0,1-.45.2.55.55,0,0,1,.16.11,1.22,1.22,0,0,1,.25.29l.36.57H110l-.29-.45c-.08-.12-.15-.23-.2-.29a.9.9,0,0,0-.14-.14l-.13,0a.34.34,0,0,0-.16,0h-.32v1Z"/><path class="cls-3" d="M109.43,78.93a2.21,2.21,0,1,0,2.19,2.21,2.2,2.2,0,0,0-2.19-2.21m0,4.58a2.38,2.38,0,1,1,2.39-2.37,2.38,2.38,0,0,1-2.39,2.37"/><path class="cls-3" d="M109.43,79a2.13,2.13,0,1,0,2.12,2.12A2.13,2.13,0,0,0,109.43,79m0,4.39a2.27,2.27,0,1,1,2.28-2.27,2.27,2.27,0,0,1-2.28,2.27m0-4.59a2.32,2.32,0,1,0,2.32,2.32,2.32,2.32,0,0,0-2.32-2.32m0,4.8a2.47,2.47,0,0,1,0-4.93,2.47,2.47,0,0,1,0,4.93"/></g></g></svg>