<svg xmlns="http://www.w3.org/2000/svg" viewBox="0 0 42.03 52.21"><defs><style>.cls-1{fill:#c2ad94;}</style></defs><g id="Layer_2" data-name="Layer 2"><g id="Layer_1-2" data-name="Layer 1"><path class="cls-1" d="M16,52.21a1.6,1.6,0,0,1-1.13-1.83c0-.65,0-1.31,0-1.94v-1a1.42,1.42,0,0,1,1.42-1.51,1.4,1.4,0,0,1,1.41,1.51c0,.37,0,.74,0,1.11v.83H28.76V40.64c0-1.16.53-1.69,1.67-1.69h8.73v-18H37.25a1.56,1.56,0,0,1-1.15-.45,1.36,1.36,0,0,1-.39-1,1.43,1.43,0,0,1,1.54-1.4H40.5A1.42,1.42,0,0,1,42,19.58c0,3.63,0,7.27,0,10.9v9.78a1.59,1.59,0,0,1-.49,1.18l-2.39,2.39c-2.59,2.59-5.26,5.27-7.91,7.89a2.28,2.28,0,0,1-.55.36l-.25.13Zm15.67-5.07L37,41.8H31.64Z"/><path class="cls-1" d="M19.53,42.48H1.6A1.44,1.44,0,0,1,0,40.89V1.68A1.47,1.47,0,0,1,1.68,0H29.91a1.47,1.47,0,0,1,1.68,1.69v5.8c0,7.46,0,17.66,0,22.88A1.89,1.89,0,0,1,31,31.81L20.9,41.92a1.84,1.84,0,0,1-1.36.56ZM2.86,39.62H18.32s0-6.85,0-8.77A1.45,1.45,0,0,1,20,29.21h8.76V2.86H2.86Zm18.32-2.16,5.38-5.39H21.18Z"/><path class="cls-1" d="M12.17,9.79H8.38A1.42,1.42,0,0,1,8.1,7a1.52,1.52,0,0,1,.32,0H23.17a1.4,1.4,0,0,1,1.46,1.27,1.41,1.41,0,0,1-1.14,1.53,2.22,2.22,0,0,1-.46,0Z"/><path class="cls-1" d="M15.8,16.75H8.51a1.43,1.43,0,1,1,0-2.84H23.08a1.43,1.43,0,0,1,1.56,1.41,1.38,1.38,0,0,1-.42,1,1.66,1.66,0,0,1-1.13.41Z"/></g></g></svg>