<svg xmlns="http://www.w3.org/2000/svg" xmlns:xlink="http://www.w3.org/1999/xlink" viewBox="0 0 291.12 164.47"><defs><style>.cls-1,.cls-60{fill:none;}.cls-2{clip-path:url(#clip-path);}.cls-3{fill:url(#linear-gradient);}.cls-4{clip-path:url(#clip-path-2);}.cls-5{fill:url(#linear-gradient-2);}.cls-6{clip-path:url(#clip-path-3);}.cls-7{fill:url(#linear-gradient-3);}.cls-8{clip-path:url(#clip-path-4);}.cls-9{fill:url(#linear-gradient-4);}.cls-10{clip-path:url(#clip-path-5);}.cls-11{fill:url(#linear-gradient-5);}.cls-12{clip-path:url(#clip-path-6);}.cls-13{fill:url(#linear-gradient-6);}.cls-14{clip-path:url(#clip-path-7);}.cls-15{fill:url(#linear-gradient-7);}.cls-16{clip-path:url(#clip-path-8);}.cls-17{fill:url(#linear-gradient-8);}.cls-18{clip-path:url(#clip-path-9);}.cls-19{fill:url(#linear-gradient-9);}.cls-20{clip-path:url(#clip-path-10);}.cls-21{fill:url(#linear-gradient-10);}.cls-22{clip-path:url(#clip-path-11);}.cls-23{fill:url(#linear-gradient-11);}.cls-24{clip-path:url(#clip-path-12);}.cls-25{fill:url(#linear-gradient-12);}.cls-26{clip-path:url(#clip-path-13);}.cls-27{fill:url(#linear-gradient-13);}.cls-28{clip-path:url(#clip-path-14);}.cls-29{fill:url(#linear-gradient-14);}.cls-30{clip-path:url(#clip-path-15);}.cls-31{fill:url(#linear-gradient-15);}.cls-32{clip-path:url(#clip-path-16);}.cls-33{fill:url(#linear-gradient-16);}.cls-34{clip-path:url(#clip-path-17);}.cls-35{fill:url(#linear-gradient-17);}.cls-36{clip-path:url(#clip-path-18);}.cls-37{fill:url(#linear-gradient-18);}.cls-38{clip-path:url(#clip-path-19);}.cls-39{fill:url(#linear-gradient-19);}.cls-40{clip-path:url(#clip-path-20);}.cls-41{fill:url(#linear-gradient-20);}.cls-42{clip-path:url(#clip-path-21);}.cls-43{fill:url(#linear-gradient-21);}.cls-44{clip-path:url(#clip-path-22);}.cls-45{fill:url(#linear-gradient-22);}.cls-46{clip-path:url(#clip-path-23);}.cls-47{fill:url(#linear-gradient-23);}.cls-48{clip-path:url(#clip-path-24);}.cls-49{fill:url(#linear-gradient-24);}.cls-50{clip-path:url(#clip-path-25);}.cls-51{fill:url(#linear-gradient-25);}.cls-52{clip-path:url(#clip-path-26);}.cls-53{fill:url(#linear-gradient-26);}.cls-54{clip-path:url(#clip-path-27);}.cls-55{fill:url(#linear-gradient-27);}.cls-56{clip-path:url(#clip-path-28);}.cls-57{fill:url(#linear-gradient-28);}.cls-58{clip-path:url(#clip-path-29);}.cls-59{fill:url(#linear-gradient-29);}.cls-60{stroke:#8d8060;stroke-miterlimit:10;stroke-width:2px;}</style><clipPath id="clip-path" transform="translate(19.17 10.79)"><polygon class="cls-1" points="34.65 136.49 36.28 136.49 36.28 141.32 41.33 136.49 43.6 136.49 37.84 142.01 43.64 148.4 41.56 148.4 36.28 142.59 36.28 148.4 34.65 148.4 34.65 136.49"/></clipPath><linearGradient id="linear-gradient" x1="5591.22" y1="5219.18" x2="5592.69" y2="5219.18" gradientTransform="matrix(0, 339.51, 339.51, 0, -1771952.42, -1898262.63)" gradientUnits="userSpaceOnUse"><stop offset="0" stop-color="#bf8b66"/><stop offset="0.29" stop-color="#f6ccaa"/><stop offset="0.59" stop-color="#fff"/><stop offset="0.77" stop-color="#b99880"/><stop offset="1" stop-color="#815126"/></linearGradient><clipPath id="clip-path-2" transform="translate(19.17 10.79)"><path class="cls-1" d="M58.83,136.5v7.61a3.15,3.15,0,0,1-.79,2.3,2.91,2.91,0,0,1-2.21.82,2.78,2.78,0,0,1-2.21-.89,3.68,3.68,0,0,1-.78-2.51V136.5H51.21v7.06a5.43,5.43,0,0,0,1.28,3.91,4.47,4.47,0,0,0,3.39,1.33,4.39,4.39,0,0,0,3.33-1.31,4.87,4.87,0,0,0,1.25-3.5V136.5Z"/></clipPath><linearGradient id="linear-gradient-2" x1="5591.22" y1="5219.19" x2="5592.69" y2="5219.19" gradientTransform="matrix(0, 339.47, 339.47, 0, -1771693.53, -1898018.23)" xlink:href="#linear-gradient"/><clipPath id="clip-path-3" transform="translate(19.17 10.79)"><path class="cls-1" d="M73,139.75,75,144H71.11Zm-5.57,8.65h1.69l1.37-3.05h5l1.38,3.05h1.71L73,136Z"/></clipPath><linearGradient id="linear-gradient-3" x1="5591.23" y1="5219.2" x2="5592.69" y2="5219.2" gradientTransform="matrix(0, 339.52, 339.52, 0, -1771959.51, -1898335.01)" xlink:href="#linear-gradient"/><clipPath id="clip-path-4" transform="translate(19.17 10.79)"><polygon class="cls-1" points="86.12 136.49 86.12 148.4 91.61 148.4 91.61 146.79 87.73 146.79 87.73 136.49 86.12 136.49"/></clipPath><linearGradient id="linear-gradient-4" x1="5591.23" y1="5219.2" x2="5592.69" y2="5219.2" gradientTransform="matrix(0, 339.56, 339.56, 0, -1772136.99, -1898554.83)" xlink:href="#linear-gradient"/><clipPath id="clip-path-5" transform="translate(19.17 10.79)"><path class="cls-1" d="M103.44,139.75l1.93,4.24h-3.83Zm-5.57,8.65h1.69l1.37-3.05H106l1.38,3.05h1.7L103.45,136Z"/></clipPath><linearGradient id="linear-gradient-5" x1="5591.22" y1="5219.21" x2="5592.69" y2="5219.21" gradientTransform="matrix(0, 339.51, 339.51, 0, -1771848.67, -1898271.08)" xlink:href="#linear-gradient"/><clipPath id="clip-path-6" transform="translate(19.17 10.79)"><polygon class="cls-1" points="127.58 136.49 127.58 148.4 133.07 148.4 133.07 146.79 129.19 146.79 129.19 136.49 127.58 136.49"/></clipPath><linearGradient id="linear-gradient-6" x1="5591.22" y1="5219.22" x2="5592.69" y2="5219.22" gradientTransform="matrix(0, 339.46, 339.46, 0, -1771600.94, -1898056.37)" xlink:href="#linear-gradient"/><clipPath id="clip-path-7" transform="translate(19.17 10.79)"><path class="cls-1" d="M147.83,136.5v7.61a3.15,3.15,0,0,1-.79,2.3,2.9,2.9,0,0,1-2.21.82,2.8,2.8,0,0,1-2.21-.89,3.68,3.68,0,0,1-.78-2.51V136.5h-1.63v7.06a5.43,5.43,0,0,0,1.28,3.91,4.47,4.47,0,0,0,3.4,1.33,4.38,4.38,0,0,0,3.32-1.31,4.87,4.87,0,0,0,1.25-3.5V136.5Z"/></clipPath><linearGradient id="linear-gradient-7" x1="5591.23" y1="5219.22" x2="5592.69" y2="5219.22" gradientTransform="matrix(0, 339.52, 339.52, 0, -1771908.85, -1898414.2)" xlink:href="#linear-gradient"/><clipPath id="clip-path-8" transform="translate(19.17 10.79)"><polygon class="cls-1" points="163.71 144.87 159.98 135.99 156.72 148.4 158.31 148.4 160.3 140.75 163.71 148.86 167.11 140.82 169.08 148.4 170.67 148.4 167.41 135.99 163.71 144.87"/></clipPath><linearGradient id="linear-gradient-8" x1="5591.22" y1="5219.23" x2="5592.69" y2="5219.23" gradientTransform="matrix(0, 339.45, 339.45, 0, -1771484.78, -1897994.05)" xlink:href="#linear-gradient"/><clipPath id="clip-path-9" transform="translate(19.17 10.79)"><path class="cls-1" d="M180.08,137.91a4.75,4.75,0,0,1,2.93.6,1.89,1.89,0,0,1,.67,1.45,1.71,1.71,0,0,1-.88,1.6,6,6,0,0,1-2.72.52Zm-1.6-1.42V148.4h1.6v-4.9a6.29,6.29,0,0,0,4-1,3.14,3.14,0,0,0,1.31-2.57,3,3,0,0,0-1.24-2.48,5.22,5.22,0,0,0-3.28-.95Z"/></clipPath><linearGradient id="linear-gradient-9" x1="5591.22" y1="5219.24" x2="5592.69" y2="5219.24" gradientTransform="matrix(0, 339.47, 339.47, 0, -1771579.27, -1898131.58)" xlink:href="#linear-gradient"/><clipPath id="clip-path-10" transform="translate(19.17 10.79)"><path class="cls-1" d="M201,136.5v7.61a3.15,3.15,0,0,1-.79,2.3,2.9,2.9,0,0,1-2.21.82,2.8,2.8,0,0,1-2.21-.89,3.68,3.68,0,0,1-.78-2.51V136.5h-1.63v7.06a5.43,5.43,0,0,0,1.28,3.91,4.47,4.47,0,0,0,3.4,1.33,4.38,4.38,0,0,0,3.32-1.31,4.87,4.87,0,0,0,1.25-3.5V136.5Z"/></clipPath><linearGradient id="linear-gradient-10" x1="5591.22" y1="5219.24" x2="5592.69" y2="5219.24" gradientTransform="matrix(0, 339.48, 339.48, 0, -1771640.53, -1898226.37)" xlink:href="#linear-gradient"/><clipPath id="clip-path-11" transform="translate(19.17 10.79)"><path class="cls-1" d="M212.6,142.08v-4.15a9,9,0,0,1,2.06.17,2.07,2.07,0,0,1,1.12.65,1.83,1.83,0,0,1,.42,1.24c0,1.39-1.12,2.09-3.36,2.09h-.24M211,136.49V148.4h1.63v-4.9H213l3.3,4.9h1.87l-3.46-5.1a4.38,4.38,0,0,0,2.44-1.29,3.15,3.15,0,0,0,.78-2.11,3,3,0,0,0-1.21-2.46,4.89,4.89,0,0,0-3.13-.95Z"/></clipPath><linearGradient id="linear-gradient-11" x1="5591.22" y1="5219.25" x2="5592.69" y2="5219.25" gradientTransform="matrix(0, 339.47, 339.47, 0, -1771547.87, -1898158.48)" xlink:href="#linear-gradient"/><clipPath id="clip-path-12" transform="translate(19.17 10.79)"><path class="cls-1" d="M63.92,91.75V87.6a9.45,9.45,0,0,1,2,.17,2.14,2.14,0,0,1,1.12.66,1.76,1.76,0,0,1,.42,1.24c0,1.39-1.11,2.08-3.35,2.08h-.24m-1.63-5.59V98.07h1.63v-4.9h.36l3.3,4.9h1.87L66,93a4.41,4.41,0,0,0,2.44-1.29,3.19,3.19,0,0,0,.78-2.12A3,3,0,0,0,68,87.12a4.92,4.92,0,0,0-3.14-1Z"/></clipPath><linearGradient id="linear-gradient-12" x1="5591.23" y1="5219.24" x2="5592.69" y2="5219.24" gradientTransform="matrix(0, 339.48, 339.48, 0, -1771744.32, -1898093.92)" xlink:href="#linear-gradient"/><clipPath id="clip-path-13" transform="translate(19.17 10.79)"><polygon class="cls-1" points="77.22 86.16 77.22 98.07 83.83 98.07 83.83 96.47 78.83 96.47 78.83 92.37 83.83 92.37 83.83 90.76 78.83 90.76 78.83 87.79 83.83 87.79 83.83 86.16 77.22 86.16"/></clipPath><linearGradient id="linear-gradient-13" x1="5591.23" y1="5219.24" x2="5592.7" y2="5219.24" gradientTransform="matrix(0, 339.5, 339.5, 0, -1771873.86, -1898266.71)" xlink:href="#linear-gradient"/><clipPath id="clip-path-14" transform="translate(19.17 10.79)"><path class="cls-1" d="M92.63,86.69a2.79,2.79,0,0,0-1,2.18,2.73,2.73,0,0,0,.18,1,3.58,3.58,0,0,0,.58.94,4,4,0,0,0,.93.81,10.11,10.11,0,0,0,1.54.75,8.42,8.42,0,0,1,1.46.73,2.71,2.71,0,0,1,.77.81,1.76,1.76,0,0,1,.31,1,1.73,1.73,0,0,1-.59,1.34,2.09,2.09,0,0,1-1.48.54,2.89,2.89,0,0,1-2.72-2L91,95.21a5.17,5.17,0,0,0,1.77,2.45,4.45,4.45,0,0,0,2.64.82,3.61,3.61,0,0,0,2.61-1,3.4,3.4,0,0,0,1.08-2.53,3.45,3.45,0,0,0-.2-1.21,3.65,3.65,0,0,0-.61-1.08,4.19,4.19,0,0,0-1-.94,12,12,0,0,0-1.79-.92,6.55,6.55,0,0,1-1.62-.91,1.22,1.22,0,0,1-.48-1,1.19,1.19,0,0,1,.55-1,2.82,2.82,0,0,1,2.65-.13,4.83,4.83,0,0,1,1,.81l1.31-1.06a4.09,4.09,0,0,0-1.66-1.28,5.11,5.11,0,0,0-2-.42,3.65,3.65,0,0,0-2.49.9"/></clipPath><linearGradient id="linear-gradient-14" x1="5591.23" y1="5219.25" x2="5592.7" y2="5219.25" gradientTransform="matrix(0, 339.5, 339.5, 0, -1771847.29, -1898262.3)" xlink:href="#linear-gradient"/><clipPath id="clip-path-15" transform="translate(19.17 10.79)"><rect class="cls-1" x="106.78" y="86.16" width="1.61" height="11.91"/></clipPath><linearGradient id="linear-gradient-15" x1="5591.22" y1="5219.25" x2="5592.69" y2="5219.25" gradientTransform="matrix(0, 339.39, 339.39, 0, -1771281.66, -1897678.14)" xlink:href="#linear-gradient"/><clipPath id="clip-path-16" transform="translate(19.17 10.79)"><path class="cls-1" d="M118.4,87.75h.82a9.09,9.09,0,0,1,2.9.38,3.9,3.9,0,0,1,1.86,1.5,4.23,4.23,0,0,1,.78,2.49,4.17,4.17,0,0,1-1.8,3.47,4.68,4.68,0,0,1-1.74.71,16.54,16.54,0,0,1-2.73.17h-.09Zm-1.63-1.59V98.07h2.91a6.67,6.67,0,0,0,5-1.8,5.84,5.84,0,0,0,1.73-4.15A5.92,5.92,0,0,0,124.77,88a6.6,6.6,0,0,0-5.11-1.82Z"/></clipPath><linearGradient id="linear-gradient-16" x1="5591.23" y1="5219.26" x2="5592.7" y2="5219.26" gradientTransform="matrix(0, 339.51, 339.51, 0, -1771859.7, -1898328.56)" xlink:href="#linear-gradient"/><clipPath id="clip-path-17" transform="translate(19.17 10.79)"><polygon class="cls-1" points="133.93 86.16 133.93 98.07 140.53 98.07 140.53 96.47 135.54 96.47 135.54 92.37 140.53 92.37 140.53 90.76 135.54 90.76 135.54 87.79 140.53 87.79 140.53 86.16 133.93 86.16"/></clipPath><linearGradient id="linear-gradient-17" x1="5591.23" y1="5219.26" x2="5592.69" y2="5219.26" gradientTransform="matrix(0, 339.44, 339.44, 0, -1771472.11, -1897943.27)" xlink:href="#linear-gradient"/><clipPath id="clip-path-18" transform="translate(19.17 10.79)"><polygon class="cls-1" points="148.1 98.07 149.73 98.07 149.73 89.61 158.54 98.62 158.54 86.16 156.91 86.16 156.91 94.74 148.1 85.68 148.1 98.07"/></clipPath><linearGradient id="linear-gradient-18" x1="5591.23" y1="5219.27" x2="5592.7" y2="5219.27" gradientTransform="matrix(0, 339.53, 339.53, 0, -1771928.83, -1898461.83)" xlink:href="#linear-gradient"/><clipPath id="clip-path-19" transform="translate(19.17 10.79)"><path class="cls-1" d="M168.07,87.64a6,6,0,0,0-1.93,4.44,6,6,0,0,0,2,4.52,6.58,6.58,0,0,0,4.73,1.88,7.37,7.37,0,0,0,3.5-.86V95.75a6.84,6.84,0,0,1-3.36,1,5.26,5.26,0,0,1-3.65-1.33,4.54,4.54,0,0,1,0-6.62,4.94,4.94,0,0,1,3.5-1.34,8.08,8.08,0,0,1,3.54.94V86.57a9.34,9.34,0,0,0-3.62-.78,6.46,6.46,0,0,0-4.65,1.85"/></clipPath><linearGradient id="linear-gradient-19" x1="5591.23" y1="5219.27" x2="5592.7" y2="5219.27" gradientTransform="matrix(0, 339.5, 339.5, 0, -1771796.53, -1898351.81)" xlink:href="#linear-gradient"/><clipPath id="clip-path-20" transform="translate(19.17 10.79)"><polygon class="cls-1" points="183.89 86.16 183.89 98.07 190.5 98.07 190.5 96.47 185.5 96.47 185.5 92.37 190.5 92.37 190.5 90.76 185.5 90.76 185.5 87.79 190.5 87.79 190.5 86.16 183.89 86.16"/></clipPath><linearGradient id="linear-gradient-20" x1="5591.23" y1="5219.28" x2="5592.7" y2="5219.28" gradientTransform="matrix(0, 339.52, 339.52, 0, -1771849.07, -1898442.34)" xlink:href="#linear-gradient"/><clipPath id="clip-path-21" transform="translate(19.17 10.79)"><path class="cls-1" d="M136.75,9.73l8.85,20.71,2.58-6.36c2.58-6.51,5.91-13.77,13.17-13.77V9.73Z"/></clipPath><linearGradient id="linear-gradient-21" x1="5591.22" y1="5219.33" x2="5592.69" y2="5219.33" gradientTransform="matrix(0, 339.49, 339.49, 0, -1771770.24, -1898316.32)" xlink:href="#linear-gradient"/><clipPath id="clip-path-22" transform="translate(19.17 10.79)"><path class="cls-1" d="M21.68,64.44h0"/></clipPath><linearGradient id="linear-gradient-22" x1="5591.27" y1="5219.23" x2="5592.74" y2="5219.23" gradientTransform="matrix(0.01, 340.35, 340.35, -0.01, -1776400.5, -1902956.09)" xlink:href="#linear-gradient"/><clipPath id="clip-path-23" transform="translate(19.17 10.79)"><path class="cls-1" d="M95.22,9.73v.58A8.66,8.66,0,0,1,103.64,16l18.68,43.17s2.32,5.27,4.46,5.27l6.15-15.24-17-39.46Z"/></clipPath><linearGradient id="linear-gradient-23" x1="5591.22" y1="5219.3" x2="5592.69" y2="5219.3" gradientTransform="matrix(0, 339.49, 339.49, 0, -1771798.54, -1898275.42)" xlink:href="#linear-gradient"/><clipPath id="clip-path-24" transform="translate(19.17 10.79)"><path class="cls-1" d="M216.82,26.16l8.31,21H208.52s-4.51,17.36-15,17.36v.58h21.41v-.58c-4.43,0-7.43-4-7.43-8.43a16.47,16.47,0,0,1,.75-5.61L209,48.1h16.68l4.53,11.73A8.38,8.38,0,0,0,238,65.11h14.82v-.58c-5.34,0-8.43-3.67-10-7.59L223.37,9.73Z"/></clipPath><linearGradient id="linear-gradient-24" x1="5591.22" y1="5219.35" x2="5592.69" y2="5219.35" gradientTransform="matrix(0, 339.49, 339.49, 0, -1771712.93, -1898381.32)" xlink:href="#linear-gradient"/><clipPath id="clip-path-25" transform="translate(19.17 10.79)"><path class="cls-1" d="M73.48,9.73v.54h1.88c14.56,0,15.83,7.62,16.88,14.64h.48V9.73Z"/></clipPath><linearGradient id="linear-gradient-25" x1="5591.22" y1="5219.3" x2="5592.69" y2="5219.3" gradientTransform="matrix(0, 339.5, 339.5, 0, -1771875.92, -1898306.16)" xlink:href="#linear-gradient"/><clipPath id="clip-path-26" transform="translate(19.17 10.79)"><path class="cls-1" d="M68,9.73H48.1v.5c3.5,0,7.4,1.75,7.4,5.67v23h0V65.11H95.22V47h-.45c-2.5,10.73-8.13,17.32-20.57,17.48H68V37.67h2.5c6.84,0,13.43,5.76,13.43,12.6h.59V25.74H84c0,6.84-6.59,11.1-13.43,11.1H68V9.73Z"/></clipPath><linearGradient id="linear-gradient-26" x1="5591.22" y1="5219.29" x2="5592.69" y2="5219.29" gradientTransform="matrix(0, 339.48, 339.48, 0, -1771789.54, -1898180.79)" xlink:href="#linear-gradient"/><clipPath id="clip-path-27" transform="translate(19.17 10.79)"><path class="cls-1" d="M0,9.73v.5c3.5,0,7.42,1.75,7.42,5.67L7.36,65.11H47.13V47h-.42C44.09,57.83,38.54,64.28,26.1,64.44H19.87V9.73Z"/></clipPath><linearGradient id="linear-gradient-27" x1="5591.22" y1="5219.28" x2="5592.69" y2="5219.28" gradientTransform="matrix(0, 339.49, 339.49, 0, -1771873.28, -1898181.27)" xlink:href="#linear-gradient"/><clipPath id="clip-path-28" transform="translate(19.17 10.79)"><path class="cls-1" d="M163.82,9.73v.58c3.51,0,7.43,1.75,7.43,5.68V65.11h19.48v-.59h-6.91V9.73Z"/></clipPath><linearGradient id="linear-gradient-28" x1="5591.22" y1="5219.32" x2="5592.69" y2="5219.32" gradientTransform="matrix(0, 339.48, 339.48, 0, -1771665.56, -1898247.29)" xlink:href="#linear-gradient"/><clipPath id="clip-path-29" transform="translate(19.17 10.79)"><path class="cls-1" d="M121.2,5.15a5.16,5.16,0,0,1,5.16,5.16,5.16,5.16,0,0,1,5.15-5.16A5.15,5.15,0,0,1,126.36,0a5.15,5.15,0,0,1-5.16,5.15"/></clipPath><linearGradient id="linear-gradient-29" x1="5591.22" y1="5219.34" x2="5592.68" y2="5219.34" gradientTransform="matrix(0, 339.42, 339.42, 0, -1771409.57, -1897891.11)" xlink:href="#linear-gradient"/></defs><g id="Layer_2" data-name="Layer 2"><g id="Layer_1-2" data-name="Layer 1"><g class="cls-2"><rect class="cls-3" x="31.94" y="136.05" width="14.4" height="12.78" transform="translate(-88.45 136.41) rotate(-68.1)"/></g><g class="cls-4"><rect class="cls-5" x="48.4" y="136.07" width="14.86" height="13.17" transform="translate(-78.18 152.02) rotate(-68.1)"/></g><g class="cls-6"><rect class="cls-7" x="65.22" y="134.71" width="15.65" height="15.01" transform="translate(-66.98 167.72) rotate(-68.1)"/></g><g class="cls-8"><rect class="cls-9" x="82.32" y="137.67" width="13.1" height="9.54" transform="translate(-57.27 182.54) rotate(-68.1)"/></g><g class="cls-10"><rect class="cls-11" x="95.65" y="134.71" width="15.65" height="15.01" transform="translate(-47.91 195.95) rotate(-68.1)"/></g><g class="cls-12"><rect class="cls-13" x="123.77" y="137.67" width="13.1" height="9.54" transform="translate(-31.28 221) rotate(-68.1)"/></g><g class="cls-14"><rect class="cls-15" x="137.41" y="136.07" width="14.86" height="13.17" transform="translate(-22.38 234.6) rotate(-68.1)"/></g><g class="cls-16"><rect class="cls-17" x="155.12" y="133.55" width="17.14" height="17.75" transform="translate(-10.34 251.96) rotate(-68.1)"/></g><g class="cls-18"><rect class="cls-19" x="175.11" y="137.01" width="13.63" height="10.85" transform="translate(1.07 268.89) rotate(-68.1)"/></g><g class="cls-20"><rect class="cls-21" x="190.55" y="136.07" width="14.86" height="13.17" transform="translate(10.94 283.91) rotate(-68.1)"/></g><g class="cls-22"><rect class="cls-23" x="207.69" y="136.9" width="13.72" height="11.09" transform="translate(21.53 299.16) rotate(-68.1)"/></g><g class="cls-24"><rect class="cls-25" x="59.01" y="86.57" width="13.72" height="11.09" transform="translate(-25 129.65) rotate(-68.1)"/></g><g class="cls-26"><rect class="cls-27" x="73.77" y="86.83" width="13.52" height="10.57" transform="translate(-15.81 143.25) rotate(-68.1)"/></g><g class="cls-28"><rect class="cls-29" x="87.61" y="86.01" width="14.8" height="12.25" transform="translate(-6.75 156.69) rotate(-68.1)"/></g><g class="cls-30"><rect class="cls-31" x="101.76" y="89.15" width="11.65" height="5.93" transform="translate(1.15 168.36) rotate(-68.1)"/></g><g class="cls-32"><rect class="cls-33" x="114.27" y="85.41" width="14.66" height="13.41" transform="translate(9.94 181.37) rotate(-68.1)"/></g><g class="cls-34"><rect class="cls-35" x="130.47" y="86.83" width="13.52" height="10.57" transform="translate(19.74 195.87) rotate(-68.1)"/></g><g class="cls-36"><rect class="cls-37" x="145.37" y="84.9" width="15.9" height="14.51" transform="translate(29.79 210.81) rotate(-68.1)"/></g><g class="cls-38"><rect class="cls-39" x="163.45" y="85.03" width="15.58" height="14.2" transform="translate(41.05 227.43) rotate(-68.1)"/></g><g class="cls-40"><rect class="cls-41" x="180.44" y="86.83" width="13.52" height="10.57" transform="matrix(0.37, -0.93, 0.93, 0.37, 51.06, 242.22)"/></g><g class="cls-42"><rect class="cls-43" x="134.85" y="4.81" width="28.39" height="30.56" transform="matrix(0.37, -0.93, 0.93, 0.37, 93.98, 161.67)"/></g><g class="cls-44"><rect class="cls-45" x="21.86" y="64.17" width="0.22" height="0.54" transform="translate(-26.85 71.57) rotate(-68.1)"/></g><g class="cls-46"><rect class="cls-47" x="81.67" y="9.38" width="64.82" height="55.39" transform="translate(56.29 139.88) rotate(-68.1)"/></g><g class="cls-48"><rect class="cls-49" x="186.4" y="-0.41" width="73.5" height="75.66" transform="translate(124.35 241.29) rotate(-68.1)"/></g><g class="cls-50"><rect class="cls-51" x="72.47" y="5.56" width="21.27" height="23.52" transform="translate(55.2 98.75) rotate(-68.1)"/></g><g class="cls-52"><rect class="cls-53" x="37.18" y="5.23" width="68.96" height="64.38" transform="matrix(0.37, -0.93, 0.93, 0.37, 29.38, 100.73)"/></g><g class="cls-54"><rect class="cls-55" x="-10.92" y="5.23" width="68.96" height="64.38" transform="translate(-0.78 56.11) rotate(-68.1)"/></g><g class="cls-56"><rect class="cls-57" x="146.57" y="14.61" width="61.42" height="45.63" transform="translate(95.59 198.73) rotate(-68.1)"/></g><g class="cls-58"><rect class="cls-59" x="119.65" y="-1.55" width="13.41" height="13.41" transform="matrix(0.37, -0.93, 0.93, 0.37, 93.61, 131.25)"/></g><line class="cls-60" x1="122.28" y1="127.21" x2="168.84" y2="127.21"/></g></g></svg>