<svg xmlns="http://www.w3.org/2000/svg" xmlns:xlink="http://www.w3.org/1999/xlink" viewBox="0 0 211.56 82.13"><defs><style>.cls-1{fill:none;}.cls-2{clip-path:url(#clip-path);}.cls-3{fill:url(#linear-gradient);}.cls-4{clip-path:url(#clip-path-2);}.cls-5{fill:url(#linear-gradient-2);}.cls-6{clip-path:url(#clip-path-3);}.cls-7{fill:url(#linear-gradient-3);}.cls-8{clip-path:url(#clip-path-4);}.cls-9{fill:url(#linear-gradient-4);}.cls-10{clip-path:url(#clip-path-5);}.cls-11{fill:url(#linear-gradient-5);}.cls-12{clip-path:url(#clip-path-6);}.cls-13{fill:url(#linear-gradient-6);}.cls-14{clip-path:url(#clip-path-7);}.cls-15{fill:url(#linear-gradient-7);}.cls-16{clip-path:url(#clip-path-8);}.cls-17{fill:url(#linear-gradient-8);}.cls-18{clip-path:url(#clip-path-9);}.cls-19{fill:url(#linear-gradient-9);}.cls-20{clip-path:url(#clip-path-10);}.cls-21{fill:url(#linear-gradient-10);}.cls-22{clip-path:url(#clip-path-11);}.cls-23{fill:url(#linear-gradient-11);}.cls-24{clip-path:url(#clip-path-12);}.cls-25{fill:url(#linear-gradient-12);}.cls-26{clip-path:url(#clip-path-13);}.cls-27{fill:url(#linear-gradient-13);}.cls-28{clip-path:url(#clip-path-14);}.cls-29{fill:url(#linear-gradient-14);}.cls-30{clip-path:url(#clip-path-15);}.cls-31{fill:url(#linear-gradient-15);}.cls-32{clip-path:url(#clip-path-16);}.cls-33{fill:url(#linear-gradient-16);}.cls-34{clip-path:url(#clip-path-17);}.cls-35{fill:url(#linear-gradient-17);}.cls-36{clip-path:url(#clip-path-18);}.cls-37{fill:url(#linear-gradient-18);}</style><clipPath id="clip-path" transform="translate(13.93 7.84)"><path class="cls-1" d="M46.45,66.68v-3a6.22,6.22,0,0,1,1.49.13,1.56,1.56,0,0,1,.82.47,1.36,1.36,0,0,1,.3.9c0,1-.81,1.52-2.43,1.52h-.18m-1.18-4.07v8.66h1.18V67.71h.26l2.4,3.56h1.36L48,67.57a3.25,3.25,0,0,0,1.78-.94,2.31,2.31,0,0,0,.57-1.54,2.16,2.16,0,0,0-.88-1.78,3.6,3.6,0,0,0-2.28-.7Z"/></clipPath><linearGradient id="linear-gradient" x1="5537.75" y1="3311.9" x2="5538.81" y2="3311.9" gradientTransform="matrix(0, 339.48, 339.48, 0, -1124264.74, -1879937.79)" gradientUnits="userSpaceOnUse"><stop offset="0" stop-color="#bf8b66"/><stop offset="0.29" stop-color="#f6ccaa"/><stop offset="0.59" stop-color="#fff"/><stop offset="0.77" stop-color="#b99880"/><stop offset="1" stop-color="#815126"/></linearGradient><clipPath id="clip-path-2" transform="translate(13.93 7.84)"><polygon class="cls-1" points="56.12 62.61 56.12 71.27 60.92 71.27 60.92 70.1 57.29 70.1 57.29 67.13 60.92 67.13 60.92 65.96 57.29 65.96 57.29 63.8 60.92 63.8 60.92 62.61 56.12 62.61"/></clipPath><linearGradient id="linear-gradient-2" x1="5537.75" y1="3311.89" x2="5538.82" y2="3311.89" gradientTransform="matrix(0, 339.5, 339.5, 0, -1124343.7, -1880104.4)" xlink:href="#linear-gradient"/><clipPath id="clip-path-3" transform="translate(13.93 7.84)"><path class="cls-1" d="M67.31,63a2,2,0,0,0-.74,1.58,2,2,0,0,0,.13.73,2.67,2.67,0,0,0,.42.68,2.75,2.75,0,0,0,.68.59,6.86,6.86,0,0,0,1.12.55,6,6,0,0,1,1.06.53,1.9,1.9,0,0,1,.55.58,1.35,1.35,0,0,1,.23.71,1.26,1.26,0,0,1-.43,1,1.56,1.56,0,0,1-1.07.38,2.09,2.09,0,0,1-2-1.46l-1.18.34A3.72,3.72,0,0,0,67.38,71a3.17,3.17,0,0,0,1.92.59,2.63,2.63,0,0,0,1.9-.76A2.46,2.46,0,0,0,72,69a2.78,2.78,0,0,0-.14-.87,2.73,2.73,0,0,0-.45-.79,3.15,3.15,0,0,0-.76-.68,8,8,0,0,0-1.3-.67,4.71,4.71,0,0,1-1.18-.66.9.9,0,0,1-.35-.7.88.88,0,0,1,.4-.74,2.12,2.12,0,0,1,1.93-.09,3.67,3.67,0,0,1,.68.59l1-.77a2.84,2.84,0,0,0-1.21-.93,3.55,3.55,0,0,0-1.43-.31,2.66,2.66,0,0,0-1.82.66"/></clipPath><linearGradient id="linear-gradient-3" x1="5537.75" y1="3311.9" x2="5538.82" y2="3311.9" gradientTransform="matrix(0, 339.5, 339.5, 0, -1124325.16, -1880097)" xlink:href="#linear-gradient"/><clipPath id="clip-path-4" transform="translate(13.93 7.84)"><rect class="cls-1" x="77.6" y="62.61" width="1.17" height="8.66"/></clipPath><linearGradient id="linear-gradient-4" x1="5537.74" y1="3311.9" x2="5538.81" y2="3311.9" gradientTransform="matrix(0, 339.39, 339.39, 0, -1123963.86, -1879515.33)" xlink:href="#linear-gradient"/><clipPath id="clip-path-5" transform="translate(13.93 7.84)"><path class="cls-1" d="M86,63.77h.6a6.41,6.41,0,0,1,2.11.28,2.77,2.77,0,0,1,1.35,1.08,3.15,3.15,0,0,1,.56,1.81,3.12,3.12,0,0,1-.35,1.46,3,3,0,0,1-1,1.06,3.26,3.26,0,0,1-1.27.52,12,12,0,0,1-2,.12H86Zm-1.18-1.16v8.66H87A4.86,4.86,0,0,0,90.63,70a4.25,4.25,0,0,0,1.25-3,4.31,4.31,0,0,0-1.21-3A4.81,4.81,0,0,0,87,62.61Z"/></clipPath><linearGradient id="linear-gradient-5" x1="5537.75" y1="3311.9" x2="5538.82" y2="3311.9" gradientTransform="matrix(0, 339.51, 339.51, 0, -1124328.63, -1880155.49)" xlink:href="#linear-gradient"/><clipPath id="clip-path-6" transform="translate(13.93 7.84)"><polygon class="cls-1" points="97.33 62.61 97.33 71.27 102.13 71.27 102.13 70.1 98.5 70.1 98.5 67.13 102.13 67.13 102.13 65.96 98.5 65.96 98.5 63.8 102.13 63.8 102.13 62.61 97.33 62.61"/></clipPath><linearGradient id="linear-gradient-6" x1="5537.75" y1="3311.9" x2="5538.81" y2="3311.9" gradientTransform="matrix(0, 339.44, 339.44, 0, -1124079.56, -1879769.86)" xlink:href="#linear-gradient"/><clipPath id="clip-path-7" transform="translate(13.93 7.84)"><polygon class="cls-1" points="107.63 71.27 108.81 71.27 108.81 65.12 115.21 71.67 115.21 62.61 114.03 62.61 114.03 68.85 107.63 62.27 107.63 71.27"/></clipPath><linearGradient id="linear-gradient-7" x1="5537.75" y1="3311.9" x2="5538.82" y2="3311.9" gradientTransform="matrix(0, 339.53, 339.53, 0, -1124367.78, -1880279.92)" xlink:href="#linear-gradient"/><clipPath id="clip-path-8" transform="translate(13.93 7.84)"><path class="cls-1" d="M122.14,63.69a4.32,4.32,0,0,0-1.4,3.23,4.37,4.37,0,0,0,1.42,3.28,4.79,4.79,0,0,0,3.44,1.36,5.4,5.4,0,0,0,2.55-.62V69.59a5.06,5.06,0,0,1-2.45.72,3.76,3.76,0,0,1-2.64-1A3.13,3.13,0,0,1,122,66.93a3.19,3.19,0,0,1,1-2.39,3.57,3.57,0,0,1,2.55-1,5.84,5.84,0,0,1,2.57.68V62.91a6.79,6.79,0,0,0-2.63-.57,4.7,4.7,0,0,0-3.38,1.35"/></clipPath><linearGradient id="linear-gradient-8" x1="5537.75" y1="3311.9" x2="5538.82" y2="3311.9" gradientTransform="matrix(0, 339.5, 339.5, 0, -1124281.21, -1880166.88)" xlink:href="#linear-gradient"/><clipPath id="clip-path-9" transform="translate(13.93 7.84)"><polygon class="cls-1" points="133.64 62.61 133.64 71.27 138.43 71.27 138.43 70.1 134.81 70.1 134.81 67.13 138.43 67.13 138.43 65.96 134.81 65.96 134.81 63.8 138.43 63.8 138.43 62.61 133.64 62.61"/></clipPath><linearGradient id="linear-gradient-9" x1="5537.75" y1="3311.9" x2="5538.82" y2="3311.9" gradientTransform="matrix(0, 339.52, 339.52, 0, -1124311.54, -1880251.87)" xlink:href="#linear-gradient"/><clipPath id="clip-path-10" transform="translate(13.93 7.84)"><path class="cls-1" d="M99.38,7.07l6.43,15.05,1.87-4.62c1.88-4.73,4.3-10,9.58-10V7.07Z"/></clipPath><linearGradient id="linear-gradient-10" x1="5537.75" y1="3311.9" x2="5538.81" y2="3311.9" gradientTransform="matrix(0, 339.49, 339.49, 0, -1124256.16, -1880124.47)" xlink:href="#linear-gradient"/><clipPath id="clip-path-11" transform="translate(13.93 7.84)"><path class="cls-1" d="M15.75,46.83h0"/></clipPath><linearGradient id="linear-gradient-11" x1="5537.8" y1="3311.89" x2="5538.86" y2="3311.89" gradientTransform="matrix(0.01, 340.35, 340.35, -0.01, -1127238.84, -1884771.88)" xlink:href="#linear-gradient"/><clipPath id="clip-path-12" transform="translate(13.93 7.84)"><path class="cls-1" d="M69.2,7.07v.42a6.3,6.3,0,0,1,6.12,4.13L88.89,43s1.68,3.83,3.24,3.83L96.6,35.74,84.24,7.07Z"/></clipPath><linearGradient id="linear-gradient-12" x1="5537.75" y1="3311.9" x2="5538.81" y2="3311.9" gradientTransform="matrix(0, 339.49, 339.49, 0, -1124281.83, -1880095.53)" xlink:href="#linear-gradient"/><clipPath id="clip-path-13" transform="translate(13.93 7.84)"><path class="cls-1" d="M157.56,19l6,15.27H151.53s-3.28,12.61-10.9,12.61v.43h15.55v-.43c-3.21,0-5.39-2.91-5.39-6.12a11.84,11.84,0,0,1,.54-4.08l.55-1.74H164l3.29,8.53a6.09,6.09,0,0,0,5.64,3.84H183.7v-.43c-3.88,0-6.12-2.66-7.27-5.51L162.33,7.07Z"/></clipPath><linearGradient id="linear-gradient-13" x1="5537.75" y1="3311.92" x2="5538.81" y2="3311.92" gradientTransform="matrix(0, 339.49, 339.49, 0, -1124213.24, -1880173.87)" xlink:href="#linear-gradient"/><clipPath id="clip-path-14" transform="translate(13.93 7.84)"><path class="cls-1" d="M53.4,7.07v.4h1.36C65.35,7.47,66.27,13,67,18.1h.35v-11Z"/></clipPath><linearGradient id="linear-gradient-14" x1="5537.75" y1="3311.9" x2="5538.81" y2="3311.9" gradientTransform="matrix(0, 339.5, 339.5, 0, -1124332.74, -1880130.46)" xlink:href="#linear-gradient"/><clipPath id="clip-path-15" transform="translate(13.93 7.84)"><path class="cls-1" d="M49.44,7.07H35v.36c2.55,0,5.38,1.28,5.38,4.13V28.29h0v19H69.2V34.13h-.33c-1.82,7.79-5.91,12.58-15,12.7H49.44V27.38h1.82c5,0,9.76,4.18,9.76,9.15h.42V18.7H61c0,5-4.79,8.07-9.76,8.07H49.44V7.07Z"/></clipPath><linearGradient id="linear-gradient-15" x1="5537.75" y1="3311.91" x2="5538.81" y2="3311.91" gradientTransform="matrix(0, 339.48, 339.48, 0, -1124284.22, -1880012.34)" xlink:href="#linear-gradient"/><clipPath id="clip-path-16" transform="translate(13.93 7.84)"><path class="cls-1" d="M0,7.07v.36c2.54,0,5.39,1.28,5.39,4.13l0,35.76h28.9V34.13h-.31C32,42,28,46.71,19,46.83H14.44V7.07Z"/></clipPath><linearGradient id="linear-gradient-16" x1="5537.75" y1="3311.91" x2="5538.81" y2="3311.91" gradientTransform="matrix(0, 339.49, 339.49, 0, -1124344.53, -1880024.47)" xlink:href="#linear-gradient"/><clipPath id="clip-path-17" transform="translate(13.93 7.84)"><path class="cls-1" d="M119.05,7.07v.42c2.55,0,5.4,1.28,5.4,4.13v35.7h14.16v-.43h-5V7.07Z"/></clipPath><linearGradient id="linear-gradient-17" x1="5537.75" y1="3311.91" x2="5538.81" y2="3311.91" gradientTransform="matrix(0, 339.48, 339.48, 0, -1124188.85, -1880052.55)" xlink:href="#linear-gradient"/><clipPath id="clip-path-18" transform="translate(13.93 7.84)"><path class="cls-1" d="M88.08,3.74a3.74,3.74,0,0,1,3.74,3.75,3.75,3.75,0,0,1,3.75-3.75A3.74,3.74,0,0,1,91.82,0a3.73,3.73,0,0,1-3.74,3.74"/></clipPath><linearGradient id="linear-gradient-18" x1="5537.74" y1="3311.91" x2="5538.81" y2="3311.91" gradientTransform="matrix(0, 339.42, 339.42, 0, -1124028.35, -1879706.17)" xlink:href="#linear-gradient"/></defs><g id="Layer_2" data-name="Layer 2"><g id="Layer_1-2" data-name="Layer 1"><g class="cls-2"><rect class="cls-3" x="42.88" y="62.91" width="9.97" height="8.06" transform="translate(-18.17 94.22) rotate(-68.1)"/></g><g class="cls-4"><rect class="cls-5" x="53.61" y="63.1" width="9.82" height="7.68" transform="translate(-11.49 104.1) rotate(-68.1)"/></g><g class="cls-6"><rect class="cls-7" x="63.66" y="62.5" width="10.75" height="8.9" transform="translate(-4.91 113.87) rotate(-68.1)"/></g><g class="cls-8"><rect class="cls-9" x="73.95" y="64.79" width="8.47" height="4.31" transform="translate(0.84 122.35) rotate(-68.1)"/></g><g class="cls-10"><rect class="cls-11" x="83.04" y="62.07" width="10.65" height="9.75" transform="translate(7.22 131.8) rotate(-68.1)"/></g><g class="cls-12"><rect class="cls-13" x="94.82" y="63.1" width="9.82" height="7.68" transform="translate(14.34 142.34) rotate(-68.1)"/></g><g class="cls-14"><rect class="cls-15" x="105.64" y="61.7" width="11.55" height="10.54" transform="translate(21.65 153.2) rotate(-68.1)"/></g><g class="cls-16"><rect class="cls-17" x="118.78" y="61.79" width="11.32" height="10.32" transform="translate(29.83 165.28) rotate(-68.1)"/></g><g class="cls-18"><rect class="cls-19" x="131.13" y="63.1" width="9.82" height="7.68" transform="matrix(0.37, -0.93, 0.93, 0.37, 37.11, 176.02)"/></g><g class="cls-20"><rect class="cls-21" x="98" y="3.49" width="20.63" height="22.21" transform="translate(68.3 117.49) rotate(-68.1)"/></g><g class="cls-22"><rect class="cls-23" x="15.88" y="46.63" width="0.16" height="0.39" transform="translate(-19.51 52.01) rotate(-68.1)"/></g><g class="cls-24"><rect class="cls-25" x="59.35" y="6.82" width="47.11" height="40.25" transform="translate(40.9 101.65) rotate(-68.1)"/></g><g class="cls-26"><rect class="cls-27" x="135.46" y="-0.3" width="53.41" height="54.98" transform="translate(90.37 175.35) rotate(-68.1)"/></g><g class="cls-28"><rect class="cls-29" x="52.66" y="4.04" width="15.45" height="17.09" transform="translate(40.12 71.76) rotate(-68.1)"/></g><g class="cls-30"><rect class="cls-31" x="27.02" y="3.8" width="50.12" height="46.79" transform="translate(21.35 73.2) rotate(-68.1)"/></g><g class="cls-32"><rect class="cls-33" x="-7.93" y="3.8" width="50.12" height="46.79" transform="translate(-0.57 40.78) rotate(-68.1)"/></g><g class="cls-34"><rect class="cls-35" x="106.51" y="10.62" width="44.64" height="33.16" transform="translate(69.47 144.42) rotate(-68.1)"/></g><g class="cls-36"><rect class="cls-37" x="86.95" y="-1.13" width="9.74" height="9.75" transform="translate(68.03 95.38) rotate(-68.1)"/></g></g></g></svg>