<svg xmlns="http://www.w3.org/2000/svg" xmlns:xlink="http://www.w3.org/1999/xlink" viewBox="0 0 455.79 68.52"><defs><style>.cls-1,.cls-2{fill:none;stroke-miterlimit:10;stroke-width:0.5px;}.cls-1{stroke:url(#linear-gradient);}.cls-2{stroke:url(#linear-gradient-2);}.cls-3{fill:#ac9b81;}</style><linearGradient id="linear-gradient" x1="-3158.08" y1="2692.16" x2="-3089.56" y2="2692.16" gradientTransform="translate(3103.42 3158.08) rotate(90)" gradientUnits="userSpaceOnUse"><stop offset="0" stop-color="#be8b66" stop-opacity="0"/><stop offset="0.03" stop-color="#b7845e" stop-opacity="0.14"/><stop offset="0.1" stop-color="#a4734b" stop-opacity="0.5"/><stop offset="0.18" stop-color="#895b2f"/><stop offset="0.23" stop-color="#be926b"/><stop offset="0.27" stop-color="#e7bc99"/><stop offset="0.29" stop-color="#f6ccaa"/><stop offset="0.43" stop-color="#e9c1a1"/><stop offset="0.68" stop-color="#c6a48a"/><stop offset="0.77" stop-color="#b89880"/><stop offset="0.8" stop-color="#c2a792" stop-opacity="0.86"/><stop offset="0.9" stop-color="#e3d6cc" stop-opacity="0.4"/><stop offset="0.97" stop-color="#f7f4f1" stop-opacity="0.11"/><stop offset="1" stop-color="#fff" stop-opacity="0"/></linearGradient><linearGradient id="linear-gradient-2" x1="-322.75" y1="6418.11" x2="133.04" y2="6418.11" gradientTransform="translate(133.04 6449.2) rotate(180)" xlink:href="#linear-gradient"/></defs><g id="Layer_2" data-name="Layer 2"><g id="Layer_1-2" data-name="Layer 1"><line class="cls-1" x1="411.26" y1="68.52" x2="411.26"/><line class="cls-2" y1="31.09" x2="455.79" y2="31.09"/><path class="cls-3" d="M422.3,31.09a13.23,13.23,0,0,0-7.6,3.64c-3,3.13-3.44,8.08-3.44,8.08s-.47-5-3.43-8.08a13.37,13.37,0,0,0-7.61-3.64,13.35,13.35,0,0,0,7.61-3.65c3-3.1,3.43-8.08,3.43-8.08s.48,4.95,3.44,8.08a13.2,13.2,0,0,0,7.6,3.65"/></g></g></svg>