<svg xmlns="http://www.w3.org/2000/svg" xmlns:xlink="http://www.w3.org/1999/xlink" viewBox="0 0 221.44 57.45"><defs><style>.cls-1,.cls-2{fill:none;stroke-miterlimit:10;stroke-width:0.42px;}.cls-1{stroke:url(#linear-gradient);}.cls-2{stroke:url(#linear-gradient-2);}.cls-3{fill:#ac9b81;}</style><linearGradient id="linear-gradient" x1="3014.17" y1="9277.08" x2="3071.62" y2="9277.08" gradientTransform="translate(9314.7 -3014.17) rotate(90)" gradientUnits="userSpaceOnUse"><stop offset="0" stop-color="#be8b66" stop-opacity="0"/><stop offset="0.03" stop-color="#b7845e" stop-opacity="0.14"/><stop offset="0.1" stop-color="#a4734b" stop-opacity="0.5"/><stop offset="0.18" stop-color="#895b2f"/><stop offset="0.23" stop-color="#be926b"/><stop offset="0.27" stop-color="#e7bc99"/><stop offset="0.29" stop-color="#f6ccaa"/><stop offset="0.43" stop-color="#e9c1a1"/><stop offset="0.68" stop-color="#c6a48a"/><stop offset="0.77" stop-color="#b89880"/><stop offset="0.8" stop-color="#c2a792" stop-opacity="0.86"/><stop offset="0.9" stop-color="#e3d6cc" stop-opacity="0.4"/><stop offset="0.97" stop-color="#f7f4f1" stop-opacity="0.11"/><stop offset="1" stop-color="#fff" stop-opacity="0"/></linearGradient><linearGradient id="linear-gradient-2" x1="12295.12" y1="6462.15" x2="12516.56" y2="6462.15" gradientTransform="translate(12516.56 6488.22) rotate(180)" xlink:href="#linear-gradient"/></defs><g id="Layer_2" data-name="Layer 2"><g id="Layer_1-2" data-name="Layer 1"><line class="cls-1" x1="37.61" y1="57.45" x2="37.61"/><line class="cls-2" y1="26.06" x2="221.44" y2="26.06"/><path class="cls-3" d="M46.87,26.06a11.14,11.14,0,0,0-6.38,3.06C38,31.74,37.62,35.9,37.62,35.9s-.4-4.18-2.88-6.78a11.27,11.27,0,0,0-6.38-3.06,11.22,11.22,0,0,0,6.38-3c2.48-2.6,2.88-6.78,2.88-6.78S38,20.39,40.49,23a11.09,11.09,0,0,0,6.38,3"/></g></g></svg>