<svg xmlns="http://www.w3.org/2000/svg" width="147.786" height="147.786" viewBox="0 0 147.786 147.786">
  <g id="Group_2478" data-name="Group 2478" transform="translate(-784.563 -1452)">
    <g id="Group_2349" data-name="Group 2349" transform="translate(793.563 1461)">
      <g id="Path_2446" data-name="Path 2446" transform="translate(0 0)" fill="none">
        <path d="M0,0H83.979a45.807,45.807,0,0,1,45.807,45.807v83.979H45.807A45.807,45.807,0,0,1,0,83.979Z" stroke="none"/>
        <path d="M 0.9999847412109375 0.9999847412109375 L 0.9999847412109375 83.97902679443359 C 0.9999847412109375 90.02834320068359 2.184539794921875 95.89616394042969 4.520721435546875 101.4195098876953 C 6.777427673339844 106.7549438476562 10.00829315185547 111.5468597412109 14.12358856201172 115.6621551513672 C 18.23887634277344 119.777458190918 23.03080749511719 123.0083236694336 28.36624145507812 125.265022277832 C 33.88958740234375 127.601188659668 39.75742340087891 128.7857360839844 45.80673980712891 128.7857360839844 L 128.7857666015625 128.7857360839844 L 128.7857666015625 45.80672454833984 C 128.7857666015625 39.75740814208984 127.6012268066406 33.88959503173828 125.2650604248047 28.36624145507812 C 123.0083541870117 23.03079223632812 119.7774887084961 18.23887634277344 115.6621932983398 14.12358856201172 C 111.5468902587891 10.00829315185547 106.7549743652344 6.777427673339844 101.4195404052734 4.520729064941406 C 95.89619445800781 2.184539794921875 90.02835845947266 0.9999847412109375 83.97904205322266 0.9999847412109375 L 0.9999847412109375 0.9999847412109375 M -1.52587890625e-05 -1.52587890625e-05 L 83.97904205322266 -1.52587890625e-05 C 109.2774047851562 -1.52587890625e-05 129.7857818603516 20.50837707519531 129.7857818603516 45.80672454833984 L 129.7857818603516 129.7857360839844 L 45.80673980712891 129.7857360839844 C 20.50837707519531 129.7857360839844 -1.52587890625e-05 109.2773742675781 -1.52587890625e-05 83.97902679443359 L -1.52587890625e-05 -1.52587890625e-05 Z" stroke="none" fill="#fff"/>
      </g>
      <g id="Path_2447" data-name="Path 2447" transform="translate(0 0)" fill="none">
        <path d="M0,0H83.979a45.807,45.807,0,0,1,45.807,45.807v83.979H45.807A45.807,45.807,0,0,1,0,83.979Z" stroke="none"/>
        <path d="M 0.9999847412109375 0.9999847412109375 L 0.9999847412109375 83.97902679443359 C 0.9999847412109375 90.02834320068359 2.184539794921875 95.89616394042969 4.520721435546875 101.4195098876953 C 6.777427673339844 106.7549438476562 10.00829315185547 111.5468597412109 14.12358856201172 115.6621551513672 C 18.23887634277344 119.777458190918 23.03080749511719 123.0083236694336 28.36624145507812 125.265022277832 C 33.88958740234375 127.601188659668 39.75742340087891 128.7857360839844 45.80673980712891 128.7857360839844 L 128.7857666015625 128.7857360839844 L 128.7857666015625 45.80672454833984 C 128.7857666015625 39.75740814208984 127.6012268066406 33.88959503173828 125.2650604248047 28.36624145507812 C 123.0083541870117 23.03079223632812 119.7774887084961 18.23887634277344 115.6621932983398 14.12358856201172 C 111.5468902587891 10.00829315185547 106.7549743652344 6.777427673339844 101.4195404052734 4.520729064941406 C 95.89619445800781 2.184539794921875 90.02835845947266 0.9999847412109375 83.97904205322266 0.9999847412109375 L 0.9999847412109375 0.9999847412109375 M -1.52587890625e-05 -1.52587890625e-05 L 83.97904205322266 -1.52587890625e-05 C 109.2774047851562 -1.52587890625e-05 129.7857818603516 20.50837707519531 129.7857818603516 45.80672454833984 L 129.7857818603516 129.7857360839844 L 45.80673980712891 129.7857360839844 C 20.50837707519531 129.7857360839844 -1.52587890625e-05 109.2773742675781 -1.52587890625e-05 83.97902679443359 L -1.52587890625e-05 -1.52587890625e-05 Z" stroke="none" fill="#fff"/>
      </g>
      <path id="Path_2449" data-name="Path 2449" d="M133.036,43.567h-8.555V29.652a3.468,3.468,0,0,0-3.464-3.464H103.5a3.468,3.468,0,0,0-3.464,3.464V43.567H91.478a3.467,3.467,0,0,0-3.464,3.464V66.121a.577.577,0,1,0,1.155,0V47.03a2.312,2.312,0,0,1,2.309-2.309h8.555v8.436a.577.577,0,1,0,1.155,0V44.721h22.14v8.436a.577.577,0,1,0,1.154,0V44.721h8.555a2.312,2.312,0,0,1,2.309,2.309V89.055a2.312,2.312,0,0,1-2.309,2.309H91.478a2.312,2.312,0,0,1-2.309-2.309V75.381a.577.577,0,1,0-1.155,0V89.055a3.467,3.467,0,0,0,3.464,3.464h41.558a3.467,3.467,0,0,0,3.464-3.464V47.03A3.467,3.467,0,0,0,133.036,43.567Zm-9.709,0h-22.14V29.652a2.312,2.312,0,0,1,2.309-2.309h17.522a2.312,2.312,0,0,1,2.309,2.309Z" transform="translate(-47.825 1.995)" fill="#fff"/>
      <g id="Group_2335" data-name="Group 2335" transform="translate(40.19 28.183)">
        <g id="noun-carry-bag-5879761" transform="translate(0)">
          <path id="Path_2346" data-name="Path 2346" d="M133.036,43.567h-8.555V29.652a3.468,3.468,0,0,0-3.464-3.464H103.5a3.468,3.468,0,0,0-3.464,3.464V43.567H91.478a3.467,3.467,0,0,0-3.464,3.464V66.121a.577.577,0,1,0,1.155,0V47.03a2.312,2.312,0,0,1,2.309-2.309h8.555v8.436a.577.577,0,1,0,1.155,0V44.721h22.14v8.436a.577.577,0,1,0,1.154,0V44.721h8.555a2.312,2.312,0,0,1,2.309,2.309V89.055a2.312,2.312,0,0,1-2.309,2.309H91.478a2.312,2.312,0,0,1-2.309-2.309V75.381a.577.577,0,1,0-1.155,0V89.055a3.467,3.467,0,0,0,3.464,3.464h41.558a3.467,3.467,0,0,0,3.464-3.464V47.03A3.467,3.467,0,0,0,133.036,43.567Zm-9.709,0h-22.14V29.652a2.312,2.312,0,0,1,2.309-2.309h17.522a2.312,2.312,0,0,1,2.309,2.309Z" transform="translate(-88.014 -26.188)" fill="#fff"/>
        </g>
      </g>
    </g>
  </g>
</svg>
