<svg xmlns="http://www.w3.org/2000/svg" width="147.786" height="147.786" viewBox="0 0 147.786 147.786">
  <g id="Group_2474" data-name="Group 2474" transform="translate(-1607.214 -1452)">
    <g id="Group_2345" data-name="Group 2345" transform="translate(1616.214 1461)">
      <g id="Path_2334" data-name="Path 2334" transform="translate(0 0)" fill="none">
        <path d="M0,0H83.979a45.807,45.807,0,0,1,45.807,45.807v83.979H45.807A45.807,45.807,0,0,1,0,83.979Z" stroke="none"/>
        <path d="M 0.9999847412109375 0.9999847412109375 L 0.9999847412109375 83.97902679443359 C 0.9999847412109375 90.02834320068359 2.184539794921875 95.89616394042969 4.520721435546875 101.4195098876953 C 6.777427673339844 106.7549438476562 10.00829315185547 111.5468597412109 14.12358856201172 115.6621551513672 C 18.23887634277344 119.777458190918 23.03080749511719 123.0083236694336 28.36624145507812 125.265022277832 C 33.88958740234375 127.601188659668 39.75742340087891 128.7857360839844 45.80673980712891 128.7857360839844 L 128.7857666015625 128.7857360839844 L 128.7857666015625 45.80672454833984 C 128.7857666015625 39.75740814208984 127.6012268066406 33.88959503173828 125.2650604248047 28.36624145507812 C 123.0083541870117 23.03079223632812 119.7774887084961 18.23887634277344 115.6621932983398 14.12358856201172 C 111.5468902587891 10.00829315185547 106.7549743652344 6.777427673339844 101.4195404052734 4.520729064941406 C 95.89619445800781 2.184539794921875 90.02835845947266 0.9999847412109375 83.97904205322266 0.9999847412109375 L 0.9999847412109375 0.9999847412109375 M -1.52587890625e-05 -1.52587890625e-05 L 83.97904205322266 -1.52587890625e-05 C 109.2774047851562 -1.52587890625e-05 129.7857818603516 20.50837707519531 129.7857818603516 45.80672454833984 L 129.7857818603516 129.7857360839844 L 45.80673980712891 129.7857360839844 C 20.50837707519531 129.7857360839844 -1.52587890625e-05 109.2773742675781 -1.52587890625e-05 83.97902679443359 L -1.52587890625e-05 -1.52587890625e-05 Z" stroke="none" fill="#fff"/>
      </g>
      <g id="Path_2343" data-name="Path 2343" transform="translate(0 0)" fill="none">
        <path d="M0,0H83.979a45.807,45.807,0,0,1,45.807,45.807v83.979H45.807A45.807,45.807,0,0,1,0,83.979Z" stroke="none"/>
        <path d="M 0.9999847412109375 0.9999847412109375 L 0.9999847412109375 83.97902679443359 C 0.9999847412109375 90.02834320068359 2.184539794921875 95.89616394042969 4.520721435546875 101.4195098876953 C 6.777427673339844 106.7549438476562 10.00829315185547 111.5468597412109 14.12358856201172 115.6621551513672 C 18.23887634277344 119.777458190918 23.03080749511719 123.0083236694336 28.36624145507812 125.265022277832 C 33.88958740234375 127.601188659668 39.75742340087891 128.7857360839844 45.80673980712891 128.7857360839844 L 128.7857666015625 128.7857360839844 L 128.7857666015625 45.80672454833984 C 128.7857666015625 39.75740814208984 127.6012268066406 33.88959503173828 125.2650604248047 28.36624145507812 C 123.0083541870117 23.03079223632812 119.7774887084961 18.23887634277344 115.6621932983398 14.12358856201172 C 111.5468902587891 10.00829315185547 106.7549743652344 6.777427673339844 101.4195404052734 4.520729064941406 C 95.89619445800781 2.184539794921875 90.02835845947266 0.9999847412109375 83.97904205322266 0.9999847412109375 L 0.9999847412109375 0.9999847412109375 M -1.52587890625e-05 -1.52587890625e-05 L 83.97904205322266 -1.52587890625e-05 C 109.2774047851562 -1.52587890625e-05 129.7857818603516 20.50837707519531 129.7857818603516 45.80672454833984 L 129.7857818603516 129.7857360839844 L 45.80673980712891 129.7857360839844 C 20.50837707519531 129.7857360839844 -1.52587890625e-05 109.2773742675781 -1.52587890625e-05 83.97902679443359 L -1.52587890625e-05 -1.52587890625e-05 Z" stroke="none" fill="#fff"/>
      </g>
      <path id="Union_7" data-name="Union 7" d="M49.167,53.886H1.735V6.455H0L2.579.505V0H4.6V1.009H2.8L5.155,6.455H3.42V52.2H49.167V50.468l5.445,2.356v-1.8h1.008v2.02h-.5L49.167,55.62Zm5.445-6.594v-3.73h1.01v3.73Zm0-7.461V36.1h1.01v3.73Zm0-7.46V28.64h1.01v3.731Zm0-7.462V21.178h1.008v3.731Zm0-7.461V13.717h1.01v3.731Zm0-7.461V6.256h1.01V9.987Zm0-7.462V1.009H53.1V0h2.02V.505h.505v2.02ZM45.635,1.009V0h3.731V1.009Zm-7.46,0V0H41.9V1.009Zm-7.462,0V0h3.731V1.009Zm-7.461,0V0h3.731V1.009Zm-7.461,0V0h3.73V1.009Zm-7.462,0V0H12.06V1.009Z" transform="translate(36.534 36.536)" fill="#fff"/>
      <path id="Union_10" data-name="Union 10" d="M49.167,53.886H1.735V6.455H0L2.579.505V0H4.6V1.009H2.8L5.155,6.455H3.42V52.2H49.167V50.468l5.445,2.356v-1.8h1.008v2.02h-.5L49.167,55.62Zm5.445-6.594v-3.73h1.01v3.73Zm0-7.461V36.1h1.01v3.73Zm0-7.46V28.64h1.01v3.731Zm0-7.462V21.178h1.008v3.731Zm0-7.461V13.717h1.01v3.731Zm0-7.461V6.256h1.01V9.987Zm0-7.462V1.009H53.1V0h2.02V.505h.505v2.02ZM45.635,1.009V0h3.731V1.009Zm-7.46,0V0H41.9V1.009Zm-7.462,0V0h3.731V1.009Zm-7.461,0V0h3.731V1.009Zm-7.461,0V0h3.73V1.009Zm-7.462,0V0H12.06V1.009Z" transform="translate(36.534 36.536)" fill="#fff"/>
    </g>
  </g>
</svg>
