<svg xmlns="http://www.w3.org/2000/svg" width="147.786" height="147.786" viewBox="0 0 147.786 147.786">
  <g id="Group_2476" data-name="Group 2476" transform="translate(-1195.888 -1452)">
    <g id="Group_2347" data-name="Group 2347" transform="translate(1204.888 1461)">
      <g id="Path_2334" data-name="Path 2334" transform="translate(0 0)" fill="none">
        <path d="M0,0H83.979a45.807,45.807,0,0,1,45.807,45.807v83.979H45.807A45.807,45.807,0,0,1,0,83.979Z" stroke="none"/>
        <path d="M 0.9999847412109375 0.9999847412109375 L 0.9999847412109375 83.97902679443359 C 0.9999847412109375 90.02834320068359 2.184539794921875 95.89616394042969 4.520721435546875 101.4195098876953 C 6.777427673339844 106.7549438476562 10.00829315185547 111.5468597412109 14.12358856201172 115.6621551513672 C 18.23887634277344 119.777458190918 23.03080749511719 123.0083236694336 28.36624145507812 125.265022277832 C 33.88958740234375 127.601188659668 39.75742340087891 128.7857360839844 45.80673980712891 128.7857360839844 L 128.7857666015625 128.7857360839844 L 128.7857666015625 45.80672454833984 C 128.7857666015625 39.75740814208984 127.6012268066406 33.88959503173828 125.2650604248047 28.36624145507812 C 123.0083541870117 23.03079223632812 119.7774887084961 18.23887634277344 115.6621932983398 14.12358856201172 C 111.5468902587891 10.00829315185547 106.7549743652344 6.777427673339844 101.4195404052734 4.520729064941406 C 95.89619445800781 2.184539794921875 90.02835845947266 0.9999847412109375 83.97904205322266 0.9999847412109375 L 0.9999847412109375 0.9999847412109375 M -1.52587890625e-05 -1.52587890625e-05 L 83.97904205322266 -1.52587890625e-05 C 109.2774047851562 -1.52587890625e-05 129.7857818603516 20.50837707519531 129.7857818603516 45.80672454833984 L 129.7857818603516 129.7857360839844 L 45.80673980712891 129.7857360839844 C 20.50837707519531 129.7857360839844 -1.52587890625e-05 109.2773742675781 -1.52587890625e-05 83.97902679443359 L -1.52587890625e-05 -1.52587890625e-05 Z" stroke="none" fill="#fff"/>
      </g>
      <g id="Path_2343" data-name="Path 2343" transform="translate(0 0.133)" fill="none">
        <path d="M0,0H83.979a45.807,45.807,0,0,1,45.807,45.807v83.979H45.807A45.807,45.807,0,0,1,0,83.979Z" stroke="none"/>
        <path d="M 0.9999847412109375 0.9999847412109375 L 0.9999847412109375 83.97902679443359 C 0.9999847412109375 90.02834320068359 2.184539794921875 95.89616394042969 4.520721435546875 101.4195098876953 C 6.777427673339844 106.7549438476562 10.00829315185547 111.5468597412109 14.12358856201172 115.6621551513672 C 18.23887634277344 119.777458190918 23.03080749511719 123.0083236694336 28.36624145507812 125.265022277832 C 33.88958740234375 127.601188659668 39.75742340087891 128.7857360839844 45.80673980712891 128.7857360839844 L 128.7857666015625 128.7857360839844 L 128.7857666015625 45.80672454833984 C 128.7857666015625 39.75740814208984 127.6012268066406 33.88959503173828 125.2650604248047 28.36624145507812 C 123.0083541870117 23.03079223632812 119.7774887084961 18.23887634277344 115.6621932983398 14.12358856201172 C 111.5468902587891 10.00829315185547 106.7549743652344 6.777427673339844 101.4195404052734 4.520729064941406 C 95.89619445800781 2.184539794921875 90.02835845947266 0.9999847412109375 83.97904205322266 0.9999847412109375 L 0.9999847412109375 0.9999847412109375 M -1.52587890625e-05 -1.52587890625e-05 L 83.97904205322266 -1.52587890625e-05 C 109.2774047851562 -1.52587890625e-05 129.7857818603516 20.50837707519531 129.7857818603516 45.80672454833984 L 129.7857818603516 129.7857360839844 L 45.80673980712891 129.7857360839844 C 20.50837707519531 129.7857360839844 -1.52587890625e-05 109.2773742675781 -1.52587890625e-05 83.97902679443359 L -1.52587890625e-05 -1.52587890625e-05 Z" stroke="none" fill="#fff"/>
      </g>
      <path id="Path_2323" data-name="Path 2323" d="M47.825,8a2.9,2.9,0,0,1,2.9,2.893c0,6.069,0,20.855,0,36.363a.968.968,0,0,0,.967.968h3.87a.967.967,0,0,0,.967-.967V22.392a.286.286,0,0,0-.286-.286.967.967,0,0,1-.951-1.145l1.33-7.121a5.8,5.8,0,0,1,3.251-4.194l3.332-1.555a.967.967,0,0,1,1.348.642l.978,3.913a.967.967,0,0,1-.506,1.1l-.617.308a5.8,5.8,0,0,0-3.1,4.088l-.616,3.179a.967.967,0,0,1-.95.783.309.309,0,0,0-.309.309V50.159a.967.967,0,0,1-.967.967H51.694a.967.967,0,0,0-.967.967v5.243a2.9,2.9,0,0,1-2.9,2.9H20.739a2.9,2.9,0,0,1-2.9-2.9V10.9a2.9,2.9,0,0,1,2.9-2.9ZM14.973,62.172H53.591a2.02,2.02,0,0,1,1.973,2.064V69.4a.506.506,0,0,1-.493.516H13.494A.506.506,0,0,1,13,69.4V64.236A2.02,2.02,0,0,1,14.973,62.172Zm14.9-31.843c-.248.075-.452-.241-.331-.517l5.8-9.534a1.144,1.144,0,0,1,.483-.632.485.485,0,0,1,.2-.031h6.461a1.524,1.524,0,0,1,.2,0,.44.44,0,0,1,.242.659l-5.646,8.358a.967.967,0,0,0,1.107,1.459l.688-.229c.208-.071.356.247.2.429L27.8,42.767c-.14.159-.356-.037-.27-.245l4.825-11.416A.967.967,0,0,0,31.1,29.832Z" transform="translate(29.625 25.266)" fill="none" stroke="#fff" stroke-width="1" fill-rule="evenodd"/>
      <path id="Path_2366" data-name="Path 2366" d="M47.825,8a2.9,2.9,0,0,1,2.9,2.893c0,6.069,0,20.855,0,36.363a.968.968,0,0,0,.967.968h3.87a.967.967,0,0,0,.967-.967V22.392a.286.286,0,0,0-.286-.286.967.967,0,0,1-.951-1.145l1.33-7.121a5.8,5.8,0,0,1,3.251-4.194l3.332-1.555a.967.967,0,0,1,1.348.642l.978,3.913a.967.967,0,0,1-.506,1.1l-.617.308a5.8,5.8,0,0,0-3.1,4.088l-.616,3.179a.967.967,0,0,1-.95.783.309.309,0,0,0-.309.309V50.159a.967.967,0,0,1-.967.967H51.694a.967.967,0,0,0-.967.967v5.243a2.9,2.9,0,0,1-2.9,2.9H20.739a2.9,2.9,0,0,1-2.9-2.9V10.9a2.9,2.9,0,0,1,2.9-2.9ZM14.973,62.172H53.591a2.02,2.02,0,0,1,1.973,2.064V69.4a.506.506,0,0,1-.493.516H13.494A.506.506,0,0,1,13,69.4V64.236A2.02,2.02,0,0,1,14.973,62.172Zm14.9-31.843c-.248.075-.452-.241-.331-.517l5.8-9.534a1.144,1.144,0,0,1,.483-.632.485.485,0,0,1,.2-.031h6.461a1.524,1.524,0,0,1,.2,0,.44.44,0,0,1,.242.659l-5.646,8.358a.967.967,0,0,0,1.107,1.459l.688-.229c.208-.071.356.247.2.429L27.8,42.767c-.14.159-.356-.037-.27-.245l4.825-11.416A.967.967,0,0,0,31.1,29.832Z" transform="translate(29.625 25.266)" fill="none" stroke="#fff" stroke-width="1" fill-rule="evenodd"/>
    </g>
  </g>
</svg>
