<svg xmlns="http://www.w3.org/2000/svg" width="147.786" height="147.786" viewBox="0 0 147.786 147.786">
  <g id="Group_2475" data-name="Group 2475" transform="translate(-1401.214 -1452)">
    <g id="Group_2346" data-name="Group 2346" transform="translate(1410.214 1461)">
      <g id="Path_2342" data-name="Path 2342" transform="translate(0 0)" fill="none">
        <path d="M0,0H83.979a45.807,45.807,0,0,1,45.807,45.807v83.979H45.807A45.807,45.807,0,0,1,0,83.979Z" stroke="none"/>
        <path d="M 0.9999847412109375 0.9999847412109375 L 0.9999847412109375 83.97902679443359 C 0.9999847412109375 90.02834320068359 2.184539794921875 95.89616394042969 4.520721435546875 101.4195098876953 C 6.777427673339844 106.7549438476562 10.00829315185547 111.5468597412109 14.12358856201172 115.6621551513672 C 18.23887634277344 119.777458190918 23.03080749511719 123.0083236694336 28.36624145507812 125.265022277832 C 33.88958740234375 127.601188659668 39.75742340087891 128.7857360839844 45.80673980712891 128.7857360839844 L 128.7857666015625 128.7857360839844 L 128.7857666015625 45.80672454833984 C 128.7857666015625 39.75740814208984 127.6012268066406 33.88959503173828 125.2650604248047 28.36624145507812 C 123.0083541870117 23.03079223632812 119.7774887084961 18.23887634277344 115.6621932983398 14.12358856201172 C 111.5468902587891 10.00829315185547 106.7549743652344 6.777427673339844 101.4195404052734 4.520729064941406 C 95.89619445800781 2.184539794921875 90.02835845947266 0.9999847412109375 83.97904205322266 0.9999847412109375 L 0.9999847412109375 0.9999847412109375 M -1.52587890625e-05 -1.52587890625e-05 L 83.97904205322266 -1.52587890625e-05 C 109.2774047851562 -1.52587890625e-05 129.7857818603516 20.50837707519531 129.7857818603516 45.80672454833984 L 129.7857818603516 129.7857360839844 L 45.80673980712891 129.7857360839844 C 20.50837707519531 129.7857360839844 -1.52587890625e-05 109.2773742675781 -1.52587890625e-05 83.97902679443359 L -1.52587890625e-05 -1.52587890625e-05 Z" stroke="none" fill="#fff"/>
      </g>
      <g id="Path_2344" data-name="Path 2344" transform="translate(0.674 0.133)" fill="none">
        <path d="M0,0H83.979a45.807,45.807,0,0,1,45.807,45.807v83.979H45.807A45.807,45.807,0,0,1,0,83.979Z" stroke="none"/>
        <path d="M 0.9999847412109375 0.9999847412109375 L 0.9999847412109375 83.97902679443359 C 0.9999847412109375 90.02834320068359 2.184539794921875 95.89616394042969 4.520721435546875 101.4195098876953 C 6.777427673339844 106.7549438476562 10.00829315185547 111.5468597412109 14.12358856201172 115.6621551513672 C 18.23887634277344 119.777458190918 23.03080749511719 123.0083236694336 28.36624145507812 125.265022277832 C 33.88958740234375 127.601188659668 39.75742340087891 128.7857360839844 45.80673980712891 128.7857360839844 L 128.7857666015625 128.7857360839844 L 128.7857666015625 45.80672454833984 C 128.7857666015625 39.75740814208984 127.6012268066406 33.88959503173828 125.2650604248047 28.36624145507812 C 123.0083541870117 23.03079223632812 119.7774887084961 18.23887634277344 115.6621932983398 14.12358856201172 C 111.5468902587891 10.00829315185547 106.7549743652344 6.777427673339844 101.4195404052734 4.520729064941406 C 95.89619445800781 2.184539794921875 90.02835845947266 0.9999847412109375 83.97904205322266 0.9999847412109375 L 0.9999847412109375 0.9999847412109375 M -1.52587890625e-05 -1.52587890625e-05 L 83.97904205322266 -1.52587890625e-05 C 109.2774047851562 -1.52587890625e-05 129.7857818603516 20.50837707519531 129.7857818603516 45.80672454833984 L 129.7857818603516 129.7857360839844 L 45.80673980712891 129.7857360839844 C 20.50837707519531 129.7857360839844 -1.52587890625e-05 109.2773742675781 -1.52587890625e-05 83.97902679443359 L -1.52587890625e-05 -1.52587890625e-05 Z" stroke="none" fill="#fff"/>
      </g>
      <path id="Union_3" data-name="Union 3" d="M64.951,61.738a.592.592,0,0,1,0-.837l1.308-1.31H.618a.593.593,0,1,1,0-1.185h3.21V.593a.593.593,0,0,1,1.186,0V58.406H6.807V46.446a1.609,1.609,0,0,1,1.608-1.607h5.072a1.609,1.609,0,0,1,1.607,1.607v11.96h3.63V37.571a1.609,1.609,0,0,1,1.608-1.608h5.074a1.608,1.608,0,0,1,1.607,1.608V58.406h3.632V28.695a1.608,1.608,0,0,1,1.608-1.607h5.072a1.608,1.608,0,0,1,1.607,1.607V58.406h3.632V19.819a1.608,1.608,0,0,1,1.607-1.606h5.072a1.609,1.609,0,0,1,1.608,1.606V58.406h3.632V13.479a1.608,1.608,0,0,1,1.607-1.606H61.16a1.608,1.608,0,0,1,1.607,1.606V58.406h3.494L64.952,57.1a.592.592,0,0,1,.839-.837l2.319,2.322a.73.73,0,0,1,.068.083l.018.029a.547.547,0,0,1,.034.065c.005.01.014.021.014.031a.654.654,0,0,1,.029.1v.009a.56.56,0,0,1,.008.094v.031c0,.024,0,.049-.007.073a.057.057,0,0,0-.007.033.706.706,0,0,1-.024.083l-.006.017a.714.714,0,0,1-.047.091l-.018.024c-.016.022-.034.044-.052.064l-.012.013-2.32,2.319a.593.593,0,0,1-.838,0ZM55.667,13.479V58.407h5.916V13.479a.421.421,0,0,0-.422-.421H56.089A.423.423,0,0,0,55.667,13.479Zm-11.917,6.34V58.407h5.914V19.819a.423.423,0,0,0-.422-.422H44.17A.423.423,0,0,0,43.749,19.819ZM31.83,28.695V58.407h5.919V28.695a.423.423,0,0,0-.422-.422H32.252A.422.422,0,0,0,31.83,28.695ZM19.912,37.571V58.407h5.914V37.571a.421.421,0,0,0-.421-.422H20.334A.421.421,0,0,0,19.912,37.571ZM7.993,46.446V58.407h5.914V46.446a.421.421,0,0,0-.421-.421H8.415A.423.423,0,0,0,7.993,46.446Zm2.4-8.62a.592.592,0,0,1,.2-.66L56.9,1.2H53.082a.592.592,0,1,1,0-1.185h5.584a.531.531,0,0,1,.08.01h.034l.074.025.03.013a.527.527,0,0,1,.09.051.1.1,0,0,0,.011.01.433.433,0,0,1,.068.06l.023.025c.015.019.03.038.044.057L59.14.3a.507.507,0,0,1,.031.064c.006.011.011.022.015.033a.017.017,0,0,0,0,.011A.6.6,0,0,1,59.2.482a.017.017,0,0,1,0,.011.652.652,0,0,1,.009.1V.627a.483.483,0,0,1-.01.079V.724L57.937,6.266a.592.592,0,0,1-.578.461.583.583,0,0,1-.132-.014A.594.594,0,0,1,56.78,6l.9-3.918L11.314,38.1a.593.593,0,0,1-.923-.276Z" transform="translate(31.12 34.233)" fill="#fff"/>
      <path id="Union_4" data-name="Union 4" d="M64.951,61.738a.592.592,0,0,1,0-.837l1.308-1.31H.618a.593.593,0,1,1,0-1.185h3.21V.593a.593.593,0,0,1,1.186,0V58.406H6.807V46.446a1.609,1.609,0,0,1,1.608-1.607h5.072a1.609,1.609,0,0,1,1.607,1.607v11.96h3.63V37.571a1.609,1.609,0,0,1,1.608-1.608h5.074a1.608,1.608,0,0,1,1.607,1.608V58.406h3.632V28.695a1.608,1.608,0,0,1,1.608-1.607h5.072a1.608,1.608,0,0,1,1.607,1.607V58.406h3.632V19.819a1.608,1.608,0,0,1,1.607-1.606h5.072a1.609,1.609,0,0,1,1.608,1.606V58.406h3.632V13.479a1.608,1.608,0,0,1,1.607-1.606H61.16a1.608,1.608,0,0,1,1.607,1.606V58.406h3.494L64.952,57.1a.592.592,0,0,1,.839-.837l2.319,2.322a.73.73,0,0,1,.068.083l.018.029a.547.547,0,0,1,.034.065c.005.01.014.021.014.031a.654.654,0,0,1,.029.1v.009a.56.56,0,0,1,.008.094v.031c0,.024,0,.049-.007.073a.057.057,0,0,0-.007.033.706.706,0,0,1-.024.083l-.006.017a.714.714,0,0,1-.047.091l-.018.024c-.016.022-.034.044-.052.064l-.012.013-2.32,2.319a.593.593,0,0,1-.838,0ZM55.667,13.479V58.407h5.916V13.479a.421.421,0,0,0-.422-.421H56.089A.423.423,0,0,0,55.667,13.479Zm-11.917,6.34V58.407h5.914V19.819a.423.423,0,0,0-.422-.422H44.17A.423.423,0,0,0,43.749,19.819ZM31.83,28.695V58.407h5.919V28.695a.423.423,0,0,0-.422-.422H32.252A.422.422,0,0,0,31.83,28.695ZM19.912,37.571V58.407h5.914V37.571a.421.421,0,0,0-.421-.422H20.334A.421.421,0,0,0,19.912,37.571ZM7.993,46.446V58.407h5.914V46.446a.421.421,0,0,0-.421-.421H8.415A.423.423,0,0,0,7.993,46.446Zm2.4-8.62a.592.592,0,0,1,.2-.66L56.9,1.2H53.082a.592.592,0,1,1,0-1.185h5.584a.531.531,0,0,1,.08.01h.034l.074.025.03.013a.527.527,0,0,1,.09.051.1.1,0,0,0,.011.01.433.433,0,0,1,.068.06l.023.025c.015.019.03.038.044.057L59.14.3a.507.507,0,0,1,.031.064c.006.011.011.022.015.033a.017.017,0,0,0,0,.011A.6.6,0,0,1,59.2.482a.017.017,0,0,1,0,.011.652.652,0,0,1,.009.1V.627a.483.483,0,0,1-.01.079V.724L57.937,6.266a.592.592,0,0,1-.578.461.583.583,0,0,1-.132-.014A.594.594,0,0,1,56.78,6l.9-3.918L11.314,38.1a.593.593,0,0,1-.923-.276Z" transform="translate(31.12 34.233)" fill="#fff"/>
    </g>
  </g>
</svg>
