<svg xmlns="http://www.w3.org/2000/svg" width="147.786" height="147.786" viewBox="0 0 147.786 147.786">
  <g id="Group_2477" data-name="Group 2477" transform="translate(-989.889 -1452.392)">
    <g id="Group_2348" data-name="Group 2348" transform="translate(998.889 1461)">
      <g id="Path_2445" data-name="Path 2445" transform="translate(0 0.392)" fill="none">
        <path d="M0,0H83.979a45.807,45.807,0,0,1,45.807,45.807v83.979H45.807A45.807,45.807,0,0,1,0,83.979Z" stroke="none"/>
        <path d="M 0.9999847412109375 0.9999847412109375 L 0.9999847412109375 83.97902679443359 C 0.9999847412109375 90.02834320068359 2.184539794921875 95.89616394042969 4.520721435546875 101.4195098876953 C 6.777427673339844 106.7549438476562 10.00829315185547 111.5468597412109 14.12358856201172 115.6621551513672 C 18.23887634277344 119.777458190918 23.03080749511719 123.0083236694336 28.36624145507812 125.265022277832 C 33.88958740234375 127.601188659668 39.75742340087891 128.7857360839844 45.80673980712891 128.7857360839844 L 128.7857666015625 128.7857360839844 L 128.7857666015625 45.80672454833984 C 128.7857666015625 39.75740814208984 127.6012268066406 33.88959503173828 125.2650604248047 28.36624145507812 C 123.0083541870117 23.03079223632812 119.7774887084961 18.23887634277344 115.6621932983398 14.12358856201172 C 111.5468902587891 10.00829315185547 106.7549743652344 6.777427673339844 101.4195404052734 4.520729064941406 C 95.89619445800781 2.184539794921875 90.02835845947266 0.9999847412109375 83.97904205322266 0.9999847412109375 L 0.9999847412109375 0.9999847412109375 M -1.52587890625e-05 -1.52587890625e-05 L 83.97904205322266 -1.52587890625e-05 C 109.2774047851562 -1.52587890625e-05 129.7857818603516 20.50837707519531 129.7857818603516 45.80672454833984 L 129.7857818603516 129.7857360839844 L 45.80673980712891 129.7857360839844 C 20.50837707519531 129.7857360839844 -1.52587890625e-05 109.2773742675781 -1.52587890625e-05 83.97902679443359 L -1.52587890625e-05 -1.52587890625e-05 Z" stroke="none" fill="#fff"/>
      </g>
      <g id="Path_2448" data-name="Path 2448" transform="translate(0.673 0)" fill="none">
        <path d="M0,0H83.979a45.807,45.807,0,0,1,45.807,45.807v83.979H45.807A45.807,45.807,0,0,1,0,83.979Z" stroke="none"/>
        <path d="M 0.9999847412109375 0.9999847412109375 L 0.9999847412109375 83.97902679443359 C 0.9999847412109375 90.02834320068359 2.184539794921875 95.89616394042969 4.520721435546875 101.4195098876953 C 6.777427673339844 106.7549438476562 10.00829315185547 111.5468597412109 14.12358856201172 115.6621551513672 C 18.23887634277344 119.777458190918 23.03080749511719 123.0083236694336 28.36624145507812 125.265022277832 C 33.88958740234375 127.601188659668 39.75742340087891 128.7857360839844 45.80673980712891 128.7857360839844 L 128.7857666015625 128.7857360839844 L 128.7857666015625 45.80672454833984 C 128.7857666015625 39.75740814208984 127.6012268066406 33.88959503173828 125.2650604248047 28.36624145507812 C 123.0083541870117 23.03079223632812 119.7774887084961 18.23887634277344 115.6621932983398 14.12358856201172 C 111.5468902587891 10.00829315185547 106.7549743652344 6.777427673339844 101.4195404052734 4.520729064941406 C 95.89619445800781 2.184539794921875 90.02835845947266 0.9999847412109375 83.97904205322266 0.9999847412109375 L 0.9999847412109375 0.9999847412109375 M -1.52587890625e-05 -1.52587890625e-05 L 83.97904205322266 -1.52587890625e-05 C 109.2774047851562 -1.52587890625e-05 129.7857818603516 20.50837707519531 129.7857818603516 45.80672454833984 L 129.7857818603516 129.7857360839844 L 45.80673980712891 129.7857360839844 C 20.50837707519531 129.7857360839844 -1.52587890625e-05 109.2773742675781 -1.52587890625e-05 83.97902679443359 L -1.52587890625e-05 -1.52587890625e-05 Z" stroke="none" fill="#fff"/>
      </g>
      <path id="Union_13" data-name="Union 13" d="M45.7,65.91l-4.852-7.727H6.507L1.656,65.91a.9.9,0,0,1-1.518-.954l9.381-14.94a5.221,5.221,0,0,1-4.828-5.2V5.218A5.225,5.225,0,0,1,9.91,0H37.448a5.225,5.225,0,0,1,5.219,5.216v39.6a5.22,5.22,0,0,1-4.834,5.2l9.382,14.94a.9.9,0,1,1-1.518.954ZM7.637,56.389H39.721L35.73,50.034h-24.1ZM6.482,44.817A3.431,3.431,0,0,0,9.91,48.242H37.448a3.428,3.428,0,0,0,3.425-3.425V5.218a3.429,3.429,0,0,0-3.425-3.426H9.91A3.431,3.431,0,0,0,6.482,5.216v6.838H35.793a.9.9,0,1,1,0,1.793H6.482V33.531H35.793a.9.9,0,1,1,0,1.793H6.482Zm25.445-.92a.9.9,0,1,1,0-1.793h3.914a.9.9,0,0,1,0,1.793Zm-20.417,0a.9.9,0,0,1,0-1.793h3.915a.9.9,0,0,1,0,1.793ZM18.494,8.246a.9.9,0,1,1,0-1.792H28.861a.9.9,0,1,1,0,1.792Z" transform="translate(42.08 31.664)" fill="#fff"/>
      <path id="Union_14" data-name="Union 14" d="M45.7,65.91l-4.852-7.727H6.507L1.656,65.91a.9.9,0,0,1-1.518-.954l9.381-14.94a5.221,5.221,0,0,1-4.828-5.2V5.218A5.225,5.225,0,0,1,9.91,0H37.448a5.225,5.225,0,0,1,5.219,5.216v39.6a5.22,5.22,0,0,1-4.834,5.2l9.382,14.94a.9.9,0,1,1-1.518.954ZM7.637,56.389H39.721L35.73,50.034h-24.1ZM6.482,44.817A3.431,3.431,0,0,0,9.91,48.242H37.448a3.428,3.428,0,0,0,3.425-3.425V5.218a3.429,3.429,0,0,0-3.425-3.426H9.91A3.431,3.431,0,0,0,6.482,5.216v6.838H35.793a.9.9,0,1,1,0,1.793H6.482V33.531H35.793a.9.9,0,1,1,0,1.793H6.482Zm25.445-.92a.9.9,0,1,1,0-1.793h3.914a.9.9,0,0,1,0,1.793Zm-20.417,0a.9.9,0,0,1,0-1.793h3.915a.9.9,0,0,1,0,1.793ZM18.494,8.246a.9.9,0,1,1,0-1.792H28.861a.9.9,0,1,1,0,1.792Z" transform="translate(42.08 31.664)" fill="#fff"/>
    </g>
  </g>
</svg>
