<svg xmlns="http://www.w3.org/2000/svg" xmlns:xlink="http://www.w3.org/1999/xlink" width="40.126" height="40.126" viewBox="0 0 40.126 40.126">
  <defs>
    <filter id="Path_4587" x="3.563" y="3.563" width="33.022" height="32.999" filterUnits="userSpaceOnUse">
      <feOffset dy="3" input="SourceAlpha"/>
      <feGaussianBlur stdDeviation="3" result="blur"/>
      <feFlood flood-opacity="0.161"/>
      <feComposite operator="in" in2="blur"/>
      <feComposite in="SourceGraphic"/>
    </filter>
    <filter id="Path_4588" x="0" y="0" width="40.126" height="40.126" filterUnits="userSpaceOnUse">
      <feOffset dy="3" input="SourceAlpha"/>
      <feGaussianBlur stdDeviation="3" result="blur-2"/>
      <feFlood flood-opacity="0.161"/>
      <feComposite operator="in" in2="blur-2"/>
      <feComposite in="SourceGraphic"/>
    </filter>
  </defs>
  <g id="Group_2470" data-name="Group 2470" transform="translate(9 6)">
    <g transform="matrix(1, 0, 0, 1, -9, -6)" filter="url(#Path_4587)">
      <path id="Path_4587-2" data-name="Path 4587" d="M32.287,17.8H28.071a.512.512,0,1,0,0,1.025h2.981L18.825,31.052V28.071a.512.512,0,1,0-1.025,0v4.216a.517.517,0,0,0,.512.512h4.216a.512.512,0,0,0,0-1.025H19.547L31.8,19.523V22.5a.512.512,0,1,0,1.025,0V18.312A.554.554,0,0,0,32.287,17.8Z" transform="translate(-5.24 -8.24)" fill="#fff"/>
    </g>
    <g transform="matrix(1, 0, 0, 1, -9, -6)" filter="url(#Path_4588)">
      <path id="Path_4588-2" data-name="Path 4588" d="M20.946,2.5H6.18A3.688,3.688,0,0,0,2.5,6.18V20.946a3.688,3.688,0,0,0,3.68,3.68H20.946a3.688,3.688,0,0,0,3.68-3.68V6.18A3.688,3.688,0,0,0,20.946,2.5Zm2.678,18.446A2.654,2.654,0,0,1,20.969,23.6H6.18A2.659,2.659,0,0,1,3.5,20.946V6.18A2.694,2.694,0,0,1,6.18,3.5H20.946A2.654,2.654,0,0,1,23.6,6.157V20.946Z" transform="translate(6.5 3.5)" fill="#fff"/>
    </g>
  </g>
</svg>
