<svg xmlns="http://www.w3.org/2000/svg" viewBox="0 0 28 36.99"><defs><style>.cls-1{fill:#c2ad94;}</style></defs><g id="Layer_2" data-name="Layer 2"><g id="Layer_1-2" data-name="Layer 1"><path class="cls-1" d="M27.4,28.5c-.72-1.23-1.46-2.44-2.22-3.64a4.18,4.18,0,0,0-5.8-1.39l-1.69,1a1.4,1.4,0,0,1-1.91-.24,24.55,24.55,0,0,1-6.08-10,1.45,1.45,0,0,1,.72-1.9c.62-.38,1.26-.74,1.86-1.16a4.11,4.11,0,0,0,1.3-5.41c-.76-1.37-1.58-2.71-2.44-4A4,4,0,0,0,7.91,0,4.45,4.45,0,0,0,5.39.69l-3.3,2A4.08,4.08,0,0,0,0,6.42a33.32,33.32,0,0,0,2.19,11.9,33.79,33.79,0,0,0,16,18.11,4,4,0,0,0,4.11,0c1.27-.71,2.51-1.47,3.72-2.26A4.14,4.14,0,0,0,27.4,28.5Zm-2.94,3.41c-1.1.68-2.2,1.34-3.3,2a1.56,1.56,0,0,1-1.66,0A31.18,31.18,0,0,1,5.32,18.67,31.38,31.38,0,0,1,2.76,6.59,1.65,1.65,0,0,1,3.64,5c1.07-.63,2.13-1.29,3.19-1.94A1.44,1.44,0,0,1,9,3.57C9.67,4.69,10.35,5.82,11,7a1.44,1.44,0,0,1-.54,2.17c-.56.34-1.13.67-1.69,1A4.12,4.12,0,0,0,7,15a27.06,27.06,0,0,0,6.9,11.32A4.23,4.23,0,0,0,19,27l1.76-1.07a1.42,1.42,0,0,1,2.09.5c.7,1.14,1.41,2.29,2.1,3.45A1.41,1.41,0,0,1,24.46,31.91Z"/></g></g></svg>