<svg xmlns="http://www.w3.org/2000/svg" viewBox="0 0 46.83 48.13"><defs><style>.cls-1{fill:#c2ad94;}</style></defs><g id="Layer_2" data-name="Layer 2"><g id="Layer_1-2" data-name="Layer 1"><path class="cls-1" d="M26.9,14.85H6.83l-.33,0a1.35,1.35,0,0,1-.27-2.6,2.48,2.48,0,0,1,.84-.1H27.24a2.48,2.48,0,0,1,.84.1A1.25,1.25,0,0,1,29,13.66a1.29,1.29,0,0,1-1.22,1.18l-.42,0Z"/><path class="cls-1" d="M17.9,21.45H7a2.64,2.64,0,0,1-.73-.08A1.29,1.29,0,0,1,5.34,20a1.25,1.25,0,0,1,1.1-1.21,3.08,3.08,0,0,1,.59,0H27.24a4.09,4.09,0,0,1,.6,0A1.3,1.3,0,0,1,29,20a1.31,1.31,0,0,1-1.07,1.41,2.4,2.4,0,0,1-.58.05Z"/><path class="cls-1" d="M6.86,28a1.34,1.34,0,0,1-1.45-1,1.84,1.84,0,0,1,.33-1.31,1.49,1.49,0,0,1,1.13-.43H17a1.37,1.37,0,0,1,1.56,1.33,1.3,1.3,0,0,1-.36,1,1.64,1.64,0,0,1-1.22.44H6.86Z"/><path class="cls-1" d="M14.73,48.13H5.18A4.91,4.91,0,0,1,0,43C0,30.6,0,19.2,0,8.09A4.9,4.9,0,0,1,5.19,2.92H7.46l0-.28a4.2,4.2,0,0,1,.15-.77A2.74,2.74,0,0,1,10.39,0H23.81a2.75,2.75,0,0,1,3,2.63l0,.29h1.75A11.35,11.35,0,0,1,30.34,3a4.65,4.65,0,0,1,3.92,4.38c.06,2.31.06,4.65.05,6.91v1.86A1.35,1.35,0,0,1,33,17.6h0a1.38,1.38,0,0,1-1.33-1.51c0-1.76,0-3.55,0-5.28V8.43c0-.22,0-.43,0-.64a2.1,2.1,0,0,0-2-2.12c-.35,0-.72,0-1.17,0H26.84l0,.29A2.72,2.72,0,0,1,24.4,8.56a6.12,6.12,0,0,1-.83,0h-7.2c-2.08,0-3.78,0-5.33,0h-.11a3.66,3.66,0,0,1-2.68-.89A2.94,2.94,0,0,1,7.49,6l0-.28H6.74l-1.1,0a11.45,11.45,0,0,0-1.4.07A2,2,0,0,0,2.75,7.62c0,.12,0,.26,0,.41v8.5q0,13.24,0,26.48a2.28,2.28,0,0,0,.9,2,2.45,2.45,0,0,0,1.57.41H29.27a2.13,2.13,0,0,0,2.3-2.29c0-1.87,0-3.78,0-5.47,0,0,0-1.81,0-2.51s.14-1.82,1.37-1.82,1.37,1.15,1.37,1.83v2.4c0,1.81,0,3.69,0,5.53a4.87,4.87,0,0,1-3.93,5,5.82,5.82,0,0,1-1.24.1ZM17.1,6.58h6.79a.93.93,0,0,0,.71-.25.89.89,0,0,0,.24-.71V3.08c0-.86-.23-1.09-1.09-1.09H10.5a1.06,1.06,0,0,0-.8.26A1,1,0,0,0,9.46,3c0,.84,0,1.67,0,2.59a.93.93,0,0,0,.23.71,1,1,0,0,0,.72.25Z"/><path class="cls-1" d="M16.66,43.09a1.32,1.32,0,0,1-1.08-.49,1.53,1.53,0,0,1-.2-1.36,19.66,19.66,0,0,1,5-9C25.91,26.68,31.52,21.08,37,15.66l2.86-2.85a4.12,4.12,0,0,1,2.92-1.23,4.34,4.34,0,0,1,1.69.35,4.27,4.27,0,0,1,2.41,4.26,4.09,4.09,0,0,1-1.33,2.52l-6.35,6.34L37,27.21l-3,3c-2.38,2.38-4.84,4.84-7.27,7.29A20.58,20.58,0,0,1,17.18,43,2,2,0,0,1,16.66,43.09Zm4.66-8.89a17.56,17.56,0,0,0-3.54,6l-.21.63.62-.23a17.48,17.48,0,0,0,6-3.52l.25-.22-2.92-2.94ZM22.62,33l2.84,2.86L39.61,21.64l-2.85-2.85ZM42.75,13.55a2.11,2.11,0,0,0-1.45.59c-.33.29-.64.61-.94.91l-.37.38-2.32,2.32,2.93,2.92.23-.22.87-.84.11-.1.78-.77c.49-.47,1.13-1.1,1.75-1.75a1.86,1.86,0,0,0,.46-.85,1.7,1.7,0,0,0,0-.22c0-.06,0-.13,0-.19a2.19,2.19,0,0,0-.67-1.59,2.54,2.54,0,0,0-.5-.36h0l-.2-.09-.28-.08h-.07A1.47,1.47,0,0,0,42.75,13.55Z"/></g></g></svg>