<svg xmlns="http://www.w3.org/2000/svg" xmlns:xlink="http://www.w3.org/1999/xlink" viewBox="0 0 694.47 336.13"><defs><style>.cls-1,.cls-2{fill:none;stroke-miterlimit:10;stroke-width:1.2px;}.cls-1{stroke:url(#linear-gradient);}.cls-2{stroke:url(#linear-gradient-2);}.cls-3{fill:#ac9b81;}</style><linearGradient id="linear-gradient" x1="7957.78" y1="3100.72" x2="8293.91" y2="3100.72" gradientTransform="translate(3254.86 -7957.78) rotate(90)" gradientUnits="userSpaceOnUse"><stop offset="0" stop-color="#be8b66" stop-opacity="0"/><stop offset="0.03" stop-color="#b7845e" stop-opacity="0.14"/><stop offset="0.1" stop-color="#a4734b" stop-opacity="0.5"/><stop offset="0.18" stop-color="#895b2f"/><stop offset="0.23" stop-color="#be926b"/><stop offset="0.27" stop-color="#e7bc99"/><stop offset="0.29" stop-color="#f6ccaa"/><stop offset="0.43" stop-color="#e9c1a1"/><stop offset="0.68" stop-color="#c6a48a"/><stop offset="0.77" stop-color="#b89880"/><stop offset="0.8" stop-color="#c2a792" stop-opacity="0.86"/><stop offset="0.9" stop-color="#e3d6cc" stop-opacity="0.4"/><stop offset="0.97" stop-color="#f7f4f1" stop-opacity="0.11"/><stop offset="1" stop-color="#fff" stop-opacity="0"/></linearGradient><linearGradient id="linear-gradient-2" x1="10705.87" y1="-4599.38" x2="11400.33" y2="-4599.38" gradientTransform="translate(11400.33 -4515.22) rotate(180)" xlink:href="#linear-gradient"/></defs><g id="Layer_2" data-name="Layer 2"><g id="Layer_1-2" data-name="Layer 1"><line class="cls-1" x1="154.14" y1="336.13" x2="154.14"/><line class="cls-2" y1="84.16" x2="694.47" y2="84.16"/><path class="cls-3" d="M180.49,84.16s-10.85,1-18.15,8.71c-7.05,7.46-8.2,19.28-8.2,19.28s-1.14-11.88-8.2-19.28c-7.35-7.71-18.16-8.71-18.16-8.71s10.81-1,18.16-8.7c7.06-7.41,8.2-19.29,8.2-19.29s1.15,11.83,8.2,19.29c7.3,7.72,18.15,8.7,18.15,8.7"/><path class="cls-3" d="M209.7,84.89S186.42,87,170.77,103.55c-15.11,16-17.58,41.34-17.58,41.34s-2.43-25.46-17.57-41.34C119.86,87,96.69,84.89,96.69,84.89s23.17-2.15,38.93-18.67c15.14-15.87,17.57-41.33,17.57-41.33s2.47,25.34,17.58,41.33c15.65,16.57,38.93,18.67,38.93,18.67"/></g></g></svg>