<svg xmlns="http://www.w3.org/2000/svg" viewBox="0 0 535.9 511.26"><defs><style>.cls-1{fill:#fff;}</style></defs><g id="Layer_2" data-name="Layer 2"><g id="Layer_1-2" data-name="Layer 1"><path class="cls-1" d="M366.81,376.13c-28.33,28.34-100.35,2.24-160.83-58.24s-86.57-132.5-58.24-160.83l29.35-29.34a13.12,13.12,0,0,1,18.59,0l30,30a13.12,13.12,0,0,1,0,18.59l-20.39,20.38c-15.79,15.8-1.9,55.78,31.7,89.49s74.48,48.27,90.27,32.48l20.27-20.39a13.12,13.12,0,0,1,18.59,0l30,30a13.12,13.12,0,0,1,0,18.59Z"/><path class="cls-1" d="M354.93,364.26c-.67.56-4.26,3.48-1.9,1.8s-1.68,1-2.24,1.34c-.78.45-2.46,1.68-3.47,1.68,1.79,0,3.13-1,1.23-.56-1,.22-1.9.67-2.8.9-1.35.33-2.69.67-4,.89-4.71,1,2.57,0-1.35.22a87.22,87.22,0,0,1-10.86.12c-1.57-.12-3.25-.34-4.82-.45,4.71.45-1.34-.34-2.46-.56a110.39,110.39,0,0,1-11.87-3q-5.88-1.85-11.76-4c-.9-.33-1.91-.78-2.81-1.12,2.91,1.23-.22-.11-1-.45-2.47-1.12-4.82-2.24-7.17-3.36a249.82,249.82,0,0,1-50.85-33.93,342.58,342.58,0,0,1-26.1-24.87,304.27,304.27,0,0,1-21-24.75A267.17,267.17,0,0,1,172.48,248c-2.35-4-4.59-8.29-6.61-12.43-.89-1.91-1.9-3.81-2.69-5.83.12.23-2-4.48-1-2.24.78,1.91-.79-1.9-.9-2.23a130.33,130.33,0,0,1-7.17-24.2c-.22-1.45-.89-5.71-.45-1.79-.22-1.79-.44-3.58-.55-5.49-.23-3.58.11-7.16.11-10.75,0-1.57-.67-1.68-.22,1.23a6.19,6.19,0,0,1,.33-2c.34-1.45.67-3,1.12-4.48a11.38,11.38,0,0,0,.56-1.9c.9-3.24-.11,1-.45.79s2-4,2.24-4.26a11.52,11.52,0,0,0,1-1.57c1-1.9-.79.23-.9,1.12.23-.89,1.91-2.23,2.58-2.8l2.24-2.24,24.07-24.07c.45-.45,2.69-2.13,2.81-2.8,0,0-1.57.67-2.24,1,1.12-.45,2.68-.11-.23-.11-1.79-.34-2.12-.45-.89-.11s.89.22-.67-.23c-.12-.55-1.35-1.23.45.68,1.56,1.68,3.36,3.36,4.93,4.93l13.21,13.21c3,3,6.16,7.39,9.63,9.63,0,0,.56.68.68.68-.56.11-1.12-2.24-1.12-2.36.44.9.33,2.91.11-.22-.11-1.12,1.12-2.8-.11-.22-.12.22.78-2.58,1.12-2.35-.12,0-.79.78-.9.89-4.26,3.7-8.06,8.06-12,12-2.91,2.91-6,5.71-8.74,8.84-6.27,7.17-9.18,15.68-10,25.09-1.68,18.26,6.6,37.41,15.9,52.64,12.65,21,29.9,38.76,49.5,53.32,25.65,19,67,38,93.74,11.09l12.88-12.88c1.46-1.46,3-2.8,4.37-4.37a6.79,6.79,0,0,0,.89-.89c.12.44-2.23,1.12-2.35,1.12,2.24-1,.34-.56-1-.23-.22,0-.55-.11-.78-.11h0c0-.11-1-.67-1-.67l.67.67c1,1.57,2.91,2.91,4.15,4.15l12.88,12.87c3.69,3.7,7.16,7.51,11,11,1.46,1.35,1.23,1.79.34-.45-.79-1.9-.11,3.36-.11-.89,0-1.12,1.12-2.69-.12-.23.34-.78,1.35-2.12.9-2.12-.67,0-2.24,2.23-2.69,2.68L375.08,344l-13.66,13.67c-1.9,2.11-4.25,4.35-6.49,6.59A16.79,16.79,0,0,0,378.67,388l22.18-22.17c2.69-2.69,5.6-5.38,8.17-8.29,10.53-12.1,9.86-29.57-1-41.22-7.17-7.61-14.79-14.78-22.18-22.17-2.57-2.58-5-5.27-7.73-7.73-11.64-10.75-29.12-11.65-41.21-1-7.51,6.61-14.45,14.12-21.39,21.29-.56.55-2.91,2.12-.56.67,2.57-1.68-.34.11-.67.22-2.24.89,1.45.11,1.34-.45,0,.11-4.7,1.57-4.82,1.34s4.6-.22,1.24-.22c-1.13,0-2.24.11-3.36.11a17,17,0,0,1-2.36-.11c-.33,0-4.14-.56-1.45-.11,2.91.45-1.35-.34-1.57-.34-.89-.22-1.79-.33-2.57-.56-2.24-.55-4.48-1.23-6.72-2-.9-.34-1.9-.67-2.8-1-4.6-1.68,2.8,1.46-1.68-.67a147.75,147.75,0,0,1-13.11-7.06c-4.59-2.8-10.08-6.61-13-8.84A187.87,187.87,0,0,1,237,261.56c-2.13-2.47-5.49-7.28-8.18-11.31a123.89,123.89,0,0,1-8.06-14.56,29.47,29.47,0,0,1-1.23-2.8c1.23,2.91,0-.12-.23-.9-.67-2-1.45-4-2-6.05s-.9-3.92-1.34-5.82c-.23-1.12-.34-4,0,.11a35.84,35.84,0,0,1-.23-3.58c0-1.68.23-3.36.12-5-.12-2.13-1.35,3.92,0,.78.22-.55.33-1.45.55-1.9,1-4.37-1.34,2.24.45-.89s-2.68,2.35.56-.79c3.59-3.47,7.06-7.05,10.53-10.52,3.25-3.25,6.72-6.39,9.85-9.86,10.87-11.65,11.65-29.12,1-41.22-6.94-8-15-15.12-22.51-22.62-2.8-2.8-5.49-5.71-8.4-8.4-10.3-9.63-25.87-11.87-37.85-3.69-9.52,6.49-17.25,16.35-25.31,24.41-8.63,8.63-16.47,16.69-21,28.34-5.94,15.56-4.48,33.48-.78,49.5,4.59,19.94,13.77,39,24.41,56.34A326.19,326.19,0,0,0,251.9,376.14c17.25,10.75,36.18,19.93,55.89,24.86,16,4,34.16,5.82,50.06.22A57.33,57.33,0,0,0,379,388.34c6.49-6.27,6.38-17.36,0-23.74a17.22,17.22,0,0,0-24.09-.34Z"/><path class="cls-1" d="M106.07,442.55a259.24,259.24,0,0,0,152,67.65c49.06,4.59,99.12-5.94,142.46-29,84.45-44.8,137.87-136.41,135.3-231.95C533.46,154.49,476.67,65.56,390.66,25,347.32,4.53,298.49-4.1,250.77,1.84A258.81,258.81,0,0,0,119.28,57.28C39.87,120.78,6.38,230.21,35.05,327.53a271.79,271.79,0,0,0,16.58,42.11V352.73C37.18,380.51,22.73,408.17,8.28,436c-2.12,4-4.14,7.95-6.27,12-6.72,13,4.37,28.34,18.93,24.64l88.82-22.51c4.14-1,8.4-2.13,12.54-3.14,8.85-2.23,14.11-12.09,11.76-20.71a17.1,17.1,0,0,0-20.72-11.77C83.78,422,54.1,429.45,24.53,437c-4.15,1-8.4,2.12-12.55,3.13l18.93,24.64c13.11-24.64,26-49.39,38.87-74.26,2.91-5.49,5.71-11,8.62-16.46.67-1.23,1.35-2.58,2-3.81a26.92,26.92,0,0,0,1.12-2.47c3-7.5-.22-13.44-3.36-20.16-13-27.88-19.82-60.48-19.82-91.95,0-6.5.22-13.11.78-19.6.22-3.14.56-6.16.89-9.3.12-.78.23-1.57.34-2.35,0,.22-.34,2.69-.11.67.22-1.79.56-3.59.78-5.26a241.64,241.64,0,0,1,9.52-37.41l3-8.4c.55-1.34,1.12-2.8,1.68-4.14.67-1.8-.12.33-.23.55.34-.89.79-1.79,1.23-2.68,2.47-5.6,5.27-11.2,8.18-16.69a233.46,233.46,0,0,1,19.94-30.91c1.12-1.57-.23.22-.34.45l1.34-1.68c.9-1.12,1.8-2.24,2.81-3.47,2-2.47,4.14-4.82,6.27-7.28,4-4.6,8.29-9,12.77-13.22s9.41-8.62,14.33-12.66c1.13-.89,2.24-1.79,3.48-2.8,1.45-1.23-.34.23-.45.34.56-.45,1.12-.9,1.79-1.34,2.58-1.91,5.15-3.81,7.73-5.61A252.12,252.12,0,0,1,186,54.35l8.06-3.69c2.91-1.35-1.56.56,1.46-.56,1.57-.67,3.25-1.23,4.82-1.9,5.82-2.24,11.76-4.26,17.8-5.94s12.21-3.25,18.37-4.59c3.25-.68,6.5-1.23,9.74-1.8l4.6-.67c-3.14.45,1.34-.11,2.46-.33a239.89,239.89,0,0,1,39.09-1.24c6.5.34,12.88.9,19.38,1.68-2.91-.33.56.12,1.56.23,1.57.22,3,.45,4.48.78,3.25.56,6.5,1.23,9.75,1.9a238.51,238.51,0,0,1,35.95,11c.67.22,4.26,1.68,2.8,1.12s2.13.9,2.8,1.23c3.14,1.46,6.27,2.91,9.41,4.48,5.49,2.8,10.86,5.71,16.24,8.85s10.41,6.5,15.45,10.08l3.59,2.57c.56.45,3.58,2.69,2.35,1.8s1.79,1.45,2.35,1.9c1.35,1.12,2.69,2.13,3.92,3.25a234.08,234.08,0,0,1,26.1,25.64l5.71,6.72,2.8,3.47c-1.9-2.35.79,1.13,1.35,1.91,3.69,4.93,7.05,10,10.3,15.23s6.61,11,9.52,16.68c1.35,2.69,2.69,5.27,3.92,8,.68,1.34,1.23,2.69,1.91,4,.33.67.55,1.34.89,2,.11.34,1.34,3.14.56,1.46-.56-1.46.89,2.24,1.12,2.8.56,1.35,1.12,2.8,1.57,4.15,1.12,3,2.23,6.16,3.24,9.18,1.9,5.94,3.7,12,5.15,18.15s2.69,12.43,3.7,18.7c.11,1,.67,4.59.22,1.57.23,1.56.34,3,.56,4.59.34,3.36.67,6.72.9,10.08a251.81,251.81,0,0,1-.56,40c-.12,1.57-.34,3-.45,4.59-.12,1.13-.67,4.6-.22,1.68-.45,3.25-1,6.61-1.57,9.86-1.12,6.27-2.58,12.43-4.26,18.48s-3.47,12-5.6,17.92c-1,2.8-2.13,5.6-3.14,8.4-.22.67-.56,1.34-.89,2.13.11-.22,1-2.35.22-.56-.67,1.57-1.34,3.14-2.13,4.7a232.08,232.08,0,0,1-17.92,32.26c-1.57,2.47-3.25,4.93-5,7.28-.89,1.23-1.68,2.35-2.57,3.59-.45.56-.9,1.12-1.35,1.79-1.56,2,1.57-1.9-.11.12-3.92,5-8.06,9.85-12.43,14.55a246.89,246.89,0,0,1-26.88,25l-1.68,1.34c.22-.11,2-1.56.45-.33-1.23.89-2.36,1.79-3.59,2.57-2.57,1.91-5.15,3.7-7.84,5.49-5.15,3.47-10.3,6.61-15.68,9.63s-10.86,5.83-16.46,8.4c-1.35.67-2.69,1.23-4,1.8-.89.44-4.14,1.68-1.45.67-3,1.23-6.05,2.35-9.07,3.47a239,239,0,0,1-37.07,10.19c-3,.56-6.05,1-9.07,1.57-3.25.56,1.68-.12-1.68.22-1.8.22-3.59.45-5.38.56-6.49.67-13,1-19.49,1.12-7.5.11-15,0-22.39-.56-3.7-.22-7.39-.67-11-1-2-.22-.45,0-.11,0a20.68,20.68,0,0,1-2.69-.45l-6.28-1c-30.35-5.38-55.21-15-80.86-31.14-5.94-3.7-11.65-7.73-17.24-12-1.57-1.13-.34-.34,0,0l-2-1.68c-1.34-1.13-2.69-2.24-4-3.36-2.91-2.47-5.71-4.93-8.51-7.51-6.72-6.16-17.14-6.61-23.74,0-6.29,6.51-6.84,17.82-.13,24Z"/></g></g></svg>