<svg xmlns="http://www.w3.org/2000/svg" viewBox="0 0 175.3 50.86"><defs><style>.cls-1{fill:#fff;}.cls-2{fill:#3a829d;}</style></defs><g id="Layer_2" data-name="Layer 2"><g id="Layer_3" data-name="Layer 3"><path class="cls-1" d="M88.74,27.61c-.07-.13-.13-.31,0-.41s.27.11.35.22.13.32.21.43a9.14,9.14,0,0,0,5.51,4c4.41,1.5,10.31.25,14.37-2.46,4.43-2.94,6.57-5.55,8.54-7.31h-5.4c-.19,0-.21-.24,0-.24h5.59c5-4.65,8.21-6.67,10.94-7.91l-7,10.79c-.5.79-.75,1.2-.58,1.51s.87.4,2.68.4a.12.12,0,1,1,0,.24h-7.63a.12.12,0,1,1,0-.24c2.24,0,2.87-.44,4-2.13l1.56-2.42h-3.74c-2.58,2.35-4.54,4.72-8.65,7.44-4.47,3-10.19,4-14.72,2.57A9.7,9.7,0,0,1,89.07,28c-.1-.13-.23-.21-.33-.35M122,21.86l3.94-6c-1.8.88-6.77,5.16-7.64,6Z"/><path class="cls-1" d="M131.08,22.36c.33-.48.34-.5.71-.5h.42c.45,0,.55.05.2.52l-.85,1.08c-.65.84-1.56,2.27-1.27,2.86a.71.71,0,0,0,.63.39c.77.07,1.72-.85,2.68-2l1.52-1.89c1.06-1.3,2-2.18,3.22-2.14a1.55,1.55,0,0,1,.33,0c.21.06.35.2.29.35s-.21.13-.33,0a.47.47,0,0,0-.29-.15c-1,0-1.87.72-2.85,1.93l-1.68,2.06c-1,1.23-1.87,2.15-3.17,2.09a1.34,1.34,0,0,1-1.18-.62,1.82,1.82,0,0,1-.25-1.1c-1,1-1.93,1.85-3.08,1.58a1.25,1.25,0,0,1-.87-.76c-.27-.88.42-1.65.88-2.2l.24-.3c.79-1,.84-1.3.73-1.43s-.39-.09-1,0L125,22.3c-.15,0-.19-.2,0-.24l1.06-.15c.56-.09,1.69-.21,2,.26s-.21,1.42-.71,2l-.23.25c-.66.72-.89,1.34-.73,1.82a.45.45,0,0,0,.5.31c1-.11,2.67-1.94,3.74-3.52Z"/><path class="cls-1" d="M142.75,22a.57.57,0,0,1,.6-.31h.56c.31,0,.36.17.21.37L142.75,24c-.71,1-1.48,2-1.19,2.44a.48.48,0,0,0,.52.22,7.68,7.68,0,0,0,3.52-2.46.13.13,0,0,1,.22.15,7.15,7.15,0,0,1-4,2.64,1.17,1.17,0,0,1-1.16-.44,1.8,1.8,0,0,1-.15-1.27c-.93,1-2.37,1.91-3.47,1.66a1.21,1.21,0,0,1-.85-.94,2.61,2.61,0,0,1,.87-2.43c1.21-1.2,3.29-2,4.41-1.83.47.09.68.31.81.86Zm-5.24,4.5a.87.87,0,0,0,.87,0c1.19-.48,3.33-2.74,3.53-3.71a.56.56,0,0,0-.18-.65c-.25-.2-.59-.09-.89,0-1.27.52-3.23,2.34-3.48,3.68a.66.66,0,0,0,.15.67"/><path class="cls-1" d="M155.06,19.64a4.94,4.94,0,0,1,.68,0c.19,0,.4.19.33.35s-.33.09-.49,0a.81.81,0,0,0-.5-.13c-1.56,0-4.7,2.31-6.05,4.38l-.8,1.27c-.22.33-.35.57-.22.81s.45.31,1.49.31c.13,0,.17.24,0,.24H144c-.14,0-.14-.24,0-.24,2,0,2.23-.09,3-1.27l1.66-2.53c.27-.42.27-.55.15-.68s-.38-.09-1,0l-1.06.13c-.15,0-.21-.2,0-.24l1.06-.15c.54-.09,1.7-.23,2,.26a.92.92,0,0,1,.15.59c1.69-1.78,3.81-3.12,5.16-3.12"/><path class="cls-1" d="M171.9,16.2a4.74,4.74,0,0,0-.44-.23c-1.54-.83-4.61-.22-7.3,1.39a21.37,21.37,0,0,0-5.53,5.1c-1,1.31-2.18,2.91-1.85,3.75a.62.62,0,0,0,.48.39c.75.18,2.23-1.2,3.2-2.43.1-.11.31,0,.21.11-.79,1.11-2.35,2.68-3.57,2.72a1.27,1.27,0,0,1-1.19-.55,2,2,0,0,1-.23-1.34c-1.08,1.1-2,2.11-3.12,1.84a1.49,1.49,0,0,1-1.06-1,2.66,2.66,0,0,1,.94-2.49,5.52,5.52,0,0,1,4.05-1.71,1,1,0,0,1,.79.7A22.87,22.87,0,0,1,163.85,17c3.08-1.6,5.87-2.11,7.7-1.3a2,2,0,0,0,.45.13c.15.05.29.16.23.29s-.23.11-.33.05M152.66,26.41a.49.49,0,0,0,.57.24c1-.11,3.24-2.81,3.55-3.49.17-.36.27-.73.09-.95a.56.56,0,0,0-.59-.18,6.27,6.27,0,0,0-3.39,2.84,2,2,0,0,0-.23,1.54"/><path class="cls-1" d="M159.53,27.11a2.08,2.08,0,0,0,1.52.75,1.43,1.43,0,0,0,.95-.31,2.68,2.68,0,0,0,.56-2.48l-.1-.66c-.19-1.34-.44-2.49.83-3.65a3.72,3.72,0,0,1,2.48-.9A2.59,2.59,0,0,1,168,21.05c.11.17.15.2.19.26a.26.26,0,0,1-.08.35.26.26,0,0,1-.29-.15c0-.16,0-.27-.07-.37a2.48,2.48,0,0,0-3.53-.53,3.29,3.29,0,0,0-.52,2.81l.12,1.16a3.16,3.16,0,0,1-1.14,3,3.07,3.07,0,0,1-1.62.49,2.47,2.47,0,0,1-1.79-.86,2.27,2.27,0,0,0-.31-.37.23.23,0,0,1,.12-.38.31.31,0,0,1,.31.24c.05.22,0,.18.15.38"/><path class="cls-1" d="M34,26.75c2.06,0,2.58-.28,3.51-1.6L43,17.31c.5-.72.79-1.09.68-1.31s-.45-.29-1.8-.29a.12.12,0,1,1,0-.24h5.42c1.17,0,3.23.22,4.1,1.67A4.53,4.53,0,0,1,51,21.9C48.4,26.14,45.19,27,40.62,27H34c-.11,0-.15-.23,0-.23m6-2.52c-.37.53-1,1.36-.83,1.87a.84.84,0,0,0,.71.63A10.69,10.69,0,0,0,45.8,25c2.51-1.86,4.63-4.61,4.55-7a2.41,2.41,0,0,0-.93-1.93,4.67,4.67,0,0,0-3-.26c-.94.26-1.39,1-2,1.93Z"/><path class="cls-1" d="M57.05,24.5c-1.31,1.25-3.6,3-5.61,2.54a1.52,1.52,0,0,1-1.13-1A2.45,2.45,0,0,1,51,23.88a5.61,5.61,0,0,1,4.33-2.06,1.1,1.1,0,0,1,.82.48.72.72,0,0,1-.14.81c-.77,1-2.18,1.28-3.49,1.62l-.79.18c0,.09,0,.15-.07.33a1.2,1.2,0,0,0,.27,1.07,1.4,1.4,0,0,0,1.42.29,10.42,10.42,0,0,0,3.56-2.28c.12-.11.29.07.18.18m-2.12-2.12a.49.49,0,0,0-.6-.24,4.36,4.36,0,0,0-2.52,2.48c.21,0,.6-.15.6-.15,1.9-.44,2.23-.87,2.5-1.4a.8.8,0,0,0,0-.69"/><path class="cls-1" d="M58.82,23.7c.79-1,.85-1.31.73-1.43s-.38-.1-1,0l-1.08.12c-.13,0-.19-.2,0-.24l1-.14c.55-.09,1.69-.22,2,.26s-.24,1.41-.74,2l-.23.26c-.57.64-1.07,1.35-.81,1.94a.65.65,0,0,0,.56.37c.81.07,2-1.38,2.58-2.17l1.16-1.39c1.21-1.51,2.79-2.92,4.3-2.63l.48.11c.11,0,.23.15.17.28a.27.27,0,0,1-.31.05,1.92,1.92,0,0,0-.44-.22c-1.23-.24-2.75,1.05-3.93,2.5L62.1,24.84c-1.29,1.59-2,2.4-3.41,2.22a1.08,1.08,0,0,1-1-.72c-.27-.68.19-1.52.87-2.35Z"/><path class="cls-1" d="M71.19,24.5c-1.31,1.25-3.6,3-5.61,2.54a1.52,1.52,0,0,1-1.13-1,2.48,2.48,0,0,1,.65-2.19,5.62,5.62,0,0,1,4.34-2.06,1.1,1.1,0,0,1,.81.48.72.72,0,0,1-.14.81c-.77,1-2.18,1.28-3.49,1.62l-.79.18c0,.09,0,.15-.07.33A1.2,1.2,0,0,0,66,26.31a1.4,1.4,0,0,0,1.42.29A10.56,10.56,0,0,0,71,24.32c.11-.11.28.07.17.18m-2.12-2.12a.49.49,0,0,0-.6-.24A4.36,4.36,0,0,0,66,24.62c.21,0,.6-.15.6-.15,1.91-.44,2.23-.87,2.5-1.4a.76.76,0,0,0,0-.69"/><path class="cls-1" d="M72.85,26.43c.09.19.44.32,1.48.32a.12.12,0,1,1,0,.23H68.82c-.13,0-.13-.23,0-.23,2,0,2.16-.17,3-1.27,1.27-1.63,4.1-5.92,7.86-8.72a15.64,15.64,0,0,1,8.82-3.33,8,8,0,0,1,3.88.83c.23.12.13.09.44.24s.25.27.17.38a.3.3,0,0,1-.44-.09.75.75,0,0,0-.31-.33,7.7,7.7,0,0,0-3.72-.79A14,14,0,0,0,80,17.34a44.24,44.24,0,0,0-7,8.29c-.15.23-.35.57-.21.8"/><path class="cls-1" d="M82.51,22.63a1.66,1.66,0,0,1,.31,1.6,4.79,4.79,0,0,1-3.16,2.64c-.7.19-2.57.48-3.49-.23a1.56,1.56,0,0,1-.64-1.53,3.72,3.72,0,0,1,2.32-2.72,6.68,6.68,0,0,1,1.61-.49,3.35,3.35,0,0,1,3.05.73M76.79,25.9a1.06,1.06,0,0,0,.48.88,2.08,2.08,0,0,0,1.41-.14,5.07,5.07,0,0,0,2.94-3.22,1.14,1.14,0,0,0-.21-1.08,1,1,0,0,0-.9-.24,4.72,4.72,0,0,0-2.14,1,3.49,3.49,0,0,0-1.58,2.77"/><path class="cls-1" d="M90.39,21.93a1.4,1.4,0,0,1,.91,1,3.84,3.84,0,0,1-1.69,3.09,4,4,0,0,1-3.43.95,1.25,1.25,0,0,1-1-1.17l-1.6,1.93c-3.34,4-6.9,5.89-10.54,5.89a5.53,5.53,0,0,1-4.42-1.91c-.07-.11-.15-.17-.29-.38a.27.27,0,0,1,.06-.39c.14-.06.27,0,.31.24a2.1,2.1,0,0,0,.16.36,5.32,5.32,0,0,0,4.2,1.82,10.4,10.4,0,0,0,7.82-4.17s2.43-2.9,3.87-4.79c.54-.69,1.37-1.67,1.1-2.11-.1-.16-.31-.16-1-.06l-1.08.13c-.15,0-.19-.2,0-.23l1-.15c.6-.09,1.6-.22,2,.25.25.26.1.81.1.81,1-.91,2.39-1.54,3.48-1.14m-4.83,3.93a.82.82,0,0,0,.42.74,1.45,1.45,0,0,0,1.33-.13,6,6,0,0,0,2.84-3.42c0-.38,0-.6-.25-.75a1.45,1.45,0,0,0-1.3,0,4.86,4.86,0,0,0-.77.43c-1,.69-2.27,2.12-2.27,3.13"/><path class="cls-1" d="M98.33,24.5c-1.31,1.25-3.6,3-5.6,2.54a1.52,1.52,0,0,1-1.14-1,2.51,2.51,0,0,1,.65-2.19,5.64,5.64,0,0,1,4.34-2.06,1.09,1.09,0,0,1,.81.48.7.7,0,0,1-.13.81c-.78,1-2.18,1.28-3.49,1.62l-.79.18a1.75,1.75,0,0,0-.08.33,1.2,1.2,0,0,0,.27,1.07,1.41,1.41,0,0,0,1.42.29,10.37,10.37,0,0,0,3.57-2.28c.11-.11.29.07.17.18m-2.12-2.12a.48.48,0,0,0-.59-.24,4.37,4.37,0,0,0-2.53,2.48c.22,0,.6-.15.6-.15,1.91-.44,2.23-.87,2.5-1.4a.76.76,0,0,0,0-.69"/><path class="cls-1" d="M107.59,19.73a3.61,3.61,0,0,1,.68,0c.19,0,.4.18.33.35s-.33.09-.48,0a.92.92,0,0,0-.51-.13c-1.56,0-4.7,2.31-6,4.39l-.8,1.27c-.22.33-.35.56-.22.8s.45.32,1.49.32c.13,0,.17.24,0,.24H96.52c-.14,0-.14-.24,0-.24,2,0,2.23-.1,3-1.27L101.16,23c.27-.43.27-.56.15-.69s-.38-.09-1,0l-1.06.13c-.15,0-.21-.2,0-.24l1.07-.14c.53-.09,1.69-.24,2,.25a.92.92,0,0,1,.15.59c1.7-1.78,3.82-3.12,5.16-3.12"/><path class="cls-1" d="M103.59,27.2a2.08,2.08,0,0,0,1.52.76,1.49,1.49,0,0,0,1-.31,2.65,2.65,0,0,0,.55-2.48l-.09-.67c-.19-1.34-.44-2.49.83-3.65a3.72,3.72,0,0,1,2.48-.9,2.61,2.61,0,0,1,2.22,1.19,2.17,2.17,0,0,0,.19.26c0,.06.08.28-.08.35a.25.25,0,0,1-.29-.15c0-.16,0-.27-.07-.36a2.24,2.24,0,0,0-2-1,2.21,2.21,0,0,0-1.56.51,3.29,3.29,0,0,0-.52,2.81l.12,1.16a3.16,3.16,0,0,1-1.14,3,3,3,0,0,1-1.62.5,2.43,2.43,0,0,1-1.79-.87A1.93,1.93,0,0,0,103,27a.24.24,0,0,1,.12-.39.31.31,0,0,1,.31.24c0,.22,0,.18.15.38"/><path class="cls-1" d="M102.14,2a2.14,2.14,0,0,1-.1,2.37c-1.5,2.27-4.57,2.35-8.92,2.35L90.5,10.41c-.56.79-.79,1.08-.7,1.31s.47.29,1.8.29c.15,0,.19.24,0,.24H85.18c-.11,0-.15-.24,0-.24,2.06,0,2.58-.28,3.51-1.6l5.47-7.84c.5-.72.79-1.08.67-1.3S94.39,1,93,1a.12.12,0,1,1,0-.24H98.8c1,0,2.6,0,3.34,1.22m-1.37,0A1.35,1.35,0,0,0,99.5,1H98.18c-1.26,0-1.42.44-2.56,2.08L93.33,6.33c2.58,0,4.74.17,6.51-1.67A2.85,2.85,0,0,0,100.77,2"/><path class="cls-1" d="M106.19,5a3.55,3.55,0,0,1,.67,0c.19,0,.41.18.33.35s-.33.09-.48,0a.91.91,0,0,0-.5-.13c-1.56,0-4.71,2.32-6,4.39l-.81,1.27c-.22.33-.35.57-.22.81s.45.31,1.49.31c.13,0,.17.24,0,.24H95.11c-.14,0-.14-.24,0-.24,2,0,2.23-.09,3-1.27l1.65-2.53c.27-.43.27-.55.16-.68s-.39-.09-1,0l-1.07.13a.12.12,0,1,1,0-.24l1.06-.15c.54-.09,1.69-.24,2,.26a.91.91,0,0,1,.15.59c1.7-1.79,3.82-3.13,5.17-3.13"/><path class="cls-1" d="M109.4,7.9a1.64,1.64,0,0,1,.31,1.59,4.83,4.83,0,0,1-3.17,2.65c-.69.18-2.56.48-3.48-.24a1.55,1.55,0,0,1-.64-1.52,3.69,3.69,0,0,1,2.31-2.72,6.92,6.92,0,0,1,1.62-.5,3.36,3.36,0,0,1,3.05.74m-5.73,3.26a1.1,1.1,0,0,0,.49.89,2.05,2.05,0,0,0,1.4-.15,5.07,5.07,0,0,0,3-3.21,1.16,1.16,0,0,0-.21-1.09,1.1,1.1,0,0,0-.91-.24,4.84,4.84,0,0,0-2.13,1,3.5,3.5,0,0,0-1.59,2.77"/><path class="cls-1" d="M117.28,7.2a1.42,1.42,0,0,1,.91,1,3.85,3.85,0,0,1-1.7,3.09,4,4,0,0,1-3.42,1,1.29,1.29,0,0,1-1-1.18L110.48,13c-3.33,4-6.9,5.89-10.54,5.89A5.51,5.51,0,0,1,95.53,17a3.85,3.85,0,0,1-.29-.38.27.27,0,0,1,.06-.39c.13-.05.27,0,.31.24a2.34,2.34,0,0,0,.15.37,5.38,5.38,0,0,0,4.2,1.82,10.37,10.37,0,0,0,7.82-4.17s2.43-2.9,3.88-4.79C112.2,9,113,8,112.76,7.58c-.1-.16-.31-.16-1.05,0l-1.07.13c-.16,0-.19-.2,0-.24l1-.15c.6-.09,1.6-.22,2,.26.25.26.1.81.1.81,1-.92,2.39-1.55,3.48-1.14m-4.83,3.93a.78.78,0,0,0,.42.73,1.45,1.45,0,0,0,1.33-.13A5.9,5.9,0,0,0,117,8.32c0-.39,0-.61-.24-.75a1.39,1.39,0,0,0-1.3,0,4.58,4.58,0,0,0-.77.42c-1,.7-2.27,2.13-2.27,3.14"/><path class="cls-1" d="M125.22,9.77c-1.31,1.25-3.6,3-5.61,2.53a1.52,1.52,0,0,1-1.13-1,2.49,2.49,0,0,1,.65-2.18,5.58,5.58,0,0,1,4.34-2.06,1,1,0,0,1,.81.48.7.7,0,0,1-.14.8c-.77,1-2.18,1.29-3.49,1.62l-.78.18a2,2,0,0,0-.08.33,1.19,1.19,0,0,0,.27,1.07,1.36,1.36,0,0,0,1.42.29,10.59,10.59,0,0,0,3.57-2.27c.11-.12.29.07.17.18M123.1,7.64a.49.49,0,0,0-.6-.24A4.36,4.36,0,0,0,120,9.88c.21,0,.6-.15.6-.15,1.91-.44,2.24-.86,2.5-1.39a.78.78,0,0,0,0-.7"/><path class="cls-1" d="M134.76,5a3.55,3.55,0,0,1,.67,0c.19,0,.41.18.33.35s-.33.09-.48,0a.91.91,0,0,0-.5-.13c-1.56,0-4.71,2.32-6.05,4.39l-.81,1.27c-.21.33-.35.57-.21.81s.44.31,1.48.31c.14,0,.17.24,0,.24h-5.51c-.14,0-.14-.24,0-.24,2,0,2.23-.09,3-1.27l1.65-2.53c.27-.43.27-.55.16-.68s-.39-.09-1,0l-1.06.13a.12.12,0,1,1,0-.24l1.06-.15c.54-.09,1.69-.24,2,.26a.91.91,0,0,1,.15.59c1.7-1.79,3.82-3.13,5.17-3.13"/><path class="cls-1" d="M137.8,7.22a.12.12,0,1,1,0,.23h-2.7c-.78.9-2.19,3.18-1.83,4.12a.77.77,0,0,0,.7.47c1.13.12,2.93-.89,4.22-2.75.11-.13.36,0,.25.15-1.58,2.24-3.47,3.08-4.94,2.9a1.39,1.39,0,0,1-1.23-.81c-.54-1.23.54-2.62,1.52-4.08h-1.34c-.2,0-.18-.23,0-.23H134a16.2,16.2,0,0,1,4.55-4A22.19,22.19,0,0,1,144.1.68,7.27,7.27,0,0,1,147.86.6a2.06,2.06,0,0,0,.44.08c.25.09.29.24.21.35s-.25.07-.4,0a1.61,1.61,0,0,0-.31-.2,7.89,7.89,0,0,0-3.62.11,19.34,19.34,0,0,0-5.47,2.81,16.7,16.7,0,0,0-3.47,3.49Z"/><path class="cls-1" d="M149.19,6.17c-2.05,0-4.41,1.16-6.67,3.93l-3.66,4.44c-1.27,1.56-3.43,4-7.07,4A5.41,5.41,0,0,1,127,16a1,1,0,0,0-.21-.24.24.24,0,0,1,.06-.36.21.21,0,0,1,.29.16c0,.13,0,.22.08.28a5.05,5.05,0,0,0,4.64,2.4c3.33,0,5.61-2.11,7.74-5,0,0,0-.57.06-1.32l.18-3.2c.05-1.32,0-1.32-1.3-1.32-.21,0-.19-.24,0-.24h4.92a.12.12,0,1,1,0,.24c-2.24,0-2.24,0-2.32,1.34L141,11.51l1.18-1.43c2.4-2.9,4.72-4.13,7-4.13a3.4,3.4,0,0,1,1.87.57c.05,0,.19.13.29.18a.25.25,0,0,1,.09.35c-.06.07-.21.07-.33-.11a1.24,1.24,0,0,0-.19-.24,3.34,3.34,0,0,0-1.73-.53"/><path class="cls-1" d="M64.69.25c-1.17,0-4.2.43-7.48,5.16-.14.22-.41.1-.25-.16L60.61,0H76.29c.43,0,.51.1.33.39L73,5.55a.14.14,0,1,1-.24-.16c1.39-1.95,2.21-3.32,1.9-4.24-.24-.74-1.11-.9-2.42-.9H69.32l-7,10c-.63.92-.24,1.23,0,1.39S63.15,12,65,12a.13.13,0,0,1,0,.26H56c-.14,0-.16-.26,0-.26,2.62,0,3.3,0,4.45-1.7l7-10Z"/><path class="cls-1" d="M74.28,7.62a1.75,1.75,0,0,1,.33,1.7c-.43,1.42-2.11,2.42-3.36,2.81-.74.2-2.73.51-3.71-.25a1.64,1.64,0,0,1-.68-1.62,4,4,0,0,1,2.46-2.9A7.62,7.62,0,0,1,71,6.84a3.55,3.55,0,0,1,3.24.78M68.19,11.1a1.12,1.12,0,0,0,.52.93,2.19,2.19,0,0,0,1.49-.15,5.4,5.4,0,0,0,3.14-3.42,1.23,1.23,0,0,0-.23-1.15,1.1,1.1,0,0,0-1-.26,5.07,5.07,0,0,0-2.27,1.09,3.74,3.74,0,0,0-1.69,3"/><path class="cls-1" d="M82.42,7a1.51,1.51,0,0,1,1,1.09c.14,1-.56,2.23-1.81,3.28a4.26,4.26,0,0,1-3.65,1,1.36,1.36,0,0,1-1-1.25l-1.7,2c-3.55,4.29-7.34,6.27-11.21,6.27a5.88,5.88,0,0,1-4.7-2A4.09,4.09,0,0,1,59,17,.26.26,0,0,1,59,16.6c.14-.05.28,0,.32.26a3,3,0,0,0,.17.39A5.67,5.67,0,0,0,64,19.19a11.09,11.09,0,0,0,8.33-4.44s2.58-3.09,4.12-5.1c.57-.74,1.45-1.78,1.17-2.24-.11-.18-.33-.18-1.11-.06l-1.15.13c-.16,0-.2-.21,0-.25l1.11-.16c.63-.1,1.7-.23,2.17.28.27.27.1.86.1.86,1.09-1,2.54-1.65,3.71-1.21m-5.14,4.18a.85.85,0,0,0,.45.78,1.56,1.56,0,0,0,1.41-.14,6.37,6.37,0,0,0,3-3.63.77.77,0,0,0-.27-.8,1.45,1.45,0,0,0-1.37,0,4,4,0,0,0-.82.44c-1.09.75-2.42,2.27-2.42,3.35"/><path class="cls-1" d="M51.11,11.09l.12.4H51l.12-.4Zm.26.93h.34l-.4-1.32h-.38L50.52,12h.32l.08-.27h.37Zm-3.32-1.31h-.31V12h.31ZM44.73,12c.28,0,.51-.12.51-.41s-.17-.34-.4-.4-.28-.07-.28-.15.06-.11.17-.11a2.07,2.07,0,0,1,.4,0l.07-.25a1.45,1.45,0,0,0-.47-.08c-.27,0-.5.11-.5.38s.15.35.39.41.29.07.29.17-.08.12-.18.12a2,2,0,0,1-.47-.06l0,.26a2,2,0,0,0,.52.07m-3.46-.79L41,10.71h-.35l.42.85V12h.31v-.46l.41-.85H41.5l-.23.54Zm-3.38-.16.12.4h-.24l.12-.4Zm.26.93h.35l-.41-1.32h-.38L37.3,12h.33l.08-.27h.37Zm-4.21-1.31V12h.9v-.27h-.59v-1Zm-3.08.38.13.4h-.25l.12-.4Zm.26.93h.35l-.41-1.32h-.38L30.27,12h.33l.07-.27h.38Zm-4.28-1.31h-.41V12h.3v-.76h0L27,12h.22l.27-.76h0V12h.31V10.71h-.41l-.26.81h0Z"/><polygon class="cls-2" points="0 1.29 0 2 2.94 2 2.94 9.57 3.93 9.57 3.93 2 6.88 2 6.88 1.29 0 1.29"/><polygon class="cls-2" points="6.09 2.43 6.94 2.43 6.94 5.59 11.29 5.59 11.29 2.43 12.14 2.43 12.14 9.57 11.29 9.57 11.29 6.21 6.94 6.21 6.94 9.57 6.09 9.57 6.09 2.43"/><polygon class="cls-2" points="12.44 2.43 16.65 2.43 16.65 3.05 13.29 3.05 13.29 5.59 16.48 5.59 16.48 6.21 13.29 6.21 13.29 8.96 16.8 8.96 16.8 9.57 12.44 9.57 12.44 2.43"/><polygon class="cls-1" points="17.27 1.29 25.91 1.29 25.91 3.28 21.01 3.28 21.01 4.46 25.7 4.46 25.7 6.45 21.01 6.45 21.01 7.58 26.02 7.58 26.02 9.57 17.27 9.57 17.27 1.29"/><path class="cls-1" d="M29.75,7.79h.82C31.77,7.79,32,7.14,32,6s-.29-1.86-1.48-1.86h-.81Zm-3.3-5.36h4.84c2.46,0,4.2.7,4.2,3.59,0,2.71-1.87,3.55-4.34,3.55h-4.7Z"/><path class="cls-1" d="M44,9.31a14.23,14.23,0,0,1-3.56.39c-2.86,0-5.16-1.25-5.16-3.8,0-2.39,2.4-3.59,5.16-3.59a14.25,14.25,0,0,1,3.21.27V4.5a5.71,5.71,0,0,0-2.27-.41c-1.64,0-2.72.68-2.72,2a1.66,1.66,0,0,0,1.8,1.85,2.61,2.61,0,0,0,.7-.06V6H44Z"/><polygon class="cls-1" points="44.24 2.43 51.7 2.43 51.7 4.15 47.47 4.15 47.47 5.16 51.51 5.16 51.51 6.88 47.47 6.88 47.47 7.86 51.78 7.86 51.78 9.57 44.24 9.57 44.24 2.43"/><path class="cls-1" d="M52,2.43v.1h.27v.79h.09V2.53h.27v-.1Zm1.47,0-.26.73L53,2.43h-.17v.89h.1V2.53h0l.3.79h.06l.29-.79h0v.79h.1V2.43Z"/><path class="cls-1" d="M108.18,47.66l2,.72c2.16.76,5.29,2.41,8-.84.21-.3.72,0,.47.42-2.8,4.13-7.79,3-11.14,1.77l-1.44-.51c-2.54-.92-4.48-1.51-7.28.43-.38.25-.55-.17-.42-.51A6.88,6.88,0,0,1,101.79,46l4.48-2.28c3.14-1.65,10-5,10.42-9.24a2.84,2.84,0,0,0-.93-2.66c-1.49-1.05-3.94-.71-5.85.05-1.39.59-3.34,2-3.68,3.92a1.47,1.47,0,0,0,.13,1c.38.51.63.42.93,1s-.3,1.1-.93.68a2.66,2.66,0,0,1-.76-1,4.43,4.43,0,0,1,.5-3.37c1.65-2.57,4.79-3.54,7.24-3.54,1.87,0,4.66.67,5.93,2.7a5.1,5.1,0,0,1-.13,4.93c-1.9,3.67-8.21,5.36-10.16,5.95l-3.38,1.05a14.49,14.49,0,0,0-4.24,2.15,11.16,11.16,0,0,1,6.82.38"/><path class="cls-1" d="M137.76,30.71c1.57,1.77,1.06,5.14.68,6.71a17.08,17.08,0,0,1-10.83,11.3c-1.61.55-3.77.88-5.38-.42-1.91-1.52-2.07-4-1.91-5.78.39-4.3,3.22-8.48,7.92-11a15.44,15.44,0,0,1,5.38-1.94,4.64,4.64,0,0,1,4.14,1.1M122.27,46.57a2.22,2.22,0,0,0,1.36,1.81c1.23.55,3.09-.25,4.1-.88,4.53-2.75,9.4-11,9.66-14.47a2.82,2.82,0,0,0-.77-2.45,2.79,2.79,0,0,0-2.45,0,14.6,14.6,0,0,0-5.46,3.67c-3.64,3.71-7,9.07-6.44,12.36"/><path class="cls-1" d="M144.16,47.66l2,.72c2.16.76,5.29,2.41,8-.84.21-.3.72,0,.46.42-2.79,4.13-7.78,3-11.13,1.77l-1.44-.51c-2.54-.92-4.48-1.51-7.28.43-.38.25-.55-.17-.42-.51A6.9,6.9,0,0,1,137.76,46l4.49-2.28c3.13-1.65,10-5,10.42-9.24a2.83,2.83,0,0,0-.94-2.66c-1.48-1.05-3.93-.71-5.84.05-1.39.59-3.34,2-3.68,3.92a1.41,1.41,0,0,0,.13,1c.38.51.63.42.93,1s-.3,1.1-.93.68a2.77,2.77,0,0,1-.77-1,4.48,4.48,0,0,1,.51-3.37c1.65-2.57,4.79-3.54,7.24-3.54,1.86,0,4.66.67,5.93,2.7a5.13,5.13,0,0,1-.13,4.93c-1.9,3.67-8.21,5.36-10.16,5.95l-3.39,1.05a14.57,14.57,0,0,0-4.23,2.15,11.16,11.16,0,0,1,6.82.38"/><path class="cls-1" d="M163.64,47.66l2,.72c2.16.76,5.29,2.41,8-.84.21-.3.72,0,.46.42-2.79,4.13-7.78,3-11.13,1.77l-1.44-.51c-2.54-.92-4.48-1.51-7.28.43-.38.25-.55-.17-.42-.51A6.9,6.9,0,0,1,157.24,46l4.49-2.28c3.13-1.65,10-5,10.42-9.24a2.83,2.83,0,0,0-.94-2.66c-1.48-1.05-3.93-.71-5.84.05-1.39.59-3.34,2-3.68,3.92a1.41,1.41,0,0,0,.13,1c.38.51.63.42.93,1s-.3,1.1-.93.68a2.77,2.77,0,0,1-.77-1,4.43,4.43,0,0,1,.51-3.37c1.65-2.57,4.79-3.54,7.24-3.54,1.86,0,4.66.67,5.93,2.7a5.13,5.13,0,0,1-.13,4.93c-1.9,3.67-8.21,5.36-10.16,5.95l-3.39,1.05a14.45,14.45,0,0,0-4.23,2.15,11.16,11.16,0,0,1,6.82.38"/></g></g></svg>