<svg xmlns="http://www.w3.org/2000/svg" xmlns:xlink="http://www.w3.org/1999/xlink" viewBox="0 0 88.16 89.81"><defs><style>.cls-1{fill:none;}.cls-2{clip-path:url(#clip-path);}.cls-3{fill:#fff;}.cls-4{fill:#1eab4b;}.cls-5{fill:#094f88;}.cls-6{fill:#064f89;}.cls-7{fill:#2b2829;}.cls-8{fill:#2f2c2d;}.cls-9{fill:#312e30;}.cls-10{fill:#00568e;}.cls-11{fill:#00518a;}.cls-12{fill:#4870a3;}.cls-13{fill:#f6f6fa;}.cls-14{fill:#f2f6fb;}.cls-15{fill:#f6f6f7;}.cls-16{fill:#f9fcff;}.cls-17{fill:#f4f5f4;}</style><clipPath id="clip-path" transform="translate(0 0)"><rect class="cls-1" width="88.16" height="89.81"/></clipPath></defs><g id="Layer_2" data-name="Layer 2"><g id="Layer_3" data-name="Layer 3"><g class="cls-2"><path class="cls-3" d="M88.16,89.81H0V0H88.16ZM77.88,19.55l.07.07a1.24,1.24,0,0,1-.23.32c-.9,1.1-1.79,2.21-2.69,3.32-.37.45-.37.45,0,.92.19.25.19.25.51.13l4.54-1.71,1.27-.48c-.15-.2-.27-.36-.38-.54a.27.27,0,0,0-.41-.12c-.43.19-.87.36-1.3.53l-3.09,1.25-.09-.08,2.83-3.51c.36-.45.37-.45,0-.92-.18-.25-.18-.25-.47-.15l-4.21,1.5c-.11,0-.22.13-.36.07s.07-.17.13-.23c.29-.34.58-.67.88-1l2.06-2.32c.25-.29.25-.29,0-.61a1.4,1.4,0,0,0-.34-.4l-4.18,5c.14.19.27.36.38.54s.22.18.39.11l.26-.1,4.42-1.57M46,85.73h.73v3.41c0,.08,0,.17.09.19a.16.16,0,0,0,.17-.07l.26-.3a1.67,1.67,0,0,1,.41-.43c.15.16.28.31.43.46a1.29,1.29,0,0,0,1,.37,1.72,1.72,0,0,0,1-.34,2.43,2.43,0,0,0,1-1.76A5.5,5.5,0,0,0,51,85.71c.21,0,.41,0,.6,0s.26.06.28.26a7.8,7.8,0,0,0,.37,1.84A2.48,2.48,0,0,0,53.12,89a1.9,1.9,0,0,0,2.64-.31,3.82,3.82,0,0,0,.48-.77,6.13,6.13,0,0,0,.53-2.11,4.05,4.05,0,0,1,.92,0c0,.54,0,1.08,0,1.61A2.61,2.61,0,0,0,58,88.62a1.3,1.3,0,0,0,.83.67,1.81,1.81,0,0,0,1.9-.52,2.35,2.35,0,0,0,.55-1.06,6.51,6.51,0,0,0,.17-2.06c-.08-.14-.21-.07-.32-.08H59.67V78.31c0-.57-.09-.5.5-.5h1.1c.09,0,.19,0,.19-.14s-.1-.14-.2-.15H60c-.3,0-.3,0-.3-.31V73.13c0-.09,0-.17-.12-.18s-.14.1-.14.19a5.45,5.45,0,0,1-.56,2.06,4.78,4.78,0,0,1-1.6,2.14l-.15.13c-.07.06-.14.13-.09.23a.18.18,0,0,0,.2.1h.15c.37,0,.34,0,.34.35v4c0,1.14,0,2.28,0,3.41H56.32l-2.55,0c0-.64,0-1.28,0-1.92,0-.19.06-.26.25-.25h.31c.76,0,1.52,0,2.29,0,.15,0,.25,0,.24-.21a17.84,17.84,0,0,0-.12-3,4.73,4.73,0,0,0-.79-2,1.82,1.82,0,0,0-2.81-.24,2.94,2.94,0,0,0-.63.85A5.3,5.3,0,0,0,52,80.5a24.2,24.2,0,0,0-.12,4.42c0,.73,0,.74-.7.66a.21.21,0,0,1-.21-.18,17.3,17.3,0,0,0-1.32-3.22,16.93,16.93,0,0,1-1.16-2.74,2.6,2.6,0,0,1-.13-1,.71.71,0,0,1,.5-.68.68.68,0,0,1,.79.29,2.52,2.52,0,0,1,.38.77,13.89,13.89,0,0,1,.54,3c0,.15-.05.39.14.4s.16-.26.16-.41v-4a1.76,1.76,0,0,0,0-.23c0-.18-.11-.22-.27-.11l-.32.29c-.24.21-.24.21-.51,0a1.6,1.6,0,0,0-2.31.22,2.51,2.51,0,0,0-.55,2.06,9.42,9.42,0,0,0,.79,2.53c.41,1,.88,1.92,1.26,2.91-.07.12-.19.08-.28.08H46a10.74,10.74,0,0,0-.73-2.06c-.42-.9-.86-1.79-1.28-2.69A8.78,8.78,0,0,1,43.33,79a1.43,1.43,0,0,1,0-.74.69.69,0,0,1,1.19-.28,1.86,1.86,0,0,1,.35.61,7.56,7.56,0,0,1,.39,1.39,19.89,19.89,0,0,1,.25,2c0,.1,0,.23.15.24s.14-.12.14-.23a1.27,1.27,0,0,0,0-.2v-4a1.85,1.85,0,0,0,0-.23c0-.16-.1-.2-.24-.1a2.79,2.79,0,0,0-.32.28c-.27.23-.27.23-.54,0a1.62,1.62,0,0,0-.93-.37,1.74,1.74,0,0,0-1.66,1,2.59,2.59,0,0,0-.27,1.53,6.61,6.61,0,0,0,.46,1.85c.43,1.11,1,2.18,1.41,3.28a1.54,1.54,0,0,1,.2.58H40.38a1.61,1.61,0,0,1-.08-.38c-.19-1.61-.38-3.22-.58-4.82L39,74.77c-.06-.51-.14-1-.19-1.55,0-.18-.09-.25-.28-.24a8.22,8.22,0,0,1-.86,0c-.17,0-.22.07-.24.23-.07.6-.15,1.19-.23,1.79-.22,1.73-.43,3.47-.66,5.2l-.69,5.36H26.65a1,1,0,0,0-.49.06.62.62,0,0,0,.48.09H35.4a1.25,1.25,0,0,1,.47,0c0,.32-.09.65-.14,1a7.62,7.62,0,0,1-.29,1.57c-.11.28-.25.52-.58.57-.15,0-.25.09-.23.26s.16.15.28.15h1.65l.16,0a.14.14,0,0,0,.12-.13.15.15,0,0,0-.08-.2.55.55,0,0,0-.18-.06.75.75,0,0,1-.6-.73,2.17,2.17,0,0,1,0-.51c.06-.5.14-1,.2-1.51,0-.16.07-.23.24-.23.49,0,1,0,1.46,0,.17,0,.22.07.23.23,0,.4.09.8.12,1.21s.07.91.11,1.36c0,.13,0,.2-.16.19a.85.85,0,0,1-.16,0c-.15,0-.27,0-.28.2s.13.2.27.2h3.15a.19.19,0,0,0,.21-.18.22.22,0,0,0-.21-.2.24.24,0,0,0-.12,0c-.22,0-.3-.08-.32-.28-.11-1-.23-1.91-.34-2.87h1.33c0,.16,0,.31,0,.47V89c0,.09,0,.19.08.24s.19,0,.26-.11.19-.25.3-.37a.78.78,0,0,1,.32-.3l.33.37a1.36,1.36,0,0,0,1.17.45,1.78,1.78,0,0,0,1.09-.48,2.56,2.56,0,0,0,.78-1.46,5.93,5.93,0,0,0,0-1.63m7.43-43.37c0,3.2,0,6.4,0,9.61,0,.68,0,1.36.08,2a11.17,11.17,0,0,0,.54,2.69,6.18,6.18,0,0,0,4.18,4.13,10.76,10.76,0,0,0,2.82.49,29.28,29.28,0,0,0,4.08-.13,42.76,42.76,0,0,0,4.79-.66c.44-.08.44-.09.44-.54V42.37c0-.35,0-.33-.31-.33H62.28c-.32,0-.33,0-.33.31v3.58c0,.37,0,.34.37.34H64.8c.6,0,.51-.09.51.52,0,1.09,0,2.17,0,3.26v6.62c0,.36,0,.35-.34.43a15.22,15.22,0,0,1-2.85.29,3,3,0,0,1-2.41-1.06A4.08,4.08,0,0,1,59,55.25a6.83,6.83,0,0,1-.49-2.72V34.1a13.56,13.56,0,0,1,.18-2.38,6.11,6.11,0,0,1,.78-2.24,3,3,0,0,1,5.36.44,5.48,5.48,0,0,1,.45,2.29c0,.54,0,1.07,0,1.61,0,.28,0,.28.29.28h4.48c.29,0,.3,0,.3-.31,0-1,0-2,0-2.94a10,10,0,0,0-.09-1.44A5.35,5.35,0,0,0,67.08,25a8.51,8.51,0,0,0-1.26-.44,15.38,15.38,0,0,0-4.33-.4,12.42,12.42,0,0,0-3.37.48,5.73,5.73,0,0,0-3.91,3.67,10.93,10.93,0,0,0-.46,1.7,20.07,20.07,0,0,0-.3,3.47v8.9M34.09,53.14c0,.76-.05,1.67,0,2.59a5.55,5.55,0,0,0,3.63,4.89,9.94,9.94,0,0,0,2.9.66A13.3,13.3,0,0,0,44.89,61a6.25,6.25,0,0,0,4.58-3.87A10.43,10.43,0,0,0,50.06,55a19,19,0,0,0,.13-4.26,9.25,9.25,0,0,0-1.38-4.41,19.72,19.72,0,0,0-1.54-2.12c-1.17-1.42-2.46-2.72-3.71-4.05a30.41,30.41,0,0,1-3.08-3.72,7.16,7.16,0,0,1-1.17-2.63,9.73,9.73,0,0,1-.07-2.85,4,4,0,0,1,.35-1.36,2.35,2.35,0,0,1,1.8-1.42,4.79,4.79,0,0,1,1.25-.06,2.41,2.41,0,0,1,2.24,1.84,5.37,5.37,0,0,1,.19,1.59c0,.81,0,1.62,0,2.43,0,.32,0,.32.33.32H49.5c.33,0,.33,0,.33-.35v-3.3a11.21,11.21,0,0,0-.17-1.91,4.49,4.49,0,0,0-2.06-3.15,8.13,8.13,0,0,0-2.2-1,11.81,11.81,0,0,0-6-.08,6.2,6.2,0,0,0-4.94,4.87,13.52,13.52,0,0,0-.34,4.35A11.36,11.36,0,0,0,35.32,38a16.83,16.83,0,0,0,2.62,3.71c1.17,1.31,2.45,2.5,3.67,3.77a26.12,26.12,0,0,1,2.65,3.1,6.33,6.33,0,0,1,1.07,2.38,12.5,12.5,0,0,1,.13,2.93,5.35,5.35,0,0,1-.35,1.76,2.63,2.63,0,0,1-1.93,1.68,4.74,4.74,0,0,1-1.25.11,2.54,2.54,0,0,1-2.4-1.72,5.21,5.21,0,0,1-.35-1.87V50.74c0-.3,0-.3-.31-.3H34.38c-.28,0-.29,0-.29.31v2.39M18.66,42.74V60.67c0,.35,0,.35.33.35H32.18c.31,0,.31,0,.31-.33V57.2c0-.46,0-.42-.42-.42H23.92c-.11,0-.18,0-.17-.15V44.74c0-.34,0-.34.34-.34h7.6c.27,0,.27,0,.28-.28,0-1.23,0-2.46,0-3.69,0-.19,0-.3-.26-.27a1.76,1.76,0,0,1-.23,0H24.19c-.5,0-.44.06-.44-.43V28.91c0-.18.07-.23.23-.22h8.15c.36,0,.36,0,.36-.36V24.8c0-.36,0-.36-.37-.36H19.17c-.59,0-.51-.06-.51.5v17.8M14.21,73s.06,0,.1,0l2.58.64c.33.08.33.08.36.43.05.8.1,1.59.16,2.38a.78.78,0,0,0,.09.38c.49-.78,1-1.54,1.44-2.28.24-.39.13-.37.61-.25l2.63.65a.54.54,0,0,0-.19-.3l-1.14-1.36-.61-.75a4.72,4.72,0,0,1,.51-.87c.35-.59.72-1.17,1.08-1.75-.09-.07-.14,0-.2,0l-2.4,1c-.3.11-.3.11-.52-.14-.54-.64-1.07-1.28-1.62-1.92,0,0-.07-.16-.21-.13.06.93.12,1.85.2,2.78a.31.31,0,0,1-.24.37c-.77.29-1.53.61-2.29.92-.11,0-.26.06-.34.18m56.41-3.5a.34.34,0,0,0-.21.14c-.6.62-1.2,1.24-1.78,1.88a.33.33,0,0,1-.47.08c-.76-.38-1.52-.73-2.3-1.1-.08,0-.16-.12-.29-.07.46.83.9,1.66,1.36,2.47a.33.33,0,0,1-.07.47c-.59.6-1.16,1.21-1.74,1.81-.07.08-.18.14-.18.28L67.53,75c.48-.1.48-.1.7.3l1.11,2c0,.1.07.22.22.28.1-.78.2-1.55.31-2.32,0-.24,0-.55.14-.71s.49-.13.75-.17L73,73.92a1,1,0,0,0-.37-.22l-2.22-1.06c-.17-.08-.24-.16-.19-.36a6.17,6.17,0,0,0,.09-.62c.09-.72.18-1.44.28-2.19M48.49,4.33c.74-.5.92-.74,1-1.5a1.44,1.44,0,0,0-.9-1.58,2.08,2.08,0,0,0-.6-.18C47,1,46,.91,45,.85c-.3,0-.3,0-.34.27,0,0,0,.1,0,.15-.12,1.72-.24,3.44-.35,5.16,0,.23-.17.52,0,.67s.48.08.73.09c0,0,0,0,.07,0l.09-1.24c0-.41.06-.81.08-1.21,0-.14,0-.23.2-.22.67.06,1.34.08,2,.16s.83.38.84,1c0,.37,0,.73,0,1.1a2,2,0,0,0,0,.54c0,.08,0,.16.14.16a7.66,7.66,0,0,0,1,0,1.39,1.39,0,0,1-.3-1.1l0-.7c0-.54,0-1-.66-1.33M28.68,7.2s0,0,0-.06a2.12,2.12,0,0,1,.11-.21A1.67,1.67,0,0,0,28.52,5a1.45,1.45,0,0,0-1.58-.51A6.13,6.13,0,0,0,25.67,5l-1.88.89c-.16.07-.24.15-.12.31a.91.91,0,0,1,.07.14C24.5,8,25.27,9.58,26,11.18c.29.61.31.61.89.26.13-.07.12-.14.07-.25L26.88,11c-.29-.62-.59-1.25-.89-1.87-.06-.12-.08-.2.08-.27.63-.29,1.25-.6,1.89-.87a.79.79,0,0,1,1.1.38c.22.37.42.76.63,1.13a3.17,3.17,0,0,0,.23.36c0,.06.1.14.2.09A6.06,6.06,0,0,0,31,9.45a1.24,1.24,0,0,1-.8-.76c-.12-.25-.26-.49-.38-.73a1.12,1.12,0,0,0-1.15-.76M78.62,31.76a3.23,3.23,0,0,1,.14.53c0,.28.1.3.4.22.69-.2,1.39-.38,2.08-.57.15,0,.25-.05.29.14.16.67.4,1.33.51,2a.8.8,0,0,1-.53,1c-.23.09-.47.15-.71.23l-.89.31c-.09,0-.22.06-.19.2a6.26,6.26,0,0,0,.28,1,1.49,1.49,0,0,1,1.09-.72l.79-.25a1,1,0,0,0,.77-.85s0-.08.1-.06a1.79,1.79,0,0,0,.75.42,1.68,1.68,0,0,0,2.1-2,18.22,18.22,0,0,0-.48-1.9c-.12-.45-.24-.9-.37-1.37l-6.13,1.63M36.76,4.08A4.6,4.6,0,0,0,37,5.59a2.79,2.79,0,0,0,2,2,3.53,3.53,0,0,0,1.41,0A2.79,2.79,0,0,0,42.69,5.8a4.18,4.18,0,0,0,.2-2.27A3.09,3.09,0,0,0,37,2.94a3.36,3.36,0,0,0-.19,1.14M24.32,11.4a4,4,0,0,0-2.17-3.12,2.3,2.3,0,0,0-1.87-.18,3.75,3.75,0,0,0-1.84,1.21,2.4,2.4,0,0,0-.6,1.88,4,4,0,0,0,2,3.19,2.3,2.3,0,0,0,1.18.36,3.28,3.28,0,0,0,2.64-1.24,2.9,2.9,0,0,0,.64-2.1m55.8,26.32c.09,1,.14,1.85.27,2.74a2.18,2.18,0,0,0,1.5,1.85,4.26,4.26,0,0,0,3.25-.07,2.35,2.35,0,0,0,1.54-2.44c0-.51-.07-1-.13-1.52a5.45,5.45,0,0,0-.14-1.12l-6.29.56M4.81,28.58l1.44-3.43a2.46,2.46,0,0,0-.51-.26c-.16-.09-.22,0-.28.14l-.4.94c-.42,1-.85,2-1.28,3.07l.15.08L9.39,31.4c.23.1.24.09.35-.17.51-1.2,1-2.38,1.51-3.57.19-.47.18-.45-.28-.65-.21-.09-.28,0-.34.16s-.26.63-.4.94l-1,2.33-2-.82a.94.94,0,0,1,.12-.39l1-2.42c.18-.42.17-.41-.25-.59-.18-.07-.28-.08-.36.14s-.29.72-.44,1.08c-.27.62-.53,1.25-.8,1.89l-1.78-.75M67.66,8.78c.1-.16.19-.29.26-.42s.14-.24-.09-.38L64.29,5.87a.27.27,0,0,0-.21-.06C63,7.58,61.94,9.38,60.87,11.16a.72.72,0,0,0,.31.23l3.13,1.87c.17.1.35.32.54.26s.23-.32.34-.5c0,0,0,0-.06-.13L61.94,11c.35-.59.69-1.13,1-1.68.08-.14.16-.15.27-.06l.2.12,2.43,1.45c.14.08.23.1.31-.07s.17-.29.26-.45l-3-1.79L64.32,7c.07-.12.14-.17.27-.07a1.16,1.16,0,0,0,.24.14l2.83,1.69M10,56.35c0-.09,0-.17-.07-.24-.12-.4-.25-.8-.37-1.2C9.23,54,9,53.12,8.67,52.23c0-.09,0-.23-.13-.21a3.18,3.18,0,0,0-.6.18c-.05,0,0,.09,0,.14a2,2,0,0,0,.07.23l.93,3c.1.29.1.3-.21.39l-1.5.47c-.26.08-.27.08-.35-.18-.27-.87-.55-1.74-.82-2.61L6,53.44c-.08-.26-.09-.27-.34-.18-.48.15-.45.07-.3.54.27.88.55,1.77.83,2.65.08.26.07.26-.19.34l-1.27.4c-.37.13-.33,0-.41-.2-.29-.94-.59-1.89-.89-2.83-.18-.58-.06-.46-.62-.32-.21,0-.25.13-.18.33.41,1.29.81,2.58,1.22,3.88.08.25.09.25.36.17l3.74-1.16,1.83-.58c.09,0,.19,0,.19-.13m-6.5-18h0a1.27,1.27,0,0,1,0-.2c0-.1,0-.17-.14-.17A1.64,1.64,0,0,0,2,38.51a2.94,2.94,0,0,0-.47,3,1.8,1.8,0,0,0,1.76,1A1.39,1.39,0,0,0,4.6,41.47c.16-.43.3-.87.44-1.3a4.34,4.34,0,0,1,.36-.86.76.76,0,0,1,.51-.4,1,1,0,0,1,1.24.69,2.4,2.4,0,0,1-.07,1.73A1.26,1.26,0,0,1,6,42.12c-.39,0-.39.05-.41.43a.86.86,0,0,1,0,.16c0,.19,0,.24.23.25a2,2,0,0,0,1.91-1.21,3.38,3.38,0,0,0,0-2.7,1.66,1.66,0,0,0-1.68-1,1.46,1.46,0,0,0-1.47,1,9.71,9.71,0,0,0-.34.95,10.83,10.83,0,0,1-.47,1.28.76.76,0,0,1-.91.45,1,1,0,0,1-.81-.84,2.66,2.66,0,0,1,.06-1.09,1.18,1.18,0,0,1,1-.91c.35-.06.35-.07.38-.43v0m83.45,7.84a2.62,2.62,0,0,0,0-.37A1.87,1.87,0,0,0,85,44.16a1.34,1.34,0,0,0-1.29.79,11.39,11.39,0,0,0-.58,1.67,4.93,4.93,0,0,1-.35.82.82.82,0,0,1-.69.4,1,1,0,0,1-1-.67,2.37,2.37,0,0,1,.07-1.83,1.2,1.2,0,0,1,.93-.71c.15,0,.35,0,.45-.09s.06-.32.07-.48,0-.3-.28-.29a2,2,0,0,0-1.88,1.31,3.42,3.42,0,0,0,0,2.38,1.69,1.69,0,0,0,2,1.2,1.39,1.39,0,0,0,1.19-.78,3.83,3.83,0,0,0,.29-.73c.19-.55.33-1.13.57-1.66a.8.8,0,0,1,1.08-.44,1,1,0,0,1,.63.65A2.11,2.11,0,0,1,86,47.26a1,1,0,0,1-.76.57c-.41.1-.41.1-.43.51,0,0,0,.1,0,.15s0,.2.19.2A1.67,1.67,0,0,0,86.42,48a2.87,2.87,0,0,0,.49-1.72M9,34.18a2.48,2.48,0,0,0-.11-.81,1.63,1.63,0,0,0-1.44-1.21,1.52,1.52,0,0,0-1.63.69c-.13.21-.25.43-.36.65a15.44,15.44,0,0,1-.79,1.44.79.79,0,0,1-1.1.25A1,1,0,0,1,3,34.34a2.37,2.37,0,0,1,.25-1.14,1.16,1.16,0,0,1,1.08-.71c.36,0,.36,0,.45-.37a2.23,2.23,0,0,1,0-.23c.06-.14,0-.18-.14-.2a1.69,1.69,0,0,0-1.72.6,3.1,3.1,0,0,0-.69,2A1.81,1.81,0,0,0,3.69,36.1a1.34,1.34,0,0,0,1.55-.55,7,7,0,0,0,.51-.88,10.47,10.47,0,0,1,.7-1.27.88.88,0,0,1,1-.38.9.9,0,0,1,.78.72,2.35,2.35,0,0,1-.4,1.94,1.23,1.23,0,0,1-1,.48c-.47,0-.47,0-.58.48a.14.14,0,0,1,0,.07c0,.14,0,.21.16.24A2,2,0,0,0,8.44,36,3.37,3.37,0,0,0,9,34.18M7.53,60.09c.48.94.93,1.83,1.39,2.72.09.18,0,.23-.13.3L6.94,64c-.09,0-.2.07-.25.19a5.38,5.38,0,0,0,.39.7l5.64-2.84c-.13-.27-.26-.51-.38-.74a.87.87,0,0,0-.31.12L9.9,62.55c-.15.08-.24.09-.33-.09-.42-.84-.85-1.68-1.28-2.52-.08-.15,0-.22.11-.29.54-.26,1.07-.54,1.61-.81l.83-.43,0-.1-.21-.42c-.13-.25-.13-.25-.4-.11L5.26,60.27a1.32,1.32,0,0,0-.45.27c.13.24.25.48.39.72l2.33-1.17M30.47,77.87a6.92,6.92,0,0,0-1.44,0c.31.13.31.13.31.49v6.37c-.1.09-.25,0-.39.19.57,0,1.07,0,1.58,0-.09-.1-.23-.11-.22-.28,0-1,0-2.07,0-3.1,0-.06,0-.15.06-.17a.61.61,0,0,1,.46,0c.13,0,.08.17.08.27,0,1,0,1.9,0,2.86,0,.17,0,.34-.25.43a4.29,4.29,0,0,0,1.53,0c-.31-.11-.31-.11-.31-.47v-6a1.61,1.61,0,0,1,0-.31c0-.14.22,0,.29-.2-.51,0-1,0-1.55,0,.15.14.28.15.28.32,0,.94,0,1.88,0,2.83,0,0,0,.12,0,.14a.63.63,0,0,1-.45,0c-.15,0-.1-.16-.1-.25,0-.9,0-1.81,0-2.71a.41.41,0,0,1,.16-.33m45.17-10.3c0-.12,0-.17,0-.22.31-1.24-1.18-2.23-2.09-2a2.58,2.58,0,0,0-1.79,1.66,1.71,1.71,0,0,0,.31,1.73,1.61,1.61,0,0,0,1.94.59c.06,0,.12-.06.18,0a.75.75,0,0,1,0,.15A1.47,1.47,0,0,0,76.07,71a2.3,2.3,0,0,0,1.46-1.33,1.53,1.53,0,0,0-.23-1.75,1.27,1.27,0,0,0-1.66-.36m-57.38-53-.25.3c-.28.28-.28.28-.09.63l.15.32a1.65,1.65,0,0,1-.32,1.78,1.72,1.72,0,0,1-1.86.64A3.6,3.6,0,0,1,13.5,16a1.43,1.43,0,0,1-.08-.77,2.1,2.1,0,0,1,.91-1.45,1.33,1.33,0,0,1,1.41-.21.59.59,0,0,0,.84-.24c0-.06.12-.09.13-.2A2.19,2.19,0,0,0,15,12.66a2.9,2.9,0,0,0-2.05,4.15,4.37,4.37,0,0,0,2.24,2.06A2.49,2.49,0,0,0,18,18.43a2.62,2.62,0,0,0,.31-3.9m37-5.69a.39.39,0,0,0,0-.28c-.22-1.92-.45-3.83-.66-5.75-.08-.64-.07-.65-.69-.79-.33-.08-.33-.08-.53.21L50,7.23c-.07.1-.17.17-.16.33.2.05.4.08.6.15s.23,0,.31-.13c.28-.43.57-.85.84-1.28a.34.34,0,0,1,.45-.18L54,6.58a.26.26,0,0,1,.25.28,8.43,8.43,0,0,0,.1,1c.06.26-.08.6.16.76a2.19,2.19,0,0,0,.78.21M32.05,6.39l.25-.08c.59-.17,1.18-.33,1.77-.52a1.58,1.58,0,0,0,1.08-.88,1.92,1.92,0,0,0-.3-2.1A1.65,1.65,0,0,0,33,2.33c-.85.22-1.7.48-2.56.71-.2.06-.2.13-.15.31.17.56.32,1.12.49,1.69.37,1.29.73,2.58,1.1,3.87.08.27.09.27.34.21.58-.16.58-.16.41-.73s-.37-1.33-.57-2m44,19.54c.1.22.19.38.26.56a.28.28,0,0,0,.35.21c.51-.05,1-.07,1.52-.13a.32.32,0,0,1,.36.22c.26.6.53,1.2.81,1.78a.32.32,0,0,1-.1.46c-.37.33-.72.69-1.08,1-.11.1-.16.19-.09.33s.21.43.31.65l.16-.13,4.18-4.09c.5-.49.48-.48.21-1.1a.36.36,0,0,0-.42-.24l-1.8.13-2.87.19-1.8.13m-4.79-6.64.15-.3q1.19-2.67,2.36-5.34c.25-.56.25-.56-.2-1-.25-.24-.25-.24-.57-.09l-5.51,2.64c-.09,0-.2,0-.24.19a3,3,0,0,1,.36.35.32.32,0,0,0,.47.08c.44-.23.9-.44,1.34-.66a.28.28,0,0,1,.4,0c.49.48,1,.95,1.48,1.41a.26.26,0,0,1,.06.37c-.15.3-.28.59-.41.89s-.35.5-.27.75.35.41.58.66M7.53,43.51l-.36.15L2,46a1.78,1.78,0,0,0-.55.28c-.15.18,0,.43,0,.64s0,.31.34.41l4.81,1.4L8,49.1c0-.24,0-.43,0-.62s-.1-.27-.27-.32l-1.47-.4c-.17,0-.24-.1-.25-.28,0-.65-.11-1.3-.15-1.95,0-.35-.08-.29.29-.45l1.33-.58c.09,0,.21-.06.19-.21a2.39,2.39,0,0,0-.1-.78M81,61.82a2,2,0,0,0,2.24-2.27,2.19,2.19,0,0,0-.9-1.34A6,6,0,0,0,79.38,57a1.9,1.9,0,0,0-2.18,1.25,1.78,1.78,0,0,0,.45,2A5.65,5.65,0,0,0,81,61.82m-.85-9.13a1.53,1.53,0,0,1,.65.76,3.61,3.61,0,0,1,.24.79,10.1,10.1,0,0,0,.47,1.69A1.72,1.72,0,0,0,83.11,57a1.67,1.67,0,0,0,1.69-1A3.65,3.65,0,0,0,85,55.3,1.86,1.86,0,0,0,83.6,53c-.08,0-.16-.05-.19,0a2,2,0,0,0-.16.6c0,.15.25.14.38.22l.17.1a1.09,1.09,0,0,1,.53,1.24,1.14,1.14,0,0,1-.92,1,1.2,1.2,0,0,1-1.3-.68,4.16,4.16,0,0,1-.25-.7c-.11-.43-.21-.86-.32-1.29a2.59,2.59,0,0,0-1.68-1.78c-.17-.06-.24,0-.28.14l-.36,1.25-.69,2.36c0,.09-.12.21,0,.26a3.5,3.5,0,0,0,.49.14c.07,0,.12,0,.13-.1l.07-.22.85-2.85M35,80.48c.12,0,.12-.09.12-.14V78.06c0-.2-.09-.24-.26-.23H32.66c-.08,0-.16,0-.22.13.35-.09.31.14.31.35v6.16c0,.28,0,.28-.3.35,0,0,0,0,0,.07a.16.16,0,0,0,.14,0h2.32c.21,0,.27-.07.27-.27V82.2c0-.07,0-.16-.1-.21a.34.34,0,0,0,0,.2,5.79,5.79,0,0,1-.17,1.24,2.86,2.86,0,0,1-.38,1,.77.77,0,0,1-.53.38c-.12,0-.2,0-.2-.16,0-1,0-2,0-3,0-.06,0-.14,0-.17s.15,0,.22,0a.85.85,0,0,1,.21.32,2.41,2.41,0,0,1,.16.88,1.08,1.08,0,0,0,0,.4.12.12,0,0,0,.1-.14c0-1.09,0-2.17,0-3.25,0-.07,0-.14-.12-.14v.51a2,2,0,0,1-.15.76.55.55,0,0,1-.5.4V78.32c0-.35.11-.43.45-.34a.53.53,0,0,1,.34.3,5.48,5.48,0,0,1,.34,1A8.6,8.6,0,0,1,35,80.48m-6.36.4a.13.13,0,0,0,.07-.13c0-.9,0-1.81,0-2.71,0-.18-.09-.21-.25-.21h-2.6c-.18,0-.25,0-.25.24,0,.88,0,1.76,0,2.63,0,.08,0,.17.12.17A11.46,11.46,0,0,1,26,79.56a6.43,6.43,0,0,1,.33-1.29c.06-.14.13-.33.32-.28s.09.22.09.34v6.08c0,.36,0,.36-.37.4q-.06,0,0,.06a4.93,4.93,0,0,0,1.76,0c0-.07-.11-.06-.17,0s-.22,0-.2-.21a.85.85,0,0,0,0-.16V78.16c0-.07,0-.17.09-.19a.21.21,0,0,1,.21.09,1.27,1.27,0,0,1,.18.39,10.14,10.14,0,0,1,.43,2.18c0,.09,0,.19.07.25m-21.81-57L8,22,12.77,25l.24-.39c.21-.34.21-.34-.11-.54L8.81,21.53c-.12-.07-.26-.11-.34-.26l1.08-1.78-.31-.2c-.34-.2-.28-.26-.5.1L6.51,23a1.54,1.54,0,0,0-.24.46l.6.37m4.66,46.21c-.33-.44-.66-.89-1-1.35s-.31-.29.08-.58l3.78-2.73c.42-.3.42-.3.13-.71s-.2-.3-.51-.07l-3.91,2.82a1.08,1.08,0,0,1-.34.21L8.54,66,8,66.38a1,1,0,0,0,.21.34C9,67.83,9.78,69,10.59,70.05c.38.53.38.53.88.11a.45.45,0,0,0,.06-.09M62.57,5l-.29-.12-4-1.63c-.46-.19-.45-.18-.64.29-.09.2,0,.26.16.33.51.2,1,.42,1.53.61.15.06.19.12.12.29-.18.42-.34.84-.52,1.27l-1.39,3.4c-.12.29-.12.29.18.41a1.5,1.5,0,0,0,.5.18c.71-1.72,1.4-3.42,2.1-5.14l2,.79A3.39,3.39,0,0,0,62.57,5M80,66.21a1,1,0,0,0,.28-.48c0-.14-.15-.22-.24-.33a.94.94,0,0,1-.18-.88l.14-.41c.18-.47.19-.47-.26-.71,0,0-.05,0-.09,0-.19.31-.38.64-.59,1s-.15.23-.39.08l-2.91-1.78c-.18-.11-.37-.35-.57-.29s-.25.35-.37.54a.37.37,0,0,0,0,.11L80,66.21" transform="translate(0 0)"/><path class="cls-4" d="M53.45,42.36c0-3,0-5.93,0-8.9A19.12,19.12,0,0,1,53.75,30a10.93,10.93,0,0,1,.46-1.7,5.73,5.73,0,0,1,3.91-3.67,12.42,12.42,0,0,1,3.37-.48,15.48,15.48,0,0,1,4.34.4,9.78,9.78,0,0,1,1.25.44,5.35,5.35,0,0,1,3.21,4.43,10,10,0,0,1,.09,1.44c0,1,0,2,0,2.94,0,.31,0,.31-.29.31H65.6c-.28,0-.28,0-.28-.28,0-.54,0-1.07,0-1.61a5.63,5.63,0,0,0-.44-2.29,3,3,0,0,0-5.37-.44,6.12,6.12,0,0,0-.79,2.24,13.55,13.55,0,0,0-.17,2.38V52.53A6.83,6.83,0,0,0,59,55.25a4,4,0,0,0,.68,1.09,3,3,0,0,0,2.41,1.06A14.43,14.43,0,0,0,65,57.11c.34-.07.34-.07.34-.43V50.06c0-1.09,0-2.17,0-3.26,0-.6.09-.52-.51-.52H62.33c-.41,0-.38,0-.38-.34V42.36c0-.32,0-.32.33-.32h7.79c.32,0,.31,0,.31.33,0,.69,0,1.38,0,2.08V60c0,.45,0,.46-.44.54a45.6,45.6,0,0,1-4.79.67,30.9,30.9,0,0,1-4.08.12,10.76,10.76,0,0,1-2.82-.49,6.18,6.18,0,0,1-4.18-4.14A11,11,0,0,1,53.53,54c-.06-.67-.08-1.35-.08-2,0-3.21,0-6.41,0-9.61" transform="translate(0 0)"/><path class="cls-4" d="M34.09,53.14V50.75c0-.31,0-.31.29-.31h4.49c.3,0,.3,0,.3.3,0,1,0,2,0,3.06a5.21,5.21,0,0,0,.35,1.87,2.55,2.55,0,0,0,2.4,1.72,4.39,4.39,0,0,0,1.25-.12,2.6,2.6,0,0,0,1.93-1.67,5.35,5.35,0,0,0,.35-1.76,12.5,12.5,0,0,0-.13-2.93,6.33,6.33,0,0,0-1.07-2.38,26.12,26.12,0,0,0-2.65-3.1c-1.22-1.26-2.5-2.46-3.67-3.77A17.17,17.17,0,0,1,35.32,38a11.41,11.41,0,0,1-1.19-4.27,13.6,13.6,0,0,1,.34-4.36,6.25,6.25,0,0,1,4.94-4.87,11.92,11.92,0,0,1,6,.09,8.13,8.13,0,0,1,2.2,1,4.49,4.49,0,0,1,2.06,3.16,11,11,0,0,1,.17,1.91v3.29c0,.35,0,.35-.33.35H45.41c-.33,0-.33,0-.33-.32,0-.81,0-1.62,0-2.43a5.33,5.33,0,0,0-.19-1.59,2.39,2.39,0,0,0-2.24-1.83,4.39,4.39,0,0,0-1.25.05,2.35,2.35,0,0,0-1.8,1.42,4,4,0,0,0-.35,1.36,9.73,9.73,0,0,0,.07,2.85,7.33,7.33,0,0,0,1.17,2.63,30.41,30.41,0,0,0,3.08,3.72c1.25,1.33,2.54,2.63,3.71,4.05a19.72,19.72,0,0,1,1.54,2.12,9.25,9.25,0,0,1,1.38,4.41A19,19,0,0,1,50.06,55a11.07,11.07,0,0,1-.59,2.19A6.21,6.21,0,0,1,44.89,61a13,13,0,0,1-4.22.27,9.87,9.87,0,0,1-2.9-.66,5.55,5.55,0,0,1-3.63-4.89c-.1-.92,0-1.83,0-2.59" transform="translate(0 0)"/><path class="cls-4" d="M18.66,42.74V24.94c0-.56-.08-.5.51-.5H32.12c.4,0,.37,0,.37.36v3.53c0,.36,0,.36-.36.36H24c-.16,0-.25,0-.23.22V39.73c0,.49-.06.43.44.43h7.28a1.92,1.92,0,0,0,.24,0c.22,0,.26.08.26.27,0,1.23,0,2.46,0,3.69,0,.27,0,.28-.28.28h-7.6c-.34,0-.34,0-.34.34V56.63c0,.11.06.16.17.15h8.15c.46,0,.42,0,.42.42v3.49c0,.32,0,.33-.31.33H19c-.33,0-.33,0-.33-.35V42.74Z" transform="translate(0 0)"/><path class="cls-5" d="M56.77,85.76a6,6,0,0,1-.54,2.11,3.38,3.38,0,0,1-.47.77,1.9,1.9,0,0,1-2.64.31,2.48,2.48,0,0,1-.86-1.14A7.8,7.8,0,0,1,51.89,86c0-.2-.08-.28-.28-.26s-.39,0-.6,0a5.52,5.52,0,0,1,.07,1.56,2.43,2.43,0,0,1-1,1.76,1.76,1.76,0,0,1-1,.34,1.29,1.29,0,0,1-1-.37c-.15-.15-.28-.31-.43-.46a1.66,1.66,0,0,0-.41.43l-.26.3a.16.16,0,0,1-.17.07c-.1,0-.09-.11-.09-.19V85.74c.15-.17.31-.09.46,0a7.26,7.26,0,0,0,.72,2.5,1.69,1.69,0,0,0,.23.36.68.68,0,0,0,.69.29.74.74,0,0,0,.56-.54,1.82,1.82,0,0,0,.06-.77A8.65,8.65,0,0,0,49,85.75a.6.6,0,0,0-.11-.26c-.38-1-.85-1.93-1.26-2.91a9.42,9.42,0,0,1-.79-2.53A2.51,2.51,0,0,1,47.41,78a1.6,1.6,0,0,1,2.31-.22c.27.2.27.2.51,0l.32-.29c.16-.11.25-.07.27.11a1.76,1.76,0,0,1,0,.23c0,1.35,0,2.7,0,4,0,.15.09.41-.16.41s-.13-.26-.14-.4a13.89,13.89,0,0,0-.54-3,2.52,2.52,0,0,0-.38-.77.69.69,0,0,0-.79-.29.71.71,0,0,0-.5.68,2.6,2.6,0,0,0,.13,1,16.19,16.19,0,0,0,1.16,2.75,16.94,16.94,0,0,1,1.32,3.21.21.21,0,0,0,.21.18c.74.08.73.07.7-.66A24.2,24.2,0,0,1,52,80.5a5.3,5.3,0,0,1,.56-1.74,2.77,2.77,0,0,1,.63-.85,1.82,1.82,0,0,1,2.81.24,4.73,4.73,0,0,1,.79,2,19,19,0,0,1,.12,3c0,.19-.09.21-.24.21H54c-.19,0-.26,0-.25.24,0,.64,0,1.28,0,1.92v2a3,3,0,0,0,.11.85.59.59,0,0,0,.7.49,1.09,1.09,0,0,0,.68-.28,2.34,2.34,0,0,0,.47-.57,5.26,5.26,0,0,0,.7-2.35.2.2,0,0,1,.34,0M55,80.51V78.44A1.83,1.83,0,0,0,55,78c-.1-.28-.23-.4-.46-.41a.55.55,0,0,0-.54.37,1.26,1.26,0,0,0-.07.54c0,1.25,0,2.5,0,3.76,0,.25-.12.59.06.75s.51,0,.77,0,.28,0,.28-.28c0-.74,0-1.48,0-2.23" transform="translate(0 0)"/><path class="cls-6" d="M35.88,85.56l.69-5.36.66-5.2c.08-.6.16-1.19.23-1.79,0-.16.08-.23.24-.23a8.42,8.42,0,0,0,.87,0c.18,0,.25.06.27.24,0,.52.13,1,.19,1.55l.69,5.6c.19,1.6.39,3.21.58,4.82a1.23,1.23,0,0,0,.08.38v.17c.11,1,.23,1.91.34,2.87,0,.2.1.31.32.28a.2.2,0,0,1,.11,0c.12,0,.21.08.22.2a.2.2,0,0,1-.22.18h-3a.48.48,0,0,0-.12,0c-.14,0-.28,0-.27-.2s.13-.2.28-.2a.86.86,0,0,0,.16,0c.14,0,.17-.06.16-.19,0-.45-.07-.91-.11-1.36s-.09-.81-.12-1.21c0-.16-.07-.23-.24-.23-.48,0-1,0-1.45,0-.17,0-.22.07-.24.23-.06.51-.14,1-.2,1.51a2.17,2.17,0,0,0,0,.51.75.75,0,0,0,.6.73.64.64,0,0,1,.18.06.16.16,0,0,1,.08.2.14.14,0,0,1-.12.13h-.16q-.83,0-1.65,0c-.11,0-.25,0-.28-.14s.08-.23.23-.26c.32-.05.47-.29.58-.57a7.75,7.75,0,0,0,.29-1.57c.05-.32.09-.65.14-1a1.34,1.34,0,0,1,0-.2m1.41-7.68c-.39,2.54-.71,5.07-1,7.62h1.2c.6,0,.6,0,.54-.61-.14-1.31-.27-2.62-.4-3.93-.1-1-.21-2-.31-3.08" transform="translate(0 0)"/><path class="cls-6" d="M61.48,85.65a6.82,6.82,0,0,1-.17,2.06,2.35,2.35,0,0,1-.55,1.06,1.8,1.8,0,0,1-1.91.52,1.33,1.33,0,0,1-.83-.67,2.72,2.72,0,0,1-.31-1.28c0-.53,0-1.07,0-1.6v-.17c0-1.14,0-2.28,0-3.42v-4c0-.36,0-.36-.33-.35h-.16a.19.19,0,0,1-.2-.1c0-.1,0-.17.09-.23l.15-.13a4.78,4.78,0,0,0,1.6-2.14,5.76,5.76,0,0,0,.57-2.06c0-.09,0-.21.13-.19s.11.09.11.18,0,.2,0,.31V77.2c0,.3,0,.3.3.31h1.3c.1,0,.19,0,.19.15s-.1.14-.19.14h-1.1c-.58,0-.5-.07-.5.5V88a1.62,1.62,0,0,0,0,.31c.08.45.4.57.76.3a1.24,1.24,0,0,0,.38-.5,3.1,3.1,0,0,0,.26-.9,14,14,0,0,0,.06-1.45c.08-.13.21-.09.33-.09" transform="translate(0 0)"/><path class="cls-5" d="M43.91,85.57a1.53,1.53,0,0,0-.2-.59c-.45-1.1-1-2.17-1.41-3.28a6.61,6.61,0,0,1-.46-1.85,2.59,2.59,0,0,1,.27-1.53,1.73,1.73,0,0,1,1.65-1,1.62,1.62,0,0,1,.94.37c.27.21.27.21.54,0a3,3,0,0,1,.32-.29c.14-.09.22,0,.24.11a1.85,1.85,0,0,1,0,.23V82c0,.11,0,.23-.15.23s-.15-.14-.15-.23a17.31,17.31,0,0,0-.25-2,8.44,8.44,0,0,0-.39-1.39,1.79,1.79,0,0,0-.36-.61.68.68,0,0,0-1.18.28,1.43,1.43,0,0,0,0,.74A8.25,8.25,0,0,0,44,80.81c.42.9.86,1.79,1.28,2.69A10.74,10.74,0,0,1,46,85.56c0,.06,0,.13.05.17a5.93,5.93,0,0,1,0,1.63,2.5,2.5,0,0,1-.78,1.46,1.78,1.78,0,0,1-1.09.48A1.38,1.38,0,0,1,43,88.86l-.33-.38a.88.88,0,0,0-.33.3l-.29.37c-.07.07-.14.17-.26.11s-.07-.15-.07-.24c0-.94,0-1.88,0-2.82,0-.16,0-.31,0-.47.16-.15.31-.09.47,0a7.57,7.57,0,0,0,.76,2.49,1.14,1.14,0,0,0,.22.32.67.67,0,0,0,1.22-.23,1.8,1.8,0,0,0,.07-.89,6.78,6.78,0,0,0-.45-1.7l-.09-.15" transform="translate(0 0)"/><path class="cls-7" d="M14.22,73c.07-.13.21-.13.33-.18.76-.31,1.52-.63,2.29-.92a.3.3,0,0,0,.23-.37c-.07-.93-.13-1.85-.19-2.78.14,0,.16.08.21.14l1.62,1.91c.22.26.22.25.52.13l2.4-1c.06,0,.11-.08.21,0l-1.1,1.76a6.2,6.2,0,0,0-.51.87l.62.76c.38.45.76.89,1.14,1.35a.58.58,0,0,1,.19.3l-2.63-.65c-.48-.12-.37-.14-.61.24-.48.75-1,1.51-1.44,2.29a.67.67,0,0,1-.09-.37c-.06-.8-.12-1.59-.17-2.39,0-.35,0-.35-.35-.43L14.3,73s-.07,0-.08,0" transform="translate(0 0)"/><path class="cls-7" d="M70.62,69.47c-.1.75-.19,1.47-.29,2.19a4.2,4.2,0,0,1-.08.62c-.06.2,0,.28.18.36l2.23,1.06a1.06,1.06,0,0,1,.37.22l-2.27.43c-.26.05-.57,0-.75.18s-.11.47-.14.71c-.11.77-.21,1.54-.31,2.32-.14-.06-.17-.18-.22-.28l-1.11-2c-.22-.4-.22-.4-.7-.31l-2.59.49c0-.14.11-.2.18-.28.58-.6,1.15-1.21,1.74-1.81a.32.32,0,0,0,.07-.46c-.46-.82-.9-1.65-1.36-2.48.13-.05.21,0,.3.08.76.36,1.53.71,2.29,1.09a.33.33,0,0,0,.47-.09c.58-.63,1.18-1.25,1.78-1.87a.3.3,0,0,1,.21-.14" transform="translate(0 0)"/><path class="cls-8" d="M76.14,23.24,79.23,22c.43-.17.87-.34,1.3-.53a.27.27,0,0,1,.41.12c.11.18.23.34.37.54l-1.26.48-4.54,1.71c-.32.12-.32.12-.51-.13-.34-.47-.34-.47,0-.92.9-1.11,1.79-2.22,2.69-3.32a1.24,1.24,0,0,0,.23-.32l0-.06s-.08,0-.12,0l-4.42,1.58-.26.09c-.17.07-.29.07-.39-.11s-.24-.35-.38-.54l4.18-5A1.4,1.4,0,0,1,77,16c.23.32.23.32,0,.61l-2.06,2.32-.89,1c0,.07-.14.12-.12.24s.25,0,.36-.07l4.21-1.5c.29-.1.29-.1.47.15.35.48.35.48,0,.92l-2.82,3.51s-.1.07-.07.11.11,0,.15,0m-2.32-3.06s0,0,0,0l0,.05,0,0,0,0" transform="translate(0 0)"/><path class="cls-8" d="M48.49,4.33c.63.27.68.79.66,1.33l0,.7a1.38,1.38,0,0,0,.3,1.1,7.66,7.66,0,0,1-1,0c-.1,0-.12-.08-.14-.16a2,2,0,0,1,0-.54c0-.37,0-.73,0-1.1,0-.6-.24-.91-.84-1s-1.33-.1-2-.16c-.16,0-.19.09-.2.22,0,.4-.05.81-.08,1.21L45.1,7.16s-.05,0-.07,0c-.25,0-.56,0-.73-.1s0-.45,0-.68c.11-1.71.23-3.43.34-5.15a.77.77,0,0,0,0-.15c0-.28.05-.29.34-.27,1,.06,2,.1,3,.23a1.79,1.79,0,0,1,.6.17,1.45,1.45,0,0,1,.9,1.58c-.06.76-.24,1-1,1.5M47.3,3.91A1.82,1.82,0,0,0,48,3.83a.79.79,0,0,0,.57-.59,1.4,1.4,0,0,0,.06-.58.87.87,0,0,0-.77-.86c-.71-.1-1.43-.11-2.15-.17-.13,0-.18,0-.19.18,0,.57-.08,1.14-.13,1.72,0,.18,0,.25.23.26l1.72.12" transform="translate(0 0)"/><path class="cls-8" d="M28.68,7.2A1.12,1.12,0,0,1,29.83,8c.12.24.26.48.39.73a1.2,1.2,0,0,0,.79.76,4.54,4.54,0,0,1-.89.47c-.1.06-.16,0-.2-.08s-.16-.24-.23-.36c-.21-.38-.41-.76-.63-1.13A.79.79,0,0,0,28,8c-.64.27-1.26.58-1.89.86-.16.08-.14.16-.08.28.3.63.6,1.25.89,1.87a2,2,0,0,1,.1.21c.06.11.07.18-.06.25-.59.35-.6.35-.89-.26L23.74,6.37l-.07-.14c-.12-.16,0-.24.12-.32.63-.28,1.25-.59,1.88-.88a6.13,6.13,0,0,1,1.27-.51A1.45,1.45,0,0,1,28.52,5a1.67,1.67,0,0,1,.27,1.89,2.12,2.12,0,0,0-.11.21V7.2m-.5-.74A1.07,1.07,0,0,0,26.62,5.4c-.6.26-1.18.55-1.77.83-.14.06-.18.12-.11.26.25.53.51,1.06.76,1.6.07.15.15.16.3.09l1.66-.8A1.52,1.52,0,0,0,28,7a.76.76,0,0,0,.22-.55" transform="translate(0 0)"/><path class="cls-8" d="M78.62,31.76l6.13-1.64.37,1.38c.17.64.37,1.26.48,1.9a1.69,1.69,0,0,1-2.1,2,1.92,1.92,0,0,1-.75-.43c-.09,0-.09,0-.1.06a1,1,0,0,1-.77.85l-.79.25a1.49,1.49,0,0,0-1.09.72,6,6,0,0,1-.28-1c0-.13.1-.17.19-.2l.89-.31c.24-.08.48-.14.71-.23a.8.8,0,0,0,.53-1c-.11-.68-.35-1.34-.5-2-.05-.19-.16-.18-.3-.14l-2.08.56c-.29.09-.37.07-.4-.21a4.69,4.69,0,0,0-.14-.53m3.54-.06c.18.66.34,1.27.5,1.87a1.89,1.89,0,0,0,.32.67.82.82,0,0,0,.6.32,1.06,1.06,0,0,0,1.23-1.39c-.15-.58-.31-1.15-.47-1.73,0-.09,0-.21-.14-.28l-2,.54" transform="translate(0 0)"/><path class="cls-8" d="M36.76,4.08A3.36,3.36,0,0,1,37,2.94a3.09,3.09,0,0,1,5.94.59,4.18,4.18,0,0,1-.2,2.27A2.8,2.8,0,0,1,40.4,7.59a3.35,3.35,0,0,1-1.41,0,2.76,2.76,0,0,1-2-2,4.35,4.35,0,0,1-.23-1.51m3.11-2.37a2.1,2.1,0,0,0-2.19,1.84,3.66,3.66,0,0,0,.06,1.51,2.1,2.1,0,0,0,2.7,1.76A1.73,1.73,0,0,0,41.8,5.76a3.49,3.49,0,0,0,0-2.71,2,2,0,0,0-2-1.34" transform="translate(0 0)"/><path class="cls-8" d="M24.32,11.4a2.86,2.86,0,0,1-.64,2.1A3.28,3.28,0,0,1,21,14.74a2.37,2.37,0,0,1-1.19-.36,4.07,4.07,0,0,1-2-3.18,2.51,2.51,0,0,1,.61-1.89A3.73,3.73,0,0,1,20.29,8.1a2.28,2.28,0,0,1,1.86.18,4,4,0,0,1,2.17,3.12M18.66,11a1,1,0,0,0,0,.25,3.55,3.55,0,0,0,1.7,2.47,1.84,1.84,0,0,0,1,.27,2.18,2.18,0,0,0,2.1-2.58A3.36,3.36,0,0,0,22,9.19a1.92,1.92,0,0,0-2.11-.12A2.14,2.14,0,0,0,18.66,11" transform="translate(0 0)"/><path class="cls-8" d="M80.12,37.72l6.29-.56a5.53,5.53,0,0,1,.14,1.12c.06.5.09,1,.12,1.52a2.33,2.33,0,0,1-1.53,2.44,4.26,4.26,0,0,1-3.25.07,2.19,2.19,0,0,1-1.5-1.85c-.13-.89-.18-1.79-.27-2.74m.8.79c.06.61.09,1.19.17,1.75a1.53,1.53,0,0,0,1.15,1.3A3.71,3.71,0,0,0,85,41.37a1.59,1.59,0,0,0,1-1.76c0-.42-.08-.83-.12-1.24s0-.28-.29-.26l-4.59.4" transform="translate(0 0)"/><path class="cls-9" d="M4.81,28.58l1.78.75c.27-.64.53-1.27.8-1.89.15-.36.31-.72.45-1.08s.17-.21.35-.14c.42.18.43.17.25.59-.34.81-.68,1.61-1,2.42a.73.73,0,0,0-.13.39l2,.82,1-2.33c.14-.31.27-.62.4-.94s.13-.25.34-.16c.46.2.47.19.27.64-.49,1.2-1,2.38-1.5,3.58-.11.26-.12.27-.35.17L3.93,29.12,3.77,29,5.07,26,5.46,25c0-.15.12-.23.28-.14a2.17,2.17,0,0,1,.5.26c-.47,1.14-1,2.28-1.43,3.43" transform="translate(0 0)"/><path class="cls-9" d="M67.66,8.78,64.83,7.09A1.16,1.16,0,0,1,64.59,7c-.13-.1-.2,0-.27.07l-.89,1.49,3,1.79a4.29,4.29,0,0,0-.26.45c-.08.17-.17.15-.31.07L63.43,9.37a1.32,1.32,0,0,1-.2-.12c-.12-.09-.2-.08-.28.06-.32.55-.66,1.09-1,1.68l3.19,1.91c.09.08.08.09.06.12-.11.18-.17.44-.34.5s-.37-.16-.54-.26l-3.14-1.87a.76.76,0,0,1-.3-.23l3.21-5.35a.29.29,0,0,1,.21.06L67.83,8c.23.14.23.14.09.38l-.26.42" transform="translate(0 0)"/><path class="cls-9" d="M10,56.35c0,.11-.1.11-.19.13l-1.83.58L4.2,58.22c-.27.08-.28.08-.36-.17-.41-1.29-.81-2.59-1.22-3.88-.07-.2,0-.28.18-.33.56-.14.44-.26.62.32.3.94.6,1.89.89,2.83.08.24,0,.33.41.2s.85-.26,1.27-.39c.26-.09.27-.1.19-.35-.28-.89-.56-1.77-.83-2.65-.15-.47-.18-.39.3-.54.25-.09.26-.08.34.18l.06.18c.27.87.55,1.74.82,2.61.08.26.09.26.35.18l1.5-.47c.31-.09.31-.1.21-.38l-.93-3a2,2,0,0,1-.07-.23c0-.05,0-.12,0-.14a3.18,3.18,0,0,1,.6-.18c.11,0,.1.12.13.21.28.89.56,1.79.85,2.68.12.4.25.8.37,1.2,0,.07,0,.15.07.24" transform="translate(0 0)"/><path class="cls-8" d="M3.46,38.4s0,0,0,0c0,.35,0,.36-.37.42a1.17,1.17,0,0,0-1,.91,2.66,2.66,0,0,0-.06,1.09,1,1,0,0,0,.81.84.77.77,0,0,0,.91-.44A11,11,0,0,0,4.24,40,7.65,7.65,0,0,1,4.58,39a1.46,1.46,0,0,1,1.47-1,1.66,1.66,0,0,1,1.68,1,3.38,3.38,0,0,1,0,2.7A2,2,0,0,1,5.81,43c-.19,0-.27-.06-.23-.25a.86.86,0,0,0,0-.16c0-.38,0-.39.41-.43a1.26,1.26,0,0,0,1.08-.79,2.4,2.4,0,0,0,.07-1.73,1,1,0,0,0-1.24-.69.77.77,0,0,0-.51.39,4.7,4.7,0,0,0-.36.87c-.15.43-.28.87-.44,1.3a1.41,1.41,0,0,1-1.34,1.07,1.8,1.8,0,0,1-1.76-1,2.92,2.92,0,0,1,.47-3A1.64,1.64,0,0,1,3.33,38c.13,0,.15.07.14.17A1.34,1.34,0,0,0,3.46,38.4Z" transform="translate(0 0)"/><path class="cls-9" d="M86.91,46.24A3,3,0,0,1,86.42,48a1.67,1.67,0,0,1-1.48.73c-.15,0-.23,0-.19-.2s0-.1,0-.16c0-.4,0-.4.43-.5a1,1,0,0,0,.76-.57,2.11,2.11,0,0,0,.16-1.56,1,1,0,0,0-.63-.65.78.78,0,0,0-1.07.44,14.35,14.35,0,0,0-.58,1.67,4,4,0,0,1-.29.72,1.43,1.43,0,0,1-1.19.79,1.71,1.71,0,0,1-2-1.21,3.42,3.42,0,0,1,0-2.38,2,2,0,0,1,1.88-1.31c.3,0,.32,0,.28.29s.06.38-.07.48-.3.06-.45.09a1.2,1.2,0,0,0-.93.71,2.37,2.37,0,0,0-.07,1.83,1,1,0,0,0,1,.67.79.79,0,0,0,.68-.4,4.26,4.26,0,0,0,.36-.82A11.39,11.39,0,0,1,83.72,45,1.34,1.34,0,0,1,85,44.16a1.86,1.86,0,0,1,1.88,1.71,2.62,2.62,0,0,1,0,.37" transform="translate(0 0)"/><path class="cls-8" d="M9,34.18a3.52,3.52,0,0,1-.52,1.87,2,2,0,0,1-2.13.9c-.17,0-.2-.1-.16-.24a.64.64,0,0,0,0-.07c.11-.47.11-.48.58-.48a1.2,1.2,0,0,0,1-.48,2.32,2.32,0,0,0,.41-1.94A.9.9,0,0,0,7.4,33a.86.86,0,0,0-1,.38,10.47,10.47,0,0,0-.7,1.27,7,7,0,0,1-.51.88,1.34,1.34,0,0,1-1.55.55,1.8,1.8,0,0,1-1.43-1.86,3,3,0,0,1,.69-2,1.69,1.69,0,0,1,1.72-.6c.12,0,.2.06.15.21a.87.87,0,0,0-.05.22c-.09.35-.09.35-.45.37a1.16,1.16,0,0,0-1.08.71A2.35,2.35,0,0,0,3,34.34a1,1,0,0,0,.53.85.8.8,0,0,0,1.11-.25,15.44,15.44,0,0,0,.79-1.44c.12-.22.23-.44.36-.64a1.51,1.51,0,0,1,1.63-.7,1.63,1.63,0,0,1,1.44,1.21,2.48,2.48,0,0,1,.11.81" transform="translate(0 0)"/><path class="cls-8" d="M7.53,60.09,5.2,61.26l-.39-.72a1.22,1.22,0,0,1,.44-.27l4.94-2.49c.27-.14.27-.13.4.11l.21.42,0,.1-.83.43c-.54.27-1.07.55-1.61.81-.16.07-.19.14-.11.29.43.84.86,1.67,1.28,2.52.09.18.18.17.33.09L12,61.47a1,1,0,0,1,.31-.12c.12.23.25.47.38.74L7.09,64.93a4.07,4.07,0,0,1-.4-.7c0-.12.16-.14.25-.19l1.85-.94c.13-.06.22-.11.13-.29C8.46,61.92,8,61,7.53,60.09" transform="translate(0 0)"/><path class="cls-6" d="M30.47,77.87a.44.44,0,0,0-.16.33c0,.9,0,1.81,0,2.71,0,.09,0,.23.11.25a.63.63,0,0,0,.45,0s0-.09,0-.15c0-.94,0-1.88,0-2.82,0-.17-.13-.18-.28-.31.56,0,1,0,1.55,0-.07.19-.26.07-.29.21a1.61,1.61,0,0,0,0,.31v6c0,.37,0,.37.3.48a4.21,4.21,0,0,1-1.52,0c.25-.09.25-.25.25-.43,0-.95,0-1.91,0-2.86,0-.1.05-.24-.08-.28a.72.72,0,0,0-.46,0c-.07,0-.06.11-.06.17,0,1,0,2.07,0,3.1,0,.17.13.18.22.28-.51,0-1,0-1.58,0,.14-.18.29-.1.39-.19V78.37c0-.36,0-.36-.31-.5a7.7,7.7,0,0,1,1.44,0" transform="translate(0 0)"/><path class="cls-8" d="M75.64,67.57a1.29,1.29,0,0,1,1.66.35,1.53,1.53,0,0,1,.22,1.76A2.31,2.31,0,0,1,76.07,71a1.47,1.47,0,0,1-1.86-1.49.75.75,0,0,0,0-.15c-.06-.06-.12,0-.17,0a1.61,1.61,0,0,1-2-.57,1.73,1.73,0,0,1-.31-1.74,2.63,2.63,0,0,1,1.79-1.67c.91-.26,2.4.73,2.09,2,0,.05,0,.1,0,.22m-2,1.14a1,1,0,0,0,.55-.14,1.52,1.52,0,0,0,.8-1.38,1.22,1.22,0,0,0-.82-1,1.07,1.07,0,0,0-1.16.25,1.91,1.91,0,0,0-.43.55,1.17,1.17,0,0,0,1.06,1.69m2.42-.57a1.27,1.27,0,0,0-1.14,1,.89.89,0,0,0,.36,1,.86.86,0,0,0,1,0,1.41,1.41,0,0,0,.64-.76.94.94,0,0,0-.85-1.21" transform="translate(0 0)"/><path class="cls-9" d="M18.26,14.53a2.61,2.61,0,0,1-.31,3.9,2.47,2.47,0,0,1-2.78.44,4.41,4.41,0,0,1-2.24-2.06A2.9,2.9,0,0,1,15,12.66a2.22,2.22,0,0,1,1.73.41c0,.12-.09.15-.14.21a.57.57,0,0,1-.83.24,1.33,1.33,0,0,0-1.41.21,2.15,2.15,0,0,0-.92,1.45,1.54,1.54,0,0,0,.09.77,3.6,3.6,0,0,0,2.39,2.25,1.73,1.73,0,0,0,1.86-.64,1.65,1.65,0,0,0,.32-1.78,1.91,1.91,0,0,0-.16-.32c-.18-.35-.18-.35.1-.63.08-.09.16-.18.25-.3" transform="translate(0 0)"/><path class="cls-8" d="M55.28,8.84a2.25,2.25,0,0,1-.78-.21c-.24-.16-.11-.5-.16-.76a8.63,8.63,0,0,1-.1-1c0-.18-.09-.25-.26-.28l-1.9-.46a.34.34,0,0,0-.45.18c-.27.43-.57.85-.84,1.28-.08.12-.15.18-.31.13s-.4-.1-.6-.15c0-.16.09-.24.16-.33,1.12-1.67,2.25-3.33,3.38-5,.2-.29.2-.29.52-.21.63.14.62.15.69.79.22,1.92.45,3.83.67,5.75a.39.39,0,0,1,0,.28M54.14,5.91c0-.55-.09-1-.15-1.48A11.54,11.54,0,0,0,53.81,3c-.56.85-1.08,1.63-1.62,2.46l2,.46" transform="translate(0 0)"/><path class="cls-8" d="M32.05,6.39c.2.67.38,1.34.57,2s.17.57-.41.73c-.25.06-.26.06-.34-.21-.37-1.29-.73-2.58-1.1-3.87-.17-.57-.32-1.13-.49-1.69-.05-.18-.05-.25.15-.31.86-.23,1.71-.49,2.56-.71a1.65,1.65,0,0,1,1.86.48,1.92,1.92,0,0,1,.3,2.1,1.59,1.59,0,0,1-1.08.89l-1.77.51-.25.08M33.39,3h-.12c-.64.1-1.26.34-1.89.5-.16,0-.1.15-.07.25.16.56.33,1.12.47,1.69,0,.18.13.2.28.16l1.58-.46a1.44,1.44,0,0,0,.51-.29.84.84,0,0,0,.32-.72,1.78,1.78,0,0,0-.16-.6A.9.9,0,0,0,33.39,3" transform="translate(0 0)"/><path class="cls-8" d="M76.08,25.93l1.8-.13,2.87-.19,1.8-.13c.21,0,.33,0,.42.24.27.62.29.61-.21,1.1l-4.18,4.09-.16.13c-.11-.22-.2-.44-.31-.65s0-.23.09-.33c.36-.34.71-.7,1.08-1a.32.32,0,0,0,.1-.46c-.28-.58-.55-1.18-.81-1.78a.32.32,0,0,0-.36-.22c-.5.06-1,.08-1.52.13a.29.29,0,0,1-.36-.21c-.06-.18-.15-.34-.25-.56M80,28.32c.73-.7,1.42-1.34,2-2.06l-2.87.24L80,28.32" transform="translate(0 0)"/><path class="cls-8" d="M71.29,19.29c-.23-.25-.49-.43-.58-.66s.17-.5.27-.75.27-.59.41-.89a.27.27,0,0,0-.06-.37c-.5-.46-1-.93-1.48-1.41a.29.29,0,0,0-.4,0c-.45.22-.9.43-1.34.66a.31.31,0,0,1-.47-.08,3,3,0,0,0-.36-.35c0-.14.16-.15.24-.19L73,12.57c.32-.15.32-.15.57.09.45.43.45.43.2,1L71.44,19l-.15.3M73,13.51a26.31,26.31,0,0,0-2.64,1.23l1.45,1.37c.41-.91.8-1.75,1.19-2.6" transform="translate(0 0)"/><path class="cls-8" d="M7.53,43.51a2.36,2.36,0,0,1,.1.78c0,.15-.1.17-.19.21l-1.33.58c-.37.16-.31.1-.29.45,0,.65.11,1.3.15,1.95,0,.18.08.24.25.28l1.47.4c.17.05.28.11.27.32s0,.38,0,.62l-1.37-.39-4.81-1.4c-.33-.1-.34-.1-.34-.41s-.16-.46,0-.64A1.78,1.78,0,0,1,2,46l5.15-2.32.36-.15m-2.25,4c-.06-.7-.11-1.31-.16-2L2.38,46.7l2.9.8" transform="translate(0 0)"/><path class="cls-8" d="M81,61.82a5.65,5.65,0,0,1-3.31-1.63,1.77,1.77,0,0,1-.45-2A1.9,1.9,0,0,1,79.38,57a6,6,0,0,1,2.92,1.25,2.19,2.19,0,0,1,.9,1.34A2,2,0,0,1,81,61.82m.42-.78a.94.94,0,0,0,1-.52,1,1,0,0,0,0-1.15,2.26,2.26,0,0,0-.65-.62,6.88,6.88,0,0,0-2-.92,2.47,2.47,0,0,0-.9-.1A1.09,1.09,0,0,0,78,59.37a1.64,1.64,0,0,0,.51.54,7.25,7.25,0,0,0,2,1,3.78,3.78,0,0,0,.87.15" transform="translate(0 0)"/><path class="cls-9" d="M80.11,52.68c-.3,1-.57,1.92-.85,2.86l-.07.22c0,.08-.06.12-.13.1a3.5,3.5,0,0,1-.49-.14c-.16-.06-.07-.17,0-.26l.69-2.37.36-1.24c0-.16.1-.2.28-.13a2.57,2.57,0,0,1,1.68,1.77c.11.43.21.86.32,1.29a3.43,3.43,0,0,0,.25.7,1.2,1.2,0,0,0,1.3.68,1.12,1.12,0,0,0,.91-1,1.07,1.07,0,0,0-.52-1.24l-.17-.1c-.13-.08-.37-.06-.38-.22a1.63,1.63,0,0,1,.16-.59c0-.11.11-.09.19-.06A1.87,1.87,0,0,1,85,55.3a3.65,3.65,0,0,1-.22.66,1.68,1.68,0,0,1-1.69,1,1.7,1.7,0,0,1-1.63-1.08,8.93,8.93,0,0,1-.48-1.7,3.69,3.69,0,0,0-.24-.78,1.6,1.6,0,0,0-.65-.77" transform="translate(0 0)"/><path class="cls-10" d="M35,80.49a8.36,8.36,0,0,0-.17-1.25,4.77,4.77,0,0,0-.34-1,.53.53,0,0,0-.34-.3c-.35-.09-.45,0-.45.34v2.91a.55.55,0,0,0,.5-.4,2,2,0,0,0,.15-.77v-.5c.12,0,.13.07.13.14V83a.12.12,0,0,1-.1.14.91.91,0,0,1,0-.4,2.44,2.44,0,0,0-.16-.88.85.85,0,0,0-.21-.32c-.07-.06-.14-.1-.22-.06s-.06.11-.06.18v3c0,.15.08.17.2.16a.75.75,0,0,0,.53-.38,3.1,3.1,0,0,0,.39-1A5.61,5.61,0,0,0,35,82.19a.29.29,0,0,1,0-.2c.11.05.09.14.09.21,0,.82,0,1.65,0,2.47,0,.2-.06.27-.27.27H32.57a.16.16,0,0,1-.14,0,.26.26,0,0,0,0-.07c.3-.07.31-.07.31-.35V78.31c0-.21,0-.44-.31-.35.06-.16.14-.13.22-.13H34.9c.17,0,.27,0,.26.24,0,.76,0,1.52,0,2.28,0,0,0,.1-.12.15" transform="translate(0 0)"/><path class="cls-11" d="M28.68,80.88c-.09-.06-.06-.16-.07-.25a10.14,10.14,0,0,0-.43-2.18,1.27,1.27,0,0,0-.18-.39.21.21,0,0,0-.21-.09c-.11,0-.08.12-.09.19v6.27a.85.85,0,0,1,0,.16c0,.16.05.22.2.21s.13,0,.17,0a4.93,4.93,0,0,1-1.76,0s0-.05,0-.06c.37,0,.37,0,.37-.4V78.33c0-.12.08-.3-.09-.34s-.26.14-.32.28A6.43,6.43,0,0,0,26,79.56a11.46,11.46,0,0,0-.18,1.31c-.14,0-.12-.09-.12-.17,0-.87,0-1.75,0-2.63,0-.19.07-.24.25-.24h2.6c.16,0,.25,0,.25.21,0,.9,0,1.8,0,2.71a.13.13,0,0,1-.07.13" transform="translate(0 0)"/><path class="cls-9" d="M6.87,23.86l-.6-.37A1.54,1.54,0,0,1,6.51,23l2.23-3.64c.22-.35.16-.3.5-.1a3.15,3.15,0,0,1,.31.2L8.47,21.27c.08.15.22.19.34.26L12.89,24c.33.2.33.2.12.54l-.24.38C11.17,24,9.59,23,8,22L6.87,23.86" transform="translate(0 0)"/><path class="cls-8" d="M11.52,70.07a.24.24,0,0,1,0,.09c-.5.42-.5.42-.88-.1C9.78,68.94,9,67.84,8.17,66.72A.79.79,0,0,1,8,66.38L8.54,66l1.23,1.69a1,1,0,0,0,.35-.21L14,64.63c.31-.22.28-.24.51.07s.3.41-.13.71l-3.78,2.74c-.39.28-.36.18-.08.57s.65.91,1,1.35" transform="translate(0 0)"/><path class="cls-9" d="M62.57,5a3.39,3.39,0,0,1-.29.68l-2-.79c-.7,1.72-1.39,3.42-2.1,5.14a1.5,1.5,0,0,1-.5-.18c-.3-.12-.3-.12-.18-.41L58.93,6c.18-.42.34-.85.52-1.27.07-.17,0-.23-.12-.29-.51-.19-1-.41-1.53-.61-.17-.07-.25-.13-.16-.33.19-.47.18-.48.64-.29l4,1.63.29.12" transform="translate(0 0)"/><path class="cls-8" d="M80,66.21,74.83,63a.37.37,0,0,1,0-.11c.12-.19.19-.48.37-.54s.39.18.57.29l2.91,1.78c.24.15.25.15.39-.08s.4-.65.59-1c0,0,.07,0,.09,0,.45.24.44.24.26.71l-.14.41a.94.94,0,0,0,.18.88c.09.11.27.19.24.33a1,1,0,0,1-.28.48" transform="translate(0 0)"/><path class="cls-12" d="M35.88,85.56c0,.07,0,.13,0,.2a1.2,1.2,0,0,0-.46,0H26.64a.62.62,0,0,1-.48-.09,1,1,0,0,1,.49-.06h9.23" transform="translate(0 0)"/><path class="cls-12" d="M57.69,85.56v.17a4,4,0,0,0-.92,0c-.11-.14-.22-.15-.34,0-.89,0-1.77,0-2.66,0v-.2l2.55,0h1.37" transform="translate(0 0)"/><path class="cls-12" d="M43.91,85.57l.09.15H42.18c-.16-.09-.31-.15-.47,0H40.38v-.17h3.53" transform="translate(0 0)"/><path class="cls-12" d="M46,85.73c-.06,0-.05-.11-.05-.17h2.65c.1,0,.22,0,.29-.08a.76.76,0,0,1,.11.26c-.6,0-1.21,0-1.81,0-.16-.08-.31-.16-.47,0H46" transform="translate(0 0)"/><path class="cls-12" d="M61.48,85.65c-.12,0-.25,0-.33.09a12.18,12.18,0,0,0-1.48,0v-.18h1.49c.11,0,.24-.06.32.08" transform="translate(0 0)"/><path class="cls-13" d="M53.77,85.75c.88,0,1.77,0,2.66,0a5.22,5.22,0,0,1-.7,2.34,2.34,2.34,0,0,1-.47.57,1.15,1.15,0,0,1-.68.28.6.6,0,0,1-.7-.48,3.12,3.12,0,0,1-.11-.86V85.75" transform="translate(0 0)"/><path class="cls-13" d="M55,80.51c0,.75,0,1.49,0,2.23,0,.28,0,.28-.28.28s-.59.11-.77,0-.06-.5-.06-.75c0-1.26,0-2.51,0-3.76a1.26,1.26,0,0,1,.07-.54.55.55,0,0,1,.54-.37c.23,0,.36.13.46.41a1.83,1.83,0,0,1,0,.47Z" transform="translate(0 0)"/><path class="cls-13" d="M47.21,85.73c.6,0,1.21,0,1.81,0a8.72,8.72,0,0,1,.45,1.81,1.86,1.86,0,0,1-.06.78.75.75,0,0,1-.56.55.72.72,0,0,1-.69-.3,1.92,1.92,0,0,1-.23-.35,7.38,7.38,0,0,1-.72-2.51" transform="translate(0 0)"/><path class="cls-14" d="M37.29,77.88c.1,1,.21,2.05.31,3.08.13,1.31.26,2.62.4,3.93.06.61.06.61-.54.61h-1.2c.32-2.55.64-5.08,1-7.62" transform="translate(0 0)"/><path class="cls-14" d="M59.67,85.74a12.18,12.18,0,0,1,1.48,0,11.64,11.64,0,0,1-.07,1.45,2.81,2.81,0,0,1-.25.9,1.31,1.31,0,0,1-.37.5c-.37.27-.69.15-.78-.3,0-.1,0-.21,0-.31V85.74" transform="translate(0 0)"/><path class="cls-13" d="M42.18,85.73H44a6.78,6.78,0,0,1,.45,1.7,1.8,1.8,0,0,1-.07.89.67.67,0,0,1-1.22.23,1.31,1.31,0,0,1-.22-.32,7.57,7.57,0,0,1-.76-2.49" transform="translate(0 0)"/><path class="cls-3" d="M76.14,23.24c0,.05-.11.08-.15,0s0-.08.06-.11l.09.08" transform="translate(0 0)"/><path class="cls-3" d="M73.82,20.18l0,0,0,0,0-.05s0,0,0,0" transform="translate(0 0)"/><path class="cls-3" d="M77.88,19.55s.09,0,.12,0,0,0,0,.06l-.07-.07" transform="translate(0 0)"/><path class="cls-15" d="M47.3,3.91l-1.72-.12c-.19,0-.25-.08-.23-.26,0-.58.09-1.15.13-1.72,0-.14.06-.18.19-.18.72.06,1.44.07,2.15.17a.87.87,0,0,1,.77.86,1.4,1.4,0,0,1-.06.58.79.79,0,0,1-.57.59,1.82,1.82,0,0,1-.66.08" transform="translate(0 0)"/><path class="cls-15" d="M28.18,6.46A.76.76,0,0,1,28,7a1.52,1.52,0,0,1-.5.37l-1.66.8c-.15.07-.23.06-.3-.09-.25-.54-.51-1.07-.76-1.6-.07-.14,0-.2.11-.26C25.44,6,26,5.66,26.62,5.4a1.07,1.07,0,0,1,1.56,1.06" transform="translate(0 0)"/><path class="cls-15" d="M82.16,31.7l2-.54c.13.07.12.19.14.28.16.58.32,1.15.47,1.73a1.06,1.06,0,0,1-1.23,1.39.82.82,0,0,1-.6-.32,1.89,1.89,0,0,1-.32-.67c-.16-.6-.32-1.21-.5-1.87" transform="translate(0 0)"/><path class="cls-16" d="M39.87,1.71a2,2,0,0,1,2,1.34,3.49,3.49,0,0,1,0,2.71,1.73,1.73,0,0,1-1.36,1.06,2.1,2.1,0,0,1-2.7-1.76,3.66,3.66,0,0,1-.06-1.51,2.1,2.1,0,0,1,2.19-1.84" transform="translate(0 0)"/><path class="cls-16" d="M18.66,11A2.14,2.14,0,0,1,19.9,9.07,1.92,1.92,0,0,1,22,9.19a3.36,3.36,0,0,1,1.43,2.17,2.18,2.18,0,0,1-2.1,2.58,1.84,1.84,0,0,1-1-.27,3.55,3.55,0,0,1-1.7-2.47,1,1,0,0,1,0-.25" transform="translate(0 0)"/><path class="cls-16" d="M80.92,38.51l4.59-.4c.27,0,.27,0,.29.26s.1.82.12,1.24a1.59,1.59,0,0,1-1,1.76,3.71,3.71,0,0,1-2.72.19,1.53,1.53,0,0,1-1.15-1.3c-.08-.56-.11-1.14-.17-1.75" transform="translate(0 0)"/><path class="cls-15" d="M73.63,68.71A1.17,1.17,0,0,1,72.57,67a1.91,1.91,0,0,1,.43-.55,1.07,1.07,0,0,1,1.16-.25,1.2,1.2,0,0,1,.82,1,1.52,1.52,0,0,1-.8,1.38,1,1,0,0,1-.55.14" transform="translate(0 0)"/><path class="cls-15" d="M76.05,68.14a.94.94,0,0,1,.85,1.21,1.41,1.41,0,0,1-.64.76.86.86,0,0,1-1,0,.89.89,0,0,1-.36-1,1.27,1.27,0,0,1,1.14-1" transform="translate(0 0)"/><path class="cls-17" d="M54.14,5.91l-2-.46c.54-.83,1.06-1.61,1.62-2.46A11.54,11.54,0,0,1,54,4.43c.06.47.1.93.15,1.48" transform="translate(0 0)"/><path class="cls-15" d="M33.39,3a.9.9,0,0,1,.92.54,1.78,1.78,0,0,1,.16.6.84.84,0,0,1-.32.72,1.44,1.44,0,0,1-.51.29l-1.58.46c-.15,0-.23,0-.28-.16-.14-.57-.31-1.13-.47-1.69,0-.1-.09-.21.07-.25.63-.16,1.25-.4,1.89-.5h.12" transform="translate(0 0)"/><path class="cls-17" d="M80,28.32,79.2,26.5l2.87-.24c-.63.72-1.32,1.36-2,2.06" transform="translate(0 0)"/><path class="cls-17" d="M73,13.51c-.39.85-.78,1.69-1.19,2.6l-1.45-1.37A26.31,26.31,0,0,1,73,13.51" transform="translate(0 0)"/><path class="cls-17" d="M5.28,47.5l-2.9-.8,2.74-1.19c0,.68.1,1.29.16,2" transform="translate(0 0)"/><path class="cls-16" d="M81.38,61a3.78,3.78,0,0,1-.87-.15,7.25,7.25,0,0,1-2-1,1.64,1.64,0,0,1-.51-.54,1.09,1.09,0,0,1,.83-1.64,2.47,2.47,0,0,1,.9.1,6.88,6.88,0,0,1,2,.92,2.26,2.26,0,0,1,.65.62,1,1,0,0,1,0,1.15.94.94,0,0,1-1,.52" transform="translate(0 0)"/></g></g></g></svg>