<svg xmlns="http://www.w3.org/2000/svg" viewBox="0 0 69.47 81.28"><defs><style>.cls-1{fill:#b8a78e;}.cls-2{fill:#8f8060;}</style></defs><g id="Layer_2" data-name="Layer 2"><g id="Layer_1-2" data-name="Layer 1"><path class="cls-1" d="M34.72,9.76h0Z"/><path class="cls-2" d="M34.75,29.84a9.78,9.78,0,0,1-9.63-9.59A10.3,10.3,0,0,1,27.88,13a9.39,9.39,0,0,1,6.75-3h.09a9.73,9.73,0,0,1,9.65,9.62,9.81,9.81,0,0,1-9.62,10.18M34.79,0A19.74,19.74,0,0,0,30,.6a19.93,19.93,0,0,0-14.68,19A20.78,20.78,0,0,0,18.18,30.4Q23.42,39.66,28.61,49l6.12,10.9L39.14,52c4.18-7.42,15.63-31.33,14.59-36.2C51.74,6.5,44,0,34.79,0"/><path class="cls-1" d="M33.42,81.28a59.19,59.19,0,0,1-21.15-3.89,24.28,24.28,0,0,1-9.46-6.12A9.28,9.28,0,0,1,3,57.8a23.67,23.67,0,0,1,7.94-5.36A48,48,0,0,1,22,49.17l.57-.1.25.53c.22.49.51,1,.74,1.38l.74,1.27-1,.24A47,47,0,0,0,12.5,55.58a20.44,20.44,0,0,0-6.82,4.47,11.8,11.8,0,0,0-.91,1.1,5.63,5.63,0,0,0,.09,7.17,16.14,16.14,0,0,0,5.58,4.39,42.84,42.84,0,0,0,13.23,4.14,68.37,68.37,0,0,0,11,.89c1.53,0,3.08,0,4.61-.15,7.41-.5,13.29-1.85,18.51-4.26a17.93,17.93,0,0,0,6.49-4.61c2.2-2.63,2.23-5.32.11-8a16.33,16.33,0,0,0-5.17-4,42.58,42.58,0,0,0-12.92-4.14l-1.17-.16.5-.95c.37-.7.74-1.36,1.06-1.89l.27-.44.51.09C53.31,50.27,60,52,65.55,56.89a10.7,10.7,0,0,1,3.85,6.69,8.47,8.47,0,0,1-1.19,5.56,16.46,16.46,0,0,1-5.79,5.62A39.73,39.73,0,0,1,50,79.63C45,80.77,33.42,81.28,33.42,81.28Z"/></g></g></svg>