<svg xmlns="http://www.w3.org/2000/svg" viewBox="0 0 75.39 88.28"><defs><style>.cls-1{fill:#8f8060;}.cls-2{fill:#d8cdbe;}.cls-3{fill:none;stroke:#8f8060;stroke-linejoin:bevel;stroke-width:0.78px;}</style></defs><g id="Layer_2" data-name="Layer 2"><g id="Layer_1-2" data-name="Layer 1"><path class="cls-1" d="M41.73,2.42,42.34,0H71.39l-.61,2.41Zm29.08,7.1H74.4V71.93H69.61l-.2-68.2H69l.2,68.2H43.77l-.2-68.2H43.1l.2,68.2H40.75V14.75h1V2.42H70.78Zm0-7.1L71.39,0l0,7.1-.61,2.41Zm3.62,7.1L75,7.11V71.93H74.4M70.81,9.52l.61-2.41H75L74.4,9.52Z"/><polygon class="cls-1" points="4.61 2.42 33.66 2.42 33.66 14.75 34.65 14.75 34.65 15.73 34.65 71.93 32.09 71.93 32.3 3.73 31.79 3.73 31.58 71.93 6.42 71.93 6.63 3.73 5.99 3.73 5.78 71.93 0.99 71.93 0.99 9.52 4.59 9.52 4.61 2.42"/><rect class="cls-2" x="11.38" y="4.23" width="5.42" height="5.86"/><rect class="cls-2" x="18.51" y="4.23" width="5.42" height="5.86"/><rect class="cls-2" x="11.38" y="15.48" width="5.42" height="5.87"/><rect class="cls-2" x="25.71" y="15.48" width="5.42" height="5.87"/><rect class="cls-2" x="7.78" y="26.75" width="5.43" height="5.86"/><rect class="cls-2" x="14.92" y="26.75" width="5.42" height="5.86"/><rect class="cls-2" x="25.6" y="26.75" width="5.42" height="5.86"/><rect class="cls-2" x="14.92" y="37.97" width="5.42" height="5.86"/><rect class="cls-2" x="25.6" y="37.97" width="5.42" height="5.86"/><rect class="cls-2" x="7.78" y="49.13" width="5.43" height="5.86"/><rect class="cls-2" x="18.51" y="49.13" width="5.42" height="5.86"/><rect class="cls-2" x="25.6" y="49.13" width="5.42" height="5.86"/><rect class="cls-2" x="7.78" y="60.19" width="5.43" height="5.86"/><rect class="cls-2" x="21.95" y="60.19" width="5.42" height="5.86"/><rect class="cls-2" x="1.99" y="65.53" width="2.8" height="2.67"/><rect class="cls-2" x="1.99" y="36.8" width="2.8" height="2.54"/><rect class="cls-2" x="1.98" y="52.63" width="2.8" height="2.86"/><rect class="cls-2" x="1.99" y="14.68" width="2.8" height="2.69"/><rect class="cls-2" x="1.99" y="40.18" width="2.8" height="2.6"/><rect class="cls-2" x="1.99" y="27.51" width="2.8" height="2.57"/><rect class="cls-2" x="1.99" y="62.21" width="2.8" height="2.47"/><rect class="cls-2" x="1.99" y="49.51" width="2.8" height="2.28"/><rect class="cls-2" x="58.72" y="4.23" width="5.42" height="5.86"/><rect class="cls-2" x="44.39" y="4.23" width="5.42" height="5.86"/><rect class="cls-2" x="58.72" y="15.48" width="5.42" height="5.87"/><rect class="cls-2" x="51.59" y="15.48" width="5.42" height="5.87"/><rect class="cls-2" x="44.39" y="15.48" width="5.42" height="5.87"/><rect class="cls-2" x="62.32" y="26.75" width="5.42" height="5.86"/><rect class="cls-2" x="44.5" y="26.75" width="5.42" height="5.86"/><rect class="cls-2" x="55.19" y="37.97" width="5.42" height="5.86"/><rect class="cls-2" x="44.5" y="37.97" width="5.42" height="5.86"/><rect class="cls-2" x="62.32" y="37.97" width="5.42" height="5.86"/><rect class="cls-2" x="55.19" y="49.13" width="5.42" height="5.86"/><rect class="cls-2" x="44.5" y="49.13" width="5.42" height="5.86"/><rect class="cls-2" x="62.32" y="60.19" width="5.42" height="5.86"/><rect class="cls-2" x="51.59" y="60.19" width="5.42" height="5.86"/><rect class="cls-2" x="70.73" y="65.53" width="2.8" height="2.67"/><rect class="cls-2" x="70.73" y="36.8" width="2.8" height="2.54"/><rect class="cls-2" x="70.73" y="52.63" width="2.8" height="2.86"/><rect class="cls-2" x="70.73" y="14.68" width="2.8" height="2.69"/><rect class="cls-2" x="70.73" y="40.18" width="2.8" height="2.6"/><rect class="cls-2" x="70.73" y="18.44" width="2.8" height="2.57"/><rect class="cls-2" x="70.73" y="62.21" width="2.8" height="2.47"/><polygon class="cls-1" points="33.66 2.42 33.06 0 4 0.01 4.61 2.42 33.66 2.42"/><polyline class="cls-1" points="0.99 9.52 0.39 7.11 0.39 71.93 0.99 71.93"/><polygon class="cls-1" points="4.59 9.52 3.98 7.11 0.39 7.11 0.99 9.52 4.59 9.52"/><polygon class="cls-1" points="4.61 2.42 4 0.01 3.98 7.11 4.59 9.52 4.61 2.42"/><rect class="cls-1" x="4.47" y="74.63" width="66.46" height="0.64"/><rect class="cls-1" x="4.47" y="77.79" width="66.46" height="0.64"/><rect class="cls-1" x="4.47" y="80.96" width="66.46" height="0.64"/><rect class="cls-1" x="4.47" y="84.13" width="66.46" height="0.64"/><rect class="cls-3" x="0.39" y="71.82" width="74.62" height="16.07"/></g></g></svg>