<svg xmlns="http://www.w3.org/2000/svg" viewBox="0 0 64.55 69.93"><defs><style>.cls-1{fill:#8f8060;}.cls-2{fill:#b8a78e;}</style></defs><g id="Layer_2" data-name="Layer 2"><g id="Layer_1-2" data-name="Layer 1"><path class="cls-1" d="M10.19,69.9H26.65c.22-5.14.44-10.21.67-15.27l.62-13c0-1.1.09-2.18.13-3.29v-.19H16.18Z"/><path class="cls-1" d="M36.24,38.11,37,54.29c.24,5.2.49,10.42.7,15.64q3.89,0,7.77,0l8.7,0-6-31.8Z"/><path class="cls-2" d="M8.32,42S10.1,31.75,10.1,31.75H54.38s1.52,8.12,1.85,10.09c.45,0,3.29,0,3.36,0V31.72h5c0-1.47,0-4.5,0-4.58H0s0,3.68,0,4.58H5s0,8.52,0,10.13c0,0,2.81,0,3.28,0Z"/><path class="cls-1" d="M44.91,20.88,40.53.28c0-.1,0-.19-.05-.27H34.41l1.06,20.88Z"/><path class="cls-1" d="M23.87,0C23,4.63,22.15,6.54,21.3,11l-1.21,6.37c-.22,1.16-.43,2.32-.64,3.5h9.41L29.93,0H26.71c-.95,0-1.9,0-2.84,0"/></g></g></svg>