<svg xmlns="http://www.w3.org/2000/svg" viewBox="0 0 86.98 53.96"><defs><style>.cls-1{fill:#8f8060;}.cls-2{fill:#b8a78e;}</style></defs><g id="Layer_2" data-name="Layer 2"><g id="Layer_1-2" data-name="Layer 1"><path class="cls-1" d="M53.19,42.08c.35-.5,4.85.94,5.75,1.38s.73,1.57.12,1.63c-1.5.16-5.53,0-5.89-.34a3.48,3.48,0,0,1,0-2.67m5.46-9a37.27,37.27,0,0,1,6.47-.29V33H63.88c-.29,0-.25,1,0,1h2.95c.25,0,.28-1,0-1H65.59v-.23a37.22,37.22,0,0,1,6.47.29c1.58.37,3,4.12,2.76,4.33a41,41,0,0,1-9.47,1,40.94,40.94,0,0,1-9.46-1c-.29-.21,1.18-4,2.76-4.33m18.87,9a3.48,3.48,0,0,1,0,2.67c-.36.38-4.4.5-5.89.34-.61-.06-.78-1.19.12-1.63s5.39-1.88,5.75-1.38m-.17,6.82a3.48,3.48,0,0,1-1.61,0c-.11-.12-.25-.86,0-1.09s1.69-.47,1.81-.22.13,1.15-.2,1.31M62.52,44.48h5.67c1,0-.9,1.13-2.84,1.13s-3.8-1.13-2.83-1.13M74,49c-.36.39-4.88,1.36-8.65,1.42s-8.28-1-8.64-1.42-.21-.48,0-.58,6,.46,8.64.46,8.43-.58,8.65-.46.35.17,0,.58M55,48.9a3.47,3.47,0,0,1-1.61,0c-.33-.16-.3-1-.2-1.31s1.56,0,1.81.22.11,1,0,1.09m-3.2,3.75h4.44v-1.5s5.95.55,9.14.55,9.15-.55,9.15-.55v1.5h4.44s.65-10.07.29-10.8-2.35-3.22-3-4.09a.49.49,0,0,1,.14-.19c.18-.11,2.6.29,2.88,0A1.63,1.63,0,0,0,79,36a6.73,6.73,0,0,0-2.78-.23c-.17.16-.14,1.38-.27,1.36h-.07c-1.11-3.91-2.71-5.46-4.48-5.46h-12c-1.77,0-3.37,1.55-4.48,5.46h-.07c-.13,0-.1-1.2-.27-1.36a6.73,6.73,0,0,0-2.78.23,1.63,1.63,0,0,0-.23,1.6c.28.29,2.7-.11,2.88,0a.62.62,0,0,1,.14.19c-.69.87-2.74,3.49-3,4.09s.29,10.8.29,10.8"/><path class="cls-2" d="M55.4,44.82a7,7,0,0,1-1.79-.59,2.12,2.12,0,0,1-.43-1s-.12,1,.17,1.27a7.11,7.11,0,0,0,2,.34"/><path class="cls-2" d="M59.17,44.73a1,1,0,0,0-.18-.95A9.55,9.55,0,0,0,56.87,43c2.3.85,2.3,1.76,2.3,1.76"/><path class="cls-2" d="M53.32,47.88s-.12.61.09.78a3.64,3.64,0,0,0,1.23.12,4.91,4.91,0,0,1-1.06-.35,1,1,0,0,1-.26-.55"/><path class="cls-2" d="M57.25,49.12a55.34,55.34,0,0,0,8.1,1.1,55.6,55.6,0,0,0,8.11-1.1s-5.91.75-8.11.75-8.1-.75-8.1-.75"/><path class="cls-2" d="M77.53,43.2a2.15,2.15,0,0,1-.43,1,7.17,7.17,0,0,1-1.8.59,7.22,7.22,0,0,0,2.06-.34c.29-.25.17-1.28.17-1.28"/><path class="cls-2" d="M71.54,44.73s0-.91,2.29-1.76a9.32,9.32,0,0,0-2.11.81,1,1,0,0,0-.18.95"/><path class="cls-2" d="M68,44.73a11.13,11.13,0,0,1-5.38,0,5.57,5.57,0,0,0,2.69.66A5.48,5.48,0,0,0,68,44.73"/><path class="cls-2" d="M77.13,48.43a5,5,0,0,1-1,.35,3.52,3.52,0,0,0,1.21-.12c.22-.17.1-.78.1-.78a1,1,0,0,1-.26.55"/><rect class="cls-2" y="52.59" width="86.98" height="1.37"/><rect class="cls-2" x="3" y="49.58" width="2.96" height="3.62"/><rect class="cls-2" x="37.3" y="49.58" width="2.97" height="3.62"/><rect class="cls-2" x="46.92" y="49.58" width="2.97" height="3.62"/><rect class="cls-2" x="81.22" y="49.58" width="2.97" height="3.62"/><path class="cls-2" d="M9.5,45.39a3.41,3.41,0,0,0,1,.34,2.57,2.57,0,0,1-.81-.55,4.58,4.58,0,0,1-.32-1.11,5.07,5.07,0,0,0,.12,1.32"/><path class="cls-2" d="M12.3,43.12a5,5,0,0,1,0,1c.07-.19.29-1.23.29-1.23-.33-.05-1.07-.22-1.07-.22s.72.25.8.46"/><path class="cls-2" d="M14,45.36a2.54,2.54,0,0,0,1-.11c.3-.16.86-1.64.86-1.64A11.06,11.06,0,0,1,15,44.9a2.78,2.78,0,0,1-1,.46"/><path class="cls-1" d="M35.57,42.18a11.93,11.93,0,0,1,0,3.43c-.14.21-2.15.67-2.47.34a18.74,18.74,0,0,1-1.05-3.21c2-.3,3.34-.94,3.52-.56M32,45.48a5,5,0,0,1-2.32,0c-.36-.19-1.33-2.44-1.11-2.44,1.19,0,2.68-.18,2.68-.18s1,2.43.75,2.62m-9.56-7.61c-3.5,0-10.39-.37-10.28-.59s3.22-4.43,3.54-4.43h6.5v.23H21c-.29,0-.26,1,0,1H23.9c.25,0,.29-1,0-1H22.66v-.23h6.51c.32,0,3.43,4.22,3.54,4.43s-6.78.59-10.28.59m0,9.46c-1.18,0-4.41,0-4.63-.29l0,0h9.29l0,0c-.21.26-3.45.29-4.62.29m3.76,1.57a21.86,21.86,0,0,1-3.76.29,21.9,21.9,0,0,1-3.77-.29c-.43-.15-.68-1.39-.57-1.31a35.52,35.52,0,0,0,4.34.25,35.84,35.84,0,0,0,4.34-.25c.11-.08-.14,1.16-.58,1.31m-8.75-2.65h10a2.47,2.47,0,0,1-.19.5H17.62a3.25,3.25,0,0,1-.18-.5m.09-3.39c.07-.16.16-.26.27-.26h9.25c.11,0,.21.1.28.26h-9.8Zm-.23,2.6h4.42a1.24,1.24,0,0,1-.25-.26H17.28a4.35,4.35,0,0,1,0-.51h4s0-.1,0-.13,0-.1,0-.14h-4c0-.18,0-.34,0-.5h4.18a1.35,1.35,0,0,1,.25-.28h-4.4a2.88,2.88,0,0,1,.11-.5h10c0,.14.07.31.11.5h-4.4a1.31,1.31,0,0,1,.24.28h4.18a4,4,0,0,1,0,.5h-4s0,.09,0,.14,0,.08,0,.13h4c0,.17,0,.34,0,.51h-4.2a1.2,1.2,0,0,1-.24.26h4.41a4.63,4.63,0,0,1-.07.52H17.38c0-.17-.06-.35-.08-.52m-2.11,0a5.08,5.08,0,0,1-2.33,0c-.21-.19.76-2.62.76-2.62A26.58,26.58,0,0,0,16.3,43c.22,0-.75,2.25-1.11,2.44M11.75,46c-.31.33-2.32-.13-2.47-.34a12.69,12.69,0,0,1,0-3.43c.18-.38,1.54.26,3.53.56A18.89,18.89,0,0,1,11.75,46M34.08,35.08c-.17.19-.15,1.67-.27,1.64a.45.45,0,0,0-.24.07c-1-1.3-2.69-3.65-3.15-4.23-.61-.77-3.45-.84-8-.84s-7.38.07-8,.84c-.46.58-2.2,2.93-3.15,4.23a.48.48,0,0,0-.25-.07c-.12,0-.09-1.45-.27-1.64A5.4,5.4,0,0,0,8,35.35a2.35,2.35,0,0,0-.23,1.95c.28.35,2.7-.14,2.88,0a.52.52,0,0,1,.12.19l-.09.12c-.32.44-2.29,2.84-2.4,3.6s.22,11.44.22,11.44H13V51.19s4.54.15,4.83,0a5.2,5.2,0,0,0,.79-.62h7.67a5.8,5.8,0,0,0,.79.62c.29.15,4.83,0,4.83,0v1.46h4.48s.32-10.66.21-11.44-2.07-3.16-2.39-3.6a.76.76,0,0,1-.1-.12.51.51,0,0,1,.13-.19c.18-.14,2.6.35,2.87,0a2.31,2.31,0,0,0-.22-1.95,5.43,5.43,0,0,0-2.78-.27"/><path class="cls-2" d="M35.48,44.07a5.1,5.1,0,0,1-.32,1.11,2.69,2.69,0,0,1-.82.55,3.45,3.45,0,0,0,1-.34,5.07,5.07,0,0,0,.12-1.32"/><path class="cls-2" d="M32.58,44.11a3.88,3.88,0,0,1,0-1c.06-.22.69-.33.78-.46s-.74.17-1.07.22c0,0,.23,1,.3,1.23"/><path class="cls-2" d="M28.94,43.61s.56,1.48.86,1.64a2.5,2.5,0,0,0,1,.11,2.86,2.86,0,0,1-1-.46,12,12,0,0,1-.89-1.29"/><path class="cls-2" d="M23.35,44.55a.92.92,0,1,0-.92.93.92.92,0,0,0,.92-.93"/><path class="cls-1" d="M53.19,10.44c.35-.5,4.85.93,5.75,1.37s.73,1.59.12,1.65c-1.5.15-5.53,0-5.89-.35a3.48,3.48,0,0,1,0-2.67m5.46-9a37.27,37.27,0,0,1,6.47-.29v.23H63.88c-.29,0-.25,1,0,1h2.95c.25,0,.28-1,0-1H65.59V1.1a37.22,37.22,0,0,1,6.47.29c1.58.36,3,4.12,2.76,4.34a41.85,41.85,0,0,1-9.47,1,41.82,41.82,0,0,1-9.46-1c-.29-.22,1.18-4,2.76-4.34m18.87,9a3.48,3.48,0,0,1,0,2.67c-.36.37-4.4.5-5.89.35-.61-.06-.78-1.2.12-1.65s5.39-1.87,5.75-1.37m-.17,6.81a3.35,3.35,0,0,1-1.61,0c-.11-.11-.25-.84,0-1.08s1.69-.47,1.81-.21.13,1.14-.2,1.29M62.52,12.84h5.67c1,0-.9,1.13-2.84,1.13s-3.8-1.13-2.83-1.13M74,17.4c-.36.4-4.88,1.37-8.65,1.42s-8.28-1-8.64-1.42-.21-.48,0-.58,6,.47,8.64.47,8.43-.59,8.65-.47.35.17,0,.58m-19-.15a3.34,3.34,0,0,1-1.61,0c-.33-.15-.3-1-.2-1.29s1.56,0,1.81.21.11,1,0,1.08M51.77,21h4.44V19.51s5.95.55,9.14.55,9.15-.55,9.15-.55V21h4.44s.65-10.06.29-10.79-2.35-3.22-3-4.09a.43.43,0,0,1,.14-.19c.18-.11,2.6.29,2.88,0A1.63,1.63,0,0,0,79,4.33,6.73,6.73,0,0,0,76.2,4.1c-.17.16-.14,1.38-.27,1.36h-.07C74.75,1.55,73.15,0,71.38,0h-12C57.56,0,56,1.55,54.85,5.46h-.07c-.13,0-.1-1.2-.27-1.36a6.73,6.73,0,0,0-2.78.23,1.63,1.63,0,0,0-.23,1.6c.28.29,2.7-.11,2.88,0a.52.52,0,0,1,.14.19c-.69.87-2.74,3.49-3,4.09S51.77,21,51.77,21"/><path class="cls-2" d="M55.4,13.18a6.62,6.62,0,0,1-1.79-.59,2.18,2.18,0,0,1-.43-1s-.12,1,.17,1.28a6.78,6.78,0,0,0,2,.34"/><path class="cls-2" d="M59.17,13.09a1,1,0,0,0-.18-.94,9.65,9.65,0,0,0-2.12-.82c2.3.85,2.3,1.76,2.3,1.76"/><path class="cls-2" d="M53.32,16.25s-.12.59.09.76a3.45,3.45,0,0,0,1.23.13,4.91,4.91,0,0,1-1.06-.35,1,1,0,0,1-.26-.54"/><path class="cls-2" d="M57.25,17.49a56.34,56.34,0,0,0,8.1,1.09,56.59,56.59,0,0,0,8.11-1.09s-5.91.75-8.11.75-8.1-.75-8.1-.75"/><path class="cls-2" d="M77.53,11.56a2.18,2.18,0,0,1-.43,1,7.17,7.17,0,0,1-1.8.59,7.22,7.22,0,0,0,2.06-.34c.29-.25.17-1.28.17-1.28"/><path class="cls-2" d="M71.54,13.09s0-.91,2.29-1.76a9.42,9.42,0,0,0-2.11.82,1,1,0,0,0-.18.94"/><path class="cls-2" d="M68,13.09a11.13,11.13,0,0,1-5.38,0,5.57,5.57,0,0,0,2.69.66A5.48,5.48,0,0,0,68,13.09"/><path class="cls-2" d="M77.13,16.79a5,5,0,0,1-1,.35A3.33,3.33,0,0,0,77.29,17c.22-.17.1-.76.1-.76a1,1,0,0,1-.26.54"/><rect class="cls-2" y="20.95" width="86.98" height="1.37"/><rect class="cls-2" x="3" y="17.94" width="2.96" height="3.62"/><rect class="cls-2" x="37.3" y="17.94" width="2.97" height="3.62"/><rect class="cls-2" x="46.92" y="17.94" width="2.97" height="3.62"/><rect class="cls-2" x="81.22" y="17.94" width="2.97" height="3.62"/><path class="cls-2" d="M9.5,13.75a3.72,3.72,0,0,0,1,.34,2.67,2.67,0,0,1-.81-.54,4.75,4.75,0,0,1-.32-1.12,5.07,5.07,0,0,0,.12,1.32"/><path class="cls-2" d="M12.3,11.48a5.05,5.05,0,0,1,0,1c.07-.2.29-1.24.29-1.24-.33-.05-1.07-.22-1.07-.22s.72.25.8.46"/><path class="cls-2" d="M14,13.72a2.49,2.49,0,0,0,1-.1A6.29,6.29,0,0,0,15.92,12a9.57,9.57,0,0,1-.9,1.29,2.52,2.52,0,0,1-1,.47"/><path class="cls-1" d="M35.57,10.54a11.93,11.93,0,0,1,0,3.43c-.14.21-2.15.66-2.47.34a18.74,18.74,0,0,1-1.05-3.21c2-.31,3.34-.94,3.52-.56M32,13.84a5,5,0,0,1-2.32,0c-.36-.19-1.33-2.44-1.11-2.44,1.19,0,2.68-.18,2.68-.18s1,2.43.75,2.62M22.43,6.23c-3.5,0-10.39-.37-10.28-.58S15.37,1.2,15.69,1.2h6.5v.24H21c-.29,0-.26,1,0,1H23.9c.25,0,.29-1,0-1H22.66V1.2h6.51c.32,0,3.43,4.22,3.54,4.45s-6.78.58-10.28.58m0,9.46c-1.18,0-4.41,0-4.63-.29l0,0h9.29s0,0,0,0c-.21.26-3.45.29-4.62.29m3.76,1.56a21.65,21.65,0,0,1-3.76.3,21.69,21.69,0,0,1-3.77-.3c-.43-.14-.68-1.38-.57-1.3a37.82,37.82,0,0,0,4.34.25A38.18,38.18,0,0,0,26.77,16c.11-.08-.14,1.16-.58,1.3M17.44,14.6h10a2.35,2.35,0,0,1-.19.51H17.62a3,3,0,0,1-.18-.51m.09-3.38c.07-.17.16-.26.27-.26h9.25c.11,0,.21.09.28.26h-9.8Zm-.23,2.6h4.42a1.09,1.09,0,0,1-.25-.27H17.28a4.18,4.18,0,0,1,0-.5h4s0-.09,0-.14,0-.08,0-.13h-4c0-.17,0-.35,0-.51h4.18a1.29,1.29,0,0,1,.25-.27h-4.4a3.24,3.24,0,0,1,.11-.51h10c0,.15.07.32.11.51h-4.4a1.25,1.25,0,0,1,.24.27h4.18a4.24,4.24,0,0,1,0,.51h-4c0,.05,0,.08,0,.13s0,.1,0,.14h4c0,.16,0,.34,0,.5h-4.2a1.05,1.05,0,0,1-.24.27h4.41a3.92,3.92,0,0,1-.07.51H17.38c0-.16-.06-.33-.08-.51m-2.11,0a5.08,5.08,0,0,1-2.33,0c-.21-.19.76-2.62.76-2.62a26.58,26.58,0,0,0,2.68.18c.22,0-.75,2.25-1.11,2.44m-3.44.47c-.31.32-2.32-.13-2.47-.34a12.69,12.69,0,0,1,0-3.43c.18-.38,1.54.25,3.53.56a18.89,18.89,0,0,1-1.06,3.21M34.08,3.44c-.17.19-.15,1.67-.27,1.64a.45.45,0,0,0-.24.07c-1-1.3-2.69-3.66-3.15-4.23-.61-.77-3.45-.84-8-.84s-7.38.07-8,.84c-.46.57-2.2,2.93-3.15,4.23A.48.48,0,0,0,11,5.08c-.12,0-.09-1.45-.27-1.64A5.4,5.4,0,0,0,8,3.71a2.33,2.33,0,0,0-.23,1.94c.28.36,2.7-.14,2.88,0a.49.49,0,0,1,.12.2L10.68,6c-.32.44-2.29,2.84-2.4,3.61S8.5,21,8.5,21H13V19.55s4.54.15,4.83,0a5.2,5.2,0,0,0,.79-.62h7.67a5.8,5.8,0,0,0,.79.62c.29.15,4.83,0,4.83,0V21h4.48s.32-10.65.21-11.42S34.5,6.41,34.18,6l-.1-.12a.49.49,0,0,1,.13-.2c.18-.14,2.6.36,2.87,0a2.29,2.29,0,0,0-.22-1.94,5.43,5.43,0,0,0-2.78-.27"/><path class="cls-2" d="M35.48,12.43a5.48,5.48,0,0,1-.32,1.12,2.81,2.81,0,0,1-.82.54,3.77,3.77,0,0,0,1-.34,5.07,5.07,0,0,0,.12-1.32"/><path class="cls-2" d="M32.58,12.48a4,4,0,0,1,0-1c.06-.21.69-.32.78-.46s-.74.17-1.07.22c0,0,.23,1,.3,1.24"/><path class="cls-2" d="M28.94,12a6.29,6.29,0,0,0,.86,1.66,2.44,2.44,0,0,0,1,.1,2.59,2.59,0,0,1-1-.47A10.28,10.28,0,0,1,28.94,12"/><path class="cls-2" d="M23.35,12.91a.92.92,0,1,0-.92.93.93.93,0,0,0,.92-.93"/></g></g></svg>